M48
; DRILL file {KiCad (5.1.4)-1} date 11/5/2019 5:52:47 PM
; FORMAT={-:-/ absolute / inch / decimal}
; #@! TF.CreationDate,2019-11-05T17:52:47+05:30
; #@! TF.GenerationSoftware,Kicad,Pcbnew,(5.1.4)-1
; #@! TF.FileFunction,Plated,1,4,PTH
FMAT,2
INCH
T1C0.0098
T2C0.0118
T3C0.0236
T4C0.0335
T5C0.0354
T6C0.0394
T7C0.0591
T8C0.0669
%
G90
G05
T1
X3.1276Y-3.0
X3.1323Y-3.1339
X3.1339Y-3.2024
X3.1565Y-3.3417
X3.1606Y-3.937
X3.1701Y-2.978
X3.1965Y-3.3467
X3.2094Y-2.9291
X3.215Y-3.1843
X3.2173Y-2.7906
X3.2189Y-2.8362
X3.2197Y-2.8843
X3.2213Y-3.1346
X3.2268Y-2.9709
X3.2315Y-2.7449
X3.2365Y-3.3217
X3.2543Y-3.0142
X3.2543Y-3.2276
X3.263Y-3.2701
X3.2669Y-2.7071
X3.3071Y-2.6811
X3.3071Y-3.274
X3.3173Y-3.2283
X3.3189Y-3.3213
X3.3276Y-3.0126
X3.345Y-2.675
X3.3528Y-2.9717
X3.3606Y-2.837
X3.3638Y-2.8843
X3.3709Y-2.9283
X3.3715Y-3.3417
X3.3748Y-3.5661
X3.3795Y-2.789
X3.39Y-2.675
X3.4102Y-3.8937
X3.4165Y-4.3472
X3.426Y-2.9913
X3.4265Y-3.3417
X3.435Y-2.675
X3.44Y-2.775
X3.4433Y-3.1276
X3.4565Y-3.3067
X3.4615Y-3.2267
X3.4665Y-3.2667
X3.4748Y-3.0386
X3.4772Y-3.0874
X3.48Y-2.675
X3.485Y-2.775
X3.5031Y-3.1268
X3.5087Y-3.2008
X3.525Y-2.675
X3.53Y-2.775
X3.5346Y-4.1378
X3.5369Y-4.0875
X3.5433Y-4.2362
X3.5638Y-3.2
X3.5654Y-3.1252
X3.5677Y-4.037
X3.575Y-2.675
X3.5787Y-3.4717
X3.58Y-2.775
X3.5906Y-3.9882
X3.6157Y-3.2614
X3.6173Y-3.2228
X3.62Y-2.675
X3.625Y-2.775
X3.6425Y-3.4969
X3.6425Y-3.5496
X3.6441Y-3.6079
X3.655Y-2.665
X3.6724Y-2.7748
X3.6795Y-3.6543
X3.68Y-2.64
X3.7039Y-2.7575
X3.725Y-2.73
X3.7299Y-3.7047
X3.7394Y-3.4976
X3.7417Y-3.5504
X3.755Y-2.7
X3.7661Y-3.6055
X3.77Y-2.635
X3.77Y-2.67
X3.7732Y-3.3181
X3.7795Y-3.7567
X3.7811Y-3.0598
X3.7953Y-3.3449
X3.8102Y-3.6535
X3.8205Y-3.0197
X3.8323Y-3.2654
X3.8339Y-3.8134
X3.8512Y-3.3276
X3.8575Y-3.7
X3.8614Y-2.9764
X3.863Y-3.6315
X3.8654Y-3.0409
X3.8906Y-3.8394
X3.9008Y-3.4276
X3.9024Y-2.937
X3.9024Y-3.7457
X3.9079Y-3.3819
X3.9173Y-3.1142
X3.9189Y-3.0409
X3.9205Y-3.6307
X3.9409Y-4.1921
X3.9496Y-2.9031
X3.9543Y-3.8394
X3.963Y-3.748
X3.9756Y-3.0417
X3.9756Y-3.6291
X3.9969Y-2.9598
X3.9969Y-3.0079
X4.0Y-3.5528
X4.0031Y-3.389
X4.0031Y-3.5937
X4.0055Y-3.8457
X4.0079Y-2.9055
X4.0102Y-4.1921
X4.0126Y-3.7386
X4.0189Y-3.8882
X4.0228Y-3.6929
X4.0559Y-2.9417
X4.0598Y-2.911
X4.063Y-3.1661
X4.0638Y-3.552
X4.0709Y-3.9134
X4.0724Y-3.6843
X4.074Y-3.348
X4.0748Y-3.3882
X4.122Y-2.9118
X4.1244Y-3.5528
X4.1323Y-3.9134
X4.137Y-3.6843
X4.1402Y-2.7268
X4.1559Y-2.9433
X4.1795Y-2.911
X4.1803Y-3.8882
X4.1819Y-2.7268
X4.1827Y-3.715
X4.1874Y-3.552
X4.1874Y-3.8465
X4.189Y-3.7638
X4.215Y-2.7441
X4.2157Y-2.7764
X4.2165Y-3.3866
X4.2205Y-2.9591
X4.2228Y-3.0071
X4.2228Y-3.3165
X4.2346Y-2.8047
X4.2346Y-2.9165
X4.2433Y-3.7654
X4.2441Y-3.8457
X4.2449Y-3.5528
X4.248Y-3.5906
X4.2669Y-3.0189
X4.2685Y-3.6283
X4.2819Y-2.8047
X4.2882Y-3.8646
X4.2976Y-3.7283
X4.3024Y-2.915
X4.3228Y-3.6315
X4.3291Y-2.8047
X4.3299Y-3.8913
X4.3315Y-3.0189
X4.3417Y-3.6976
X4.3638Y-2.9157
X4.3748Y-2.8047
X4.3858Y-3.6315
X4.3929Y-3.0181
X4.3929Y-3.8929
X4.4008Y-3.6984
X4.4236Y-2.8047
X4.4236Y-2.9142
X4.4291Y-3.4362
X4.4323Y-3.8724
X4.4386Y-3.7276
X4.448Y-3.6331
X4.4543Y-3.0181
X4.4709Y-3.8567
X4.4732Y-2.8047
X4.4882Y-2.9134
X4.4913Y-3.5937
X4.4937Y-3.7646
X4.4992Y-3.0079
X4.5008Y-2.9598
X4.5008Y-3.552
X4.5039Y-2.752
X4.5047Y-2.7882
X4.526Y-2.7213
X4.526Y-3.8386
X4.5488Y-3.7654
X4.555Y-4.4
X4.555Y-4.45
X4.5559Y-2.9134
X4.5685Y-2.9402
X4.5693Y-2.7213
X4.5693Y-3.552
X4.5709Y-3.3717
X4.5795Y-3.7268
X4.5811Y-3.8559
X4.5874Y-3.9008
X4.6142Y-2.7213
X4.6142Y-3.6819
X4.615Y-2.9126
X4.62Y-4.345
X4.62Y-4.505
X4.6339Y-3.3661
X4.637Y-3.552
X4.6488Y-3.9189
X4.6512Y-3.4346
X4.6567Y-2.7213
X4.6591Y-2.9417
X4.665Y-4.505
X4.6661Y-3.6827
X4.6693Y-2.9126
X4.67Y-4.345
X4.7Y-3.552
X4.7055Y-2.7213
X4.7079Y-3.374
X4.7118Y-3.9173
X4.7244Y-3.6827
X4.726Y-2.9024
X4.7291Y-2.7512
X4.7291Y-2.7882
X4.7315Y-2.9583
X4.7323Y-3.0079
X4.7323Y-3.4362
X4.7409Y-3.5756
X4.7543Y-3.8433
X4.7543Y-3.8882
X4.7551Y-3.626
X4.7575Y-3.726
X4.7622Y-2.8165
X4.7677Y-3.0354
X4.7835Y-3.7622
X4.7906Y-2.9047
X4.7976Y-3.3732
X4.8024Y-3.8346
X4.805Y-4.38
X4.805Y-4.475
X4.8102Y-3.4378
X4.811Y-3.6307
X4.8134Y-2.8165
X4.8276Y-3.1858
X4.8315Y-2.9441
X4.8354Y-3.037
X4.8362Y-3.7425
X4.84Y-4.355
X4.8591Y-2.8425
X4.86Y-4.475
X4.8709Y-3.6307
X4.8717Y-3.8331
X4.8724Y-3.2449
X4.88Y-4.315
X4.8811Y-2.9937
X4.8811Y-3.7
X4.8976Y-2.8811
X4.905Y-4.435
X4.92Y-4.275
X4.9228Y-3.6591
X4.9268Y-3.7811
X4.9386Y-3.0528
X4.94Y-4.395
X4.9465Y-2.9291
X4.952Y-3.2402
X4.9528Y-3.2866
X4.9535Y-3.3323
X4.9598Y-3.6181
X4.97Y-4.27
X4.9717Y-3.7354
X4.975Y-4.365
X4.9787Y-3.0992
X4.9819Y-3.5661
X4.9827Y-3.4638
X4.9827Y-3.5126
X4.9937Y-2.9748
X5.015Y-4.255
X5.015Y-4.39
X5.0173Y-3.3323
X5.0181Y-3.2402
X5.0181Y-3.2858
X5.0197Y-3.685
X5.0457Y-3.0268
X5.0638Y-3.085
X5.065Y-4.39
X5.0669Y-3.4638
X5.0669Y-3.5126
X5.0677Y-3.5661
X5.0701Y-3.622
X5.075Y-4.255
X5.0819Y-3.2402
X5.0819Y-3.2858
X5.0819Y-3.3323
X5.12Y-4.39
X5.13Y-4.25
X5.1504Y-3.3606
X5.1512Y-3.4441
X5.165Y-4.375
X5.18Y-3.87
X5.18Y-4.27
X5.185Y-3.83
X5.185Y-3.915
X5.185Y-3.965
X5.185Y-4.015
X5.185Y-4.07
X5.185Y-4.18
X5.185Y-4.225
X5.2Y-4.38
X5.2031Y-3.3606
X5.2047Y-3.4441
X5.23Y-3.805
X5.24Y-4.39
X5.2433Y-3.3268
X5.2449Y-3.4772
X5.28Y-3.805
X5.295Y-3.945
X5.295Y-4.075
X5.295Y-4.385
X5.2992Y-3.3606
X5.3Y-3.4441
X5.315Y-4.23
X5.33Y-3.805
X5.3378Y-3.1929
X5.3378Y-3.5457
X5.3386Y-3.1496
X5.34Y-4.265
X5.34Y-4.375
X5.3425Y-3.5929
X5.3433Y-3.2409
X5.3433Y-3.4921
X5.348Y-3.3504
X5.3583Y-3.4417
X5.3709Y-3.2772
X5.374Y-3.1157
X5.375Y-4.235
X5.3827Y-3.6339
X5.385Y-3.815
X5.385Y-4.37
X5.39Y-3.86
X5.39Y-3.91
X5.39Y-3.96
X5.39Y-4.015
X5.39Y-4.065
X5.39Y-4.11
X5.3976Y-3.4748
X5.3984Y-3.3126
X5.4Y-3.7675
X5.4071Y-3.6717
X5.4075Y-3.72
X5.41Y-4.2
X5.415Y-4.15
X5.4157Y-3.4134
X5.4205Y-2.6748
X5.43Y-4.33
X5.4378Y-3.115
X5.4425Y-2.6968
X5.4488Y-3.4772
X5.4543Y-3.378
X5.47Y-4.29
X5.4898Y-3.1157
X5.4976Y-3.3346
X5.4992Y-3.4764
X5.51Y-4.25
X5.5173Y-3.2937
X5.52Y-4.2
X5.525Y-4.15
X5.5252Y-3.6701
X5.5275Y-3.8975
X5.5275Y-3.935
X5.5275Y-3.965
X5.53Y-3.72
X5.535Y-3.755
X5.535Y-4.0275
X5.535Y-4.07
X5.535Y-4.11
X5.5375Y-3.8025
X5.54Y-3.8475
X5.5425Y-3.1165
X5.55Y-3.9975
X5.552Y-3.4772
X5.5575Y-3.6386
X5.565Y-3.935
X5.565Y-3.965
X5.5675Y-4.15
X5.5677Y-3.2732
X5.575Y-4.0275
X5.575Y-4.07
X5.575Y-4.11
X5.5772Y-3.1346
X5.5819Y-3.1803
X5.5843Y-3.6008
X5.585Y-3.2244
X5.59Y-3.9975
X5.5945Y-3.5496
X5.5961Y-3.4976
X5.605Y-3.935
X5.605Y-3.965
X5.61Y-4.0275
X5.61Y-4.07
X5.61Y-4.11
X5.61Y-4.15
T2
X4.3685Y-3.7565
X4.3685Y-3.8435
T4
X3.4747Y-4.4362
X3.6716Y-4.4362
T5
X4.2591Y-4.0236
T6
X3.7102Y-3.9843
X3.7102Y-4.0843
X5.163Y-2.7787
X5.163Y-2.8787
X5.163Y-2.9787
X5.263Y-2.7787
X5.263Y-2.8787
X5.263Y-2.9787
X5.0625Y-3.91
X5.0625Y-4.01
X3.422Y-2.4823
X3.422Y-2.5823
X3.522Y-2.4823
X3.522Y-2.5823
X3.622Y-2.4823
X3.622Y-2.5823
X3.722Y-2.4823
X3.722Y-2.5823
X3.822Y-2.4823
X3.822Y-2.5823
X3.922Y-2.4823
X3.922Y-2.5823
X4.022Y-2.4823
X4.022Y-2.5823
X4.122Y-2.4823
X4.122Y-2.5823
X4.222Y-2.4823
X4.222Y-2.5823
X4.322Y-2.4823
X4.322Y-2.5823
X4.422Y-2.4823
X4.422Y-2.5823
X4.522Y-2.4823
X4.522Y-2.5823
X4.622Y-2.4823
X4.622Y-2.5823
X4.722Y-2.4823
X4.722Y-2.5823
X4.822Y-2.4823
X4.822Y-2.5823
X4.922Y-2.4823
X4.922Y-2.5823
X5.022Y-2.4823
X5.022Y-2.5823
X5.122Y-2.4823
X5.122Y-2.5823
X5.222Y-2.4823
X5.222Y-2.5823
X5.322Y-2.4823
X5.322Y-2.5823
X4.2992Y-3.2134
X4.3992Y-3.2134
X4.4992Y-3.2134
X4.1465Y-3.2457
X4.1465Y-3.3457
X5.4425Y-2.78
X5.5425Y-2.78
X4.2976Y-3.363
X4.3976Y-3.363
X4.4976Y-3.363
X3.274Y-3.6874
X3.374Y-3.6874
X3.2874Y-2.8283
X3.2874Y-2.9283
T7
X4.645Y-4.4275
X3.2865Y-3.1692
T8
X4.545Y-4.3275
X4.545Y-4.5275
X4.745Y-4.3275
X4.745Y-4.5275
X3.1865Y-3.0692
X3.1865Y-3.2692
X3.3865Y-3.0692
X3.3865Y-3.2692
T3
G00X3.4353Y-4.5563
M15
G01X3.4353Y-4.5287
M16
G05
G00X3.7109Y-4.5287
M15
G01X3.7109Y-4.5563
M16
G05
T0
M30
