G04 #@! TF.GenerationSoftware,KiCad,Pcbnew,(5.1.4)-1*
G04 #@! TF.CreationDate,2019-11-05T17:53:01+05:30*
G04 #@! TF.ProjectId,RPi Hat RF Transmitter V1,52506920-4861-4742-9052-46205472616e,rev?*
G04 #@! TF.SameCoordinates,Original*
G04 #@! TF.FileFunction,Soldermask,Bot*
G04 #@! TF.FilePolarity,Negative*
%FSLAX46Y46*%
G04 Gerber Fmt 4.6, Leading zero omitted, Abs format (unit mm)*
G04 Created by KiCad (PCBNEW (5.1.4)-1) date 2019-11-05 17:53:01*
%MOMM*%
%LPD*%
G04 APERTURE LIST*
%ADD10C,0.150000*%
%ADD11C,2.000000*%
%ADD12O,1.900000X1.900000*%
%ADD13R,1.900000X1.900000*%
%ADD14R,1.760000X0.850000*%
%ADD15R,2.200000X1.700000*%
%ADD16R,2.200000X4.000000*%
%ADD17C,0.100000*%
%ADD18C,1.350000*%
%ADD19C,0.810000*%
%ADD20C,1.625000*%
%ADD21C,2.450000*%
%ADD22C,2.250000*%
%ADD23C,0.800000*%
%ADD24O,1.400000X2.100000*%
%ADD25C,1.650000*%
%ADD26C,3.200000*%
G04 APERTURE END LIST*
D10*
X78546356Y-63817611D02*
X78546356Y-113817611D01*
X140546356Y-60817611D02*
X81546356Y-60817611D01*
X143546351Y-113822847D02*
X143546356Y-63817611D01*
X81546356Y-116817611D02*
X140546356Y-116817611D01*
X78546356Y-63817611D02*
G75*
G02X81546356Y-60817611I3000000J0D01*
G01*
X140546356Y-60817611D02*
G75*
G02X143546356Y-63817611I0J-3000000D01*
G01*
X81546356Y-116817611D02*
G75*
G02X78546356Y-113817611I0J3000000D01*
G01*
X143546351Y-113822847D02*
G75*
G02X140546356Y-116817611I-2999995J5236D01*
G01*
D11*
X108180000Y-102200000D03*
D12*
X131140000Y-70580000D03*
X133680000Y-70580000D03*
X131140000Y-73120000D03*
X133680000Y-73120000D03*
X131140000Y-75660000D03*
D13*
X133680000Y-75660000D03*
D14*
X120950000Y-81640000D03*
X120950000Y-82590000D03*
X120950000Y-80690000D03*
X118250000Y-80690000D03*
X118250000Y-81640000D03*
X118250000Y-82590000D03*
D15*
X98170000Y-108700000D03*
X98170000Y-104100000D03*
X98170000Y-106400000D03*
D16*
X104470000Y-106400000D03*
D17*
G36*
X96295289Y-108076413D02*
G01*
X96323778Y-108080639D01*
X96351715Y-108087637D01*
X96378832Y-108097340D01*
X96404867Y-108109653D01*
X96429570Y-108124460D01*
X96452703Y-108141616D01*
X96474043Y-108160957D01*
X96493384Y-108182297D01*
X96510540Y-108205430D01*
X96525347Y-108230133D01*
X96537660Y-108256168D01*
X96547363Y-108283285D01*
X96554361Y-108311222D01*
X96558587Y-108339711D01*
X96560000Y-108368477D01*
X96560000Y-109131523D01*
X96558587Y-109160289D01*
X96554361Y-109188778D01*
X96547363Y-109216715D01*
X96537660Y-109243832D01*
X96525347Y-109269867D01*
X96510540Y-109294570D01*
X96493384Y-109317703D01*
X96474043Y-109339043D01*
X96452703Y-109358384D01*
X96429570Y-109375540D01*
X96404867Y-109390347D01*
X96378832Y-109402660D01*
X96351715Y-109412363D01*
X96323778Y-109419361D01*
X96295289Y-109423587D01*
X96266523Y-109425000D01*
X95253477Y-109425000D01*
X95224711Y-109423587D01*
X95196222Y-109419361D01*
X95168285Y-109412363D01*
X95141168Y-109402660D01*
X95115133Y-109390347D01*
X95090430Y-109375540D01*
X95067297Y-109358384D01*
X95045957Y-109339043D01*
X95026616Y-109317703D01*
X95009460Y-109294570D01*
X94994653Y-109269867D01*
X94982340Y-109243832D01*
X94972637Y-109216715D01*
X94965639Y-109188778D01*
X94961413Y-109160289D01*
X94960000Y-109131523D01*
X94960000Y-108368477D01*
X94961413Y-108339711D01*
X94965639Y-108311222D01*
X94972637Y-108283285D01*
X94982340Y-108256168D01*
X94994653Y-108230133D01*
X95009460Y-108205430D01*
X95026616Y-108182297D01*
X95045957Y-108160957D01*
X95067297Y-108141616D01*
X95090430Y-108124460D01*
X95115133Y-108109653D01*
X95141168Y-108097340D01*
X95168285Y-108087637D01*
X95196222Y-108080639D01*
X95224711Y-108076413D01*
X95253477Y-108075000D01*
X96266523Y-108075000D01*
X96295289Y-108076413D01*
X96295289Y-108076413D01*
G37*
D18*
X95760000Y-108750000D03*
D17*
G36*
X96295289Y-106026413D02*
G01*
X96323778Y-106030639D01*
X96351715Y-106037637D01*
X96378832Y-106047340D01*
X96404867Y-106059653D01*
X96429570Y-106074460D01*
X96452703Y-106091616D01*
X96474043Y-106110957D01*
X96493384Y-106132297D01*
X96510540Y-106155430D01*
X96525347Y-106180133D01*
X96537660Y-106206168D01*
X96547363Y-106233285D01*
X96554361Y-106261222D01*
X96558587Y-106289711D01*
X96560000Y-106318477D01*
X96560000Y-107081523D01*
X96558587Y-107110289D01*
X96554361Y-107138778D01*
X96547363Y-107166715D01*
X96537660Y-107193832D01*
X96525347Y-107219867D01*
X96510540Y-107244570D01*
X96493384Y-107267703D01*
X96474043Y-107289043D01*
X96452703Y-107308384D01*
X96429570Y-107325540D01*
X96404867Y-107340347D01*
X96378832Y-107352660D01*
X96351715Y-107362363D01*
X96323778Y-107369361D01*
X96295289Y-107373587D01*
X96266523Y-107375000D01*
X95253477Y-107375000D01*
X95224711Y-107373587D01*
X95196222Y-107369361D01*
X95168285Y-107362363D01*
X95141168Y-107352660D01*
X95115133Y-107340347D01*
X95090430Y-107325540D01*
X95067297Y-107308384D01*
X95045957Y-107289043D01*
X95026616Y-107267703D01*
X95009460Y-107244570D01*
X94994653Y-107219867D01*
X94982340Y-107193832D01*
X94972637Y-107166715D01*
X94965639Y-107138778D01*
X94961413Y-107110289D01*
X94960000Y-107081523D01*
X94960000Y-106318477D01*
X94961413Y-106289711D01*
X94965639Y-106261222D01*
X94972637Y-106233285D01*
X94982340Y-106206168D01*
X94994653Y-106180133D01*
X95009460Y-106155430D01*
X95026616Y-106132297D01*
X95045957Y-106110957D01*
X95067297Y-106091616D01*
X95090430Y-106074460D01*
X95115133Y-106059653D01*
X95141168Y-106047340D01*
X95168285Y-106037637D01*
X95196222Y-106030639D01*
X95224711Y-106026413D01*
X95253477Y-106025000D01*
X96266523Y-106025000D01*
X96295289Y-106026413D01*
X96295289Y-106026413D01*
G37*
D18*
X95760000Y-106700000D03*
D17*
G36*
X98670289Y-113141413D02*
G01*
X98698778Y-113145639D01*
X98726715Y-113152637D01*
X98753832Y-113162340D01*
X98779867Y-113174653D01*
X98804570Y-113189460D01*
X98827703Y-113206616D01*
X98849043Y-113225957D01*
X98868384Y-113247297D01*
X98885540Y-113270430D01*
X98900347Y-113295133D01*
X98912660Y-113321168D01*
X98922363Y-113348285D01*
X98929361Y-113376222D01*
X98933587Y-113404711D01*
X98935000Y-113433477D01*
X98935000Y-114446523D01*
X98933587Y-114475289D01*
X98929361Y-114503778D01*
X98922363Y-114531715D01*
X98912660Y-114558832D01*
X98900347Y-114584867D01*
X98885540Y-114609570D01*
X98868384Y-114632703D01*
X98849043Y-114654043D01*
X98827703Y-114673384D01*
X98804570Y-114690540D01*
X98779867Y-114705347D01*
X98753832Y-114717660D01*
X98726715Y-114727363D01*
X98698778Y-114734361D01*
X98670289Y-114738587D01*
X98641523Y-114740000D01*
X97878477Y-114740000D01*
X97849711Y-114738587D01*
X97821222Y-114734361D01*
X97793285Y-114727363D01*
X97766168Y-114717660D01*
X97740133Y-114705347D01*
X97715430Y-114690540D01*
X97692297Y-114673384D01*
X97670957Y-114654043D01*
X97651616Y-114632703D01*
X97634460Y-114609570D01*
X97619653Y-114584867D01*
X97607340Y-114558832D01*
X97597637Y-114531715D01*
X97590639Y-114503778D01*
X97586413Y-114475289D01*
X97585000Y-114446523D01*
X97585000Y-113433477D01*
X97586413Y-113404711D01*
X97590639Y-113376222D01*
X97597637Y-113348285D01*
X97607340Y-113321168D01*
X97619653Y-113295133D01*
X97634460Y-113270430D01*
X97651616Y-113247297D01*
X97670957Y-113225957D01*
X97692297Y-113206616D01*
X97715430Y-113189460D01*
X97740133Y-113174653D01*
X97766168Y-113162340D01*
X97793285Y-113152637D01*
X97821222Y-113145639D01*
X97849711Y-113141413D01*
X97878477Y-113140000D01*
X98641523Y-113140000D01*
X98670289Y-113141413D01*
X98670289Y-113141413D01*
G37*
D18*
X98260000Y-113940000D03*
D17*
G36*
X100720289Y-113141413D02*
G01*
X100748778Y-113145639D01*
X100776715Y-113152637D01*
X100803832Y-113162340D01*
X100829867Y-113174653D01*
X100854570Y-113189460D01*
X100877703Y-113206616D01*
X100899043Y-113225957D01*
X100918384Y-113247297D01*
X100935540Y-113270430D01*
X100950347Y-113295133D01*
X100962660Y-113321168D01*
X100972363Y-113348285D01*
X100979361Y-113376222D01*
X100983587Y-113404711D01*
X100985000Y-113433477D01*
X100985000Y-114446523D01*
X100983587Y-114475289D01*
X100979361Y-114503778D01*
X100972363Y-114531715D01*
X100962660Y-114558832D01*
X100950347Y-114584867D01*
X100935540Y-114609570D01*
X100918384Y-114632703D01*
X100899043Y-114654043D01*
X100877703Y-114673384D01*
X100854570Y-114690540D01*
X100829867Y-114705347D01*
X100803832Y-114717660D01*
X100776715Y-114727363D01*
X100748778Y-114734361D01*
X100720289Y-114738587D01*
X100691523Y-114740000D01*
X99928477Y-114740000D01*
X99899711Y-114738587D01*
X99871222Y-114734361D01*
X99843285Y-114727363D01*
X99816168Y-114717660D01*
X99790133Y-114705347D01*
X99765430Y-114690540D01*
X99742297Y-114673384D01*
X99720957Y-114654043D01*
X99701616Y-114632703D01*
X99684460Y-114609570D01*
X99669653Y-114584867D01*
X99657340Y-114558832D01*
X99647637Y-114531715D01*
X99640639Y-114503778D01*
X99636413Y-114475289D01*
X99635000Y-114446523D01*
X99635000Y-113433477D01*
X99636413Y-113404711D01*
X99640639Y-113376222D01*
X99647637Y-113348285D01*
X99657340Y-113321168D01*
X99669653Y-113295133D01*
X99684460Y-113270430D01*
X99701616Y-113247297D01*
X99720957Y-113225957D01*
X99742297Y-113206616D01*
X99765430Y-113189460D01*
X99790133Y-113174653D01*
X99816168Y-113162340D01*
X99843285Y-113152637D01*
X99871222Y-113145639D01*
X99899711Y-113141413D01*
X99928477Y-113140000D01*
X100691523Y-113140000D01*
X100720289Y-113141413D01*
X100720289Y-113141413D01*
G37*
D18*
X100310000Y-113940000D03*
D17*
G36*
X84550289Y-96641413D02*
G01*
X84578778Y-96645639D01*
X84606715Y-96652637D01*
X84633832Y-96662340D01*
X84659867Y-96674653D01*
X84684570Y-96689460D01*
X84707703Y-96706616D01*
X84729043Y-96725957D01*
X84748384Y-96747297D01*
X84765540Y-96770430D01*
X84780347Y-96795133D01*
X84792660Y-96821168D01*
X84802363Y-96848285D01*
X84809361Y-96876222D01*
X84813587Y-96904711D01*
X84815000Y-96933477D01*
X84815000Y-97946523D01*
X84813587Y-97975289D01*
X84809361Y-98003778D01*
X84802363Y-98031715D01*
X84792660Y-98058832D01*
X84780347Y-98084867D01*
X84765540Y-98109570D01*
X84748384Y-98132703D01*
X84729043Y-98154043D01*
X84707703Y-98173384D01*
X84684570Y-98190540D01*
X84659867Y-98205347D01*
X84633832Y-98217660D01*
X84606715Y-98227363D01*
X84578778Y-98234361D01*
X84550289Y-98238587D01*
X84521523Y-98240000D01*
X83758477Y-98240000D01*
X83729711Y-98238587D01*
X83701222Y-98234361D01*
X83673285Y-98227363D01*
X83646168Y-98217660D01*
X83620133Y-98205347D01*
X83595430Y-98190540D01*
X83572297Y-98173384D01*
X83550957Y-98154043D01*
X83531616Y-98132703D01*
X83514460Y-98109570D01*
X83499653Y-98084867D01*
X83487340Y-98058832D01*
X83477637Y-98031715D01*
X83470639Y-98003778D01*
X83466413Y-97975289D01*
X83465000Y-97946523D01*
X83465000Y-96933477D01*
X83466413Y-96904711D01*
X83470639Y-96876222D01*
X83477637Y-96848285D01*
X83487340Y-96821168D01*
X83499653Y-96795133D01*
X83514460Y-96770430D01*
X83531616Y-96747297D01*
X83550957Y-96725957D01*
X83572297Y-96706616D01*
X83595430Y-96689460D01*
X83620133Y-96674653D01*
X83646168Y-96662340D01*
X83673285Y-96652637D01*
X83701222Y-96645639D01*
X83729711Y-96641413D01*
X83758477Y-96640000D01*
X84521523Y-96640000D01*
X84550289Y-96641413D01*
X84550289Y-96641413D01*
G37*
D18*
X84140000Y-97440000D03*
D17*
G36*
X86600289Y-96641413D02*
G01*
X86628778Y-96645639D01*
X86656715Y-96652637D01*
X86683832Y-96662340D01*
X86709867Y-96674653D01*
X86734570Y-96689460D01*
X86757703Y-96706616D01*
X86779043Y-96725957D01*
X86798384Y-96747297D01*
X86815540Y-96770430D01*
X86830347Y-96795133D01*
X86842660Y-96821168D01*
X86852363Y-96848285D01*
X86859361Y-96876222D01*
X86863587Y-96904711D01*
X86865000Y-96933477D01*
X86865000Y-97946523D01*
X86863587Y-97975289D01*
X86859361Y-98003778D01*
X86852363Y-98031715D01*
X86842660Y-98058832D01*
X86830347Y-98084867D01*
X86815540Y-98109570D01*
X86798384Y-98132703D01*
X86779043Y-98154043D01*
X86757703Y-98173384D01*
X86734570Y-98190540D01*
X86709867Y-98205347D01*
X86683832Y-98217660D01*
X86656715Y-98227363D01*
X86628778Y-98234361D01*
X86600289Y-98238587D01*
X86571523Y-98240000D01*
X85808477Y-98240000D01*
X85779711Y-98238587D01*
X85751222Y-98234361D01*
X85723285Y-98227363D01*
X85696168Y-98217660D01*
X85670133Y-98205347D01*
X85645430Y-98190540D01*
X85622297Y-98173384D01*
X85600957Y-98154043D01*
X85581616Y-98132703D01*
X85564460Y-98109570D01*
X85549653Y-98084867D01*
X85537340Y-98058832D01*
X85527637Y-98031715D01*
X85520639Y-98003778D01*
X85516413Y-97975289D01*
X85515000Y-97946523D01*
X85515000Y-96933477D01*
X85516413Y-96904711D01*
X85520639Y-96876222D01*
X85527637Y-96848285D01*
X85537340Y-96821168D01*
X85549653Y-96795133D01*
X85564460Y-96770430D01*
X85581616Y-96747297D01*
X85600957Y-96725957D01*
X85622297Y-96706616D01*
X85645430Y-96689460D01*
X85670133Y-96674653D01*
X85696168Y-96662340D01*
X85723285Y-96652637D01*
X85751222Y-96645639D01*
X85779711Y-96641413D01*
X85808477Y-96640000D01*
X86571523Y-96640000D01*
X86600289Y-96641413D01*
X86600289Y-96641413D01*
G37*
D18*
X86190000Y-97440000D03*
D17*
G36*
X102695289Y-69711413D02*
G01*
X102723778Y-69715639D01*
X102751715Y-69722637D01*
X102778832Y-69732340D01*
X102804867Y-69744653D01*
X102829570Y-69759460D01*
X102852703Y-69776616D01*
X102874043Y-69795957D01*
X102893384Y-69817297D01*
X102910540Y-69840430D01*
X102925347Y-69865133D01*
X102937660Y-69891168D01*
X102947363Y-69918285D01*
X102954361Y-69946222D01*
X102958587Y-69974711D01*
X102960000Y-70003477D01*
X102960000Y-70766523D01*
X102958587Y-70795289D01*
X102954361Y-70823778D01*
X102947363Y-70851715D01*
X102937660Y-70878832D01*
X102925347Y-70904867D01*
X102910540Y-70929570D01*
X102893384Y-70952703D01*
X102874043Y-70974043D01*
X102852703Y-70993384D01*
X102829570Y-71010540D01*
X102804867Y-71025347D01*
X102778832Y-71037660D01*
X102751715Y-71047363D01*
X102723778Y-71054361D01*
X102695289Y-71058587D01*
X102666523Y-71060000D01*
X101653477Y-71060000D01*
X101624711Y-71058587D01*
X101596222Y-71054361D01*
X101568285Y-71047363D01*
X101541168Y-71037660D01*
X101515133Y-71025347D01*
X101490430Y-71010540D01*
X101467297Y-70993384D01*
X101445957Y-70974043D01*
X101426616Y-70952703D01*
X101409460Y-70929570D01*
X101394653Y-70904867D01*
X101382340Y-70878832D01*
X101372637Y-70851715D01*
X101365639Y-70823778D01*
X101361413Y-70795289D01*
X101360000Y-70766523D01*
X101360000Y-70003477D01*
X101361413Y-69974711D01*
X101365639Y-69946222D01*
X101372637Y-69918285D01*
X101382340Y-69891168D01*
X101394653Y-69865133D01*
X101409460Y-69840430D01*
X101426616Y-69817297D01*
X101445957Y-69795957D01*
X101467297Y-69776616D01*
X101490430Y-69759460D01*
X101515133Y-69744653D01*
X101541168Y-69732340D01*
X101568285Y-69722637D01*
X101596222Y-69715639D01*
X101624711Y-69711413D01*
X101653477Y-69710000D01*
X102666523Y-69710000D01*
X102695289Y-69711413D01*
X102695289Y-69711413D01*
G37*
D18*
X102160000Y-70385000D03*
D17*
G36*
X102695289Y-67661413D02*
G01*
X102723778Y-67665639D01*
X102751715Y-67672637D01*
X102778832Y-67682340D01*
X102804867Y-67694653D01*
X102829570Y-67709460D01*
X102852703Y-67726616D01*
X102874043Y-67745957D01*
X102893384Y-67767297D01*
X102910540Y-67790430D01*
X102925347Y-67815133D01*
X102937660Y-67841168D01*
X102947363Y-67868285D01*
X102954361Y-67896222D01*
X102958587Y-67924711D01*
X102960000Y-67953477D01*
X102960000Y-68716523D01*
X102958587Y-68745289D01*
X102954361Y-68773778D01*
X102947363Y-68801715D01*
X102937660Y-68828832D01*
X102925347Y-68854867D01*
X102910540Y-68879570D01*
X102893384Y-68902703D01*
X102874043Y-68924043D01*
X102852703Y-68943384D01*
X102829570Y-68960540D01*
X102804867Y-68975347D01*
X102778832Y-68987660D01*
X102751715Y-68997363D01*
X102723778Y-69004361D01*
X102695289Y-69008587D01*
X102666523Y-69010000D01*
X101653477Y-69010000D01*
X101624711Y-69008587D01*
X101596222Y-69004361D01*
X101568285Y-68997363D01*
X101541168Y-68987660D01*
X101515133Y-68975347D01*
X101490430Y-68960540D01*
X101467297Y-68943384D01*
X101445957Y-68924043D01*
X101426616Y-68902703D01*
X101409460Y-68879570D01*
X101394653Y-68854867D01*
X101382340Y-68828832D01*
X101372637Y-68801715D01*
X101365639Y-68773778D01*
X101361413Y-68745289D01*
X101360000Y-68716523D01*
X101360000Y-67953477D01*
X101361413Y-67924711D01*
X101365639Y-67896222D01*
X101372637Y-67868285D01*
X101382340Y-67841168D01*
X101394653Y-67815133D01*
X101409460Y-67790430D01*
X101426616Y-67767297D01*
X101445957Y-67745957D01*
X101467297Y-67726616D01*
X101490430Y-67709460D01*
X101515133Y-67694653D01*
X101541168Y-67682340D01*
X101568285Y-67672637D01*
X101596222Y-67665639D01*
X101624711Y-67661413D01*
X101653477Y-67660000D01*
X102666523Y-67660000D01*
X102695289Y-67661413D01*
X102695289Y-67661413D01*
G37*
D18*
X102160000Y-68335000D03*
D17*
G36*
X100155289Y-69711413D02*
G01*
X100183778Y-69715639D01*
X100211715Y-69722637D01*
X100238832Y-69732340D01*
X100264867Y-69744653D01*
X100289570Y-69759460D01*
X100312703Y-69776616D01*
X100334043Y-69795957D01*
X100353384Y-69817297D01*
X100370540Y-69840430D01*
X100385347Y-69865133D01*
X100397660Y-69891168D01*
X100407363Y-69918285D01*
X100414361Y-69946222D01*
X100418587Y-69974711D01*
X100420000Y-70003477D01*
X100420000Y-70766523D01*
X100418587Y-70795289D01*
X100414361Y-70823778D01*
X100407363Y-70851715D01*
X100397660Y-70878832D01*
X100385347Y-70904867D01*
X100370540Y-70929570D01*
X100353384Y-70952703D01*
X100334043Y-70974043D01*
X100312703Y-70993384D01*
X100289570Y-71010540D01*
X100264867Y-71025347D01*
X100238832Y-71037660D01*
X100211715Y-71047363D01*
X100183778Y-71054361D01*
X100155289Y-71058587D01*
X100126523Y-71060000D01*
X99113477Y-71060000D01*
X99084711Y-71058587D01*
X99056222Y-71054361D01*
X99028285Y-71047363D01*
X99001168Y-71037660D01*
X98975133Y-71025347D01*
X98950430Y-71010540D01*
X98927297Y-70993384D01*
X98905957Y-70974043D01*
X98886616Y-70952703D01*
X98869460Y-70929570D01*
X98854653Y-70904867D01*
X98842340Y-70878832D01*
X98832637Y-70851715D01*
X98825639Y-70823778D01*
X98821413Y-70795289D01*
X98820000Y-70766523D01*
X98820000Y-70003477D01*
X98821413Y-69974711D01*
X98825639Y-69946222D01*
X98832637Y-69918285D01*
X98842340Y-69891168D01*
X98854653Y-69865133D01*
X98869460Y-69840430D01*
X98886616Y-69817297D01*
X98905957Y-69795957D01*
X98927297Y-69776616D01*
X98950430Y-69759460D01*
X98975133Y-69744653D01*
X99001168Y-69732340D01*
X99028285Y-69722637D01*
X99056222Y-69715639D01*
X99084711Y-69711413D01*
X99113477Y-69710000D01*
X100126523Y-69710000D01*
X100155289Y-69711413D01*
X100155289Y-69711413D01*
G37*
D18*
X99620000Y-70385000D03*
D17*
G36*
X100155289Y-67661413D02*
G01*
X100183778Y-67665639D01*
X100211715Y-67672637D01*
X100238832Y-67682340D01*
X100264867Y-67694653D01*
X100289570Y-67709460D01*
X100312703Y-67726616D01*
X100334043Y-67745957D01*
X100353384Y-67767297D01*
X100370540Y-67790430D01*
X100385347Y-67815133D01*
X100397660Y-67841168D01*
X100407363Y-67868285D01*
X100414361Y-67896222D01*
X100418587Y-67924711D01*
X100420000Y-67953477D01*
X100420000Y-68716523D01*
X100418587Y-68745289D01*
X100414361Y-68773778D01*
X100407363Y-68801715D01*
X100397660Y-68828832D01*
X100385347Y-68854867D01*
X100370540Y-68879570D01*
X100353384Y-68902703D01*
X100334043Y-68924043D01*
X100312703Y-68943384D01*
X100289570Y-68960540D01*
X100264867Y-68975347D01*
X100238832Y-68987660D01*
X100211715Y-68997363D01*
X100183778Y-69004361D01*
X100155289Y-69008587D01*
X100126523Y-69010000D01*
X99113477Y-69010000D01*
X99084711Y-69008587D01*
X99056222Y-69004361D01*
X99028285Y-68997363D01*
X99001168Y-68987660D01*
X98975133Y-68975347D01*
X98950430Y-68960540D01*
X98927297Y-68943384D01*
X98905957Y-68924043D01*
X98886616Y-68902703D01*
X98869460Y-68879570D01*
X98854653Y-68854867D01*
X98842340Y-68828832D01*
X98832637Y-68801715D01*
X98825639Y-68773778D01*
X98821413Y-68745289D01*
X98820000Y-68716523D01*
X98820000Y-67953477D01*
X98821413Y-67924711D01*
X98825639Y-67896222D01*
X98832637Y-67868285D01*
X98842340Y-67841168D01*
X98854653Y-67815133D01*
X98869460Y-67790430D01*
X98886616Y-67767297D01*
X98905957Y-67745957D01*
X98927297Y-67726616D01*
X98950430Y-67709460D01*
X98975133Y-67694653D01*
X99001168Y-67682340D01*
X99028285Y-67672637D01*
X99056222Y-67665639D01*
X99084711Y-67661413D01*
X99113477Y-67660000D01*
X100126523Y-67660000D01*
X100155289Y-67661413D01*
X100155289Y-67661413D01*
G37*
D18*
X99620000Y-68335000D03*
D17*
G36*
X98035289Y-80711413D02*
G01*
X98063778Y-80715639D01*
X98091715Y-80722637D01*
X98118832Y-80732340D01*
X98144867Y-80744653D01*
X98169570Y-80759460D01*
X98192703Y-80776616D01*
X98214043Y-80795957D01*
X98233384Y-80817297D01*
X98250540Y-80840430D01*
X98265347Y-80865133D01*
X98277660Y-80891168D01*
X98287363Y-80918285D01*
X98294361Y-80946222D01*
X98298587Y-80974711D01*
X98300000Y-81003477D01*
X98300000Y-81766523D01*
X98298587Y-81795289D01*
X98294361Y-81823778D01*
X98287363Y-81851715D01*
X98277660Y-81878832D01*
X98265347Y-81904867D01*
X98250540Y-81929570D01*
X98233384Y-81952703D01*
X98214043Y-81974043D01*
X98192703Y-81993384D01*
X98169570Y-82010540D01*
X98144867Y-82025347D01*
X98118832Y-82037660D01*
X98091715Y-82047363D01*
X98063778Y-82054361D01*
X98035289Y-82058587D01*
X98006523Y-82060000D01*
X96993477Y-82060000D01*
X96964711Y-82058587D01*
X96936222Y-82054361D01*
X96908285Y-82047363D01*
X96881168Y-82037660D01*
X96855133Y-82025347D01*
X96830430Y-82010540D01*
X96807297Y-81993384D01*
X96785957Y-81974043D01*
X96766616Y-81952703D01*
X96749460Y-81929570D01*
X96734653Y-81904867D01*
X96722340Y-81878832D01*
X96712637Y-81851715D01*
X96705639Y-81823778D01*
X96701413Y-81795289D01*
X96700000Y-81766523D01*
X96700000Y-81003477D01*
X96701413Y-80974711D01*
X96705639Y-80946222D01*
X96712637Y-80918285D01*
X96722340Y-80891168D01*
X96734653Y-80865133D01*
X96749460Y-80840430D01*
X96766616Y-80817297D01*
X96785957Y-80795957D01*
X96807297Y-80776616D01*
X96830430Y-80759460D01*
X96855133Y-80744653D01*
X96881168Y-80732340D01*
X96908285Y-80722637D01*
X96936222Y-80715639D01*
X96964711Y-80711413D01*
X96993477Y-80710000D01*
X98006523Y-80710000D01*
X98035289Y-80711413D01*
X98035289Y-80711413D01*
G37*
D18*
X97500000Y-81385000D03*
D17*
G36*
X98035289Y-78661413D02*
G01*
X98063778Y-78665639D01*
X98091715Y-78672637D01*
X98118832Y-78682340D01*
X98144867Y-78694653D01*
X98169570Y-78709460D01*
X98192703Y-78726616D01*
X98214043Y-78745957D01*
X98233384Y-78767297D01*
X98250540Y-78790430D01*
X98265347Y-78815133D01*
X98277660Y-78841168D01*
X98287363Y-78868285D01*
X98294361Y-78896222D01*
X98298587Y-78924711D01*
X98300000Y-78953477D01*
X98300000Y-79716523D01*
X98298587Y-79745289D01*
X98294361Y-79773778D01*
X98287363Y-79801715D01*
X98277660Y-79828832D01*
X98265347Y-79854867D01*
X98250540Y-79879570D01*
X98233384Y-79902703D01*
X98214043Y-79924043D01*
X98192703Y-79943384D01*
X98169570Y-79960540D01*
X98144867Y-79975347D01*
X98118832Y-79987660D01*
X98091715Y-79997363D01*
X98063778Y-80004361D01*
X98035289Y-80008587D01*
X98006523Y-80010000D01*
X96993477Y-80010000D01*
X96964711Y-80008587D01*
X96936222Y-80004361D01*
X96908285Y-79997363D01*
X96881168Y-79987660D01*
X96855133Y-79975347D01*
X96830430Y-79960540D01*
X96807297Y-79943384D01*
X96785957Y-79924043D01*
X96766616Y-79902703D01*
X96749460Y-79879570D01*
X96734653Y-79854867D01*
X96722340Y-79828832D01*
X96712637Y-79801715D01*
X96705639Y-79773778D01*
X96701413Y-79745289D01*
X96700000Y-79716523D01*
X96700000Y-78953477D01*
X96701413Y-78924711D01*
X96705639Y-78896222D01*
X96712637Y-78868285D01*
X96722340Y-78841168D01*
X96734653Y-78815133D01*
X96749460Y-78790430D01*
X96766616Y-78767297D01*
X96785957Y-78745957D01*
X96807297Y-78726616D01*
X96830430Y-78709460D01*
X96855133Y-78694653D01*
X96881168Y-78682340D01*
X96908285Y-78672637D01*
X96936222Y-78665639D01*
X96964711Y-78661413D01*
X96993477Y-78660000D01*
X98006523Y-78660000D01*
X98035289Y-78661413D01*
X98035289Y-78661413D01*
G37*
D18*
X97500000Y-79335000D03*
D12*
X105320000Y-84980000D03*
D13*
X105320000Y-82440000D03*
D12*
X83500000Y-74380000D03*
D13*
X83500000Y-71840000D03*
D19*
X110960000Y-95415000D03*
X110960000Y-97625000D03*
D17*
G36*
X101907856Y-110626373D02*
G01*
X101935530Y-110630478D01*
X101962669Y-110637276D01*
X101989010Y-110646701D01*
X102014302Y-110658663D01*
X102038298Y-110673046D01*
X102060770Y-110689712D01*
X102081500Y-110708500D01*
X102100288Y-110729230D01*
X102116954Y-110751702D01*
X102131337Y-110775698D01*
X102143299Y-110800990D01*
X102152724Y-110827331D01*
X102159522Y-110854470D01*
X102163627Y-110882144D01*
X102165000Y-110910088D01*
X102165000Y-112289912D01*
X102163627Y-112317856D01*
X102159522Y-112345530D01*
X102152724Y-112372669D01*
X102143299Y-112399010D01*
X102131337Y-112424302D01*
X102116954Y-112448298D01*
X102100288Y-112470770D01*
X102081500Y-112491500D01*
X102060770Y-112510288D01*
X102038298Y-112526954D01*
X102014302Y-112541337D01*
X101989010Y-112553299D01*
X101962669Y-112562724D01*
X101935530Y-112569522D01*
X101907856Y-112573627D01*
X101879912Y-112575000D01*
X100825088Y-112575000D01*
X100797144Y-112573627D01*
X100769470Y-112569522D01*
X100742331Y-112562724D01*
X100715990Y-112553299D01*
X100690698Y-112541337D01*
X100666702Y-112526954D01*
X100644230Y-112510288D01*
X100623500Y-112491500D01*
X100604712Y-112470770D01*
X100588046Y-112448298D01*
X100573663Y-112424302D01*
X100561701Y-112399010D01*
X100552276Y-112372669D01*
X100545478Y-112345530D01*
X100541373Y-112317856D01*
X100540000Y-112289912D01*
X100540000Y-110910088D01*
X100541373Y-110882144D01*
X100545478Y-110854470D01*
X100552276Y-110827331D01*
X100561701Y-110800990D01*
X100573663Y-110775698D01*
X100588046Y-110751702D01*
X100604712Y-110729230D01*
X100623500Y-110708500D01*
X100644230Y-110689712D01*
X100666702Y-110673046D01*
X100690698Y-110658663D01*
X100715990Y-110646701D01*
X100742331Y-110637276D01*
X100769470Y-110630478D01*
X100797144Y-110626373D01*
X100825088Y-110625000D01*
X101879912Y-110625000D01*
X101907856Y-110626373D01*
X101907856Y-110626373D01*
G37*
D20*
X101352500Y-111600000D03*
D17*
G36*
X104882856Y-110626373D02*
G01*
X104910530Y-110630478D01*
X104937669Y-110637276D01*
X104964010Y-110646701D01*
X104989302Y-110658663D01*
X105013298Y-110673046D01*
X105035770Y-110689712D01*
X105056500Y-110708500D01*
X105075288Y-110729230D01*
X105091954Y-110751702D01*
X105106337Y-110775698D01*
X105118299Y-110800990D01*
X105127724Y-110827331D01*
X105134522Y-110854470D01*
X105138627Y-110882144D01*
X105140000Y-110910088D01*
X105140000Y-112289912D01*
X105138627Y-112317856D01*
X105134522Y-112345530D01*
X105127724Y-112372669D01*
X105118299Y-112399010D01*
X105106337Y-112424302D01*
X105091954Y-112448298D01*
X105075288Y-112470770D01*
X105056500Y-112491500D01*
X105035770Y-112510288D01*
X105013298Y-112526954D01*
X104989302Y-112541337D01*
X104964010Y-112553299D01*
X104937669Y-112562724D01*
X104910530Y-112569522D01*
X104882856Y-112573627D01*
X104854912Y-112575000D01*
X103800088Y-112575000D01*
X103772144Y-112573627D01*
X103744470Y-112569522D01*
X103717331Y-112562724D01*
X103690990Y-112553299D01*
X103665698Y-112541337D01*
X103641702Y-112526954D01*
X103619230Y-112510288D01*
X103598500Y-112491500D01*
X103579712Y-112470770D01*
X103563046Y-112448298D01*
X103548663Y-112424302D01*
X103536701Y-112399010D01*
X103527276Y-112372669D01*
X103520478Y-112345530D01*
X103516373Y-112317856D01*
X103515000Y-112289912D01*
X103515000Y-110910088D01*
X103516373Y-110882144D01*
X103520478Y-110854470D01*
X103527276Y-110827331D01*
X103536701Y-110800990D01*
X103548663Y-110775698D01*
X103563046Y-110751702D01*
X103579712Y-110729230D01*
X103598500Y-110708500D01*
X103619230Y-110689712D01*
X103641702Y-110673046D01*
X103665698Y-110658663D01*
X103690990Y-110646701D01*
X103717331Y-110637276D01*
X103744470Y-110630478D01*
X103772144Y-110626373D01*
X103800088Y-110625000D01*
X104854912Y-110625000D01*
X104882856Y-110626373D01*
X104882856Y-110626373D01*
G37*
D20*
X104327500Y-111600000D03*
D17*
G36*
X99782856Y-110626373D02*
G01*
X99810530Y-110630478D01*
X99837669Y-110637276D01*
X99864010Y-110646701D01*
X99889302Y-110658663D01*
X99913298Y-110673046D01*
X99935770Y-110689712D01*
X99956500Y-110708500D01*
X99975288Y-110729230D01*
X99991954Y-110751702D01*
X100006337Y-110775698D01*
X100018299Y-110800990D01*
X100027724Y-110827331D01*
X100034522Y-110854470D01*
X100038627Y-110882144D01*
X100040000Y-110910088D01*
X100040000Y-112289912D01*
X100038627Y-112317856D01*
X100034522Y-112345530D01*
X100027724Y-112372669D01*
X100018299Y-112399010D01*
X100006337Y-112424302D01*
X99991954Y-112448298D01*
X99975288Y-112470770D01*
X99956500Y-112491500D01*
X99935770Y-112510288D01*
X99913298Y-112526954D01*
X99889302Y-112541337D01*
X99864010Y-112553299D01*
X99837669Y-112562724D01*
X99810530Y-112569522D01*
X99782856Y-112573627D01*
X99754912Y-112575000D01*
X98700088Y-112575000D01*
X98672144Y-112573627D01*
X98644470Y-112569522D01*
X98617331Y-112562724D01*
X98590990Y-112553299D01*
X98565698Y-112541337D01*
X98541702Y-112526954D01*
X98519230Y-112510288D01*
X98498500Y-112491500D01*
X98479712Y-112470770D01*
X98463046Y-112448298D01*
X98448663Y-112424302D01*
X98436701Y-112399010D01*
X98427276Y-112372669D01*
X98420478Y-112345530D01*
X98416373Y-112317856D01*
X98415000Y-112289912D01*
X98415000Y-110910088D01*
X98416373Y-110882144D01*
X98420478Y-110854470D01*
X98427276Y-110827331D01*
X98436701Y-110800990D01*
X98448663Y-110775698D01*
X98463046Y-110751702D01*
X98479712Y-110729230D01*
X98498500Y-110708500D01*
X98519230Y-110689712D01*
X98541702Y-110673046D01*
X98565698Y-110658663D01*
X98590990Y-110646701D01*
X98617331Y-110637276D01*
X98644470Y-110630478D01*
X98672144Y-110626373D01*
X98700088Y-110625000D01*
X99754912Y-110625000D01*
X99782856Y-110626373D01*
X99782856Y-110626373D01*
G37*
D20*
X99227500Y-111600000D03*
D17*
G36*
X96807856Y-110626373D02*
G01*
X96835530Y-110630478D01*
X96862669Y-110637276D01*
X96889010Y-110646701D01*
X96914302Y-110658663D01*
X96938298Y-110673046D01*
X96960770Y-110689712D01*
X96981500Y-110708500D01*
X97000288Y-110729230D01*
X97016954Y-110751702D01*
X97031337Y-110775698D01*
X97043299Y-110800990D01*
X97052724Y-110827331D01*
X97059522Y-110854470D01*
X97063627Y-110882144D01*
X97065000Y-110910088D01*
X97065000Y-112289912D01*
X97063627Y-112317856D01*
X97059522Y-112345530D01*
X97052724Y-112372669D01*
X97043299Y-112399010D01*
X97031337Y-112424302D01*
X97016954Y-112448298D01*
X97000288Y-112470770D01*
X96981500Y-112491500D01*
X96960770Y-112510288D01*
X96938298Y-112526954D01*
X96914302Y-112541337D01*
X96889010Y-112553299D01*
X96862669Y-112562724D01*
X96835530Y-112569522D01*
X96807856Y-112573627D01*
X96779912Y-112575000D01*
X95725088Y-112575000D01*
X95697144Y-112573627D01*
X95669470Y-112569522D01*
X95642331Y-112562724D01*
X95615990Y-112553299D01*
X95590698Y-112541337D01*
X95566702Y-112526954D01*
X95544230Y-112510288D01*
X95523500Y-112491500D01*
X95504712Y-112470770D01*
X95488046Y-112448298D01*
X95473663Y-112424302D01*
X95461701Y-112399010D01*
X95452276Y-112372669D01*
X95445478Y-112345530D01*
X95441373Y-112317856D01*
X95440000Y-112289912D01*
X95440000Y-110910088D01*
X95441373Y-110882144D01*
X95445478Y-110854470D01*
X95452276Y-110827331D01*
X95461701Y-110800990D01*
X95473663Y-110775698D01*
X95488046Y-110751702D01*
X95504712Y-110729230D01*
X95523500Y-110708500D01*
X95544230Y-110689712D01*
X95566702Y-110673046D01*
X95590698Y-110658663D01*
X95615990Y-110646701D01*
X95642331Y-110637276D01*
X95669470Y-110630478D01*
X95697144Y-110626373D01*
X95725088Y-110625000D01*
X96779912Y-110625000D01*
X96807856Y-110626373D01*
X96807856Y-110626373D01*
G37*
D20*
X96252500Y-111600000D03*
D17*
G36*
X101055356Y-100346373D02*
G01*
X101083030Y-100350478D01*
X101110169Y-100357276D01*
X101136510Y-100366701D01*
X101161802Y-100378663D01*
X101185798Y-100393046D01*
X101208270Y-100409712D01*
X101229000Y-100428500D01*
X101247788Y-100449230D01*
X101264454Y-100471702D01*
X101278837Y-100495698D01*
X101290799Y-100520990D01*
X101300224Y-100547331D01*
X101307022Y-100574470D01*
X101311127Y-100602144D01*
X101312500Y-100630088D01*
X101312500Y-102009912D01*
X101311127Y-102037856D01*
X101307022Y-102065530D01*
X101300224Y-102092669D01*
X101290799Y-102119010D01*
X101278837Y-102144302D01*
X101264454Y-102168298D01*
X101247788Y-102190770D01*
X101229000Y-102211500D01*
X101208270Y-102230288D01*
X101185798Y-102246954D01*
X101161802Y-102261337D01*
X101136510Y-102273299D01*
X101110169Y-102282724D01*
X101083030Y-102289522D01*
X101055356Y-102293627D01*
X101027412Y-102295000D01*
X99972588Y-102295000D01*
X99944644Y-102293627D01*
X99916970Y-102289522D01*
X99889831Y-102282724D01*
X99863490Y-102273299D01*
X99838198Y-102261337D01*
X99814202Y-102246954D01*
X99791730Y-102230288D01*
X99771000Y-102211500D01*
X99752212Y-102190770D01*
X99735546Y-102168298D01*
X99721163Y-102144302D01*
X99709201Y-102119010D01*
X99699776Y-102092669D01*
X99692978Y-102065530D01*
X99688873Y-102037856D01*
X99687500Y-102009912D01*
X99687500Y-100630088D01*
X99688873Y-100602144D01*
X99692978Y-100574470D01*
X99699776Y-100547331D01*
X99709201Y-100520990D01*
X99721163Y-100495698D01*
X99735546Y-100471702D01*
X99752212Y-100449230D01*
X99771000Y-100428500D01*
X99791730Y-100409712D01*
X99814202Y-100393046D01*
X99838198Y-100378663D01*
X99863490Y-100366701D01*
X99889831Y-100357276D01*
X99916970Y-100350478D01*
X99944644Y-100346373D01*
X99972588Y-100345000D01*
X101027412Y-100345000D01*
X101055356Y-100346373D01*
X101055356Y-100346373D01*
G37*
D20*
X100500000Y-101320000D03*
D17*
G36*
X98080356Y-100346373D02*
G01*
X98108030Y-100350478D01*
X98135169Y-100357276D01*
X98161510Y-100366701D01*
X98186802Y-100378663D01*
X98210798Y-100393046D01*
X98233270Y-100409712D01*
X98254000Y-100428500D01*
X98272788Y-100449230D01*
X98289454Y-100471702D01*
X98303837Y-100495698D01*
X98315799Y-100520990D01*
X98325224Y-100547331D01*
X98332022Y-100574470D01*
X98336127Y-100602144D01*
X98337500Y-100630088D01*
X98337500Y-102009912D01*
X98336127Y-102037856D01*
X98332022Y-102065530D01*
X98325224Y-102092669D01*
X98315799Y-102119010D01*
X98303837Y-102144302D01*
X98289454Y-102168298D01*
X98272788Y-102190770D01*
X98254000Y-102211500D01*
X98233270Y-102230288D01*
X98210798Y-102246954D01*
X98186802Y-102261337D01*
X98161510Y-102273299D01*
X98135169Y-102282724D01*
X98108030Y-102289522D01*
X98080356Y-102293627D01*
X98052412Y-102295000D01*
X96997588Y-102295000D01*
X96969644Y-102293627D01*
X96941970Y-102289522D01*
X96914831Y-102282724D01*
X96888490Y-102273299D01*
X96863198Y-102261337D01*
X96839202Y-102246954D01*
X96816730Y-102230288D01*
X96796000Y-102211500D01*
X96777212Y-102190770D01*
X96760546Y-102168298D01*
X96746163Y-102144302D01*
X96734201Y-102119010D01*
X96724776Y-102092669D01*
X96717978Y-102065530D01*
X96713873Y-102037856D01*
X96712500Y-102009912D01*
X96712500Y-100630088D01*
X96713873Y-100602144D01*
X96717978Y-100574470D01*
X96724776Y-100547331D01*
X96734201Y-100520990D01*
X96746163Y-100495698D01*
X96760546Y-100471702D01*
X96777212Y-100449230D01*
X96796000Y-100428500D01*
X96816730Y-100409712D01*
X96839202Y-100393046D01*
X96863198Y-100378663D01*
X96888490Y-100366701D01*
X96914831Y-100357276D01*
X96941970Y-100350478D01*
X96969644Y-100346373D01*
X96997588Y-100345000D01*
X98052412Y-100345000D01*
X98080356Y-100346373D01*
X98080356Y-100346373D01*
G37*
D20*
X97525000Y-101320000D03*
D21*
X120523000Y-114998500D03*
X115443000Y-114998500D03*
X115443000Y-109918500D03*
X120523000Y-109918500D03*
D22*
X117983000Y-112458500D03*
D21*
X80937000Y-83038500D03*
X80937000Y-77958500D03*
X86017000Y-77958500D03*
X86017000Y-83038500D03*
D22*
X83477000Y-80498500D03*
D17*
G36*
X80525289Y-96621413D02*
G01*
X80553778Y-96625639D01*
X80581715Y-96632637D01*
X80608832Y-96642340D01*
X80634867Y-96654653D01*
X80659570Y-96669460D01*
X80682703Y-96686616D01*
X80704043Y-96705957D01*
X80723384Y-96727297D01*
X80740540Y-96750430D01*
X80755347Y-96775133D01*
X80767660Y-96801168D01*
X80777363Y-96828285D01*
X80784361Y-96856222D01*
X80788587Y-96884711D01*
X80790000Y-96913477D01*
X80790000Y-97926523D01*
X80788587Y-97955289D01*
X80784361Y-97983778D01*
X80777363Y-98011715D01*
X80767660Y-98038832D01*
X80755347Y-98064867D01*
X80740540Y-98089570D01*
X80723384Y-98112703D01*
X80704043Y-98134043D01*
X80682703Y-98153384D01*
X80659570Y-98170540D01*
X80634867Y-98185347D01*
X80608832Y-98197660D01*
X80581715Y-98207363D01*
X80553778Y-98214361D01*
X80525289Y-98218587D01*
X80496523Y-98220000D01*
X79733477Y-98220000D01*
X79704711Y-98218587D01*
X79676222Y-98214361D01*
X79648285Y-98207363D01*
X79621168Y-98197660D01*
X79595133Y-98185347D01*
X79570430Y-98170540D01*
X79547297Y-98153384D01*
X79525957Y-98134043D01*
X79506616Y-98112703D01*
X79489460Y-98089570D01*
X79474653Y-98064867D01*
X79462340Y-98038832D01*
X79452637Y-98011715D01*
X79445639Y-97983778D01*
X79441413Y-97955289D01*
X79440000Y-97926523D01*
X79440000Y-96913477D01*
X79441413Y-96884711D01*
X79445639Y-96856222D01*
X79452637Y-96828285D01*
X79462340Y-96801168D01*
X79474653Y-96775133D01*
X79489460Y-96750430D01*
X79506616Y-96727297D01*
X79525957Y-96705957D01*
X79547297Y-96686616D01*
X79570430Y-96669460D01*
X79595133Y-96654653D01*
X79621168Y-96642340D01*
X79648285Y-96632637D01*
X79676222Y-96625639D01*
X79704711Y-96621413D01*
X79733477Y-96620000D01*
X80496523Y-96620000D01*
X80525289Y-96621413D01*
X80525289Y-96621413D01*
G37*
D18*
X80115000Y-97420000D03*
D17*
G36*
X82575289Y-96621413D02*
G01*
X82603778Y-96625639D01*
X82631715Y-96632637D01*
X82658832Y-96642340D01*
X82684867Y-96654653D01*
X82709570Y-96669460D01*
X82732703Y-96686616D01*
X82754043Y-96705957D01*
X82773384Y-96727297D01*
X82790540Y-96750430D01*
X82805347Y-96775133D01*
X82817660Y-96801168D01*
X82827363Y-96828285D01*
X82834361Y-96856222D01*
X82838587Y-96884711D01*
X82840000Y-96913477D01*
X82840000Y-97926523D01*
X82838587Y-97955289D01*
X82834361Y-97983778D01*
X82827363Y-98011715D01*
X82817660Y-98038832D01*
X82805347Y-98064867D01*
X82790540Y-98089570D01*
X82773384Y-98112703D01*
X82754043Y-98134043D01*
X82732703Y-98153384D01*
X82709570Y-98170540D01*
X82684867Y-98185347D01*
X82658832Y-98197660D01*
X82631715Y-98207363D01*
X82603778Y-98214361D01*
X82575289Y-98218587D01*
X82546523Y-98220000D01*
X81783477Y-98220000D01*
X81754711Y-98218587D01*
X81726222Y-98214361D01*
X81698285Y-98207363D01*
X81671168Y-98197660D01*
X81645133Y-98185347D01*
X81620430Y-98170540D01*
X81597297Y-98153384D01*
X81575957Y-98134043D01*
X81556616Y-98112703D01*
X81539460Y-98089570D01*
X81524653Y-98064867D01*
X81512340Y-98038832D01*
X81502637Y-98011715D01*
X81495639Y-97983778D01*
X81491413Y-97955289D01*
X81490000Y-97926523D01*
X81490000Y-96913477D01*
X81491413Y-96884711D01*
X81495639Y-96856222D01*
X81502637Y-96828285D01*
X81512340Y-96801168D01*
X81524653Y-96775133D01*
X81539460Y-96750430D01*
X81556616Y-96727297D01*
X81575957Y-96705957D01*
X81597297Y-96686616D01*
X81620430Y-96669460D01*
X81645133Y-96654653D01*
X81671168Y-96642340D01*
X81698285Y-96632637D01*
X81726222Y-96625639D01*
X81754711Y-96621413D01*
X81783477Y-96620000D01*
X82546523Y-96620000D01*
X82575289Y-96621413D01*
X82575289Y-96621413D01*
G37*
D18*
X82165000Y-97420000D03*
D12*
X140779500Y-70612000D03*
D13*
X138239500Y-70612000D03*
D17*
G36*
X83763603Y-99613463D02*
G01*
X83783018Y-99616343D01*
X83802057Y-99621112D01*
X83820537Y-99627724D01*
X83838279Y-99636116D01*
X83855114Y-99646206D01*
X83870879Y-99657898D01*
X83885421Y-99671079D01*
X83898602Y-99685621D01*
X83910294Y-99701386D01*
X83920384Y-99718221D01*
X83928776Y-99735963D01*
X83935388Y-99754443D01*
X83940157Y-99773482D01*
X83943037Y-99792897D01*
X83944000Y-99812500D01*
X83944000Y-100212500D01*
X83943037Y-100232103D01*
X83940157Y-100251518D01*
X83935388Y-100270557D01*
X83928776Y-100289037D01*
X83920384Y-100306779D01*
X83910294Y-100323614D01*
X83898602Y-100339379D01*
X83885421Y-100353921D01*
X83870879Y-100367102D01*
X83855114Y-100378794D01*
X83838279Y-100388884D01*
X83820537Y-100397276D01*
X83802057Y-100403888D01*
X83783018Y-100408657D01*
X83763603Y-100411537D01*
X83744000Y-100412500D01*
X81994000Y-100412500D01*
X81974397Y-100411537D01*
X81954982Y-100408657D01*
X81935943Y-100403888D01*
X81917463Y-100397276D01*
X81899721Y-100388884D01*
X81882886Y-100378794D01*
X81867121Y-100367102D01*
X81852579Y-100353921D01*
X81839398Y-100339379D01*
X81827706Y-100323614D01*
X81817616Y-100306779D01*
X81809224Y-100289037D01*
X81802612Y-100270557D01*
X81797843Y-100251518D01*
X81794963Y-100232103D01*
X81794000Y-100212500D01*
X81794000Y-99812500D01*
X81794963Y-99792897D01*
X81797843Y-99773482D01*
X81802612Y-99754443D01*
X81809224Y-99735963D01*
X81817616Y-99718221D01*
X81827706Y-99701386D01*
X81839398Y-99685621D01*
X81852579Y-99671079D01*
X81867121Y-99657898D01*
X81882886Y-99646206D01*
X81899721Y-99636116D01*
X81917463Y-99627724D01*
X81935943Y-99621112D01*
X81954982Y-99616343D01*
X81974397Y-99613463D01*
X81994000Y-99612500D01*
X83744000Y-99612500D01*
X83763603Y-99613463D01*
X83763603Y-99613463D01*
G37*
D23*
X82869000Y-100012500D03*
D17*
G36*
X83763603Y-100883463D02*
G01*
X83783018Y-100886343D01*
X83802057Y-100891112D01*
X83820537Y-100897724D01*
X83838279Y-100906116D01*
X83855114Y-100916206D01*
X83870879Y-100927898D01*
X83885421Y-100941079D01*
X83898602Y-100955621D01*
X83910294Y-100971386D01*
X83920384Y-100988221D01*
X83928776Y-101005963D01*
X83935388Y-101024443D01*
X83940157Y-101043482D01*
X83943037Y-101062897D01*
X83944000Y-101082500D01*
X83944000Y-101482500D01*
X83943037Y-101502103D01*
X83940157Y-101521518D01*
X83935388Y-101540557D01*
X83928776Y-101559037D01*
X83920384Y-101576779D01*
X83910294Y-101593614D01*
X83898602Y-101609379D01*
X83885421Y-101623921D01*
X83870879Y-101637102D01*
X83855114Y-101648794D01*
X83838279Y-101658884D01*
X83820537Y-101667276D01*
X83802057Y-101673888D01*
X83783018Y-101678657D01*
X83763603Y-101681537D01*
X83744000Y-101682500D01*
X81994000Y-101682500D01*
X81974397Y-101681537D01*
X81954982Y-101678657D01*
X81935943Y-101673888D01*
X81917463Y-101667276D01*
X81899721Y-101658884D01*
X81882886Y-101648794D01*
X81867121Y-101637102D01*
X81852579Y-101623921D01*
X81839398Y-101609379D01*
X81827706Y-101593614D01*
X81817616Y-101576779D01*
X81809224Y-101559037D01*
X81802612Y-101540557D01*
X81797843Y-101521518D01*
X81794963Y-101502103D01*
X81794000Y-101482500D01*
X81794000Y-101082500D01*
X81794963Y-101062897D01*
X81797843Y-101043482D01*
X81802612Y-101024443D01*
X81809224Y-101005963D01*
X81817616Y-100988221D01*
X81827706Y-100971386D01*
X81839398Y-100955621D01*
X81852579Y-100941079D01*
X81867121Y-100927898D01*
X81882886Y-100916206D01*
X81899721Y-100906116D01*
X81917463Y-100897724D01*
X81935943Y-100891112D01*
X81954982Y-100886343D01*
X81974397Y-100883463D01*
X81994000Y-100882500D01*
X83744000Y-100882500D01*
X83763603Y-100883463D01*
X83763603Y-100883463D01*
G37*
D23*
X82869000Y-101282500D03*
D17*
G36*
X83763603Y-102153463D02*
G01*
X83783018Y-102156343D01*
X83802057Y-102161112D01*
X83820537Y-102167724D01*
X83838279Y-102176116D01*
X83855114Y-102186206D01*
X83870879Y-102197898D01*
X83885421Y-102211079D01*
X83898602Y-102225621D01*
X83910294Y-102241386D01*
X83920384Y-102258221D01*
X83928776Y-102275963D01*
X83935388Y-102294443D01*
X83940157Y-102313482D01*
X83943037Y-102332897D01*
X83944000Y-102352500D01*
X83944000Y-102752500D01*
X83943037Y-102772103D01*
X83940157Y-102791518D01*
X83935388Y-102810557D01*
X83928776Y-102829037D01*
X83920384Y-102846779D01*
X83910294Y-102863614D01*
X83898602Y-102879379D01*
X83885421Y-102893921D01*
X83870879Y-102907102D01*
X83855114Y-102918794D01*
X83838279Y-102928884D01*
X83820537Y-102937276D01*
X83802057Y-102943888D01*
X83783018Y-102948657D01*
X83763603Y-102951537D01*
X83744000Y-102952500D01*
X81994000Y-102952500D01*
X81974397Y-102951537D01*
X81954982Y-102948657D01*
X81935943Y-102943888D01*
X81917463Y-102937276D01*
X81899721Y-102928884D01*
X81882886Y-102918794D01*
X81867121Y-102907102D01*
X81852579Y-102893921D01*
X81839398Y-102879379D01*
X81827706Y-102863614D01*
X81817616Y-102846779D01*
X81809224Y-102829037D01*
X81802612Y-102810557D01*
X81797843Y-102791518D01*
X81794963Y-102772103D01*
X81794000Y-102752500D01*
X81794000Y-102352500D01*
X81794963Y-102332897D01*
X81797843Y-102313482D01*
X81802612Y-102294443D01*
X81809224Y-102275963D01*
X81817616Y-102258221D01*
X81827706Y-102241386D01*
X81839398Y-102225621D01*
X81852579Y-102211079D01*
X81867121Y-102197898D01*
X81882886Y-102186206D01*
X81899721Y-102176116D01*
X81917463Y-102167724D01*
X81935943Y-102161112D01*
X81954982Y-102156343D01*
X81974397Y-102153463D01*
X81994000Y-102152500D01*
X83744000Y-102152500D01*
X83763603Y-102153463D01*
X83763603Y-102153463D01*
G37*
D23*
X82869000Y-102552500D03*
D17*
G36*
X83763603Y-103423463D02*
G01*
X83783018Y-103426343D01*
X83802057Y-103431112D01*
X83820537Y-103437724D01*
X83838279Y-103446116D01*
X83855114Y-103456206D01*
X83870879Y-103467898D01*
X83885421Y-103481079D01*
X83898602Y-103495621D01*
X83910294Y-103511386D01*
X83920384Y-103528221D01*
X83928776Y-103545963D01*
X83935388Y-103564443D01*
X83940157Y-103583482D01*
X83943037Y-103602897D01*
X83944000Y-103622500D01*
X83944000Y-104022500D01*
X83943037Y-104042103D01*
X83940157Y-104061518D01*
X83935388Y-104080557D01*
X83928776Y-104099037D01*
X83920384Y-104116779D01*
X83910294Y-104133614D01*
X83898602Y-104149379D01*
X83885421Y-104163921D01*
X83870879Y-104177102D01*
X83855114Y-104188794D01*
X83838279Y-104198884D01*
X83820537Y-104207276D01*
X83802057Y-104213888D01*
X83783018Y-104218657D01*
X83763603Y-104221537D01*
X83744000Y-104222500D01*
X81994000Y-104222500D01*
X81974397Y-104221537D01*
X81954982Y-104218657D01*
X81935943Y-104213888D01*
X81917463Y-104207276D01*
X81899721Y-104198884D01*
X81882886Y-104188794D01*
X81867121Y-104177102D01*
X81852579Y-104163921D01*
X81839398Y-104149379D01*
X81827706Y-104133614D01*
X81817616Y-104116779D01*
X81809224Y-104099037D01*
X81802612Y-104080557D01*
X81797843Y-104061518D01*
X81794963Y-104042103D01*
X81794000Y-104022500D01*
X81794000Y-103622500D01*
X81794963Y-103602897D01*
X81797843Y-103583482D01*
X81802612Y-103564443D01*
X81809224Y-103545963D01*
X81817616Y-103528221D01*
X81827706Y-103511386D01*
X81839398Y-103495621D01*
X81852579Y-103481079D01*
X81867121Y-103467898D01*
X81882886Y-103456206D01*
X81899721Y-103446116D01*
X81917463Y-103437724D01*
X81935943Y-103431112D01*
X81954982Y-103426343D01*
X81974397Y-103423463D01*
X81994000Y-103422500D01*
X83744000Y-103422500D01*
X83763603Y-103423463D01*
X83763603Y-103423463D01*
G37*
D23*
X82869000Y-103822500D03*
D17*
G36*
X83763603Y-104693463D02*
G01*
X83783018Y-104696343D01*
X83802057Y-104701112D01*
X83820537Y-104707724D01*
X83838279Y-104716116D01*
X83855114Y-104726206D01*
X83870879Y-104737898D01*
X83885421Y-104751079D01*
X83898602Y-104765621D01*
X83910294Y-104781386D01*
X83920384Y-104798221D01*
X83928776Y-104815963D01*
X83935388Y-104834443D01*
X83940157Y-104853482D01*
X83943037Y-104872897D01*
X83944000Y-104892500D01*
X83944000Y-105292500D01*
X83943037Y-105312103D01*
X83940157Y-105331518D01*
X83935388Y-105350557D01*
X83928776Y-105369037D01*
X83920384Y-105386779D01*
X83910294Y-105403614D01*
X83898602Y-105419379D01*
X83885421Y-105433921D01*
X83870879Y-105447102D01*
X83855114Y-105458794D01*
X83838279Y-105468884D01*
X83820537Y-105477276D01*
X83802057Y-105483888D01*
X83783018Y-105488657D01*
X83763603Y-105491537D01*
X83744000Y-105492500D01*
X81994000Y-105492500D01*
X81974397Y-105491537D01*
X81954982Y-105488657D01*
X81935943Y-105483888D01*
X81917463Y-105477276D01*
X81899721Y-105468884D01*
X81882886Y-105458794D01*
X81867121Y-105447102D01*
X81852579Y-105433921D01*
X81839398Y-105419379D01*
X81827706Y-105403614D01*
X81817616Y-105386779D01*
X81809224Y-105369037D01*
X81802612Y-105350557D01*
X81797843Y-105331518D01*
X81794963Y-105312103D01*
X81794000Y-105292500D01*
X81794000Y-104892500D01*
X81794963Y-104872897D01*
X81797843Y-104853482D01*
X81802612Y-104834443D01*
X81809224Y-104815963D01*
X81817616Y-104798221D01*
X81827706Y-104781386D01*
X81839398Y-104765621D01*
X81852579Y-104751079D01*
X81867121Y-104737898D01*
X81882886Y-104726206D01*
X81899721Y-104716116D01*
X81917463Y-104707724D01*
X81935943Y-104701112D01*
X81954982Y-104696343D01*
X81974397Y-104693463D01*
X81994000Y-104692500D01*
X83744000Y-104692500D01*
X83763603Y-104693463D01*
X83763603Y-104693463D01*
G37*
D23*
X82869000Y-105092500D03*
D17*
G36*
X83763603Y-105963463D02*
G01*
X83783018Y-105966343D01*
X83802057Y-105971112D01*
X83820537Y-105977724D01*
X83838279Y-105986116D01*
X83855114Y-105996206D01*
X83870879Y-106007898D01*
X83885421Y-106021079D01*
X83898602Y-106035621D01*
X83910294Y-106051386D01*
X83920384Y-106068221D01*
X83928776Y-106085963D01*
X83935388Y-106104443D01*
X83940157Y-106123482D01*
X83943037Y-106142897D01*
X83944000Y-106162500D01*
X83944000Y-106562500D01*
X83943037Y-106582103D01*
X83940157Y-106601518D01*
X83935388Y-106620557D01*
X83928776Y-106639037D01*
X83920384Y-106656779D01*
X83910294Y-106673614D01*
X83898602Y-106689379D01*
X83885421Y-106703921D01*
X83870879Y-106717102D01*
X83855114Y-106728794D01*
X83838279Y-106738884D01*
X83820537Y-106747276D01*
X83802057Y-106753888D01*
X83783018Y-106758657D01*
X83763603Y-106761537D01*
X83744000Y-106762500D01*
X81994000Y-106762500D01*
X81974397Y-106761537D01*
X81954982Y-106758657D01*
X81935943Y-106753888D01*
X81917463Y-106747276D01*
X81899721Y-106738884D01*
X81882886Y-106728794D01*
X81867121Y-106717102D01*
X81852579Y-106703921D01*
X81839398Y-106689379D01*
X81827706Y-106673614D01*
X81817616Y-106656779D01*
X81809224Y-106639037D01*
X81802612Y-106620557D01*
X81797843Y-106601518D01*
X81794963Y-106582103D01*
X81794000Y-106562500D01*
X81794000Y-106162500D01*
X81794963Y-106142897D01*
X81797843Y-106123482D01*
X81802612Y-106104443D01*
X81809224Y-106085963D01*
X81817616Y-106068221D01*
X81827706Y-106051386D01*
X81839398Y-106035621D01*
X81852579Y-106021079D01*
X81867121Y-106007898D01*
X81882886Y-105996206D01*
X81899721Y-105986116D01*
X81917463Y-105977724D01*
X81935943Y-105971112D01*
X81954982Y-105966343D01*
X81974397Y-105963463D01*
X81994000Y-105962500D01*
X83744000Y-105962500D01*
X83763603Y-105963463D01*
X83763603Y-105963463D01*
G37*
D23*
X82869000Y-106362500D03*
D17*
G36*
X83763603Y-107233463D02*
G01*
X83783018Y-107236343D01*
X83802057Y-107241112D01*
X83820537Y-107247724D01*
X83838279Y-107256116D01*
X83855114Y-107266206D01*
X83870879Y-107277898D01*
X83885421Y-107291079D01*
X83898602Y-107305621D01*
X83910294Y-107321386D01*
X83920384Y-107338221D01*
X83928776Y-107355963D01*
X83935388Y-107374443D01*
X83940157Y-107393482D01*
X83943037Y-107412897D01*
X83944000Y-107432500D01*
X83944000Y-107832500D01*
X83943037Y-107852103D01*
X83940157Y-107871518D01*
X83935388Y-107890557D01*
X83928776Y-107909037D01*
X83920384Y-107926779D01*
X83910294Y-107943614D01*
X83898602Y-107959379D01*
X83885421Y-107973921D01*
X83870879Y-107987102D01*
X83855114Y-107998794D01*
X83838279Y-108008884D01*
X83820537Y-108017276D01*
X83802057Y-108023888D01*
X83783018Y-108028657D01*
X83763603Y-108031537D01*
X83744000Y-108032500D01*
X81994000Y-108032500D01*
X81974397Y-108031537D01*
X81954982Y-108028657D01*
X81935943Y-108023888D01*
X81917463Y-108017276D01*
X81899721Y-108008884D01*
X81882886Y-107998794D01*
X81867121Y-107987102D01*
X81852579Y-107973921D01*
X81839398Y-107959379D01*
X81827706Y-107943614D01*
X81817616Y-107926779D01*
X81809224Y-107909037D01*
X81802612Y-107890557D01*
X81797843Y-107871518D01*
X81794963Y-107852103D01*
X81794000Y-107832500D01*
X81794000Y-107432500D01*
X81794963Y-107412897D01*
X81797843Y-107393482D01*
X81802612Y-107374443D01*
X81809224Y-107355963D01*
X81817616Y-107338221D01*
X81827706Y-107321386D01*
X81839398Y-107305621D01*
X81852579Y-107291079D01*
X81867121Y-107277898D01*
X81882886Y-107266206D01*
X81899721Y-107256116D01*
X81917463Y-107247724D01*
X81935943Y-107241112D01*
X81954982Y-107236343D01*
X81974397Y-107233463D01*
X81994000Y-107232500D01*
X83744000Y-107232500D01*
X83763603Y-107233463D01*
X83763603Y-107233463D01*
G37*
D23*
X82869000Y-107632500D03*
D17*
G36*
X83763603Y-108503463D02*
G01*
X83783018Y-108506343D01*
X83802057Y-108511112D01*
X83820537Y-108517724D01*
X83838279Y-108526116D01*
X83855114Y-108536206D01*
X83870879Y-108547898D01*
X83885421Y-108561079D01*
X83898602Y-108575621D01*
X83910294Y-108591386D01*
X83920384Y-108608221D01*
X83928776Y-108625963D01*
X83935388Y-108644443D01*
X83940157Y-108663482D01*
X83943037Y-108682897D01*
X83944000Y-108702500D01*
X83944000Y-109102500D01*
X83943037Y-109122103D01*
X83940157Y-109141518D01*
X83935388Y-109160557D01*
X83928776Y-109179037D01*
X83920384Y-109196779D01*
X83910294Y-109213614D01*
X83898602Y-109229379D01*
X83885421Y-109243921D01*
X83870879Y-109257102D01*
X83855114Y-109268794D01*
X83838279Y-109278884D01*
X83820537Y-109287276D01*
X83802057Y-109293888D01*
X83783018Y-109298657D01*
X83763603Y-109301537D01*
X83744000Y-109302500D01*
X81994000Y-109302500D01*
X81974397Y-109301537D01*
X81954982Y-109298657D01*
X81935943Y-109293888D01*
X81917463Y-109287276D01*
X81899721Y-109278884D01*
X81882886Y-109268794D01*
X81867121Y-109257102D01*
X81852579Y-109243921D01*
X81839398Y-109229379D01*
X81827706Y-109213614D01*
X81817616Y-109196779D01*
X81809224Y-109179037D01*
X81802612Y-109160557D01*
X81797843Y-109141518D01*
X81794963Y-109122103D01*
X81794000Y-109102500D01*
X81794000Y-108702500D01*
X81794963Y-108682897D01*
X81797843Y-108663482D01*
X81802612Y-108644443D01*
X81809224Y-108625963D01*
X81817616Y-108608221D01*
X81827706Y-108591386D01*
X81839398Y-108575621D01*
X81852579Y-108561079D01*
X81867121Y-108547898D01*
X81882886Y-108536206D01*
X81899721Y-108526116D01*
X81917463Y-108517724D01*
X81935943Y-108511112D01*
X81954982Y-108506343D01*
X81974397Y-108503463D01*
X81994000Y-108502500D01*
X83744000Y-108502500D01*
X83763603Y-108503463D01*
X83763603Y-108503463D01*
G37*
D23*
X82869000Y-108902500D03*
D17*
G36*
X88713603Y-108503463D02*
G01*
X88733018Y-108506343D01*
X88752057Y-108511112D01*
X88770537Y-108517724D01*
X88788279Y-108526116D01*
X88805114Y-108536206D01*
X88820879Y-108547898D01*
X88835421Y-108561079D01*
X88848602Y-108575621D01*
X88860294Y-108591386D01*
X88870384Y-108608221D01*
X88878776Y-108625963D01*
X88885388Y-108644443D01*
X88890157Y-108663482D01*
X88893037Y-108682897D01*
X88894000Y-108702500D01*
X88894000Y-109102500D01*
X88893037Y-109122103D01*
X88890157Y-109141518D01*
X88885388Y-109160557D01*
X88878776Y-109179037D01*
X88870384Y-109196779D01*
X88860294Y-109213614D01*
X88848602Y-109229379D01*
X88835421Y-109243921D01*
X88820879Y-109257102D01*
X88805114Y-109268794D01*
X88788279Y-109278884D01*
X88770537Y-109287276D01*
X88752057Y-109293888D01*
X88733018Y-109298657D01*
X88713603Y-109301537D01*
X88694000Y-109302500D01*
X86944000Y-109302500D01*
X86924397Y-109301537D01*
X86904982Y-109298657D01*
X86885943Y-109293888D01*
X86867463Y-109287276D01*
X86849721Y-109278884D01*
X86832886Y-109268794D01*
X86817121Y-109257102D01*
X86802579Y-109243921D01*
X86789398Y-109229379D01*
X86777706Y-109213614D01*
X86767616Y-109196779D01*
X86759224Y-109179037D01*
X86752612Y-109160557D01*
X86747843Y-109141518D01*
X86744963Y-109122103D01*
X86744000Y-109102500D01*
X86744000Y-108702500D01*
X86744963Y-108682897D01*
X86747843Y-108663482D01*
X86752612Y-108644443D01*
X86759224Y-108625963D01*
X86767616Y-108608221D01*
X86777706Y-108591386D01*
X86789398Y-108575621D01*
X86802579Y-108561079D01*
X86817121Y-108547898D01*
X86832886Y-108536206D01*
X86849721Y-108526116D01*
X86867463Y-108517724D01*
X86885943Y-108511112D01*
X86904982Y-108506343D01*
X86924397Y-108503463D01*
X86944000Y-108502500D01*
X88694000Y-108502500D01*
X88713603Y-108503463D01*
X88713603Y-108503463D01*
G37*
D23*
X87819000Y-108902500D03*
D17*
G36*
X88713603Y-107233463D02*
G01*
X88733018Y-107236343D01*
X88752057Y-107241112D01*
X88770537Y-107247724D01*
X88788279Y-107256116D01*
X88805114Y-107266206D01*
X88820879Y-107277898D01*
X88835421Y-107291079D01*
X88848602Y-107305621D01*
X88860294Y-107321386D01*
X88870384Y-107338221D01*
X88878776Y-107355963D01*
X88885388Y-107374443D01*
X88890157Y-107393482D01*
X88893037Y-107412897D01*
X88894000Y-107432500D01*
X88894000Y-107832500D01*
X88893037Y-107852103D01*
X88890157Y-107871518D01*
X88885388Y-107890557D01*
X88878776Y-107909037D01*
X88870384Y-107926779D01*
X88860294Y-107943614D01*
X88848602Y-107959379D01*
X88835421Y-107973921D01*
X88820879Y-107987102D01*
X88805114Y-107998794D01*
X88788279Y-108008884D01*
X88770537Y-108017276D01*
X88752057Y-108023888D01*
X88733018Y-108028657D01*
X88713603Y-108031537D01*
X88694000Y-108032500D01*
X86944000Y-108032500D01*
X86924397Y-108031537D01*
X86904982Y-108028657D01*
X86885943Y-108023888D01*
X86867463Y-108017276D01*
X86849721Y-108008884D01*
X86832886Y-107998794D01*
X86817121Y-107987102D01*
X86802579Y-107973921D01*
X86789398Y-107959379D01*
X86777706Y-107943614D01*
X86767616Y-107926779D01*
X86759224Y-107909037D01*
X86752612Y-107890557D01*
X86747843Y-107871518D01*
X86744963Y-107852103D01*
X86744000Y-107832500D01*
X86744000Y-107432500D01*
X86744963Y-107412897D01*
X86747843Y-107393482D01*
X86752612Y-107374443D01*
X86759224Y-107355963D01*
X86767616Y-107338221D01*
X86777706Y-107321386D01*
X86789398Y-107305621D01*
X86802579Y-107291079D01*
X86817121Y-107277898D01*
X86832886Y-107266206D01*
X86849721Y-107256116D01*
X86867463Y-107247724D01*
X86885943Y-107241112D01*
X86904982Y-107236343D01*
X86924397Y-107233463D01*
X86944000Y-107232500D01*
X88694000Y-107232500D01*
X88713603Y-107233463D01*
X88713603Y-107233463D01*
G37*
D23*
X87819000Y-107632500D03*
D17*
G36*
X88713603Y-105963463D02*
G01*
X88733018Y-105966343D01*
X88752057Y-105971112D01*
X88770537Y-105977724D01*
X88788279Y-105986116D01*
X88805114Y-105996206D01*
X88820879Y-106007898D01*
X88835421Y-106021079D01*
X88848602Y-106035621D01*
X88860294Y-106051386D01*
X88870384Y-106068221D01*
X88878776Y-106085963D01*
X88885388Y-106104443D01*
X88890157Y-106123482D01*
X88893037Y-106142897D01*
X88894000Y-106162500D01*
X88894000Y-106562500D01*
X88893037Y-106582103D01*
X88890157Y-106601518D01*
X88885388Y-106620557D01*
X88878776Y-106639037D01*
X88870384Y-106656779D01*
X88860294Y-106673614D01*
X88848602Y-106689379D01*
X88835421Y-106703921D01*
X88820879Y-106717102D01*
X88805114Y-106728794D01*
X88788279Y-106738884D01*
X88770537Y-106747276D01*
X88752057Y-106753888D01*
X88733018Y-106758657D01*
X88713603Y-106761537D01*
X88694000Y-106762500D01*
X86944000Y-106762500D01*
X86924397Y-106761537D01*
X86904982Y-106758657D01*
X86885943Y-106753888D01*
X86867463Y-106747276D01*
X86849721Y-106738884D01*
X86832886Y-106728794D01*
X86817121Y-106717102D01*
X86802579Y-106703921D01*
X86789398Y-106689379D01*
X86777706Y-106673614D01*
X86767616Y-106656779D01*
X86759224Y-106639037D01*
X86752612Y-106620557D01*
X86747843Y-106601518D01*
X86744963Y-106582103D01*
X86744000Y-106562500D01*
X86744000Y-106162500D01*
X86744963Y-106142897D01*
X86747843Y-106123482D01*
X86752612Y-106104443D01*
X86759224Y-106085963D01*
X86767616Y-106068221D01*
X86777706Y-106051386D01*
X86789398Y-106035621D01*
X86802579Y-106021079D01*
X86817121Y-106007898D01*
X86832886Y-105996206D01*
X86849721Y-105986116D01*
X86867463Y-105977724D01*
X86885943Y-105971112D01*
X86904982Y-105966343D01*
X86924397Y-105963463D01*
X86944000Y-105962500D01*
X88694000Y-105962500D01*
X88713603Y-105963463D01*
X88713603Y-105963463D01*
G37*
D23*
X87819000Y-106362500D03*
D17*
G36*
X88713603Y-104693463D02*
G01*
X88733018Y-104696343D01*
X88752057Y-104701112D01*
X88770537Y-104707724D01*
X88788279Y-104716116D01*
X88805114Y-104726206D01*
X88820879Y-104737898D01*
X88835421Y-104751079D01*
X88848602Y-104765621D01*
X88860294Y-104781386D01*
X88870384Y-104798221D01*
X88878776Y-104815963D01*
X88885388Y-104834443D01*
X88890157Y-104853482D01*
X88893037Y-104872897D01*
X88894000Y-104892500D01*
X88894000Y-105292500D01*
X88893037Y-105312103D01*
X88890157Y-105331518D01*
X88885388Y-105350557D01*
X88878776Y-105369037D01*
X88870384Y-105386779D01*
X88860294Y-105403614D01*
X88848602Y-105419379D01*
X88835421Y-105433921D01*
X88820879Y-105447102D01*
X88805114Y-105458794D01*
X88788279Y-105468884D01*
X88770537Y-105477276D01*
X88752057Y-105483888D01*
X88733018Y-105488657D01*
X88713603Y-105491537D01*
X88694000Y-105492500D01*
X86944000Y-105492500D01*
X86924397Y-105491537D01*
X86904982Y-105488657D01*
X86885943Y-105483888D01*
X86867463Y-105477276D01*
X86849721Y-105468884D01*
X86832886Y-105458794D01*
X86817121Y-105447102D01*
X86802579Y-105433921D01*
X86789398Y-105419379D01*
X86777706Y-105403614D01*
X86767616Y-105386779D01*
X86759224Y-105369037D01*
X86752612Y-105350557D01*
X86747843Y-105331518D01*
X86744963Y-105312103D01*
X86744000Y-105292500D01*
X86744000Y-104892500D01*
X86744963Y-104872897D01*
X86747843Y-104853482D01*
X86752612Y-104834443D01*
X86759224Y-104815963D01*
X86767616Y-104798221D01*
X86777706Y-104781386D01*
X86789398Y-104765621D01*
X86802579Y-104751079D01*
X86817121Y-104737898D01*
X86832886Y-104726206D01*
X86849721Y-104716116D01*
X86867463Y-104707724D01*
X86885943Y-104701112D01*
X86904982Y-104696343D01*
X86924397Y-104693463D01*
X86944000Y-104692500D01*
X88694000Y-104692500D01*
X88713603Y-104693463D01*
X88713603Y-104693463D01*
G37*
D23*
X87819000Y-105092500D03*
D17*
G36*
X88713603Y-103423463D02*
G01*
X88733018Y-103426343D01*
X88752057Y-103431112D01*
X88770537Y-103437724D01*
X88788279Y-103446116D01*
X88805114Y-103456206D01*
X88820879Y-103467898D01*
X88835421Y-103481079D01*
X88848602Y-103495621D01*
X88860294Y-103511386D01*
X88870384Y-103528221D01*
X88878776Y-103545963D01*
X88885388Y-103564443D01*
X88890157Y-103583482D01*
X88893037Y-103602897D01*
X88894000Y-103622500D01*
X88894000Y-104022500D01*
X88893037Y-104042103D01*
X88890157Y-104061518D01*
X88885388Y-104080557D01*
X88878776Y-104099037D01*
X88870384Y-104116779D01*
X88860294Y-104133614D01*
X88848602Y-104149379D01*
X88835421Y-104163921D01*
X88820879Y-104177102D01*
X88805114Y-104188794D01*
X88788279Y-104198884D01*
X88770537Y-104207276D01*
X88752057Y-104213888D01*
X88733018Y-104218657D01*
X88713603Y-104221537D01*
X88694000Y-104222500D01*
X86944000Y-104222500D01*
X86924397Y-104221537D01*
X86904982Y-104218657D01*
X86885943Y-104213888D01*
X86867463Y-104207276D01*
X86849721Y-104198884D01*
X86832886Y-104188794D01*
X86817121Y-104177102D01*
X86802579Y-104163921D01*
X86789398Y-104149379D01*
X86777706Y-104133614D01*
X86767616Y-104116779D01*
X86759224Y-104099037D01*
X86752612Y-104080557D01*
X86747843Y-104061518D01*
X86744963Y-104042103D01*
X86744000Y-104022500D01*
X86744000Y-103622500D01*
X86744963Y-103602897D01*
X86747843Y-103583482D01*
X86752612Y-103564443D01*
X86759224Y-103545963D01*
X86767616Y-103528221D01*
X86777706Y-103511386D01*
X86789398Y-103495621D01*
X86802579Y-103481079D01*
X86817121Y-103467898D01*
X86832886Y-103456206D01*
X86849721Y-103446116D01*
X86867463Y-103437724D01*
X86885943Y-103431112D01*
X86904982Y-103426343D01*
X86924397Y-103423463D01*
X86944000Y-103422500D01*
X88694000Y-103422500D01*
X88713603Y-103423463D01*
X88713603Y-103423463D01*
G37*
D23*
X87819000Y-103822500D03*
D17*
G36*
X88713603Y-102153463D02*
G01*
X88733018Y-102156343D01*
X88752057Y-102161112D01*
X88770537Y-102167724D01*
X88788279Y-102176116D01*
X88805114Y-102186206D01*
X88820879Y-102197898D01*
X88835421Y-102211079D01*
X88848602Y-102225621D01*
X88860294Y-102241386D01*
X88870384Y-102258221D01*
X88878776Y-102275963D01*
X88885388Y-102294443D01*
X88890157Y-102313482D01*
X88893037Y-102332897D01*
X88894000Y-102352500D01*
X88894000Y-102752500D01*
X88893037Y-102772103D01*
X88890157Y-102791518D01*
X88885388Y-102810557D01*
X88878776Y-102829037D01*
X88870384Y-102846779D01*
X88860294Y-102863614D01*
X88848602Y-102879379D01*
X88835421Y-102893921D01*
X88820879Y-102907102D01*
X88805114Y-102918794D01*
X88788279Y-102928884D01*
X88770537Y-102937276D01*
X88752057Y-102943888D01*
X88733018Y-102948657D01*
X88713603Y-102951537D01*
X88694000Y-102952500D01*
X86944000Y-102952500D01*
X86924397Y-102951537D01*
X86904982Y-102948657D01*
X86885943Y-102943888D01*
X86867463Y-102937276D01*
X86849721Y-102928884D01*
X86832886Y-102918794D01*
X86817121Y-102907102D01*
X86802579Y-102893921D01*
X86789398Y-102879379D01*
X86777706Y-102863614D01*
X86767616Y-102846779D01*
X86759224Y-102829037D01*
X86752612Y-102810557D01*
X86747843Y-102791518D01*
X86744963Y-102772103D01*
X86744000Y-102752500D01*
X86744000Y-102352500D01*
X86744963Y-102332897D01*
X86747843Y-102313482D01*
X86752612Y-102294443D01*
X86759224Y-102275963D01*
X86767616Y-102258221D01*
X86777706Y-102241386D01*
X86789398Y-102225621D01*
X86802579Y-102211079D01*
X86817121Y-102197898D01*
X86832886Y-102186206D01*
X86849721Y-102176116D01*
X86867463Y-102167724D01*
X86885943Y-102161112D01*
X86904982Y-102156343D01*
X86924397Y-102153463D01*
X86944000Y-102152500D01*
X88694000Y-102152500D01*
X88713603Y-102153463D01*
X88713603Y-102153463D01*
G37*
D23*
X87819000Y-102552500D03*
D17*
G36*
X88713603Y-100883463D02*
G01*
X88733018Y-100886343D01*
X88752057Y-100891112D01*
X88770537Y-100897724D01*
X88788279Y-100906116D01*
X88805114Y-100916206D01*
X88820879Y-100927898D01*
X88835421Y-100941079D01*
X88848602Y-100955621D01*
X88860294Y-100971386D01*
X88870384Y-100988221D01*
X88878776Y-101005963D01*
X88885388Y-101024443D01*
X88890157Y-101043482D01*
X88893037Y-101062897D01*
X88894000Y-101082500D01*
X88894000Y-101482500D01*
X88893037Y-101502103D01*
X88890157Y-101521518D01*
X88885388Y-101540557D01*
X88878776Y-101559037D01*
X88870384Y-101576779D01*
X88860294Y-101593614D01*
X88848602Y-101609379D01*
X88835421Y-101623921D01*
X88820879Y-101637102D01*
X88805114Y-101648794D01*
X88788279Y-101658884D01*
X88770537Y-101667276D01*
X88752057Y-101673888D01*
X88733018Y-101678657D01*
X88713603Y-101681537D01*
X88694000Y-101682500D01*
X86944000Y-101682500D01*
X86924397Y-101681537D01*
X86904982Y-101678657D01*
X86885943Y-101673888D01*
X86867463Y-101667276D01*
X86849721Y-101658884D01*
X86832886Y-101648794D01*
X86817121Y-101637102D01*
X86802579Y-101623921D01*
X86789398Y-101609379D01*
X86777706Y-101593614D01*
X86767616Y-101576779D01*
X86759224Y-101559037D01*
X86752612Y-101540557D01*
X86747843Y-101521518D01*
X86744963Y-101502103D01*
X86744000Y-101482500D01*
X86744000Y-101082500D01*
X86744963Y-101062897D01*
X86747843Y-101043482D01*
X86752612Y-101024443D01*
X86759224Y-101005963D01*
X86767616Y-100988221D01*
X86777706Y-100971386D01*
X86789398Y-100955621D01*
X86802579Y-100941079D01*
X86817121Y-100927898D01*
X86832886Y-100916206D01*
X86849721Y-100906116D01*
X86867463Y-100897724D01*
X86885943Y-100891112D01*
X86904982Y-100886343D01*
X86924397Y-100883463D01*
X86944000Y-100882500D01*
X88694000Y-100882500D01*
X88713603Y-100883463D01*
X88713603Y-100883463D01*
G37*
D23*
X87819000Y-101282500D03*
D17*
G36*
X88713603Y-99613463D02*
G01*
X88733018Y-99616343D01*
X88752057Y-99621112D01*
X88770537Y-99627724D01*
X88788279Y-99636116D01*
X88805114Y-99646206D01*
X88820879Y-99657898D01*
X88835421Y-99671079D01*
X88848602Y-99685621D01*
X88860294Y-99701386D01*
X88870384Y-99718221D01*
X88878776Y-99735963D01*
X88885388Y-99754443D01*
X88890157Y-99773482D01*
X88893037Y-99792897D01*
X88894000Y-99812500D01*
X88894000Y-100212500D01*
X88893037Y-100232103D01*
X88890157Y-100251518D01*
X88885388Y-100270557D01*
X88878776Y-100289037D01*
X88870384Y-100306779D01*
X88860294Y-100323614D01*
X88848602Y-100339379D01*
X88835421Y-100353921D01*
X88820879Y-100367102D01*
X88805114Y-100378794D01*
X88788279Y-100388884D01*
X88770537Y-100397276D01*
X88752057Y-100403888D01*
X88733018Y-100408657D01*
X88713603Y-100411537D01*
X88694000Y-100412500D01*
X86944000Y-100412500D01*
X86924397Y-100411537D01*
X86904982Y-100408657D01*
X86885943Y-100403888D01*
X86867463Y-100397276D01*
X86849721Y-100388884D01*
X86832886Y-100378794D01*
X86817121Y-100367102D01*
X86802579Y-100353921D01*
X86789398Y-100339379D01*
X86777706Y-100323614D01*
X86767616Y-100306779D01*
X86759224Y-100289037D01*
X86752612Y-100270557D01*
X86747843Y-100251518D01*
X86744963Y-100232103D01*
X86744000Y-100212500D01*
X86744000Y-99812500D01*
X86744963Y-99792897D01*
X86747843Y-99773482D01*
X86752612Y-99754443D01*
X86759224Y-99735963D01*
X86767616Y-99718221D01*
X86777706Y-99701386D01*
X86789398Y-99685621D01*
X86802579Y-99671079D01*
X86817121Y-99657898D01*
X86832886Y-99646206D01*
X86849721Y-99636116D01*
X86867463Y-99627724D01*
X86885943Y-99621112D01*
X86904982Y-99616343D01*
X86924397Y-99613463D01*
X86944000Y-99612500D01*
X88694000Y-99612500D01*
X88713603Y-99613463D01*
X88713603Y-99613463D01*
G37*
D23*
X87819000Y-100012500D03*
D12*
X85700000Y-93660000D03*
D13*
X83160000Y-93660000D03*
D12*
X94240000Y-101200000D03*
D13*
X94240000Y-103740000D03*
D12*
X128587500Y-101854000D03*
D13*
X128587500Y-99314000D03*
D12*
X114280000Y-81620000D03*
X111740000Y-81620000D03*
D13*
X109200000Y-81620000D03*
D12*
X114240000Y-85420000D03*
X111700000Y-85420000D03*
D13*
X109160000Y-85420000D03*
D24*
X94257500Y-115379500D03*
X87257500Y-115379500D03*
D25*
X93257500Y-112679500D03*
X88257500Y-112679500D03*
D12*
X135180000Y-63050000D03*
X135180000Y-65590000D03*
X132640000Y-63050000D03*
X132640000Y-65590000D03*
X130100000Y-63050000D03*
X130100000Y-65590000D03*
X127560000Y-63050000D03*
X127560000Y-65590000D03*
X125020000Y-63050000D03*
X125020000Y-65590000D03*
X122480000Y-63050000D03*
X122480000Y-65590000D03*
X119940000Y-63050000D03*
X119940000Y-65590000D03*
X117400000Y-63050000D03*
X117400000Y-65590000D03*
X114860000Y-63050000D03*
X114860000Y-65590000D03*
X112320000Y-63050000D03*
X112320000Y-65590000D03*
X109780000Y-63050000D03*
X109780000Y-65590000D03*
X107240000Y-63050000D03*
X107240000Y-65590000D03*
X104700000Y-63050000D03*
X104700000Y-65590000D03*
X102160000Y-63050000D03*
X102160000Y-65590000D03*
X99620000Y-63050000D03*
X99620000Y-65590000D03*
X97080000Y-63050000D03*
X97080000Y-65590000D03*
X94540000Y-63050000D03*
X94540000Y-65590000D03*
X92000000Y-63050000D03*
X92000000Y-65590000D03*
X89460000Y-63050000D03*
X89460000Y-65590000D03*
X86920000Y-63050000D03*
D13*
X86920000Y-65590000D03*
D26*
X82040000Y-64310000D03*
X140040000Y-64330000D03*
X82040000Y-113320000D03*
X140030000Y-113310000D03*
M02*
