G04 #@! TF.GenerationSoftware,KiCad,Pcbnew,(5.1.4)-1*
G04 #@! TF.CreationDate,2019-11-05T17:53:00+05:30*
G04 #@! TF.ProjectId,RPi Hat RF Transmitter V1,52506920-4861-4742-9052-46205472616e,rev?*
G04 #@! TF.SameCoordinates,Original*
G04 #@! TF.FileFunction,Copper,L2,Inr*
G04 #@! TF.FilePolarity,Positive*
%FSLAX46Y46*%
G04 Gerber Fmt 4.6, Leading zero omitted, Abs format (unit mm)*
G04 Created by KiCad (PCBNEW (5.1.4)-1) date 2019-11-05 17:53:00*
%MOMM*%
%LPD*%
G04 APERTURE LIST*
%ADD10C,0.150000*%
%ADD11C,1.800000*%
%ADD12O,1.700000X1.700000*%
%ADD13R,1.700000X1.700000*%
%ADD14C,0.610000*%
%ADD15C,2.250000*%
%ADD16C,2.050000*%
%ADD17O,1.200000X1.900000*%
%ADD18C,1.450000*%
%ADD19C,3.000000*%
%ADD20C,0.500000*%
G04 APERTURE END LIST*
D10*
X78546356Y-63817611D02*
X78546356Y-113817611D01*
X140546356Y-60817611D02*
X81546356Y-60817611D01*
X143546351Y-113822847D02*
X143546356Y-63817611D01*
X81546356Y-116817611D02*
X140546356Y-116817611D01*
X78546356Y-63817611D02*
G75*
G02X81546356Y-60817611I3000000J0D01*
G01*
X140546356Y-60817611D02*
G75*
G02X143546356Y-63817611I0J-3000000D01*
G01*
X81546356Y-116817611D02*
G75*
G02X78546356Y-113817611I0J3000000D01*
G01*
X143546351Y-113822847D02*
G75*
G02X140546356Y-116817611I-2999995J5236D01*
G01*
D11*
X108180000Y-102200000D03*
D12*
X131140000Y-70580000D03*
X133680000Y-70580000D03*
X131140000Y-73120000D03*
X133680000Y-73120000D03*
X131140000Y-75660000D03*
D13*
X133680000Y-75660000D03*
D12*
X105320000Y-84980000D03*
D13*
X105320000Y-82440000D03*
D12*
X83500000Y-74380000D03*
D13*
X83500000Y-71840000D03*
D14*
X110960000Y-95415000D03*
X110960000Y-97625000D03*
D15*
X120523000Y-114998500D03*
X115443000Y-114998500D03*
X115443000Y-109918500D03*
X120523000Y-109918500D03*
D16*
X117983000Y-112458500D03*
D15*
X80937000Y-83038500D03*
X80937000Y-77958500D03*
X86017000Y-77958500D03*
X86017000Y-83038500D03*
D16*
X83477000Y-80498500D03*
D12*
X140779500Y-70612000D03*
D13*
X138239500Y-70612000D03*
D12*
X85700000Y-93660000D03*
D13*
X83160000Y-93660000D03*
D12*
X94240000Y-101200000D03*
D13*
X94240000Y-103740000D03*
D12*
X128587500Y-101854000D03*
D13*
X128587500Y-99314000D03*
D12*
X114280000Y-81620000D03*
X111740000Y-81620000D03*
D13*
X109200000Y-81620000D03*
D12*
X114240000Y-85420000D03*
X111700000Y-85420000D03*
D13*
X109160000Y-85420000D03*
D17*
X94257500Y-115379500D03*
X87257500Y-115379500D03*
D18*
X93257500Y-112679500D03*
X88257500Y-112679500D03*
D12*
X135180000Y-63050000D03*
X135180000Y-65590000D03*
X132640000Y-63050000D03*
X132640000Y-65590000D03*
X130100000Y-63050000D03*
X130100000Y-65590000D03*
X127560000Y-63050000D03*
X127560000Y-65590000D03*
X125020000Y-63050000D03*
X125020000Y-65590000D03*
X122480000Y-63050000D03*
X122480000Y-65590000D03*
X119940000Y-63050000D03*
X119940000Y-65590000D03*
X117400000Y-63050000D03*
X117400000Y-65590000D03*
X114860000Y-63050000D03*
X114860000Y-65590000D03*
X112320000Y-63050000D03*
X112320000Y-65590000D03*
X109780000Y-63050000D03*
X109780000Y-65590000D03*
X107240000Y-63050000D03*
X107240000Y-65590000D03*
X104700000Y-63050000D03*
X104700000Y-65590000D03*
X102160000Y-63050000D03*
X102160000Y-65590000D03*
X99620000Y-63050000D03*
X99620000Y-65590000D03*
X97080000Y-63050000D03*
X97080000Y-65590000D03*
X94540000Y-63050000D03*
X94540000Y-65590000D03*
X92000000Y-63050000D03*
X92000000Y-65590000D03*
X89460000Y-63050000D03*
X89460000Y-65590000D03*
X86920000Y-63050000D03*
D13*
X86920000Y-65590000D03*
D19*
X82040000Y-64310000D03*
X140040000Y-64330000D03*
X82040000Y-113320000D03*
X140030000Y-113310000D03*
D20*
X140398500Y-100711000D03*
X141986000Y-101536500D03*
X140970000Y-101536500D03*
X142494000Y-103378000D03*
X140589000Y-103378000D03*
X136906000Y-98044000D03*
X136906000Y-100584000D03*
X136906000Y-99314000D03*
X136906000Y-101981000D03*
X131699000Y-99441000D03*
X131699000Y-101981000D03*
X131699000Y-100711000D03*
X131699000Y-103378000D03*
X132842000Y-96647000D03*
X135382000Y-96647000D03*
X134112000Y-96647000D03*
X136779000Y-96901000D03*
X142494000Y-102298500D03*
X141605000Y-102298500D03*
X95758000Y-66929000D03*
X140462000Y-94488000D03*
X140589000Y-95377000D03*
X140652500Y-96583500D03*
X140716000Y-97726500D03*
X140398500Y-98996500D03*
X140398500Y-99949000D03*
X141351000Y-100711000D03*
X142367000Y-100711000D03*
X142494000Y-104394000D03*
X141605000Y-103378000D03*
X140589000Y-102298500D03*
X131699000Y-97282000D03*
X131572000Y-98298000D03*
X137160000Y-95694500D03*
X137350500Y-94488000D03*
X87922000Y-81959000D03*
X88049000Y-82975000D03*
X87795000Y-83991000D03*
X87033000Y-84880000D03*
X85636000Y-84880000D03*
X82207000Y-84372000D03*
X81191000Y-85007000D03*
X80175000Y-84880000D03*
X131699000Y-106172000D03*
X131699000Y-107315000D03*
X131572000Y-108458000D03*
X130302000Y-107950000D03*
X128905000Y-108077000D03*
X127381000Y-108077000D03*
X126238000Y-108458000D03*
X124968000Y-108585000D03*
X123952000Y-109601000D03*
X122936000Y-110617000D03*
X122047000Y-111252000D03*
X118618000Y-110363000D03*
X117348000Y-110363000D03*
X115697000Y-111760000D03*
X115697000Y-113030000D03*
X117348000Y-114427000D03*
X118491000Y-114427000D03*
X122047000Y-113665000D03*
X123444000Y-113665000D03*
X124587000Y-112649000D03*
X125476000Y-111633000D03*
X126365000Y-110871000D03*
X127381000Y-111506000D03*
X128651000Y-111506000D03*
X130048000Y-111506000D03*
X131191000Y-111125000D03*
X132080000Y-111252000D03*
X133096000Y-111506000D03*
X134493000Y-111379000D03*
X135636000Y-111125000D03*
X136779000Y-110998000D03*
X137922000Y-109982000D03*
X138938000Y-108966000D03*
X139954000Y-107950000D03*
X140208000Y-106680000D03*
X140335000Y-105410000D03*
X140589000Y-104394000D03*
X141605000Y-104394000D03*
X137541000Y-105410000D03*
X137414000Y-106680000D03*
X136525000Y-107569000D03*
X135636000Y-108331000D03*
X135001000Y-107442000D03*
X134493000Y-103505000D03*
X134493000Y-100203000D03*
X136906000Y-104394000D03*
X136906000Y-103251000D03*
X141351000Y-99949000D03*
X142367000Y-99949000D03*
X142494000Y-105410000D03*
X141414500Y-105410000D03*
X93472000Y-67056000D03*
X95377000Y-68580000D03*
X84963000Y-67945000D03*
X89535000Y-67945000D03*
X91948000Y-67945000D03*
X95758000Y-67818000D03*
X94615000Y-69342000D03*
X87249000Y-67945000D03*
X92837000Y-67691000D03*
X90805000Y-67945000D03*
X88392000Y-67945000D03*
X86106000Y-67945000D03*
X89662000Y-70485000D03*
X92075000Y-70485000D03*
X90932000Y-70485000D03*
X87376000Y-70485000D03*
X88519000Y-70485000D03*
X99260000Y-85900000D03*
X97820000Y-84520000D03*
X105160000Y-69260000D03*
X106220000Y-69260000D03*
X107060000Y-69700000D03*
X107080000Y-70520000D03*
X107560000Y-71240000D03*
X108760000Y-71240000D03*
X109960000Y-71240000D03*
X111120000Y-71240000D03*
X112360000Y-71240000D03*
X113620000Y-71240000D03*
X114420000Y-70820000D03*
X114400000Y-69900000D03*
X114960000Y-69120000D03*
X116060000Y-69120000D03*
X117200000Y-69120000D03*
X118280000Y-69120000D03*
X119520000Y-69120000D03*
X120120000Y-69880000D03*
X120120000Y-70820000D03*
X120960000Y-71540000D03*
X122260000Y-71540000D03*
X123420000Y-72200000D03*
X124400000Y-73180000D03*
X125640000Y-74400000D03*
X126840000Y-75560000D03*
X128160000Y-76880000D03*
X128620000Y-78360000D03*
X126460000Y-78720000D03*
X125440000Y-77540000D03*
X123980000Y-76040000D03*
X122720000Y-74780000D03*
X121680000Y-73780000D03*
X120040000Y-73720000D03*
X118600000Y-73980000D03*
X117220000Y-73980000D03*
X115720000Y-74000000D03*
X114000000Y-74000000D03*
X112360000Y-74020000D03*
X110840000Y-74060000D03*
X109280000Y-74040000D03*
X107560000Y-74080000D03*
X106160000Y-73940000D03*
X104700000Y-73960000D03*
X103120000Y-73940000D03*
X101800000Y-73800000D03*
X100320000Y-73740000D03*
X99120000Y-74600000D03*
X98080000Y-75600000D03*
X97040000Y-76700000D03*
X96040000Y-77720000D03*
X98180000Y-77240000D03*
X99540000Y-77240000D03*
X100980000Y-77260000D03*
X101520000Y-76400000D03*
X101520000Y-75180000D03*
X103020000Y-74720000D03*
X105560000Y-74760000D03*
X107200000Y-75160000D03*
X107260000Y-76380000D03*
X108380000Y-76680000D03*
X110020000Y-76680000D03*
X111580000Y-76660000D03*
X113140000Y-76660000D03*
X114280000Y-76400000D03*
X114320000Y-75180000D03*
X116040000Y-74680000D03*
X118340000Y-74720000D03*
X120180000Y-75140000D03*
X120200000Y-76400000D03*
X121100000Y-77100000D03*
X122820000Y-77140000D03*
X106400000Y-95600000D03*
X107780000Y-95640000D03*
X109160000Y-94700000D03*
X110280000Y-93920000D03*
X112740000Y-94680000D03*
X114140000Y-95620000D03*
X115540000Y-95640000D03*
X116320000Y-94660000D03*
X117200000Y-93520000D03*
X118520000Y-93540000D03*
X120000000Y-93540000D03*
X120840000Y-94640000D03*
X121500000Y-95560000D03*
X122840000Y-95060000D03*
X123980000Y-93980000D03*
X125040000Y-92940000D03*
X125980000Y-91900000D03*
X126540000Y-90580000D03*
X126560000Y-89220000D03*
X128700000Y-89220000D03*
X128720000Y-90580000D03*
X128780000Y-92000000D03*
X127500000Y-93600000D03*
X126280000Y-94880000D03*
X125140000Y-96040000D03*
X123740000Y-97360000D03*
X121980000Y-97400000D03*
X120760000Y-97620000D03*
X120760000Y-98760000D03*
X119680000Y-99500000D03*
X118080000Y-99540000D03*
X116520000Y-99080000D03*
X116360000Y-97940000D03*
X114960000Y-97500000D03*
X113560000Y-97960000D03*
X107800000Y-97680000D03*
X106360000Y-97700000D03*
X106180000Y-98760000D03*
X104960000Y-99400000D03*
X103400000Y-99400000D03*
X102080000Y-98760000D03*
X101740000Y-97680000D03*
X100440000Y-97520000D03*
X98820000Y-97520000D03*
X97380000Y-96860000D03*
X96000000Y-95420000D03*
X94740000Y-94100000D03*
X93460000Y-92820000D03*
X92560000Y-91640000D03*
X92520000Y-90160000D03*
X92520000Y-88820000D03*
X94980000Y-88840000D03*
X95040000Y-90180000D03*
X95660000Y-91580000D03*
X96780000Y-92800000D03*
X97980000Y-93980000D03*
X99120000Y-95140000D03*
X100660000Y-95200000D03*
X101920000Y-94960000D03*
X102180000Y-93800000D03*
X103440000Y-93580000D03*
X105080000Y-93580000D03*
X106240000Y-94360000D03*
X130820000Y-85360000D03*
X132160000Y-85360000D03*
X130840000Y-87480000D03*
X132200000Y-87480000D03*
X134620000Y-87480000D03*
X134600000Y-85360000D03*
X135840000Y-85100000D03*
X136100000Y-87420000D03*
X137560000Y-86700000D03*
X138540000Y-85800000D03*
X139640000Y-84700000D03*
X140140000Y-83660000D03*
X141420000Y-83140000D03*
X141860000Y-81900000D03*
X141780000Y-80780000D03*
X141660000Y-79620000D03*
X140780000Y-79160000D03*
X139440000Y-79140000D03*
X138120000Y-79120000D03*
X136500000Y-79140000D03*
X135600000Y-80000000D03*
X135580000Y-81100000D03*
X135720000Y-82320000D03*
X136420000Y-83240000D03*
X137120000Y-84140000D03*
X137340000Y-93260000D03*
X140340000Y-93220000D03*
X136720000Y-92300000D03*
X135700000Y-91260000D03*
X135580000Y-90060000D03*
X135720000Y-88700000D03*
X137100000Y-88260000D03*
X138400000Y-88320000D03*
X139680000Y-88300000D03*
X141020000Y-88320000D03*
X142140000Y-88840000D03*
X142100000Y-90160000D03*
X141840000Y-91460000D03*
X141160000Y-92420000D03*
X89120000Y-81300000D03*
X90520000Y-81280000D03*
X90560000Y-79380000D03*
X88980000Y-79420000D03*
X87460000Y-79440000D03*
X84260000Y-82000000D03*
X82660000Y-81980000D03*
X81660000Y-80880000D03*
X81820000Y-79620000D03*
X82660000Y-76560000D03*
X84520000Y-76520000D03*
X81960000Y-75460000D03*
X85160000Y-75480000D03*
X85620000Y-74380000D03*
X85440000Y-73260000D03*
X81520000Y-74400000D03*
X81780000Y-73260000D03*
X85360000Y-72060000D03*
X85840000Y-70840000D03*
X81760000Y-72040000D03*
X81720000Y-70880000D03*
X82080000Y-69720000D03*
X82980000Y-68760000D03*
X84000000Y-68100000D03*
X93280000Y-70480000D03*
X94080000Y-70040000D03*
X79600000Y-81340000D03*
X79560000Y-79600000D03*
X79440000Y-76200000D03*
X80520000Y-75640000D03*
X87020000Y-75980000D03*
X88260000Y-77180000D03*
X88320000Y-78420000D03*
X82880000Y-83060000D03*
X84000000Y-83160000D03*
X84300000Y-84360000D03*
X98120000Y-92240000D03*
X99580000Y-92220000D03*
X100980000Y-92180000D03*
X101680000Y-91280000D03*
X101600000Y-90240000D03*
X103220000Y-90220000D03*
X104760000Y-90240000D03*
X106360000Y-90220000D03*
X107820000Y-90240000D03*
X107900000Y-91200000D03*
X108420000Y-92160000D03*
X109800000Y-92240000D03*
X111400000Y-92240000D03*
X112980000Y-92280000D03*
X114080000Y-91280000D03*
X114320000Y-90220000D03*
X116060000Y-90220000D03*
X117780000Y-90220000D03*
X119380000Y-90220000D03*
X120420000Y-90820000D03*
X120780000Y-92100000D03*
X122200000Y-92220000D03*
X123720000Y-92220000D03*
X122180000Y-87320000D03*
X120200000Y-87280000D03*
X118140000Y-87240000D03*
X116100000Y-85640000D03*
X117700000Y-85500000D03*
X119580000Y-85700000D03*
X121860000Y-85680000D03*
X112500000Y-87280000D03*
X103480000Y-85040000D03*
X103500000Y-86060000D03*
X101680000Y-86080000D03*
X107100000Y-86020000D03*
X108920000Y-98160000D03*
X109980000Y-98840000D03*
X111580000Y-98880000D03*
X112580000Y-98360000D03*
X111780000Y-93940000D03*
X91880000Y-81860000D03*
X91840000Y-82840000D03*
X125780000Y-82300000D03*
X125800000Y-83480000D03*
X125820000Y-84640000D03*
X127460000Y-82300000D03*
X127460000Y-83460000D03*
X127440000Y-84640000D03*
X129080000Y-82300000D03*
X129080000Y-83460000D03*
X129080000Y-84640000D03*
X128700000Y-87980000D03*
X126560000Y-87980000D03*
X133220000Y-88320000D03*
X133180000Y-84500000D03*
X100100000Y-106480000D03*
X85720000Y-90580000D03*
X80280000Y-100000000D03*
X103200000Y-80420000D03*
X122620000Y-80920000D03*
X86780000Y-110420000D03*
X101860000Y-106480000D03*
X89837500Y-103822500D03*
X89780000Y-105100000D03*
X86620000Y-98900000D03*
X90000000Y-107600000D03*
X97340000Y-82940000D03*
X138239500Y-68499500D03*
X137680000Y-67940000D03*
X107260000Y-84240000D03*
X99500000Y-79100000D03*
X90900000Y-88180000D03*
X90620000Y-102540000D03*
X95840000Y-84280000D03*
X91200000Y-101300000D03*
X99080000Y-87060000D03*
X96400000Y-84960000D03*
X123760000Y-82420000D03*
M02*
