G04 #@! TF.GenerationSoftware,KiCad,Pcbnew,(5.1.4)-1*
G04 #@! TF.CreationDate,2019-11-05T17:53:01+05:30*
G04 #@! TF.ProjectId,RPi Hat RF Transmitter V1,52506920-4861-4742-9052-46205472616e,rev?*
G04 #@! TF.SameCoordinates,Original*
G04 #@! TF.FileFunction,Legend,Bot*
G04 #@! TF.FilePolarity,Positive*
%FSLAX46Y46*%
G04 Gerber Fmt 4.6, Leading zero omitted, Abs format (unit mm)*
G04 Created by KiCad (PCBNEW (5.1.4)-1) date 2019-11-05 17:53:01*
%MOMM*%
%LPD*%
G04 APERTURE LIST*
%ADD10C,0.150000*%
%ADD11C,0.130000*%
%ADD12C,0.200000*%
%ADD13C,0.300000*%
%ADD14C,0.120000*%
G04 APERTURE END LIST*
D10*
X142708000Y-93306000D02*
X142708000Y-98000000D01*
X125309000Y-93306000D02*
X125300000Y-98000000D01*
X120480000Y-93320000D02*
X120480000Y-98000000D01*
D11*
X140224357Y-96995357D02*
X140624357Y-96423928D01*
X140910071Y-96995357D02*
X140910071Y-95795357D01*
X140452928Y-95795357D01*
X140338642Y-95852500D01*
X140281500Y-95909642D01*
X140224357Y-96023928D01*
X140224357Y-96195357D01*
X140281500Y-96309642D01*
X140338642Y-96366785D01*
X140452928Y-96423928D01*
X140910071Y-96423928D01*
X139310071Y-96366785D02*
X139710071Y-96366785D01*
X139710071Y-96995357D02*
X139710071Y-95795357D01*
X139138642Y-95795357D01*
X137767214Y-96995357D02*
X137767214Y-95795357D01*
X137195785Y-96995357D02*
X137195785Y-95795357D01*
X136510071Y-96995357D01*
X136510071Y-95795357D01*
X134624357Y-96366785D02*
X135024357Y-96366785D01*
X135024357Y-96995357D02*
X135024357Y-95795357D01*
X134452928Y-95795357D01*
X133310071Y-96995357D02*
X133710071Y-96423928D01*
X133995785Y-96995357D02*
X133995785Y-95795357D01*
X133538642Y-95795357D01*
X133424357Y-95852500D01*
X133367214Y-95909642D01*
X133310071Y-96023928D01*
X133310071Y-96195357D01*
X133367214Y-96309642D01*
X133424357Y-96366785D01*
X133538642Y-96423928D01*
X133995785Y-96423928D01*
X132567214Y-95795357D02*
X132338642Y-95795357D01*
X132224357Y-95852500D01*
X132110071Y-95966785D01*
X132052928Y-96195357D01*
X132052928Y-96595357D01*
X132110071Y-96823928D01*
X132224357Y-96938214D01*
X132338642Y-96995357D01*
X132567214Y-96995357D01*
X132681500Y-96938214D01*
X132795785Y-96823928D01*
X132852928Y-96595357D01*
X132852928Y-96195357D01*
X132795785Y-95966785D01*
X132681500Y-95852500D01*
X132567214Y-95795357D01*
X131538642Y-96995357D02*
X131538642Y-95795357D01*
X131138642Y-96652500D01*
X130738642Y-95795357D01*
X130738642Y-96995357D01*
X128567214Y-96995357D02*
X128967214Y-96423928D01*
X129252928Y-96995357D02*
X129252928Y-95795357D01*
X128795785Y-95795357D01*
X128681500Y-95852500D01*
X128624357Y-95909642D01*
X128567214Y-96023928D01*
X128567214Y-96195357D01*
X128624357Y-96309642D01*
X128681500Y-96366785D01*
X128795785Y-96423928D01*
X129252928Y-96423928D01*
X128052928Y-96995357D02*
X128052928Y-95795357D01*
X127595785Y-95795357D01*
X127481500Y-95852500D01*
X127424357Y-95909642D01*
X127367214Y-96023928D01*
X127367214Y-96195357D01*
X127424357Y-96309642D01*
X127481500Y-96366785D01*
X127595785Y-96423928D01*
X128052928Y-96423928D01*
X126852928Y-96995357D02*
X126852928Y-95795357D01*
X141181500Y-93689642D02*
X141124357Y-93632500D01*
X141010071Y-93575357D01*
X140724357Y-93575357D01*
X140610071Y-93632500D01*
X140552928Y-93689642D01*
X140495785Y-93803928D01*
X140495785Y-93918214D01*
X140552928Y-94089642D01*
X141238642Y-94775357D01*
X140495785Y-94775357D01*
X139981500Y-94661071D02*
X139924357Y-94718214D01*
X139981500Y-94775357D01*
X140038642Y-94718214D01*
X139981500Y-94661071D01*
X139981500Y-94775357D01*
X138838642Y-93575357D02*
X139410071Y-93575357D01*
X139467214Y-94146785D01*
X139410071Y-94089642D01*
X139295785Y-94032500D01*
X139010071Y-94032500D01*
X138895785Y-94089642D01*
X138838642Y-94146785D01*
X138781500Y-94261071D01*
X138781500Y-94546785D01*
X138838642Y-94661071D01*
X138895785Y-94718214D01*
X139010071Y-94775357D01*
X139295785Y-94775357D01*
X139410071Y-94718214D01*
X139467214Y-94661071D01*
X138438642Y-93575357D02*
X138038642Y-94775357D01*
X137638642Y-93575357D01*
X136381500Y-94718214D02*
X136210071Y-94775357D01*
X135924357Y-94775357D01*
X135810071Y-94718214D01*
X135752928Y-94661071D01*
X135695785Y-94546785D01*
X135695785Y-94432500D01*
X135752928Y-94318214D01*
X135810071Y-94261071D01*
X135924357Y-94203928D01*
X136152928Y-94146785D01*
X136267214Y-94089642D01*
X136324357Y-94032500D01*
X136381500Y-93918214D01*
X136381500Y-93803928D01*
X136324357Y-93689642D01*
X136267214Y-93632500D01*
X136152928Y-93575357D01*
X135867214Y-93575357D01*
X135695785Y-93632500D01*
X135181500Y-93575357D02*
X135181500Y-94546785D01*
X135124357Y-94661071D01*
X135067214Y-94718214D01*
X134952928Y-94775357D01*
X134724357Y-94775357D01*
X134610071Y-94718214D01*
X134552928Y-94661071D01*
X134495785Y-94546785D01*
X134495785Y-93575357D01*
X133924357Y-94775357D02*
X133924357Y-93575357D01*
X133467214Y-93575357D01*
X133352928Y-93632500D01*
X133295785Y-93689642D01*
X133238642Y-93803928D01*
X133238642Y-93975357D01*
X133295785Y-94089642D01*
X133352928Y-94146785D01*
X133467214Y-94203928D01*
X133924357Y-94203928D01*
X132724357Y-94775357D02*
X132724357Y-93575357D01*
X132267214Y-93575357D01*
X132152928Y-93632500D01*
X132095785Y-93689642D01*
X132038642Y-93803928D01*
X132038642Y-93975357D01*
X132095785Y-94089642D01*
X132152928Y-94146785D01*
X132267214Y-94203928D01*
X132724357Y-94203928D01*
X130952928Y-94775357D02*
X131524357Y-94775357D01*
X131524357Y-93575357D01*
X130324357Y-94203928D02*
X130324357Y-94775357D01*
X130724357Y-93575357D02*
X130324357Y-94203928D01*
X129924357Y-93575357D01*
X128610071Y-94146785D02*
X128210071Y-94146785D01*
X128038642Y-94775357D02*
X128610071Y-94775357D01*
X128610071Y-93575357D01*
X128038642Y-93575357D01*
X127524357Y-94775357D02*
X127524357Y-93575357D01*
X126838642Y-94775357D01*
X126838642Y-93575357D01*
X123920000Y-95902857D02*
X123920000Y-96760000D01*
X123977142Y-96931428D01*
X124091428Y-97045714D01*
X124262857Y-97102857D01*
X124377142Y-97102857D01*
X123348571Y-97102857D02*
X123348571Y-95902857D01*
X122891428Y-95902857D01*
X122777142Y-95960000D01*
X122720000Y-96017142D01*
X122662857Y-96131428D01*
X122662857Y-96302857D01*
X122720000Y-96417142D01*
X122777142Y-96474285D01*
X122891428Y-96531428D01*
X123348571Y-96531428D01*
X121577142Y-95902857D02*
X122148571Y-95902857D01*
X122205714Y-96474285D01*
X122148571Y-96417142D01*
X122034285Y-96360000D01*
X121748571Y-96360000D01*
X121634285Y-96417142D01*
X121577142Y-96474285D01*
X121520000Y-96588571D01*
X121520000Y-96874285D01*
X121577142Y-96988571D01*
X121634285Y-97045714D01*
X121748571Y-97102857D01*
X122034285Y-97102857D01*
X122148571Y-97045714D01*
X122205714Y-96988571D01*
X123876000Y-93571857D02*
X123876000Y-94429000D01*
X123933142Y-94600428D01*
X124047428Y-94714714D01*
X124218857Y-94771857D01*
X124333142Y-94771857D01*
X123304571Y-94771857D02*
X123304571Y-93571857D01*
X122847428Y-93571857D01*
X122733142Y-93629000D01*
X122676000Y-93686142D01*
X122618857Y-93800428D01*
X122618857Y-93971857D01*
X122676000Y-94086142D01*
X122733142Y-94143285D01*
X122847428Y-94200428D01*
X123304571Y-94200428D01*
X122161714Y-93686142D02*
X122104571Y-93629000D01*
X121990285Y-93571857D01*
X121704571Y-93571857D01*
X121590285Y-93629000D01*
X121533142Y-93686142D01*
X121476000Y-93800428D01*
X121476000Y-93914714D01*
X121533142Y-94086142D01*
X122218857Y-94771857D01*
X121476000Y-94771857D01*
D10*
X120480000Y-98006000D02*
X125409000Y-98006000D01*
X115640000Y-78383000D02*
X126943000Y-78383000D01*
X115513000Y-68731000D02*
X107766000Y-68731000D01*
X142708000Y-93306000D02*
X142708000Y-90620000D01*
X126943000Y-68731000D02*
X115640000Y-68731000D01*
X138540000Y-90620000D02*
X142700000Y-90620000D01*
X138517000Y-83654000D02*
X138517000Y-90620000D01*
X137728000Y-98006000D02*
X142700000Y-98006000D01*
X107766000Y-71525000D02*
X107766000Y-68731000D01*
X109544000Y-71525000D02*
X107766000Y-71525000D01*
X138517000Y-83654000D02*
X125309000Y-83654000D01*
X125182000Y-83654000D02*
X120483000Y-83654000D01*
X125309000Y-83654000D02*
X125309000Y-93306000D01*
X109544000Y-78383000D02*
X115640000Y-78383000D01*
X109544000Y-78383000D02*
X109544000Y-71525000D01*
X120483000Y-93306000D02*
X120483000Y-83654000D01*
X125409000Y-98006000D02*
X137728000Y-98006000D01*
X139927500Y-100801500D02*
X139927500Y-108929500D01*
X137260500Y-99023500D02*
X137260500Y-108929500D01*
X137260500Y-98706000D02*
X137260500Y-98960000D01*
X134212500Y-108929500D02*
X134212500Y-99023500D01*
X130529500Y-100801500D02*
X130529500Y-108929500D01*
X139927500Y-98706000D02*
X139927500Y-100738000D01*
X134212500Y-98706000D02*
X137260500Y-98706000D01*
X139927500Y-100801500D02*
X130529500Y-100801500D01*
X126943000Y-78383000D02*
X126943000Y-68731000D01*
X137260500Y-98706000D02*
X139927500Y-98706000D01*
X134212500Y-98960000D02*
X134212500Y-98706000D01*
X137197000Y-108993000D02*
X134149000Y-108993000D01*
X130529500Y-98706000D02*
X130529500Y-100738000D01*
X130529500Y-108993000D02*
X134212500Y-108993000D01*
X134212500Y-98706000D02*
X130529500Y-98706000D01*
X115640000Y-68731000D02*
X115640000Y-78383000D01*
X139927500Y-108993000D02*
X137260500Y-108993000D01*
D11*
X123896000Y-91251857D02*
X123896000Y-92109000D01*
X123953142Y-92280428D01*
X124067428Y-92394714D01*
X124238857Y-92451857D01*
X124353142Y-92451857D01*
X123324571Y-92451857D02*
X123324571Y-91251857D01*
X122867428Y-91251857D01*
X122753142Y-91309000D01*
X122696000Y-91366142D01*
X122638857Y-91480428D01*
X122638857Y-91651857D01*
X122696000Y-91766142D01*
X122753142Y-91823285D01*
X122867428Y-91880428D01*
X123324571Y-91880428D01*
X121610285Y-91651857D02*
X121610285Y-92451857D01*
X121896000Y-91194714D02*
X122181714Y-92051857D01*
X121438857Y-92051857D01*
X126412142Y-72772714D02*
X126240714Y-72829857D01*
X125955000Y-72829857D01*
X125840714Y-72772714D01*
X125783571Y-72715571D01*
X125726428Y-72601285D01*
X125726428Y-72487000D01*
X125783571Y-72372714D01*
X125840714Y-72315571D01*
X125955000Y-72258428D01*
X126183571Y-72201285D01*
X126297857Y-72144142D01*
X126355000Y-72087000D01*
X126412142Y-71972714D01*
X126412142Y-71858428D01*
X126355000Y-71744142D01*
X126297857Y-71687000D01*
X126183571Y-71629857D01*
X125897857Y-71629857D01*
X125726428Y-71687000D01*
X125212142Y-72829857D02*
X125212142Y-71629857D01*
X124526428Y-72829857D01*
X124526428Y-71629857D01*
X124069285Y-71629857D02*
X123269285Y-71629857D01*
X123783571Y-72829857D01*
X122297857Y-72029857D02*
X122297857Y-72829857D01*
X122583571Y-71572714D02*
X122869285Y-72429857D01*
X122126428Y-72429857D01*
X121669285Y-72829857D02*
X121669285Y-71629857D01*
X121669285Y-72201285D02*
X120983571Y-72201285D01*
X120983571Y-72829857D02*
X120983571Y-71629857D01*
X119726428Y-72715571D02*
X119783571Y-72772714D01*
X119955000Y-72829857D01*
X120069285Y-72829857D01*
X120240714Y-72772714D01*
X120355000Y-72658428D01*
X120412142Y-72544142D01*
X120469285Y-72315571D01*
X120469285Y-72144142D01*
X120412142Y-71915571D01*
X120355000Y-71801285D01*
X120240714Y-71687000D01*
X120069285Y-71629857D01*
X119955000Y-71629857D01*
X119783571Y-71687000D01*
X119726428Y-71744142D01*
X118583571Y-72829857D02*
X119269285Y-72829857D01*
X118926428Y-72829857D02*
X118926428Y-71629857D01*
X119040714Y-71801285D01*
X119155000Y-71915571D01*
X119269285Y-71972714D01*
X118183571Y-71629857D02*
X117440714Y-71629857D01*
X117840714Y-72087000D01*
X117669285Y-72087000D01*
X117555000Y-72144142D01*
X117497857Y-72201285D01*
X117440714Y-72315571D01*
X117440714Y-72601285D01*
X117497857Y-72715571D01*
X117555000Y-72772714D01*
X117669285Y-72829857D01*
X118012142Y-72829857D01*
X118126428Y-72772714D01*
X118183571Y-72715571D01*
X116869285Y-72829857D02*
X116640714Y-72829857D01*
X116526428Y-72772714D01*
X116469285Y-72715571D01*
X116355000Y-72544142D01*
X116297857Y-72315571D01*
X116297857Y-71858428D01*
X116355000Y-71744142D01*
X116412142Y-71687000D01*
X116526428Y-71629857D01*
X116755000Y-71629857D01*
X116869285Y-71687000D01*
X116926428Y-71744142D01*
X116983571Y-71858428D01*
X116983571Y-72144142D01*
X116926428Y-72258428D01*
X116869285Y-72315571D01*
X116755000Y-72372714D01*
X116526428Y-72372714D01*
X116412142Y-72315571D01*
X116355000Y-72258428D01*
X116297857Y-72144142D01*
X123896000Y-86552857D02*
X123896000Y-87410000D01*
X123953142Y-87581428D01*
X124067428Y-87695714D01*
X124238857Y-87752857D01*
X124353142Y-87752857D01*
X123324571Y-87752857D02*
X123324571Y-86552857D01*
X122867428Y-86552857D01*
X122753142Y-86610000D01*
X122696000Y-86667142D01*
X122638857Y-86781428D01*
X122638857Y-86952857D01*
X122696000Y-87067142D01*
X122753142Y-87124285D01*
X122867428Y-87181428D01*
X123324571Y-87181428D01*
X121610285Y-86552857D02*
X121838857Y-86552857D01*
X121953142Y-86610000D01*
X122010285Y-86667142D01*
X122124571Y-86838571D01*
X122181714Y-87067142D01*
X122181714Y-87524285D01*
X122124571Y-87638571D01*
X122067428Y-87695714D01*
X121953142Y-87752857D01*
X121724571Y-87752857D01*
X121610285Y-87695714D01*
X121553142Y-87638571D01*
X121496000Y-87524285D01*
X121496000Y-87238571D01*
X121553142Y-87124285D01*
X121610285Y-87067142D01*
X121724571Y-87010000D01*
X121953142Y-87010000D01*
X122067428Y-87067142D01*
X122124571Y-87124285D01*
X122181714Y-87238571D01*
X124428000Y-70201000D02*
X123856571Y-70201000D01*
X124542285Y-70543857D02*
X124142285Y-69343857D01*
X123742285Y-70543857D01*
X123342285Y-70543857D02*
X123342285Y-69343857D01*
X123056571Y-69343857D01*
X122885142Y-69401000D01*
X122770857Y-69515285D01*
X122713714Y-69629571D01*
X122656571Y-69858142D01*
X122656571Y-70029571D01*
X122713714Y-70258142D01*
X122770857Y-70372428D01*
X122885142Y-70486714D01*
X123056571Y-70543857D01*
X123342285Y-70543857D01*
X121513714Y-69401000D02*
X121628000Y-69343857D01*
X121799428Y-69343857D01*
X121970857Y-69401000D01*
X122085142Y-69515285D01*
X122142285Y-69629571D01*
X122199428Y-69858142D01*
X122199428Y-70029571D01*
X122142285Y-70258142D01*
X122085142Y-70372428D01*
X121970857Y-70486714D01*
X121799428Y-70543857D01*
X121685142Y-70543857D01*
X121513714Y-70486714D01*
X121456571Y-70429571D01*
X121456571Y-70029571D01*
X121685142Y-70029571D01*
X120885142Y-70543857D02*
X120656571Y-70543857D01*
X120542285Y-70486714D01*
X120485142Y-70429571D01*
X120370857Y-70258142D01*
X120313714Y-70029571D01*
X120313714Y-69572428D01*
X120370857Y-69458142D01*
X120428000Y-69401000D01*
X120542285Y-69343857D01*
X120770857Y-69343857D01*
X120885142Y-69401000D01*
X120942285Y-69458142D01*
X120999428Y-69572428D01*
X120999428Y-69858142D01*
X120942285Y-69972428D01*
X120885142Y-70029571D01*
X120770857Y-70086714D01*
X120542285Y-70086714D01*
X120428000Y-70029571D01*
X120370857Y-69972428D01*
X120313714Y-69858142D01*
X119570857Y-69343857D02*
X119456571Y-69343857D01*
X119342285Y-69401000D01*
X119285142Y-69458142D01*
X119228000Y-69572428D01*
X119170857Y-69801000D01*
X119170857Y-70086714D01*
X119228000Y-70315285D01*
X119285142Y-70429571D01*
X119342285Y-70486714D01*
X119456571Y-70543857D01*
X119570857Y-70543857D01*
X119685142Y-70486714D01*
X119742285Y-70429571D01*
X119799428Y-70315285D01*
X119856571Y-70086714D01*
X119856571Y-69801000D01*
X119799428Y-69572428D01*
X119742285Y-69458142D01*
X119685142Y-69401000D01*
X119570857Y-69343857D01*
X118142285Y-69743857D02*
X118142285Y-70543857D01*
X118428000Y-69286714D02*
X118713714Y-70143857D01*
X117970857Y-70143857D01*
X132907500Y-99636285D02*
X133307500Y-99636285D01*
X133307500Y-100264857D02*
X133307500Y-99064857D01*
X132736071Y-99064857D01*
X132278928Y-100264857D02*
X132278928Y-99064857D01*
X131136071Y-100264857D02*
X131707500Y-100264857D01*
X131707500Y-99064857D01*
X138251142Y-108646857D02*
X138936857Y-108646857D01*
X138594000Y-108646857D02*
X138594000Y-107446857D01*
X138708285Y-107618285D01*
X138822571Y-107732571D01*
X138936857Y-107789714D01*
X139514642Y-99922000D02*
X138943214Y-99922000D01*
X139628928Y-100264857D02*
X139228928Y-99064857D01*
X138828928Y-100264857D01*
X137800357Y-100264857D02*
X138486071Y-100264857D01*
X138143214Y-100264857D02*
X138143214Y-99064857D01*
X138257500Y-99236285D01*
X138371785Y-99350571D01*
X138486071Y-99407714D01*
X113506285Y-76265357D02*
X113506285Y-77236785D01*
X113449142Y-77351071D01*
X113392000Y-77408214D01*
X113277714Y-77465357D01*
X113049142Y-77465357D01*
X112934857Y-77408214D01*
X112877714Y-77351071D01*
X112820571Y-77236785D01*
X112820571Y-76265357D01*
X112363428Y-76265357D02*
X111620571Y-76265357D01*
X112020571Y-76722500D01*
X111849142Y-76722500D01*
X111734857Y-76779642D01*
X111677714Y-76836785D01*
X111620571Y-76951071D01*
X111620571Y-77236785D01*
X111677714Y-77351071D01*
X111734857Y-77408214D01*
X111849142Y-77465357D01*
X112192000Y-77465357D01*
X112306285Y-77408214D01*
X112363428Y-77351071D01*
X138651142Y-103319357D02*
X138536857Y-103319357D01*
X138422571Y-103376500D01*
X138365428Y-103433642D01*
X138308285Y-103547928D01*
X138251142Y-103776500D01*
X138251142Y-104062214D01*
X138308285Y-104290785D01*
X138365428Y-104405071D01*
X138422571Y-104462214D01*
X138536857Y-104519357D01*
X138651142Y-104519357D01*
X138765428Y-104462214D01*
X138822571Y-104405071D01*
X138879714Y-104290785D01*
X138936857Y-104062214D01*
X138936857Y-103776500D01*
X138879714Y-103547928D01*
X138822571Y-103433642D01*
X138765428Y-103376500D01*
X138651142Y-103319357D01*
X132771000Y-105414857D02*
X132028142Y-105414857D01*
X132428142Y-105872000D01*
X132256714Y-105872000D01*
X132142428Y-105929142D01*
X132085285Y-105986285D01*
X132028142Y-106100571D01*
X132028142Y-106386285D01*
X132085285Y-106500571D01*
X132142428Y-106557714D01*
X132256714Y-106614857D01*
X132599571Y-106614857D01*
X132713857Y-106557714D01*
X132771000Y-106500571D01*
X123896000Y-88965857D02*
X123896000Y-89823000D01*
X123953142Y-89994428D01*
X124067428Y-90108714D01*
X124238857Y-90165857D01*
X124353142Y-90165857D01*
X123324571Y-90165857D02*
X123324571Y-88965857D01*
X122867428Y-88965857D01*
X122753142Y-89023000D01*
X122696000Y-89080142D01*
X122638857Y-89194428D01*
X122638857Y-89365857D01*
X122696000Y-89480142D01*
X122753142Y-89537285D01*
X122867428Y-89594428D01*
X123324571Y-89594428D01*
X122238857Y-88965857D02*
X121496000Y-88965857D01*
X121896000Y-89423000D01*
X121724571Y-89423000D01*
X121610285Y-89480142D01*
X121553142Y-89537285D01*
X121496000Y-89651571D01*
X121496000Y-89937285D01*
X121553142Y-90051571D01*
X121610285Y-90108714D01*
X121724571Y-90165857D01*
X122067428Y-90165857D01*
X122181714Y-90108714D01*
X122238857Y-90051571D01*
X113506285Y-73915857D02*
X113506285Y-74887285D01*
X113449142Y-75001571D01*
X113392000Y-75058714D01*
X113277714Y-75115857D01*
X113049142Y-75115857D01*
X112934857Y-75058714D01*
X112877714Y-75001571D01*
X112820571Y-74887285D01*
X112820571Y-73915857D01*
X111620571Y-75115857D02*
X112306285Y-75115857D01*
X111963428Y-75115857D02*
X111963428Y-73915857D01*
X112077714Y-74087285D01*
X112192000Y-74201571D01*
X112306285Y-74258714D01*
X138536857Y-106602142D02*
X138651142Y-106602142D01*
X138765428Y-106545000D01*
X138822571Y-106487857D01*
X138879714Y-106373571D01*
X138936857Y-106145000D01*
X138936857Y-105859285D01*
X138879714Y-105630714D01*
X138822571Y-105516428D01*
X138765428Y-105459285D01*
X138651142Y-105402142D01*
X138536857Y-105402142D01*
X138422571Y-105459285D01*
X138365428Y-105516428D01*
X138308285Y-105630714D01*
X138251142Y-105859285D01*
X138251142Y-106145000D01*
X138308285Y-106373571D01*
X138365428Y-106487857D01*
X138422571Y-106545000D01*
X138536857Y-106602142D01*
X135203142Y-108646857D02*
X135888857Y-108646857D01*
X135546000Y-108646857D02*
X135546000Y-107446857D01*
X135660285Y-107618285D01*
X135774571Y-107732571D01*
X135888857Y-107789714D01*
X115074428Y-70543857D02*
X115074428Y-69343857D01*
X113817285Y-70429571D02*
X113874428Y-70486714D01*
X114045857Y-70543857D01*
X114160142Y-70543857D01*
X114331571Y-70486714D01*
X114445857Y-70372428D01*
X114503000Y-70258142D01*
X114560142Y-70029571D01*
X114560142Y-69858142D01*
X114503000Y-69629571D01*
X114445857Y-69515285D01*
X114331571Y-69401000D01*
X114160142Y-69343857D01*
X114045857Y-69343857D01*
X113874428Y-69401000D01*
X113817285Y-69458142D01*
X112674428Y-70543857D02*
X113360142Y-70543857D01*
X113017285Y-70543857D02*
X113017285Y-69343857D01*
X113131571Y-69515285D01*
X113245857Y-69629571D01*
X113360142Y-69686714D01*
X112103000Y-70486714D02*
X112103000Y-70543857D01*
X112160142Y-70658142D01*
X112217285Y-70715285D01*
X110674428Y-70543857D02*
X110674428Y-69343857D01*
X109417285Y-70429571D02*
X109474428Y-70486714D01*
X109645857Y-70543857D01*
X109760142Y-70543857D01*
X109931571Y-70486714D01*
X110045857Y-70372428D01*
X110103000Y-70258142D01*
X110160142Y-70029571D01*
X110160142Y-69858142D01*
X110103000Y-69629571D01*
X110045857Y-69515285D01*
X109931571Y-69401000D01*
X109760142Y-69343857D01*
X109645857Y-69343857D01*
X109474428Y-69401000D01*
X109417285Y-69458142D01*
X108388714Y-69743857D02*
X108388714Y-70543857D01*
X108674428Y-69286714D02*
X108960142Y-70143857D01*
X108217285Y-70143857D01*
X113953928Y-72829857D02*
X113953928Y-71629857D01*
X112696785Y-72715571D02*
X112753928Y-72772714D01*
X112925357Y-72829857D01*
X113039642Y-72829857D01*
X113211071Y-72772714D01*
X113325357Y-72658428D01*
X113382500Y-72544142D01*
X113439642Y-72315571D01*
X113439642Y-72144142D01*
X113382500Y-71915571D01*
X113325357Y-71801285D01*
X113211071Y-71687000D01*
X113039642Y-71629857D01*
X112925357Y-71629857D01*
X112753928Y-71687000D01*
X112696785Y-71744142D01*
X112296785Y-71629857D02*
X111553928Y-71629857D01*
X111953928Y-72087000D01*
X111782500Y-72087000D01*
X111668214Y-72144142D01*
X111611071Y-72201285D01*
X111553928Y-72315571D01*
X111553928Y-72601285D01*
X111611071Y-72715571D01*
X111668214Y-72772714D01*
X111782500Y-72829857D01*
X112125357Y-72829857D01*
X112239642Y-72772714D01*
X112296785Y-72715571D01*
X138177142Y-102362857D02*
X138862857Y-102362857D01*
X138520000Y-102362857D02*
X138520000Y-101162857D01*
X138634285Y-101334285D01*
X138748571Y-101448571D01*
X138862857Y-101505714D01*
X135679357Y-102347642D02*
X135793642Y-102347642D01*
X135907928Y-102290500D01*
X135965071Y-102233357D01*
X136022214Y-102119071D01*
X136079357Y-101890500D01*
X136079357Y-101604785D01*
X136022214Y-101376214D01*
X135965071Y-101261928D01*
X135907928Y-101204785D01*
X135793642Y-101147642D01*
X135679357Y-101147642D01*
X135565071Y-101204785D01*
X135507928Y-101261928D01*
X135450785Y-101376214D01*
X135393642Y-101604785D01*
X135393642Y-101890500D01*
X135450785Y-102119071D01*
X135507928Y-102233357D01*
X135565071Y-102290500D01*
X135679357Y-102347642D01*
X124023000Y-84266857D02*
X124023000Y-85124000D01*
X124080142Y-85295428D01*
X124194428Y-85409714D01*
X124365857Y-85466857D01*
X124480142Y-85466857D01*
X123451571Y-85466857D02*
X123451571Y-84266857D01*
X122994428Y-84266857D01*
X122880142Y-84324000D01*
X122823000Y-84381142D01*
X122765857Y-84495428D01*
X122765857Y-84666857D01*
X122823000Y-84781142D01*
X122880142Y-84838285D01*
X122994428Y-84895428D01*
X123451571Y-84895428D01*
X121623000Y-85466857D02*
X122308714Y-85466857D01*
X121965857Y-85466857D02*
X121965857Y-84266857D01*
X122080142Y-84438285D01*
X122194428Y-84552571D01*
X122308714Y-84609714D01*
X131901142Y-102360357D02*
X132586857Y-102360357D01*
X132244000Y-102360357D02*
X132244000Y-101160357D01*
X132358285Y-101331785D01*
X132472571Y-101446071D01*
X132586857Y-101503214D01*
X135203142Y-106614857D02*
X135888857Y-106614857D01*
X135546000Y-106614857D02*
X135546000Y-105414857D01*
X135660285Y-105586285D01*
X135774571Y-105700571D01*
X135888857Y-105757714D01*
X126383571Y-76201857D02*
X125583571Y-76201857D01*
X126097857Y-77401857D01*
X124612142Y-76601857D02*
X124612142Y-77401857D01*
X124897857Y-76144714D02*
X125183571Y-77001857D01*
X124440714Y-77001857D01*
X124040714Y-77059000D02*
X123469285Y-77059000D01*
X124155000Y-77401857D02*
X123755000Y-76201857D01*
X123355000Y-77401857D01*
X122955000Y-76201857D02*
X122955000Y-77173285D01*
X122897857Y-77287571D01*
X122840714Y-77344714D01*
X122726428Y-77401857D01*
X122497857Y-77401857D01*
X122383571Y-77344714D01*
X122326428Y-77287571D01*
X122269285Y-77173285D01*
X122269285Y-76201857D01*
X121012142Y-77287571D02*
X121069285Y-77344714D01*
X121240714Y-77401857D01*
X121355000Y-77401857D01*
X121526428Y-77344714D01*
X121640714Y-77230428D01*
X121697857Y-77116142D01*
X121755000Y-76887571D01*
X121755000Y-76716142D01*
X121697857Y-76487571D01*
X121640714Y-76373285D01*
X121526428Y-76259000D01*
X121355000Y-76201857D01*
X121240714Y-76201857D01*
X121069285Y-76259000D01*
X121012142Y-76316142D01*
X120555000Y-76316142D02*
X120497857Y-76259000D01*
X120383571Y-76201857D01*
X120097857Y-76201857D01*
X119983571Y-76259000D01*
X119926428Y-76316142D01*
X119869285Y-76430428D01*
X119869285Y-76544714D01*
X119926428Y-76716142D01*
X120612142Y-77401857D01*
X119869285Y-77401857D01*
X118726428Y-76259000D02*
X118840714Y-76201857D01*
X119012142Y-76201857D01*
X119183571Y-76259000D01*
X119297857Y-76373285D01*
X119355000Y-76487571D01*
X119412142Y-76716142D01*
X119412142Y-76887571D01*
X119355000Y-77116142D01*
X119297857Y-77230428D01*
X119183571Y-77344714D01*
X119012142Y-77401857D01*
X118897857Y-77401857D01*
X118726428Y-77344714D01*
X118669285Y-77287571D01*
X118669285Y-76887571D01*
X118897857Y-76887571D01*
X117926428Y-76201857D02*
X117812142Y-76201857D01*
X117697857Y-76259000D01*
X117640714Y-76316142D01*
X117583571Y-76430428D01*
X117526428Y-76659000D01*
X117526428Y-76944714D01*
X117583571Y-77173285D01*
X117640714Y-77287571D01*
X117697857Y-77344714D01*
X117812142Y-77401857D01*
X117926428Y-77401857D01*
X118040714Y-77344714D01*
X118097857Y-77287571D01*
X118155000Y-77173285D01*
X118212142Y-76944714D01*
X118212142Y-76659000D01*
X118155000Y-76430428D01*
X118097857Y-76316142D01*
X118040714Y-76259000D01*
X117926428Y-76201857D01*
X116497857Y-76601857D02*
X116497857Y-77401857D01*
X116783571Y-76144714D02*
X117069285Y-77001857D01*
X116326428Y-77001857D01*
X135615857Y-104506642D02*
X135730142Y-104506642D01*
X135844428Y-104449500D01*
X135901571Y-104392357D01*
X135958714Y-104278071D01*
X136015857Y-104049500D01*
X136015857Y-103763785D01*
X135958714Y-103535214D01*
X135901571Y-103420928D01*
X135844428Y-103363785D01*
X135730142Y-103306642D01*
X135615857Y-103306642D01*
X135501571Y-103363785D01*
X135444428Y-103420928D01*
X135387285Y-103535214D01*
X135330142Y-103763785D01*
X135330142Y-104049500D01*
X135387285Y-104278071D01*
X135444428Y-104392357D01*
X135501571Y-104449500D01*
X135615857Y-104506642D01*
X125755000Y-75058714D02*
X125583571Y-75115857D01*
X125297857Y-75115857D01*
X125183571Y-75058714D01*
X125126428Y-75001571D01*
X125069285Y-74887285D01*
X125069285Y-74773000D01*
X125126428Y-74658714D01*
X125183571Y-74601571D01*
X125297857Y-74544428D01*
X125526428Y-74487285D01*
X125640714Y-74430142D01*
X125697857Y-74373000D01*
X125755000Y-74258714D01*
X125755000Y-74144428D01*
X125697857Y-74030142D01*
X125640714Y-73973000D01*
X125526428Y-73915857D01*
X125240714Y-73915857D01*
X125069285Y-73973000D01*
X124155000Y-74487285D02*
X123983571Y-74544428D01*
X123926428Y-74601571D01*
X123869285Y-74715857D01*
X123869285Y-74887285D01*
X123926428Y-75001571D01*
X123983571Y-75058714D01*
X124097857Y-75115857D01*
X124555000Y-75115857D01*
X124555000Y-73915857D01*
X124155000Y-73915857D01*
X124040714Y-73973000D01*
X123983571Y-74030142D01*
X123926428Y-74144428D01*
X123926428Y-74258714D01*
X123983571Y-74373000D01*
X124040714Y-74430142D01*
X124155000Y-74487285D01*
X124555000Y-74487285D01*
X122955000Y-74487285D02*
X122783571Y-74544428D01*
X122726428Y-74601571D01*
X122669285Y-74715857D01*
X122669285Y-74887285D01*
X122726428Y-75001571D01*
X122783571Y-75058714D01*
X122897857Y-75115857D01*
X123355000Y-75115857D01*
X123355000Y-73915857D01*
X122955000Y-73915857D01*
X122840714Y-73973000D01*
X122783571Y-74030142D01*
X122726428Y-74144428D01*
X122726428Y-74258714D01*
X122783571Y-74373000D01*
X122840714Y-74430142D01*
X122955000Y-74487285D01*
X123355000Y-74487285D01*
X121583571Y-73915857D02*
X122155000Y-73915857D01*
X122212142Y-74487285D01*
X122155000Y-74430142D01*
X122040714Y-74373000D01*
X121755000Y-74373000D01*
X121640714Y-74430142D01*
X121583571Y-74487285D01*
X121526428Y-74601571D01*
X121526428Y-74887285D01*
X121583571Y-75001571D01*
X121640714Y-75058714D01*
X121755000Y-75115857D01*
X122040714Y-75115857D01*
X122155000Y-75058714D01*
X122212142Y-75001571D01*
X120783571Y-73915857D02*
X120669285Y-73915857D01*
X120555000Y-73973000D01*
X120497857Y-74030142D01*
X120440714Y-74144428D01*
X120383571Y-74373000D01*
X120383571Y-74658714D01*
X120440714Y-74887285D01*
X120497857Y-75001571D01*
X120555000Y-75058714D01*
X120669285Y-75115857D01*
X120783571Y-75115857D01*
X120897857Y-75058714D01*
X120955000Y-75001571D01*
X121012142Y-74887285D01*
X121069285Y-74658714D01*
X121069285Y-74373000D01*
X121012142Y-74144428D01*
X120955000Y-74030142D01*
X120897857Y-73973000D01*
X120783571Y-73915857D01*
X119697857Y-74430142D02*
X119812142Y-74373000D01*
X119869285Y-74315857D01*
X119926428Y-74201571D01*
X119926428Y-74144428D01*
X119869285Y-74030142D01*
X119812142Y-73973000D01*
X119697857Y-73915857D01*
X119469285Y-73915857D01*
X119355000Y-73973000D01*
X119297857Y-74030142D01*
X119240714Y-74144428D01*
X119240714Y-74201571D01*
X119297857Y-74315857D01*
X119355000Y-74373000D01*
X119469285Y-74430142D01*
X119697857Y-74430142D01*
X119812142Y-74487285D01*
X119869285Y-74544428D01*
X119926428Y-74658714D01*
X119926428Y-74887285D01*
X119869285Y-75001571D01*
X119812142Y-75058714D01*
X119697857Y-75115857D01*
X119469285Y-75115857D01*
X119355000Y-75058714D01*
X119297857Y-75001571D01*
X119240714Y-74887285D01*
X119240714Y-74658714D01*
X119297857Y-74544428D01*
X119355000Y-74487285D01*
X119469285Y-74430142D01*
X118669285Y-75115857D02*
X118440714Y-75115857D01*
X118326428Y-75058714D01*
X118269285Y-75001571D01*
X118155000Y-74830142D01*
X118097857Y-74601571D01*
X118097857Y-74144428D01*
X118155000Y-74030142D01*
X118212142Y-73973000D01*
X118326428Y-73915857D01*
X118555000Y-73915857D01*
X118669285Y-73973000D01*
X118726428Y-74030142D01*
X118783571Y-74144428D01*
X118783571Y-74430142D01*
X118726428Y-74544428D01*
X118669285Y-74601571D01*
X118555000Y-74658714D01*
X118326428Y-74658714D01*
X118212142Y-74601571D01*
X118155000Y-74544428D01*
X118097857Y-74430142D01*
X117697857Y-73915857D02*
X116897857Y-73915857D01*
X117697857Y-75115857D01*
X116897857Y-75115857D01*
X134732000Y-85124000D02*
X134160571Y-85124000D01*
X134846285Y-85466857D02*
X134446285Y-84266857D01*
X134046285Y-85466857D01*
X133646285Y-85466857D02*
X133646285Y-84266857D01*
X133246285Y-85124000D01*
X132846285Y-84266857D01*
X132846285Y-85466857D01*
X132274857Y-85466857D02*
X132274857Y-84266857D01*
X131817714Y-84266857D01*
X131703428Y-84324000D01*
X131646285Y-84381142D01*
X131589142Y-84495428D01*
X131589142Y-84666857D01*
X131646285Y-84781142D01*
X131703428Y-84838285D01*
X131817714Y-84895428D01*
X132274857Y-84895428D01*
X130160571Y-84838285D02*
X129760571Y-84838285D01*
X129589142Y-85466857D02*
X130160571Y-85466857D01*
X130160571Y-84266857D01*
X129589142Y-84266857D01*
X129074857Y-85466857D02*
X129074857Y-84266857D01*
X128389142Y-85466857D01*
X128389142Y-84266857D01*
X132586857Y-103433642D02*
X132529714Y-103376500D01*
X132415428Y-103319357D01*
X132129714Y-103319357D01*
X132015428Y-103376500D01*
X131958285Y-103433642D01*
X131901142Y-103547928D01*
X131901142Y-103662214D01*
X131958285Y-103833642D01*
X132644000Y-104519357D01*
X131901142Y-104519357D01*
X137370142Y-87752857D02*
X137770142Y-87181428D01*
X138055857Y-87752857D02*
X138055857Y-86552857D01*
X137598714Y-86552857D01*
X137484428Y-86610000D01*
X137427285Y-86667142D01*
X137370142Y-86781428D01*
X137370142Y-86952857D01*
X137427285Y-87067142D01*
X137484428Y-87124285D01*
X137598714Y-87181428D01*
X138055857Y-87181428D01*
X136455857Y-87124285D02*
X136855857Y-87124285D01*
X136855857Y-87752857D02*
X136855857Y-86552857D01*
X136284428Y-86552857D01*
X134970142Y-87695714D02*
X134798714Y-87752857D01*
X134513000Y-87752857D01*
X134398714Y-87695714D01*
X134341571Y-87638571D01*
X134284428Y-87524285D01*
X134284428Y-87410000D01*
X134341571Y-87295714D01*
X134398714Y-87238571D01*
X134513000Y-87181428D01*
X134741571Y-87124285D01*
X134855857Y-87067142D01*
X134913000Y-87010000D01*
X134970142Y-86895714D01*
X134970142Y-86781428D01*
X134913000Y-86667142D01*
X134855857Y-86610000D01*
X134741571Y-86552857D01*
X134455857Y-86552857D01*
X134284428Y-86610000D01*
X133884428Y-86552857D02*
X133598714Y-87752857D01*
X133370142Y-86895714D01*
X133141571Y-87752857D01*
X132855857Y-86552857D01*
X132398714Y-87752857D02*
X132398714Y-86552857D01*
X131998714Y-86552857D02*
X131313000Y-86552857D01*
X131655857Y-87752857D02*
X131655857Y-86552857D01*
X130227285Y-87638571D02*
X130284428Y-87695714D01*
X130455857Y-87752857D01*
X130570142Y-87752857D01*
X130741571Y-87695714D01*
X130855857Y-87581428D01*
X130913000Y-87467142D01*
X130970142Y-87238571D01*
X130970142Y-87067142D01*
X130913000Y-86838571D01*
X130855857Y-86724285D01*
X130741571Y-86610000D01*
X130570142Y-86552857D01*
X130455857Y-86552857D01*
X130284428Y-86610000D01*
X130227285Y-86667142D01*
X129713000Y-87752857D02*
X129713000Y-86552857D01*
X129713000Y-87124285D02*
X129027285Y-87124285D01*
X129027285Y-87752857D02*
X129027285Y-86552857D01*
X127541571Y-87124285D02*
X127141571Y-87124285D01*
X126970142Y-87752857D02*
X127541571Y-87752857D01*
X127541571Y-86552857D01*
X126970142Y-86552857D01*
X126455857Y-87752857D02*
X126455857Y-86552857D01*
X125770142Y-87752857D01*
X125770142Y-86552857D01*
X133932000Y-90165857D02*
X134503428Y-90165857D01*
X134503428Y-88965857D01*
X133532000Y-89537285D02*
X133132000Y-89537285D01*
X132960571Y-90165857D02*
X133532000Y-90165857D01*
X133532000Y-88965857D01*
X132960571Y-88965857D01*
X132446285Y-90165857D02*
X132446285Y-88965857D01*
X132160571Y-88965857D01*
X131989142Y-89023000D01*
X131874857Y-89137285D01*
X131817714Y-89251571D01*
X131760571Y-89480142D01*
X131760571Y-89651571D01*
X131817714Y-89880142D01*
X131874857Y-89994428D01*
X131989142Y-90108714D01*
X132160571Y-90165857D01*
X132446285Y-90165857D01*
X130332000Y-89537285D02*
X129932000Y-89537285D01*
X129760571Y-90165857D02*
X130332000Y-90165857D01*
X130332000Y-88965857D01*
X129760571Y-88965857D01*
X129246285Y-90165857D02*
X129246285Y-88965857D01*
X128560571Y-90165857D01*
X128560571Y-88965857D01*
X142024357Y-92515357D02*
X142024357Y-91315357D01*
X141567214Y-91315357D01*
X141452928Y-91372500D01*
X141395785Y-91429642D01*
X141338642Y-91543928D01*
X141338642Y-91715357D01*
X141395785Y-91829642D01*
X141452928Y-91886785D01*
X141567214Y-91943928D01*
X142024357Y-91943928D01*
X140595785Y-91315357D02*
X140367214Y-91315357D01*
X140252928Y-91372500D01*
X140138642Y-91486785D01*
X140081500Y-91715357D01*
X140081500Y-92115357D01*
X140138642Y-92343928D01*
X140252928Y-92458214D01*
X140367214Y-92515357D01*
X140595785Y-92515357D01*
X140710071Y-92458214D01*
X140824357Y-92343928D01*
X140881500Y-92115357D01*
X140881500Y-91715357D01*
X140824357Y-91486785D01*
X140710071Y-91372500D01*
X140595785Y-91315357D01*
X139681500Y-91315357D02*
X139395785Y-92515357D01*
X139167214Y-91658214D01*
X138938642Y-92515357D01*
X138652928Y-91315357D01*
X138195785Y-91886785D02*
X137795785Y-91886785D01*
X137624357Y-92515357D02*
X138195785Y-92515357D01*
X138195785Y-91315357D01*
X137624357Y-91315357D01*
X136424357Y-92515357D02*
X136824357Y-91943928D01*
X137110071Y-92515357D02*
X137110071Y-91315357D01*
X136652928Y-91315357D01*
X136538642Y-91372500D01*
X136481500Y-91429642D01*
X136424357Y-91543928D01*
X136424357Y-91715357D01*
X136481500Y-91829642D01*
X136538642Y-91886785D01*
X136652928Y-91943928D01*
X137110071Y-91943928D01*
X134995785Y-92515357D02*
X134995785Y-91315357D01*
X134424357Y-92515357D02*
X134424357Y-91315357D01*
X133738642Y-92515357D01*
X133738642Y-91315357D01*
X132310071Y-92458214D02*
X132138642Y-92515357D01*
X131852928Y-92515357D01*
X131738642Y-92458214D01*
X131681500Y-92401071D01*
X131624357Y-92286785D01*
X131624357Y-92172500D01*
X131681500Y-92058214D01*
X131738642Y-92001071D01*
X131852928Y-91943928D01*
X132081500Y-91886785D01*
X132195785Y-91829642D01*
X132252928Y-91772500D01*
X132310071Y-91658214D01*
X132310071Y-91543928D01*
X132252928Y-91429642D01*
X132195785Y-91372500D01*
X132081500Y-91315357D01*
X131795785Y-91315357D01*
X131624357Y-91372500D01*
X131110071Y-91886785D02*
X130710071Y-91886785D01*
X130538642Y-92515357D02*
X131110071Y-92515357D01*
X131110071Y-91315357D01*
X130538642Y-91315357D01*
X129452928Y-92515357D02*
X130024357Y-92515357D01*
X130024357Y-91315357D01*
X127452928Y-92515357D02*
X127852928Y-91943928D01*
X128138642Y-92515357D02*
X128138642Y-91315357D01*
X127681500Y-91315357D01*
X127567214Y-91372500D01*
X127510071Y-91429642D01*
X127452928Y-91543928D01*
X127452928Y-91715357D01*
X127510071Y-91829642D01*
X127567214Y-91886785D01*
X127681500Y-91943928D01*
X128138642Y-91943928D01*
X126938642Y-92515357D02*
X126938642Y-91315357D01*
X126481500Y-91315357D01*
X126367214Y-91372500D01*
X126310071Y-91429642D01*
X126252928Y-91543928D01*
X126252928Y-91715357D01*
X126310071Y-91829642D01*
X126367214Y-91886785D01*
X126481500Y-91943928D01*
X126938642Y-91943928D01*
X125738642Y-92515357D02*
X125738642Y-91315357D01*
X132142428Y-107846857D02*
X132142428Y-108646857D01*
X132428142Y-107389714D02*
X132713857Y-108246857D01*
X131971000Y-108246857D01*
X136466642Y-99922000D02*
X135895214Y-99922000D01*
X136580928Y-100264857D02*
X136180928Y-99064857D01*
X135780928Y-100264857D01*
X135152357Y-99064857D02*
X135038071Y-99064857D01*
X134923785Y-99122000D01*
X134866642Y-99179142D01*
X134809500Y-99293428D01*
X134752357Y-99522000D01*
X134752357Y-99807714D01*
X134809500Y-100036285D01*
X134866642Y-100150571D01*
X134923785Y-100207714D01*
X135038071Y-100264857D01*
X135152357Y-100264857D01*
X135266642Y-100207714D01*
X135323785Y-100150571D01*
X135380928Y-100036285D01*
X135438071Y-99807714D01*
X135438071Y-99522000D01*
X135380928Y-99293428D01*
X135323785Y-99179142D01*
X135266642Y-99122000D01*
X135152357Y-99064857D01*
D10*
X78546356Y-63817611D02*
X78546356Y-113817611D01*
X140546356Y-60817611D02*
X81546356Y-60817611D01*
X143546351Y-113822847D02*
X143546356Y-63817611D01*
X81546356Y-116817611D02*
X140546356Y-116817611D01*
D12*
X101212476Y-94308761D02*
X100069619Y-94308761D01*
X100641047Y-96308761D02*
X100641047Y-94308761D01*
X98641047Y-96213523D02*
X98831523Y-96308761D01*
X99212476Y-96308761D01*
X99402952Y-96213523D01*
X99498190Y-96023047D01*
X99498190Y-95261142D01*
X99402952Y-95070666D01*
X99212476Y-94975428D01*
X98831523Y-94975428D01*
X98641047Y-95070666D01*
X98545809Y-95261142D01*
X98545809Y-95451619D01*
X99498190Y-95642095D01*
X96831523Y-96213523D02*
X97022000Y-96308761D01*
X97402952Y-96308761D01*
X97593428Y-96213523D01*
X97688666Y-96118285D01*
X97783904Y-95927809D01*
X97783904Y-95356380D01*
X97688666Y-95165904D01*
X97593428Y-95070666D01*
X97402952Y-94975428D01*
X97022000Y-94975428D01*
X96831523Y-95070666D01*
X95974380Y-96308761D02*
X95974380Y-94308761D01*
X95117238Y-96308761D02*
X95117238Y-95261142D01*
X95212476Y-95070666D01*
X95402952Y-94975428D01*
X95688666Y-94975428D01*
X95879142Y-95070666D01*
X95974380Y-95165904D01*
D13*
X112999285Y-98793142D02*
X112999285Y-95793142D01*
X111285000Y-98793142D02*
X112570714Y-97078857D01*
X111285000Y-95793142D02*
X112999285Y-97507428D01*
X108713571Y-98793142D02*
X108713571Y-97221714D01*
X108856428Y-96936000D01*
X109142142Y-96793142D01*
X109713571Y-96793142D01*
X109999285Y-96936000D01*
X108713571Y-98650285D02*
X108999285Y-98793142D01*
X109713571Y-98793142D01*
X109999285Y-98650285D01*
X110142142Y-98364571D01*
X110142142Y-98078857D01*
X109999285Y-97793142D01*
X109713571Y-97650285D01*
X108999285Y-97650285D01*
X108713571Y-97507428D01*
X107285000Y-98793142D02*
X107285000Y-96793142D01*
X107285000Y-97078857D02*
X107142142Y-96936000D01*
X106856428Y-96793142D01*
X106427857Y-96793142D01*
X106142142Y-96936000D01*
X105999285Y-97221714D01*
X105999285Y-98793142D01*
X105999285Y-97221714D02*
X105856428Y-96936000D01*
X105570714Y-96793142D01*
X105142142Y-96793142D01*
X104856428Y-96936000D01*
X104713571Y-97221714D01*
X104713571Y-98793142D01*
X101999285Y-96793142D02*
X101999285Y-98793142D01*
X103285000Y-96793142D02*
X103285000Y-98364571D01*
X103142142Y-98650285D01*
X102856428Y-98793142D01*
X102427857Y-98793142D01*
X102142142Y-98650285D01*
X101999285Y-98507428D01*
X100570714Y-98793142D02*
X100570714Y-96793142D01*
X100570714Y-95793142D02*
X100713571Y-95936000D01*
X100570714Y-96078857D01*
X100427857Y-95936000D01*
X100570714Y-95793142D01*
X100570714Y-96078857D01*
X113662857Y-92717142D02*
X114662857Y-91288571D01*
X115377142Y-92717142D02*
X115377142Y-89717142D01*
X114234285Y-89717142D01*
X113948571Y-89860000D01*
X113805714Y-90002857D01*
X113662857Y-90288571D01*
X113662857Y-90717142D01*
X113805714Y-91002857D01*
X113948571Y-91145714D01*
X114234285Y-91288571D01*
X115377142Y-91288571D01*
X111091428Y-92717142D02*
X111091428Y-91145714D01*
X111234285Y-90860000D01*
X111520000Y-90717142D01*
X112091428Y-90717142D01*
X112377142Y-90860000D01*
X111091428Y-92574285D02*
X111377142Y-92717142D01*
X112091428Y-92717142D01*
X112377142Y-92574285D01*
X112520000Y-92288571D01*
X112520000Y-92002857D01*
X112377142Y-91717142D01*
X112091428Y-91574285D01*
X111377142Y-91574285D01*
X111091428Y-91431428D01*
X108377142Y-92717142D02*
X108377142Y-89717142D01*
X108377142Y-92574285D02*
X108662857Y-92717142D01*
X109234285Y-92717142D01*
X109520000Y-92574285D01*
X109662857Y-92431428D01*
X109805714Y-92145714D01*
X109805714Y-91288571D01*
X109662857Y-91002857D01*
X109520000Y-90860000D01*
X109234285Y-90717142D01*
X108662857Y-90717142D01*
X108377142Y-90860000D01*
X106948571Y-92717142D02*
X106948571Y-90717142D01*
X106948571Y-89717142D02*
X107091428Y-89860000D01*
X106948571Y-90002857D01*
X106805714Y-89860000D01*
X106948571Y-89717142D01*
X106948571Y-90002857D01*
X105091428Y-92717142D02*
X105377142Y-92574285D01*
X105520000Y-92431428D01*
X105662857Y-92145714D01*
X105662857Y-91288571D01*
X105520000Y-91002857D01*
X105377142Y-90860000D01*
X105091428Y-90717142D01*
X104662857Y-90717142D01*
X104377142Y-90860000D01*
X104234285Y-91002857D01*
X104091428Y-91288571D01*
X104091428Y-92145714D01*
X104234285Y-92431428D01*
X104377142Y-92574285D01*
X104662857Y-92717142D01*
X105091428Y-92717142D01*
X101948571Y-89717142D02*
X101948571Y-91860000D01*
X102091428Y-92288571D01*
X102377142Y-92574285D01*
X102805714Y-92717142D01*
X103091428Y-92717142D01*
X100520000Y-92717142D02*
X100520000Y-90717142D01*
X100520000Y-89717142D02*
X100662857Y-89860000D01*
X100520000Y-90002857D01*
X100377142Y-89860000D01*
X100520000Y-89717142D01*
X100520000Y-90002857D01*
X99520000Y-90717142D02*
X98377142Y-90717142D01*
X99091428Y-89717142D02*
X99091428Y-92288571D01*
X98948571Y-92574285D01*
X98662857Y-92717142D01*
X98377142Y-92717142D01*
X97805714Y-90717142D02*
X96662857Y-90717142D01*
X97377142Y-89717142D02*
X97377142Y-92288571D01*
X97234285Y-92574285D01*
X96948571Y-92717142D01*
X96662857Y-92717142D01*
X94520000Y-92574285D02*
X94805714Y-92717142D01*
X95377142Y-92717142D01*
X95662857Y-92574285D01*
X95805714Y-92288571D01*
X95805714Y-91145714D01*
X95662857Y-90860000D01*
X95377142Y-90717142D01*
X94805714Y-90717142D01*
X94520000Y-90860000D01*
X94377142Y-91145714D01*
X94377142Y-91431428D01*
X95805714Y-91717142D01*
X93091428Y-92717142D02*
X93091428Y-90717142D01*
X93091428Y-91288571D02*
X92948571Y-91002857D01*
X92805714Y-90860000D01*
X92520000Y-90717142D01*
X92234285Y-90717142D01*
D10*
X78546356Y-63817611D02*
G75*
G02X81546356Y-60817611I3000000J0D01*
G01*
X140546356Y-60817611D02*
G75*
G02X143546356Y-63817611I0J-3000000D01*
G01*
X81546356Y-116817611D02*
G75*
G02X78546356Y-113817611I0J3000000D01*
G01*
X143546351Y-113822847D02*
G75*
G02X140546356Y-116817611I-2999995J5236D01*
G01*
D14*
X120500000Y-83250000D02*
X117550000Y-83250000D01*
X118700000Y-80030000D02*
X120500000Y-80030000D01*
X97220000Y-109810000D02*
X103230000Y-109810000D01*
X99470000Y-102990000D02*
X103230000Y-102990000D01*
X103230000Y-109810000D02*
X103230000Y-108550000D01*
X103230000Y-102990000D02*
X103230000Y-104250000D01*
X96470000Y-107463748D02*
X96470000Y-107986252D01*
X95050000Y-107463748D02*
X95050000Y-107986252D01*
X99546252Y-114650000D02*
X99023748Y-114650000D01*
X99546252Y-113230000D02*
X99023748Y-113230000D01*
X85426252Y-98150000D02*
X84903748Y-98150000D01*
X85426252Y-96730000D02*
X84903748Y-96730000D01*
X102870000Y-69098748D02*
X102870000Y-69621252D01*
X101450000Y-69098748D02*
X101450000Y-69621252D01*
X100330000Y-69098748D02*
X100330000Y-69621252D01*
X98910000Y-69098748D02*
X98910000Y-69621252D01*
X98210000Y-80098748D02*
X98210000Y-80621252D01*
X96790000Y-80098748D02*
X96790000Y-80621252D01*
X103442064Y-112510000D02*
X102237936Y-112510000D01*
X103442064Y-110690000D02*
X102237936Y-110690000D01*
X97137936Y-110690000D02*
X98342064Y-110690000D01*
X97137936Y-112510000D02*
X98342064Y-112510000D01*
X98410436Y-100410000D02*
X99614564Y-100410000D01*
X98410436Y-102230000D02*
X99614564Y-102230000D01*
X81401252Y-98130000D02*
X80878748Y-98130000D01*
X81401252Y-96710000D02*
X80878748Y-96710000D01*
X85344000Y-99397500D02*
X88794000Y-99397500D01*
X85344000Y-99397500D02*
X83394000Y-99397500D01*
X85344000Y-109517500D02*
X87294000Y-109517500D01*
X85344000Y-109517500D02*
X83394000Y-109517500D01*
X85590000Y-65590000D02*
X85590000Y-66920000D01*
X85590000Y-66920000D02*
X86920000Y-66920000D01*
X85590000Y-64320000D02*
X88190000Y-64320000D01*
X88190000Y-64320000D02*
X88190000Y-66920000D01*
X88190000Y-66920000D02*
X136510000Y-66920000D01*
X136510000Y-61720000D02*
X136510000Y-66920000D01*
X85590000Y-61720000D02*
X136510000Y-61720000D01*
X85590000Y-61720000D02*
X85590000Y-64320000D01*
D10*
X123921904Y-79232380D02*
X123921904Y-80041904D01*
X123874285Y-80137142D01*
X123826666Y-80184761D01*
X123731428Y-80232380D01*
X123540952Y-80232380D01*
X123445714Y-80184761D01*
X123398095Y-80137142D01*
X123350476Y-80041904D01*
X123350476Y-79232380D01*
X122969523Y-79232380D02*
X122350476Y-79232380D01*
X122683809Y-79613333D01*
X122540952Y-79613333D01*
X122445714Y-79660952D01*
X122398095Y-79708571D01*
X122350476Y-79803809D01*
X122350476Y-80041904D01*
X122398095Y-80137142D01*
X122445714Y-80184761D01*
X122540952Y-80232380D01*
X122826666Y-80232380D01*
X122921904Y-80184761D01*
X122969523Y-80137142D01*
X107701904Y-105812380D02*
X107701904Y-106621904D01*
X107654285Y-106717142D01*
X107606666Y-106764761D01*
X107511428Y-106812380D01*
X107320952Y-106812380D01*
X107225714Y-106764761D01*
X107178095Y-106717142D01*
X107130476Y-106621904D01*
X107130476Y-105812380D01*
X106701904Y-105907619D02*
X106654285Y-105860000D01*
X106559047Y-105812380D01*
X106320952Y-105812380D01*
X106225714Y-105860000D01*
X106178095Y-105907619D01*
X106130476Y-106002857D01*
X106130476Y-106098095D01*
X106178095Y-106240952D01*
X106749523Y-106812380D01*
X106130476Y-106812380D01*
X94026666Y-108472380D02*
X94360000Y-107996190D01*
X94598095Y-108472380D02*
X94598095Y-107472380D01*
X94217142Y-107472380D01*
X94121904Y-107520000D01*
X94074285Y-107567619D01*
X94026666Y-107662857D01*
X94026666Y-107805714D01*
X94074285Y-107900952D01*
X94121904Y-107948571D01*
X94217142Y-107996190D01*
X94598095Y-107996190D01*
X93455238Y-107900952D02*
X93550476Y-107853333D01*
X93598095Y-107805714D01*
X93645714Y-107710476D01*
X93645714Y-107662857D01*
X93598095Y-107567619D01*
X93550476Y-107520000D01*
X93455238Y-107472380D01*
X93264761Y-107472380D01*
X93169523Y-107520000D01*
X93121904Y-107567619D01*
X93074285Y-107662857D01*
X93074285Y-107710476D01*
X93121904Y-107805714D01*
X93169523Y-107853333D01*
X93264761Y-107900952D01*
X93455238Y-107900952D01*
X93550476Y-107948571D01*
X93598095Y-107996190D01*
X93645714Y-108091428D01*
X93645714Y-108281904D01*
X93598095Y-108377142D01*
X93550476Y-108424761D01*
X93455238Y-108472380D01*
X93264761Y-108472380D01*
X93169523Y-108424761D01*
X93121904Y-108377142D01*
X93074285Y-108281904D01*
X93074285Y-108091428D01*
X93121904Y-107996190D01*
X93169523Y-107948571D01*
X93264761Y-107900952D01*
X99486666Y-116152380D02*
X99820000Y-115676190D01*
X100058095Y-116152380D02*
X100058095Y-115152380D01*
X99677142Y-115152380D01*
X99581904Y-115200000D01*
X99534285Y-115247619D01*
X99486666Y-115342857D01*
X99486666Y-115485714D01*
X99534285Y-115580952D01*
X99581904Y-115628571D01*
X99677142Y-115676190D01*
X100058095Y-115676190D01*
X99153333Y-115152380D02*
X98486666Y-115152380D01*
X98915238Y-116152380D01*
X85331666Y-96242380D02*
X85665000Y-95766190D01*
X85903095Y-96242380D02*
X85903095Y-95242380D01*
X85522142Y-95242380D01*
X85426904Y-95290000D01*
X85379285Y-95337619D01*
X85331666Y-95432857D01*
X85331666Y-95575714D01*
X85379285Y-95670952D01*
X85426904Y-95718571D01*
X85522142Y-95766190D01*
X85903095Y-95766190D01*
X84426904Y-95242380D02*
X84903095Y-95242380D01*
X84950714Y-95718571D01*
X84903095Y-95670952D01*
X84807857Y-95623333D01*
X84569761Y-95623333D01*
X84474523Y-95670952D01*
X84426904Y-95718571D01*
X84379285Y-95813809D01*
X84379285Y-96051904D01*
X84426904Y-96147142D01*
X84474523Y-96194761D01*
X84569761Y-96242380D01*
X84807857Y-96242380D01*
X84903095Y-96194761D01*
X84950714Y-96147142D01*
X102246666Y-72452380D02*
X102580000Y-71976190D01*
X102818095Y-72452380D02*
X102818095Y-71452380D01*
X102437142Y-71452380D01*
X102341904Y-71500000D01*
X102294285Y-71547619D01*
X102246666Y-71642857D01*
X102246666Y-71785714D01*
X102294285Y-71880952D01*
X102341904Y-71928571D01*
X102437142Y-71976190D01*
X102818095Y-71976190D01*
X101389523Y-71785714D02*
X101389523Y-72452380D01*
X101627619Y-71404761D02*
X101865714Y-72119047D01*
X101246666Y-72119047D01*
X99746666Y-72452380D02*
X100080000Y-71976190D01*
X100318095Y-72452380D02*
X100318095Y-71452380D01*
X99937142Y-71452380D01*
X99841904Y-71500000D01*
X99794285Y-71547619D01*
X99746666Y-71642857D01*
X99746666Y-71785714D01*
X99794285Y-71880952D01*
X99841904Y-71928571D01*
X99937142Y-71976190D01*
X100318095Y-71976190D01*
X99413333Y-71452380D02*
X98794285Y-71452380D01*
X99127619Y-71833333D01*
X98984761Y-71833333D01*
X98889523Y-71880952D01*
X98841904Y-71928571D01*
X98794285Y-72023809D01*
X98794285Y-72261904D01*
X98841904Y-72357142D01*
X98889523Y-72404761D01*
X98984761Y-72452380D01*
X99270476Y-72452380D01*
X99365714Y-72404761D01*
X99413333Y-72357142D01*
X97586666Y-78152380D02*
X97920000Y-77676190D01*
X98158095Y-78152380D02*
X98158095Y-77152380D01*
X97777142Y-77152380D01*
X97681904Y-77200000D01*
X97634285Y-77247619D01*
X97586666Y-77342857D01*
X97586666Y-77485714D01*
X97634285Y-77580952D01*
X97681904Y-77628571D01*
X97777142Y-77676190D01*
X98158095Y-77676190D01*
X96634285Y-78152380D02*
X97205714Y-78152380D01*
X96920000Y-78152380D02*
X96920000Y-77152380D01*
X97015238Y-77295238D01*
X97110476Y-77390476D01*
X97205714Y-77438095D01*
X104402857Y-113917142D02*
X104450476Y-113964761D01*
X104593333Y-114012380D01*
X104688571Y-114012380D01*
X104831428Y-113964761D01*
X104926666Y-113869523D01*
X104974285Y-113774285D01*
X105021904Y-113583809D01*
X105021904Y-113440952D01*
X104974285Y-113250476D01*
X104926666Y-113155238D01*
X104831428Y-113060000D01*
X104688571Y-113012380D01*
X104593333Y-113012380D01*
X104450476Y-113060000D01*
X104402857Y-113107619D01*
X103450476Y-114012380D02*
X104021904Y-114012380D01*
X103736190Y-114012380D02*
X103736190Y-113012380D01*
X103831428Y-113155238D01*
X103926666Y-113250476D01*
X104021904Y-113298095D01*
X102879047Y-113440952D02*
X102974285Y-113393333D01*
X103021904Y-113345714D01*
X103069523Y-113250476D01*
X103069523Y-113202857D01*
X103021904Y-113107619D01*
X102974285Y-113060000D01*
X102879047Y-113012380D01*
X102688571Y-113012380D01*
X102593333Y-113060000D01*
X102545714Y-113107619D01*
X102498095Y-113202857D01*
X102498095Y-113250476D01*
X102545714Y-113345714D01*
X102593333Y-113393333D01*
X102688571Y-113440952D01*
X102879047Y-113440952D01*
X102974285Y-113488571D01*
X103021904Y-113536190D01*
X103069523Y-113631428D01*
X103069523Y-113821904D01*
X103021904Y-113917142D01*
X102974285Y-113964761D01*
X102879047Y-114012380D01*
X102688571Y-114012380D01*
X102593333Y-113964761D01*
X102545714Y-113917142D01*
X102498095Y-113821904D01*
X102498095Y-113631428D01*
X102545714Y-113536190D01*
X102593333Y-113488571D01*
X102688571Y-113440952D01*
X94342857Y-111217142D02*
X94390476Y-111264761D01*
X94533333Y-111312380D01*
X94628571Y-111312380D01*
X94771428Y-111264761D01*
X94866666Y-111169523D01*
X94914285Y-111074285D01*
X94961904Y-110883809D01*
X94961904Y-110740952D01*
X94914285Y-110550476D01*
X94866666Y-110455238D01*
X94771428Y-110360000D01*
X94628571Y-110312380D01*
X94533333Y-110312380D01*
X94390476Y-110360000D01*
X94342857Y-110407619D01*
X93390476Y-111312380D02*
X93961904Y-111312380D01*
X93676190Y-111312380D02*
X93676190Y-110312380D01*
X93771428Y-110455238D01*
X93866666Y-110550476D01*
X93961904Y-110598095D01*
X92771428Y-110312380D02*
X92676190Y-110312380D01*
X92580952Y-110360000D01*
X92533333Y-110407619D01*
X92485714Y-110502857D01*
X92438095Y-110693333D01*
X92438095Y-110931428D01*
X92485714Y-111121904D01*
X92533333Y-111217142D01*
X92580952Y-111264761D01*
X92676190Y-111312380D01*
X92771428Y-111312380D01*
X92866666Y-111264761D01*
X92914285Y-111217142D01*
X92961904Y-111121904D01*
X93009523Y-110931428D01*
X93009523Y-110693333D01*
X92961904Y-110502857D01*
X92914285Y-110407619D01*
X92866666Y-110360000D01*
X92771428Y-110312380D01*
X103286666Y-101617142D02*
X103334285Y-101664761D01*
X103477142Y-101712380D01*
X103572380Y-101712380D01*
X103715238Y-101664761D01*
X103810476Y-101569523D01*
X103858095Y-101474285D01*
X103905714Y-101283809D01*
X103905714Y-101140952D01*
X103858095Y-100950476D01*
X103810476Y-100855238D01*
X103715238Y-100760000D01*
X103572380Y-100712380D01*
X103477142Y-100712380D01*
X103334285Y-100760000D01*
X103286666Y-100807619D01*
X102429523Y-100712380D02*
X102620000Y-100712380D01*
X102715238Y-100760000D01*
X102762857Y-100807619D01*
X102858095Y-100950476D01*
X102905714Y-101140952D01*
X102905714Y-101521904D01*
X102858095Y-101617142D01*
X102810476Y-101664761D01*
X102715238Y-101712380D01*
X102524761Y-101712380D01*
X102429523Y-101664761D01*
X102381904Y-101617142D01*
X102334285Y-101521904D01*
X102334285Y-101283809D01*
X102381904Y-101188571D01*
X102429523Y-101140952D01*
X102524761Y-101093333D01*
X102715238Y-101093333D01*
X102810476Y-101140952D01*
X102858095Y-101188571D01*
X102905714Y-101283809D01*
X82322857Y-96157142D02*
X82370476Y-96204761D01*
X82513333Y-96252380D01*
X82608571Y-96252380D01*
X82751428Y-96204761D01*
X82846666Y-96109523D01*
X82894285Y-96014285D01*
X82941904Y-95823809D01*
X82941904Y-95680952D01*
X82894285Y-95490476D01*
X82846666Y-95395238D01*
X82751428Y-95300000D01*
X82608571Y-95252380D01*
X82513333Y-95252380D01*
X82370476Y-95300000D01*
X82322857Y-95347619D01*
X81370476Y-96252380D02*
X81941904Y-96252380D01*
X81656190Y-96252380D02*
X81656190Y-95252380D01*
X81751428Y-95395238D01*
X81846666Y-95490476D01*
X81941904Y-95538095D01*
X80894285Y-96252380D02*
X80703809Y-96252380D01*
X80608571Y-96204761D01*
X80560952Y-96157142D01*
X80465714Y-96014285D01*
X80418095Y-95823809D01*
X80418095Y-95442857D01*
X80465714Y-95347619D01*
X80513333Y-95300000D01*
X80608571Y-95252380D01*
X80799047Y-95252380D01*
X80894285Y-95300000D01*
X80941904Y-95347619D01*
X80989523Y-95442857D01*
X80989523Y-95680952D01*
X80941904Y-95776190D01*
X80894285Y-95823809D01*
X80799047Y-95871428D01*
X80608571Y-95871428D01*
X80513333Y-95823809D01*
X80465714Y-95776190D01*
X80418095Y-95680952D01*
X91696190Y-99392380D02*
X91696190Y-98392380D01*
X90648571Y-99297142D02*
X90696190Y-99344761D01*
X90839047Y-99392380D01*
X90934285Y-99392380D01*
X91077142Y-99344761D01*
X91172380Y-99249523D01*
X91220000Y-99154285D01*
X91267619Y-98963809D01*
X91267619Y-98820952D01*
X91220000Y-98630476D01*
X91172380Y-98535238D01*
X91077142Y-98440000D01*
X90934285Y-98392380D01*
X90839047Y-98392380D01*
X90696190Y-98440000D01*
X90648571Y-98487619D01*
X90315238Y-98392380D02*
X89696190Y-98392380D01*
X90029523Y-98773333D01*
X89886666Y-98773333D01*
X89791428Y-98820952D01*
X89743809Y-98868571D01*
X89696190Y-98963809D01*
X89696190Y-99201904D01*
X89743809Y-99297142D01*
X89791428Y-99344761D01*
X89886666Y-99392380D01*
X90172380Y-99392380D01*
X90267619Y-99344761D01*
X90315238Y-99297142D01*
X111458333Y-67143380D02*
X111458333Y-67857666D01*
X111505952Y-68000523D01*
X111601190Y-68095761D01*
X111744047Y-68143380D01*
X111839285Y-68143380D01*
X111077380Y-67143380D02*
X110458333Y-67143380D01*
X110791666Y-67524333D01*
X110648809Y-67524333D01*
X110553571Y-67571952D01*
X110505952Y-67619571D01*
X110458333Y-67714809D01*
X110458333Y-67952904D01*
X110505952Y-68048142D01*
X110553571Y-68095761D01*
X110648809Y-68143380D01*
X110934523Y-68143380D01*
X111029761Y-68095761D01*
X111077380Y-68048142D01*
M02*
