G04 #@! TF.GenerationSoftware,KiCad,Pcbnew,(5.1.4)-1*
G04 #@! TF.CreationDate,2019-11-05T17:53:01+05:30*
G04 #@! TF.ProjectId,RPi Hat RF Transmitter V1,52506920-4861-4742-9052-46205472616e,rev?*
G04 #@! TF.SameCoordinates,Original*
G04 #@! TF.FileFunction,Soldermask,Top*
G04 #@! TF.FilePolarity,Negative*
%FSLAX46Y46*%
G04 Gerber Fmt 4.6, Leading zero omitted, Abs format (unit mm)*
G04 Created by KiCad (PCBNEW (5.1.4)-1) date 2019-11-05 17:53:01*
%MOMM*%
%LPD*%
G04 APERTURE LIST*
%ADD10C,0.150000*%
%ADD11C,2.000000*%
%ADD12O,1.900000X1.900000*%
%ADD13R,1.900000X1.900000*%
%ADD14C,0.100000*%
%ADD15C,1.075000*%
%ADD16C,1.350000*%
%ADD17R,2.400000X1.250000*%
%ADD18R,1.250000X1.200000*%
%ADD19R,0.650000X1.675000*%
%ADD20R,1.250000X2.400000*%
%ADD21R,1.200000X1.250000*%
%ADD22C,0.810000*%
%ADD23C,1.240000*%
%ADD24C,2.450000*%
%ADD25C,2.250000*%
%ADD26C,3.000000*%
%ADD27C,1.100000*%
%ADD28C,0.800000*%
%ADD29R,1.400000X2.100000*%
%ADD30O,1.400000X2.100000*%
%ADD31R,1.700000X2.100000*%
%ADD32C,1.650000*%
%ADD33R,0.600000X1.550000*%
%ADD34C,3.200000*%
G04 APERTURE END LIST*
D10*
X78546356Y-63817611D02*
X78546356Y-113817611D01*
X140546356Y-60817611D02*
X81546356Y-60817611D01*
X143546351Y-113822847D02*
X143546356Y-63817611D01*
X81546356Y-116817611D02*
X140546356Y-116817611D01*
X78546356Y-63817611D02*
G75*
G02X81546356Y-60817611I3000000J0D01*
G01*
X140546356Y-60817611D02*
G75*
G02X143546356Y-63817611I0J-3000000D01*
G01*
X81546356Y-116817611D02*
G75*
G02X78546356Y-113817611I0J3000000D01*
G01*
X143546351Y-113822847D02*
G75*
G02X140546356Y-116817611I-2999995J5236D01*
G01*
D11*
X108180000Y-102200000D03*
D12*
X131140000Y-70580000D03*
X133680000Y-70580000D03*
X131140000Y-73120000D03*
X133680000Y-73120000D03*
X131140000Y-75660000D03*
D13*
X133680000Y-75660000D03*
D14*
G36*
X100182592Y-101186294D02*
G01*
X100208681Y-101190164D01*
X100234264Y-101196572D01*
X100259096Y-101205457D01*
X100282938Y-101216734D01*
X100305560Y-101230293D01*
X100326743Y-101246003D01*
X100346285Y-101263715D01*
X100363997Y-101283257D01*
X100379707Y-101304440D01*
X100393266Y-101327062D01*
X100404543Y-101350904D01*
X100413428Y-101375736D01*
X100419836Y-101401319D01*
X100423706Y-101427408D01*
X100425000Y-101453750D01*
X100425000Y-102066250D01*
X100423706Y-102092592D01*
X100419836Y-102118681D01*
X100413428Y-102144264D01*
X100404543Y-102169096D01*
X100393266Y-102192938D01*
X100379707Y-102215560D01*
X100363997Y-102236743D01*
X100346285Y-102256285D01*
X100326743Y-102273997D01*
X100305560Y-102289707D01*
X100282938Y-102303266D01*
X100259096Y-102314543D01*
X100234264Y-102323428D01*
X100208681Y-102329836D01*
X100182592Y-102333706D01*
X100156250Y-102335000D01*
X99618750Y-102335000D01*
X99592408Y-102333706D01*
X99566319Y-102329836D01*
X99540736Y-102323428D01*
X99515904Y-102314543D01*
X99492062Y-102303266D01*
X99469440Y-102289707D01*
X99448257Y-102273997D01*
X99428715Y-102256285D01*
X99411003Y-102236743D01*
X99395293Y-102215560D01*
X99381734Y-102192938D01*
X99370457Y-102169096D01*
X99361572Y-102144264D01*
X99355164Y-102118681D01*
X99351294Y-102092592D01*
X99350000Y-102066250D01*
X99350000Y-101453750D01*
X99351294Y-101427408D01*
X99355164Y-101401319D01*
X99361572Y-101375736D01*
X99370457Y-101350904D01*
X99381734Y-101327062D01*
X99395293Y-101304440D01*
X99411003Y-101283257D01*
X99428715Y-101263715D01*
X99448257Y-101246003D01*
X99469440Y-101230293D01*
X99492062Y-101216734D01*
X99515904Y-101205457D01*
X99540736Y-101196572D01*
X99566319Y-101190164D01*
X99592408Y-101186294D01*
X99618750Y-101185000D01*
X100156250Y-101185000D01*
X100182592Y-101186294D01*
X100182592Y-101186294D01*
G37*
D15*
X99887500Y-101760000D03*
D14*
G36*
X98607592Y-101186294D02*
G01*
X98633681Y-101190164D01*
X98659264Y-101196572D01*
X98684096Y-101205457D01*
X98707938Y-101216734D01*
X98730560Y-101230293D01*
X98751743Y-101246003D01*
X98771285Y-101263715D01*
X98788997Y-101283257D01*
X98804707Y-101304440D01*
X98818266Y-101327062D01*
X98829543Y-101350904D01*
X98838428Y-101375736D01*
X98844836Y-101401319D01*
X98848706Y-101427408D01*
X98850000Y-101453750D01*
X98850000Y-102066250D01*
X98848706Y-102092592D01*
X98844836Y-102118681D01*
X98838428Y-102144264D01*
X98829543Y-102169096D01*
X98818266Y-102192938D01*
X98804707Y-102215560D01*
X98788997Y-102236743D01*
X98771285Y-102256285D01*
X98751743Y-102273997D01*
X98730560Y-102289707D01*
X98707938Y-102303266D01*
X98684096Y-102314543D01*
X98659264Y-102323428D01*
X98633681Y-102329836D01*
X98607592Y-102333706D01*
X98581250Y-102335000D01*
X98043750Y-102335000D01*
X98017408Y-102333706D01*
X97991319Y-102329836D01*
X97965736Y-102323428D01*
X97940904Y-102314543D01*
X97917062Y-102303266D01*
X97894440Y-102289707D01*
X97873257Y-102273997D01*
X97853715Y-102256285D01*
X97836003Y-102236743D01*
X97820293Y-102215560D01*
X97806734Y-102192938D01*
X97795457Y-102169096D01*
X97786572Y-102144264D01*
X97780164Y-102118681D01*
X97776294Y-102092592D01*
X97775000Y-102066250D01*
X97775000Y-101453750D01*
X97776294Y-101427408D01*
X97780164Y-101401319D01*
X97786572Y-101375736D01*
X97795457Y-101350904D01*
X97806734Y-101327062D01*
X97820293Y-101304440D01*
X97836003Y-101283257D01*
X97853715Y-101263715D01*
X97873257Y-101246003D01*
X97894440Y-101230293D01*
X97917062Y-101216734D01*
X97940904Y-101205457D01*
X97965736Y-101196572D01*
X97991319Y-101190164D01*
X98017408Y-101186294D01*
X98043750Y-101185000D01*
X98581250Y-101185000D01*
X98607592Y-101186294D01*
X98607592Y-101186294D01*
G37*
D15*
X98312500Y-101760000D03*
D14*
G36*
X102772592Y-102911294D02*
G01*
X102798681Y-102915164D01*
X102824264Y-102921572D01*
X102849096Y-102930457D01*
X102872938Y-102941734D01*
X102895560Y-102955293D01*
X102916743Y-102971003D01*
X102936285Y-102988715D01*
X102953997Y-103008257D01*
X102969707Y-103029440D01*
X102983266Y-103052062D01*
X102994543Y-103075904D01*
X103003428Y-103100736D01*
X103009836Y-103126319D01*
X103013706Y-103152408D01*
X103015000Y-103178750D01*
X103015000Y-103716250D01*
X103013706Y-103742592D01*
X103009836Y-103768681D01*
X103003428Y-103794264D01*
X102994543Y-103819096D01*
X102983266Y-103842938D01*
X102969707Y-103865560D01*
X102953997Y-103886743D01*
X102936285Y-103906285D01*
X102916743Y-103923997D01*
X102895560Y-103939707D01*
X102872938Y-103953266D01*
X102849096Y-103964543D01*
X102824264Y-103973428D01*
X102798681Y-103979836D01*
X102772592Y-103983706D01*
X102746250Y-103985000D01*
X102133750Y-103985000D01*
X102107408Y-103983706D01*
X102081319Y-103979836D01*
X102055736Y-103973428D01*
X102030904Y-103964543D01*
X102007062Y-103953266D01*
X101984440Y-103939707D01*
X101963257Y-103923997D01*
X101943715Y-103906285D01*
X101926003Y-103886743D01*
X101910293Y-103865560D01*
X101896734Y-103842938D01*
X101885457Y-103819096D01*
X101876572Y-103794264D01*
X101870164Y-103768681D01*
X101866294Y-103742592D01*
X101865000Y-103716250D01*
X101865000Y-103178750D01*
X101866294Y-103152408D01*
X101870164Y-103126319D01*
X101876572Y-103100736D01*
X101885457Y-103075904D01*
X101896734Y-103052062D01*
X101910293Y-103029440D01*
X101926003Y-103008257D01*
X101943715Y-102988715D01*
X101963257Y-102971003D01*
X101984440Y-102955293D01*
X102007062Y-102941734D01*
X102030904Y-102930457D01*
X102055736Y-102921572D01*
X102081319Y-102915164D01*
X102107408Y-102911294D01*
X102133750Y-102910000D01*
X102746250Y-102910000D01*
X102772592Y-102911294D01*
X102772592Y-102911294D01*
G37*
D15*
X102440000Y-103447500D03*
D14*
G36*
X102772592Y-101336294D02*
G01*
X102798681Y-101340164D01*
X102824264Y-101346572D01*
X102849096Y-101355457D01*
X102872938Y-101366734D01*
X102895560Y-101380293D01*
X102916743Y-101396003D01*
X102936285Y-101413715D01*
X102953997Y-101433257D01*
X102969707Y-101454440D01*
X102983266Y-101477062D01*
X102994543Y-101500904D01*
X103003428Y-101525736D01*
X103009836Y-101551319D01*
X103013706Y-101577408D01*
X103015000Y-101603750D01*
X103015000Y-102141250D01*
X103013706Y-102167592D01*
X103009836Y-102193681D01*
X103003428Y-102219264D01*
X102994543Y-102244096D01*
X102983266Y-102267938D01*
X102969707Y-102290560D01*
X102953997Y-102311743D01*
X102936285Y-102331285D01*
X102916743Y-102348997D01*
X102895560Y-102364707D01*
X102872938Y-102378266D01*
X102849096Y-102389543D01*
X102824264Y-102398428D01*
X102798681Y-102404836D01*
X102772592Y-102408706D01*
X102746250Y-102410000D01*
X102133750Y-102410000D01*
X102107408Y-102408706D01*
X102081319Y-102404836D01*
X102055736Y-102398428D01*
X102030904Y-102389543D01*
X102007062Y-102378266D01*
X101984440Y-102364707D01*
X101963257Y-102348997D01*
X101943715Y-102331285D01*
X101926003Y-102311743D01*
X101910293Y-102290560D01*
X101896734Y-102267938D01*
X101885457Y-102244096D01*
X101876572Y-102219264D01*
X101870164Y-102193681D01*
X101866294Y-102167592D01*
X101865000Y-102141250D01*
X101865000Y-101603750D01*
X101866294Y-101577408D01*
X101870164Y-101551319D01*
X101876572Y-101525736D01*
X101885457Y-101500904D01*
X101896734Y-101477062D01*
X101910293Y-101454440D01*
X101926003Y-101433257D01*
X101943715Y-101413715D01*
X101963257Y-101396003D01*
X101984440Y-101380293D01*
X102007062Y-101366734D01*
X102030904Y-101355457D01*
X102055736Y-101346572D01*
X102081319Y-101340164D01*
X102107408Y-101336294D01*
X102133750Y-101335000D01*
X102746250Y-101335000D01*
X102772592Y-101336294D01*
X102772592Y-101336294D01*
G37*
D15*
X102440000Y-101872500D03*
D14*
G36*
X103635289Y-69936413D02*
G01*
X103663778Y-69940639D01*
X103691715Y-69947637D01*
X103718832Y-69957340D01*
X103744867Y-69969653D01*
X103769570Y-69984460D01*
X103792703Y-70001616D01*
X103814043Y-70020957D01*
X103833384Y-70042297D01*
X103850540Y-70065430D01*
X103865347Y-70090133D01*
X103877660Y-70116168D01*
X103887363Y-70143285D01*
X103894361Y-70171222D01*
X103898587Y-70199711D01*
X103900000Y-70228477D01*
X103900000Y-70991523D01*
X103898587Y-71020289D01*
X103894361Y-71048778D01*
X103887363Y-71076715D01*
X103877660Y-71103832D01*
X103865347Y-71129867D01*
X103850540Y-71154570D01*
X103833384Y-71177703D01*
X103814043Y-71199043D01*
X103792703Y-71218384D01*
X103769570Y-71235540D01*
X103744867Y-71250347D01*
X103718832Y-71262660D01*
X103691715Y-71272363D01*
X103663778Y-71279361D01*
X103635289Y-71283587D01*
X103606523Y-71285000D01*
X102593477Y-71285000D01*
X102564711Y-71283587D01*
X102536222Y-71279361D01*
X102508285Y-71272363D01*
X102481168Y-71262660D01*
X102455133Y-71250347D01*
X102430430Y-71235540D01*
X102407297Y-71218384D01*
X102385957Y-71199043D01*
X102366616Y-71177703D01*
X102349460Y-71154570D01*
X102334653Y-71129867D01*
X102322340Y-71103832D01*
X102312637Y-71076715D01*
X102305639Y-71048778D01*
X102301413Y-71020289D01*
X102300000Y-70991523D01*
X102300000Y-70228477D01*
X102301413Y-70199711D01*
X102305639Y-70171222D01*
X102312637Y-70143285D01*
X102322340Y-70116168D01*
X102334653Y-70090133D01*
X102349460Y-70065430D01*
X102366616Y-70042297D01*
X102385957Y-70020957D01*
X102407297Y-70001616D01*
X102430430Y-69984460D01*
X102455133Y-69969653D01*
X102481168Y-69957340D01*
X102508285Y-69947637D01*
X102536222Y-69940639D01*
X102564711Y-69936413D01*
X102593477Y-69935000D01*
X103606523Y-69935000D01*
X103635289Y-69936413D01*
X103635289Y-69936413D01*
G37*
D16*
X103100000Y-70610000D03*
D14*
G36*
X103635289Y-71986413D02*
G01*
X103663778Y-71990639D01*
X103691715Y-71997637D01*
X103718832Y-72007340D01*
X103744867Y-72019653D01*
X103769570Y-72034460D01*
X103792703Y-72051616D01*
X103814043Y-72070957D01*
X103833384Y-72092297D01*
X103850540Y-72115430D01*
X103865347Y-72140133D01*
X103877660Y-72166168D01*
X103887363Y-72193285D01*
X103894361Y-72221222D01*
X103898587Y-72249711D01*
X103900000Y-72278477D01*
X103900000Y-73041523D01*
X103898587Y-73070289D01*
X103894361Y-73098778D01*
X103887363Y-73126715D01*
X103877660Y-73153832D01*
X103865347Y-73179867D01*
X103850540Y-73204570D01*
X103833384Y-73227703D01*
X103814043Y-73249043D01*
X103792703Y-73268384D01*
X103769570Y-73285540D01*
X103744867Y-73300347D01*
X103718832Y-73312660D01*
X103691715Y-73322363D01*
X103663778Y-73329361D01*
X103635289Y-73333587D01*
X103606523Y-73335000D01*
X102593477Y-73335000D01*
X102564711Y-73333587D01*
X102536222Y-73329361D01*
X102508285Y-73322363D01*
X102481168Y-73312660D01*
X102455133Y-73300347D01*
X102430430Y-73285540D01*
X102407297Y-73268384D01*
X102385957Y-73249043D01*
X102366616Y-73227703D01*
X102349460Y-73204570D01*
X102334653Y-73179867D01*
X102322340Y-73153832D01*
X102312637Y-73126715D01*
X102305639Y-73098778D01*
X102301413Y-73070289D01*
X102300000Y-73041523D01*
X102300000Y-72278477D01*
X102301413Y-72249711D01*
X102305639Y-72221222D01*
X102312637Y-72193285D01*
X102322340Y-72166168D01*
X102334653Y-72140133D01*
X102349460Y-72115430D01*
X102366616Y-72092297D01*
X102385957Y-72070957D01*
X102407297Y-72051616D01*
X102430430Y-72034460D01*
X102455133Y-72019653D01*
X102481168Y-72007340D01*
X102508285Y-71997637D01*
X102536222Y-71990639D01*
X102564711Y-71986413D01*
X102593477Y-71985000D01*
X103606523Y-71985000D01*
X103635289Y-71986413D01*
X103635289Y-71986413D01*
G37*
D16*
X103100000Y-72660000D03*
D17*
X118490000Y-95045000D03*
X118490000Y-97995000D03*
D18*
X116965000Y-96520000D03*
D19*
X123730000Y-86420000D03*
X124380000Y-86420000D03*
X125030000Y-86420000D03*
X125680000Y-86420000D03*
X126330000Y-86420000D03*
X126980000Y-86420000D03*
X127630000Y-86420000D03*
X128280000Y-86420000D03*
X128930000Y-86420000D03*
X129580000Y-86420000D03*
X129580000Y-80544000D03*
X128930000Y-80544000D03*
X128280000Y-80544000D03*
X127630000Y-80544000D03*
X126980000Y-80544000D03*
X126330000Y-80544000D03*
X125680000Y-80544000D03*
X125030000Y-80544000D03*
X124380000Y-80544000D03*
X123730000Y-80544000D03*
X97725000Y-80502000D03*
X97075000Y-80502000D03*
X96425000Y-80502000D03*
X95775000Y-80502000D03*
X95125000Y-80502000D03*
X94475000Y-80502000D03*
X93825000Y-80502000D03*
X93175000Y-80502000D03*
X92525000Y-80502000D03*
X91875000Y-80502000D03*
X91875000Y-86378000D03*
X92525000Y-86378000D03*
X93175000Y-86378000D03*
X93825000Y-86378000D03*
X94475000Y-86378000D03*
X95125000Y-86378000D03*
X95775000Y-86378000D03*
X96425000Y-86378000D03*
X97075000Y-86378000D03*
X97725000Y-86378000D03*
D20*
X137245000Y-81320000D03*
X140195000Y-81320000D03*
D21*
X138720000Y-82845000D03*
D20*
X137325000Y-90480000D03*
X140275000Y-90480000D03*
D21*
X138800000Y-92005000D03*
D17*
X104160000Y-95045000D03*
X104160000Y-97995000D03*
D18*
X102635000Y-96520000D03*
D14*
G36*
X99905289Y-79721413D02*
G01*
X99933778Y-79725639D01*
X99961715Y-79732637D01*
X99988832Y-79742340D01*
X100014867Y-79754653D01*
X100039570Y-79769460D01*
X100062703Y-79786616D01*
X100084043Y-79805957D01*
X100103384Y-79827297D01*
X100120540Y-79850430D01*
X100135347Y-79875133D01*
X100147660Y-79901168D01*
X100157363Y-79928285D01*
X100164361Y-79956222D01*
X100168587Y-79984711D01*
X100170000Y-80013477D01*
X100170000Y-81026523D01*
X100168587Y-81055289D01*
X100164361Y-81083778D01*
X100157363Y-81111715D01*
X100147660Y-81138832D01*
X100135347Y-81164867D01*
X100120540Y-81189570D01*
X100103384Y-81212703D01*
X100084043Y-81234043D01*
X100062703Y-81253384D01*
X100039570Y-81270540D01*
X100014867Y-81285347D01*
X99988832Y-81297660D01*
X99961715Y-81307363D01*
X99933778Y-81314361D01*
X99905289Y-81318587D01*
X99876523Y-81320000D01*
X99113477Y-81320000D01*
X99084711Y-81318587D01*
X99056222Y-81314361D01*
X99028285Y-81307363D01*
X99001168Y-81297660D01*
X98975133Y-81285347D01*
X98950430Y-81270540D01*
X98927297Y-81253384D01*
X98905957Y-81234043D01*
X98886616Y-81212703D01*
X98869460Y-81189570D01*
X98854653Y-81164867D01*
X98842340Y-81138832D01*
X98832637Y-81111715D01*
X98825639Y-81083778D01*
X98821413Y-81055289D01*
X98820000Y-81026523D01*
X98820000Y-80013477D01*
X98821413Y-79984711D01*
X98825639Y-79956222D01*
X98832637Y-79928285D01*
X98842340Y-79901168D01*
X98854653Y-79875133D01*
X98869460Y-79850430D01*
X98886616Y-79827297D01*
X98905957Y-79805957D01*
X98927297Y-79786616D01*
X98950430Y-79769460D01*
X98975133Y-79754653D01*
X99001168Y-79742340D01*
X99028285Y-79732637D01*
X99056222Y-79725639D01*
X99084711Y-79721413D01*
X99113477Y-79720000D01*
X99876523Y-79720000D01*
X99905289Y-79721413D01*
X99905289Y-79721413D01*
G37*
D16*
X99495000Y-80520000D03*
D14*
G36*
X101955289Y-79721413D02*
G01*
X101983778Y-79725639D01*
X102011715Y-79732637D01*
X102038832Y-79742340D01*
X102064867Y-79754653D01*
X102089570Y-79769460D01*
X102112703Y-79786616D01*
X102134043Y-79805957D01*
X102153384Y-79827297D01*
X102170540Y-79850430D01*
X102185347Y-79875133D01*
X102197660Y-79901168D01*
X102207363Y-79928285D01*
X102214361Y-79956222D01*
X102218587Y-79984711D01*
X102220000Y-80013477D01*
X102220000Y-81026523D01*
X102218587Y-81055289D01*
X102214361Y-81083778D01*
X102207363Y-81111715D01*
X102197660Y-81138832D01*
X102185347Y-81164867D01*
X102170540Y-81189570D01*
X102153384Y-81212703D01*
X102134043Y-81234043D01*
X102112703Y-81253384D01*
X102089570Y-81270540D01*
X102064867Y-81285347D01*
X102038832Y-81297660D01*
X102011715Y-81307363D01*
X101983778Y-81314361D01*
X101955289Y-81318587D01*
X101926523Y-81320000D01*
X101163477Y-81320000D01*
X101134711Y-81318587D01*
X101106222Y-81314361D01*
X101078285Y-81307363D01*
X101051168Y-81297660D01*
X101025133Y-81285347D01*
X101000430Y-81270540D01*
X100977297Y-81253384D01*
X100955957Y-81234043D01*
X100936616Y-81212703D01*
X100919460Y-81189570D01*
X100904653Y-81164867D01*
X100892340Y-81138832D01*
X100882637Y-81111715D01*
X100875639Y-81083778D01*
X100871413Y-81055289D01*
X100870000Y-81026523D01*
X100870000Y-80013477D01*
X100871413Y-79984711D01*
X100875639Y-79956222D01*
X100882637Y-79928285D01*
X100892340Y-79901168D01*
X100904653Y-79875133D01*
X100919460Y-79850430D01*
X100936616Y-79827297D01*
X100955957Y-79805957D01*
X100977297Y-79786616D01*
X101000430Y-79769460D01*
X101025133Y-79754653D01*
X101051168Y-79742340D01*
X101078285Y-79732637D01*
X101106222Y-79725639D01*
X101134711Y-79721413D01*
X101163477Y-79720000D01*
X101926523Y-79720000D01*
X101955289Y-79721413D01*
X101955289Y-79721413D01*
G37*
D16*
X101545000Y-80520000D03*
D12*
X105320000Y-84980000D03*
D13*
X105320000Y-82440000D03*
D12*
X83500000Y-74380000D03*
D13*
X83500000Y-71840000D03*
D22*
X110960000Y-95415000D03*
X110960000Y-97625000D03*
D14*
G36*
X111182348Y-94870975D02*
G01*
X111202006Y-94873891D01*
X111221283Y-94878720D01*
X111239993Y-94885414D01*
X111257958Y-94893911D01*
X111275003Y-94904127D01*
X111290965Y-94915965D01*
X111305689Y-94929311D01*
X111319035Y-94944035D01*
X111330873Y-94959997D01*
X111341089Y-94977042D01*
X111349586Y-94995007D01*
X111356280Y-95013717D01*
X111361109Y-95032994D01*
X111364025Y-95052652D01*
X111365000Y-95072500D01*
X111365000Y-96112500D01*
X111364025Y-96132348D01*
X111361109Y-96152006D01*
X111356280Y-96171283D01*
X111349586Y-96189993D01*
X111341089Y-96207958D01*
X111330873Y-96225003D01*
X111319035Y-96240965D01*
X111305689Y-96255689D01*
X111290965Y-96269035D01*
X111275003Y-96280873D01*
X111257958Y-96291089D01*
X111239993Y-96299586D01*
X111221283Y-96306280D01*
X111202006Y-96311109D01*
X111182348Y-96314025D01*
X111162500Y-96315000D01*
X110757500Y-96315000D01*
X110737652Y-96314025D01*
X110717994Y-96311109D01*
X110698717Y-96306280D01*
X110680007Y-96299586D01*
X110662042Y-96291089D01*
X110644997Y-96280873D01*
X110629035Y-96269035D01*
X110614311Y-96255689D01*
X110600965Y-96240965D01*
X110589127Y-96225003D01*
X110578911Y-96207958D01*
X110570414Y-96189993D01*
X110563720Y-96171283D01*
X110558891Y-96152006D01*
X110555975Y-96132348D01*
X110555000Y-96112500D01*
X110555000Y-95072500D01*
X110555975Y-95052652D01*
X110558891Y-95032994D01*
X110563720Y-95013717D01*
X110570414Y-94995007D01*
X110578911Y-94977042D01*
X110589127Y-94959997D01*
X110600965Y-94944035D01*
X110614311Y-94929311D01*
X110629035Y-94915965D01*
X110644997Y-94904127D01*
X110662042Y-94893911D01*
X110680007Y-94885414D01*
X110698717Y-94878720D01*
X110717994Y-94873891D01*
X110737652Y-94870975D01*
X110757500Y-94870000D01*
X111162500Y-94870000D01*
X111182348Y-94870975D01*
X111182348Y-94870975D01*
G37*
D22*
X110960000Y-95592500D03*
D14*
G36*
X111182348Y-96725975D02*
G01*
X111202006Y-96728891D01*
X111221283Y-96733720D01*
X111239993Y-96740414D01*
X111257958Y-96748911D01*
X111275003Y-96759127D01*
X111290965Y-96770965D01*
X111305689Y-96784311D01*
X111319035Y-96799035D01*
X111330873Y-96814997D01*
X111341089Y-96832042D01*
X111349586Y-96850007D01*
X111356280Y-96868717D01*
X111361109Y-96887994D01*
X111364025Y-96907652D01*
X111365000Y-96927500D01*
X111365000Y-97967500D01*
X111364025Y-97987348D01*
X111361109Y-98007006D01*
X111356280Y-98026283D01*
X111349586Y-98044993D01*
X111341089Y-98062958D01*
X111330873Y-98080003D01*
X111319035Y-98095965D01*
X111305689Y-98110689D01*
X111290965Y-98124035D01*
X111275003Y-98135873D01*
X111257958Y-98146089D01*
X111239993Y-98154586D01*
X111221283Y-98161280D01*
X111202006Y-98166109D01*
X111182348Y-98169025D01*
X111162500Y-98170000D01*
X110757500Y-98170000D01*
X110737652Y-98169025D01*
X110717994Y-98166109D01*
X110698717Y-98161280D01*
X110680007Y-98154586D01*
X110662042Y-98146089D01*
X110644997Y-98135873D01*
X110629035Y-98124035D01*
X110614311Y-98110689D01*
X110600965Y-98095965D01*
X110589127Y-98080003D01*
X110578911Y-98062958D01*
X110570414Y-98044993D01*
X110563720Y-98026283D01*
X110558891Y-98007006D01*
X110555975Y-97987348D01*
X110555000Y-97967500D01*
X110555000Y-96927500D01*
X110555975Y-96907652D01*
X110558891Y-96887994D01*
X110563720Y-96868717D01*
X110570414Y-96850007D01*
X110578911Y-96832042D01*
X110589127Y-96814997D01*
X110600965Y-96799035D01*
X110614311Y-96784311D01*
X110629035Y-96770965D01*
X110644997Y-96759127D01*
X110662042Y-96748911D01*
X110680007Y-96740414D01*
X110698717Y-96733720D01*
X110717994Y-96728891D01*
X110737652Y-96725975D01*
X110757500Y-96725000D01*
X111162500Y-96725000D01*
X111182348Y-96725975D01*
X111182348Y-96725975D01*
G37*
D22*
X110960000Y-97447500D03*
D14*
G36*
X112936570Y-95521433D02*
G01*
X112965459Y-95525718D01*
X112993789Y-95532815D01*
X113021287Y-95542653D01*
X113047688Y-95555140D01*
X113072738Y-95570155D01*
X113096195Y-95587552D01*
X113117835Y-95607165D01*
X113137448Y-95628805D01*
X113154845Y-95652262D01*
X113169860Y-95677312D01*
X113182347Y-95703713D01*
X113192185Y-95731211D01*
X113199282Y-95759541D01*
X113203567Y-95788430D01*
X113205000Y-95817600D01*
X113205000Y-97222400D01*
X113203567Y-97251570D01*
X113199282Y-97280459D01*
X113192185Y-97308789D01*
X113182347Y-97336287D01*
X113169860Y-97362688D01*
X113154845Y-97387738D01*
X113137448Y-97411195D01*
X113117835Y-97432835D01*
X113096195Y-97452448D01*
X113072738Y-97469845D01*
X113047688Y-97484860D01*
X113021287Y-97497347D01*
X112993789Y-97507185D01*
X112965459Y-97514282D01*
X112936570Y-97518567D01*
X112907400Y-97520000D01*
X112262600Y-97520000D01*
X112233430Y-97518567D01*
X112204541Y-97514282D01*
X112176211Y-97507185D01*
X112148713Y-97497347D01*
X112122312Y-97484860D01*
X112097262Y-97469845D01*
X112073805Y-97452448D01*
X112052165Y-97432835D01*
X112032552Y-97411195D01*
X112015155Y-97387738D01*
X112000140Y-97362688D01*
X111987653Y-97336287D01*
X111977815Y-97308789D01*
X111970718Y-97280459D01*
X111966433Y-97251570D01*
X111965000Y-97222400D01*
X111965000Y-95817600D01*
X111966433Y-95788430D01*
X111970718Y-95759541D01*
X111977815Y-95731211D01*
X111987653Y-95703713D01*
X112000140Y-95677312D01*
X112015155Y-95652262D01*
X112032552Y-95628805D01*
X112052165Y-95607165D01*
X112073805Y-95587552D01*
X112097262Y-95570155D01*
X112122312Y-95555140D01*
X112148713Y-95542653D01*
X112176211Y-95532815D01*
X112204541Y-95525718D01*
X112233430Y-95521433D01*
X112262600Y-95520000D01*
X112907400Y-95520000D01*
X112936570Y-95521433D01*
X112936570Y-95521433D01*
G37*
D23*
X112585000Y-96520000D03*
D14*
G36*
X109686570Y-95521433D02*
G01*
X109715459Y-95525718D01*
X109743789Y-95532815D01*
X109771287Y-95542653D01*
X109797688Y-95555140D01*
X109822738Y-95570155D01*
X109846195Y-95587552D01*
X109867835Y-95607165D01*
X109887448Y-95628805D01*
X109904845Y-95652262D01*
X109919860Y-95677312D01*
X109932347Y-95703713D01*
X109942185Y-95731211D01*
X109949282Y-95759541D01*
X109953567Y-95788430D01*
X109955000Y-95817600D01*
X109955000Y-97222400D01*
X109953567Y-97251570D01*
X109949282Y-97280459D01*
X109942185Y-97308789D01*
X109932347Y-97336287D01*
X109919860Y-97362688D01*
X109904845Y-97387738D01*
X109887448Y-97411195D01*
X109867835Y-97432835D01*
X109846195Y-97452448D01*
X109822738Y-97469845D01*
X109797688Y-97484860D01*
X109771287Y-97497347D01*
X109743789Y-97507185D01*
X109715459Y-97514282D01*
X109686570Y-97518567D01*
X109657400Y-97520000D01*
X109012600Y-97520000D01*
X108983430Y-97518567D01*
X108954541Y-97514282D01*
X108926211Y-97507185D01*
X108898713Y-97497347D01*
X108872312Y-97484860D01*
X108847262Y-97469845D01*
X108823805Y-97452448D01*
X108802165Y-97432835D01*
X108782552Y-97411195D01*
X108765155Y-97387738D01*
X108750140Y-97362688D01*
X108737653Y-97336287D01*
X108727815Y-97308789D01*
X108720718Y-97280459D01*
X108716433Y-97251570D01*
X108715000Y-97222400D01*
X108715000Y-95817600D01*
X108716433Y-95788430D01*
X108720718Y-95759541D01*
X108727815Y-95731211D01*
X108737653Y-95703713D01*
X108750140Y-95677312D01*
X108765155Y-95652262D01*
X108782552Y-95628805D01*
X108802165Y-95607165D01*
X108823805Y-95587552D01*
X108847262Y-95570155D01*
X108872312Y-95555140D01*
X108898713Y-95542653D01*
X108926211Y-95532815D01*
X108954541Y-95525718D01*
X108983430Y-95521433D01*
X109012600Y-95520000D01*
X109657400Y-95520000D01*
X109686570Y-95521433D01*
X109686570Y-95521433D01*
G37*
D23*
X109335000Y-96520000D03*
D14*
G36*
X122435289Y-81761413D02*
G01*
X122463778Y-81765639D01*
X122491715Y-81772637D01*
X122518832Y-81782340D01*
X122544867Y-81794653D01*
X122569570Y-81809460D01*
X122592703Y-81826616D01*
X122614043Y-81845957D01*
X122633384Y-81867297D01*
X122650540Y-81890430D01*
X122665347Y-81915133D01*
X122677660Y-81941168D01*
X122687363Y-81968285D01*
X122694361Y-81996222D01*
X122698587Y-82024711D01*
X122700000Y-82053477D01*
X122700000Y-82816523D01*
X122698587Y-82845289D01*
X122694361Y-82873778D01*
X122687363Y-82901715D01*
X122677660Y-82928832D01*
X122665347Y-82954867D01*
X122650540Y-82979570D01*
X122633384Y-83002703D01*
X122614043Y-83024043D01*
X122592703Y-83043384D01*
X122569570Y-83060540D01*
X122544867Y-83075347D01*
X122518832Y-83087660D01*
X122491715Y-83097363D01*
X122463778Y-83104361D01*
X122435289Y-83108587D01*
X122406523Y-83110000D01*
X121393477Y-83110000D01*
X121364711Y-83108587D01*
X121336222Y-83104361D01*
X121308285Y-83097363D01*
X121281168Y-83087660D01*
X121255133Y-83075347D01*
X121230430Y-83060540D01*
X121207297Y-83043384D01*
X121185957Y-83024043D01*
X121166616Y-83002703D01*
X121149460Y-82979570D01*
X121134653Y-82954867D01*
X121122340Y-82928832D01*
X121112637Y-82901715D01*
X121105639Y-82873778D01*
X121101413Y-82845289D01*
X121100000Y-82816523D01*
X121100000Y-82053477D01*
X121101413Y-82024711D01*
X121105639Y-81996222D01*
X121112637Y-81968285D01*
X121122340Y-81941168D01*
X121134653Y-81915133D01*
X121149460Y-81890430D01*
X121166616Y-81867297D01*
X121185957Y-81845957D01*
X121207297Y-81826616D01*
X121230430Y-81809460D01*
X121255133Y-81794653D01*
X121281168Y-81782340D01*
X121308285Y-81772637D01*
X121336222Y-81765639D01*
X121364711Y-81761413D01*
X121393477Y-81760000D01*
X122406523Y-81760000D01*
X122435289Y-81761413D01*
X122435289Y-81761413D01*
G37*
D16*
X121900000Y-82435000D03*
D14*
G36*
X122435289Y-83811413D02*
G01*
X122463778Y-83815639D01*
X122491715Y-83822637D01*
X122518832Y-83832340D01*
X122544867Y-83844653D01*
X122569570Y-83859460D01*
X122592703Y-83876616D01*
X122614043Y-83895957D01*
X122633384Y-83917297D01*
X122650540Y-83940430D01*
X122665347Y-83965133D01*
X122677660Y-83991168D01*
X122687363Y-84018285D01*
X122694361Y-84046222D01*
X122698587Y-84074711D01*
X122700000Y-84103477D01*
X122700000Y-84866523D01*
X122698587Y-84895289D01*
X122694361Y-84923778D01*
X122687363Y-84951715D01*
X122677660Y-84978832D01*
X122665347Y-85004867D01*
X122650540Y-85029570D01*
X122633384Y-85052703D01*
X122614043Y-85074043D01*
X122592703Y-85093384D01*
X122569570Y-85110540D01*
X122544867Y-85125347D01*
X122518832Y-85137660D01*
X122491715Y-85147363D01*
X122463778Y-85154361D01*
X122435289Y-85158587D01*
X122406523Y-85160000D01*
X121393477Y-85160000D01*
X121364711Y-85158587D01*
X121336222Y-85154361D01*
X121308285Y-85147363D01*
X121281168Y-85137660D01*
X121255133Y-85125347D01*
X121230430Y-85110540D01*
X121207297Y-85093384D01*
X121185957Y-85074043D01*
X121166616Y-85052703D01*
X121149460Y-85029570D01*
X121134653Y-85004867D01*
X121122340Y-84978832D01*
X121112637Y-84951715D01*
X121105639Y-84923778D01*
X121101413Y-84895289D01*
X121100000Y-84866523D01*
X121100000Y-84103477D01*
X121101413Y-84074711D01*
X121105639Y-84046222D01*
X121112637Y-84018285D01*
X121122340Y-83991168D01*
X121134653Y-83965133D01*
X121149460Y-83940430D01*
X121166616Y-83917297D01*
X121185957Y-83895957D01*
X121207297Y-83876616D01*
X121230430Y-83859460D01*
X121255133Y-83844653D01*
X121281168Y-83832340D01*
X121308285Y-83822637D01*
X121336222Y-83815639D01*
X121364711Y-83811413D01*
X121393477Y-83810000D01*
X122406523Y-83810000D01*
X122435289Y-83811413D01*
X122435289Y-83811413D01*
G37*
D16*
X121900000Y-84485000D03*
D14*
G36*
X120195289Y-81761413D02*
G01*
X120223778Y-81765639D01*
X120251715Y-81772637D01*
X120278832Y-81782340D01*
X120304867Y-81794653D01*
X120329570Y-81809460D01*
X120352703Y-81826616D01*
X120374043Y-81845957D01*
X120393384Y-81867297D01*
X120410540Y-81890430D01*
X120425347Y-81915133D01*
X120437660Y-81941168D01*
X120447363Y-81968285D01*
X120454361Y-81996222D01*
X120458587Y-82024711D01*
X120460000Y-82053477D01*
X120460000Y-82816523D01*
X120458587Y-82845289D01*
X120454361Y-82873778D01*
X120447363Y-82901715D01*
X120437660Y-82928832D01*
X120425347Y-82954867D01*
X120410540Y-82979570D01*
X120393384Y-83002703D01*
X120374043Y-83024043D01*
X120352703Y-83043384D01*
X120329570Y-83060540D01*
X120304867Y-83075347D01*
X120278832Y-83087660D01*
X120251715Y-83097363D01*
X120223778Y-83104361D01*
X120195289Y-83108587D01*
X120166523Y-83110000D01*
X119153477Y-83110000D01*
X119124711Y-83108587D01*
X119096222Y-83104361D01*
X119068285Y-83097363D01*
X119041168Y-83087660D01*
X119015133Y-83075347D01*
X118990430Y-83060540D01*
X118967297Y-83043384D01*
X118945957Y-83024043D01*
X118926616Y-83002703D01*
X118909460Y-82979570D01*
X118894653Y-82954867D01*
X118882340Y-82928832D01*
X118872637Y-82901715D01*
X118865639Y-82873778D01*
X118861413Y-82845289D01*
X118860000Y-82816523D01*
X118860000Y-82053477D01*
X118861413Y-82024711D01*
X118865639Y-81996222D01*
X118872637Y-81968285D01*
X118882340Y-81941168D01*
X118894653Y-81915133D01*
X118909460Y-81890430D01*
X118926616Y-81867297D01*
X118945957Y-81845957D01*
X118967297Y-81826616D01*
X118990430Y-81809460D01*
X119015133Y-81794653D01*
X119041168Y-81782340D01*
X119068285Y-81772637D01*
X119096222Y-81765639D01*
X119124711Y-81761413D01*
X119153477Y-81760000D01*
X120166523Y-81760000D01*
X120195289Y-81761413D01*
X120195289Y-81761413D01*
G37*
D16*
X119660000Y-82435000D03*
D14*
G36*
X120195289Y-83811413D02*
G01*
X120223778Y-83815639D01*
X120251715Y-83822637D01*
X120278832Y-83832340D01*
X120304867Y-83844653D01*
X120329570Y-83859460D01*
X120352703Y-83876616D01*
X120374043Y-83895957D01*
X120393384Y-83917297D01*
X120410540Y-83940430D01*
X120425347Y-83965133D01*
X120437660Y-83991168D01*
X120447363Y-84018285D01*
X120454361Y-84046222D01*
X120458587Y-84074711D01*
X120460000Y-84103477D01*
X120460000Y-84866523D01*
X120458587Y-84895289D01*
X120454361Y-84923778D01*
X120447363Y-84951715D01*
X120437660Y-84978832D01*
X120425347Y-85004867D01*
X120410540Y-85029570D01*
X120393384Y-85052703D01*
X120374043Y-85074043D01*
X120352703Y-85093384D01*
X120329570Y-85110540D01*
X120304867Y-85125347D01*
X120278832Y-85137660D01*
X120251715Y-85147363D01*
X120223778Y-85154361D01*
X120195289Y-85158587D01*
X120166523Y-85160000D01*
X119153477Y-85160000D01*
X119124711Y-85158587D01*
X119096222Y-85154361D01*
X119068285Y-85147363D01*
X119041168Y-85137660D01*
X119015133Y-85125347D01*
X118990430Y-85110540D01*
X118967297Y-85093384D01*
X118945957Y-85074043D01*
X118926616Y-85052703D01*
X118909460Y-85029570D01*
X118894653Y-85004867D01*
X118882340Y-84978832D01*
X118872637Y-84951715D01*
X118865639Y-84923778D01*
X118861413Y-84895289D01*
X118860000Y-84866523D01*
X118860000Y-84103477D01*
X118861413Y-84074711D01*
X118865639Y-84046222D01*
X118872637Y-84018285D01*
X118882340Y-83991168D01*
X118894653Y-83965133D01*
X118909460Y-83940430D01*
X118926616Y-83917297D01*
X118945957Y-83895957D01*
X118967297Y-83876616D01*
X118990430Y-83859460D01*
X119015133Y-83844653D01*
X119041168Y-83832340D01*
X119068285Y-83822637D01*
X119096222Y-83815639D01*
X119124711Y-83811413D01*
X119153477Y-83810000D01*
X120166523Y-83810000D01*
X120195289Y-83811413D01*
X120195289Y-83811413D01*
G37*
D16*
X119660000Y-84485000D03*
D14*
G36*
X100055289Y-83811413D02*
G01*
X100083778Y-83815639D01*
X100111715Y-83822637D01*
X100138832Y-83832340D01*
X100164867Y-83844653D01*
X100189570Y-83859460D01*
X100212703Y-83876616D01*
X100234043Y-83895957D01*
X100253384Y-83917297D01*
X100270540Y-83940430D01*
X100285347Y-83965133D01*
X100297660Y-83991168D01*
X100307363Y-84018285D01*
X100314361Y-84046222D01*
X100318587Y-84074711D01*
X100320000Y-84103477D01*
X100320000Y-84866523D01*
X100318587Y-84895289D01*
X100314361Y-84923778D01*
X100307363Y-84951715D01*
X100297660Y-84978832D01*
X100285347Y-85004867D01*
X100270540Y-85029570D01*
X100253384Y-85052703D01*
X100234043Y-85074043D01*
X100212703Y-85093384D01*
X100189570Y-85110540D01*
X100164867Y-85125347D01*
X100138832Y-85137660D01*
X100111715Y-85147363D01*
X100083778Y-85154361D01*
X100055289Y-85158587D01*
X100026523Y-85160000D01*
X99013477Y-85160000D01*
X98984711Y-85158587D01*
X98956222Y-85154361D01*
X98928285Y-85147363D01*
X98901168Y-85137660D01*
X98875133Y-85125347D01*
X98850430Y-85110540D01*
X98827297Y-85093384D01*
X98805957Y-85074043D01*
X98786616Y-85052703D01*
X98769460Y-85029570D01*
X98754653Y-85004867D01*
X98742340Y-84978832D01*
X98732637Y-84951715D01*
X98725639Y-84923778D01*
X98721413Y-84895289D01*
X98720000Y-84866523D01*
X98720000Y-84103477D01*
X98721413Y-84074711D01*
X98725639Y-84046222D01*
X98732637Y-84018285D01*
X98742340Y-83991168D01*
X98754653Y-83965133D01*
X98769460Y-83940430D01*
X98786616Y-83917297D01*
X98805957Y-83895957D01*
X98827297Y-83876616D01*
X98850430Y-83859460D01*
X98875133Y-83844653D01*
X98901168Y-83832340D01*
X98928285Y-83822637D01*
X98956222Y-83815639D01*
X98984711Y-83811413D01*
X99013477Y-83810000D01*
X100026523Y-83810000D01*
X100055289Y-83811413D01*
X100055289Y-83811413D01*
G37*
D16*
X99520000Y-84485000D03*
D14*
G36*
X100055289Y-81761413D02*
G01*
X100083778Y-81765639D01*
X100111715Y-81772637D01*
X100138832Y-81782340D01*
X100164867Y-81794653D01*
X100189570Y-81809460D01*
X100212703Y-81826616D01*
X100234043Y-81845957D01*
X100253384Y-81867297D01*
X100270540Y-81890430D01*
X100285347Y-81915133D01*
X100297660Y-81941168D01*
X100307363Y-81968285D01*
X100314361Y-81996222D01*
X100318587Y-82024711D01*
X100320000Y-82053477D01*
X100320000Y-82816523D01*
X100318587Y-82845289D01*
X100314361Y-82873778D01*
X100307363Y-82901715D01*
X100297660Y-82928832D01*
X100285347Y-82954867D01*
X100270540Y-82979570D01*
X100253384Y-83002703D01*
X100234043Y-83024043D01*
X100212703Y-83043384D01*
X100189570Y-83060540D01*
X100164867Y-83075347D01*
X100138832Y-83087660D01*
X100111715Y-83097363D01*
X100083778Y-83104361D01*
X100055289Y-83108587D01*
X100026523Y-83110000D01*
X99013477Y-83110000D01*
X98984711Y-83108587D01*
X98956222Y-83104361D01*
X98928285Y-83097363D01*
X98901168Y-83087660D01*
X98875133Y-83075347D01*
X98850430Y-83060540D01*
X98827297Y-83043384D01*
X98805957Y-83024043D01*
X98786616Y-83002703D01*
X98769460Y-82979570D01*
X98754653Y-82954867D01*
X98742340Y-82928832D01*
X98732637Y-82901715D01*
X98725639Y-82873778D01*
X98721413Y-82845289D01*
X98720000Y-82816523D01*
X98720000Y-82053477D01*
X98721413Y-82024711D01*
X98725639Y-81996222D01*
X98732637Y-81968285D01*
X98742340Y-81941168D01*
X98754653Y-81915133D01*
X98769460Y-81890430D01*
X98786616Y-81867297D01*
X98805957Y-81845957D01*
X98827297Y-81826616D01*
X98850430Y-81809460D01*
X98875133Y-81794653D01*
X98901168Y-81782340D01*
X98928285Y-81772637D01*
X98956222Y-81765639D01*
X98984711Y-81761413D01*
X99013477Y-81760000D01*
X100026523Y-81760000D01*
X100055289Y-81761413D01*
X100055289Y-81761413D01*
G37*
D16*
X99520000Y-82435000D03*
D14*
G36*
X102215289Y-83811413D02*
G01*
X102243778Y-83815639D01*
X102271715Y-83822637D01*
X102298832Y-83832340D01*
X102324867Y-83844653D01*
X102349570Y-83859460D01*
X102372703Y-83876616D01*
X102394043Y-83895957D01*
X102413384Y-83917297D01*
X102430540Y-83940430D01*
X102445347Y-83965133D01*
X102457660Y-83991168D01*
X102467363Y-84018285D01*
X102474361Y-84046222D01*
X102478587Y-84074711D01*
X102480000Y-84103477D01*
X102480000Y-84866523D01*
X102478587Y-84895289D01*
X102474361Y-84923778D01*
X102467363Y-84951715D01*
X102457660Y-84978832D01*
X102445347Y-85004867D01*
X102430540Y-85029570D01*
X102413384Y-85052703D01*
X102394043Y-85074043D01*
X102372703Y-85093384D01*
X102349570Y-85110540D01*
X102324867Y-85125347D01*
X102298832Y-85137660D01*
X102271715Y-85147363D01*
X102243778Y-85154361D01*
X102215289Y-85158587D01*
X102186523Y-85160000D01*
X101173477Y-85160000D01*
X101144711Y-85158587D01*
X101116222Y-85154361D01*
X101088285Y-85147363D01*
X101061168Y-85137660D01*
X101035133Y-85125347D01*
X101010430Y-85110540D01*
X100987297Y-85093384D01*
X100965957Y-85074043D01*
X100946616Y-85052703D01*
X100929460Y-85029570D01*
X100914653Y-85004867D01*
X100902340Y-84978832D01*
X100892637Y-84951715D01*
X100885639Y-84923778D01*
X100881413Y-84895289D01*
X100880000Y-84866523D01*
X100880000Y-84103477D01*
X100881413Y-84074711D01*
X100885639Y-84046222D01*
X100892637Y-84018285D01*
X100902340Y-83991168D01*
X100914653Y-83965133D01*
X100929460Y-83940430D01*
X100946616Y-83917297D01*
X100965957Y-83895957D01*
X100987297Y-83876616D01*
X101010430Y-83859460D01*
X101035133Y-83844653D01*
X101061168Y-83832340D01*
X101088285Y-83822637D01*
X101116222Y-83815639D01*
X101144711Y-83811413D01*
X101173477Y-83810000D01*
X102186523Y-83810000D01*
X102215289Y-83811413D01*
X102215289Y-83811413D01*
G37*
D16*
X101680000Y-84485000D03*
D14*
G36*
X102215289Y-81761413D02*
G01*
X102243778Y-81765639D01*
X102271715Y-81772637D01*
X102298832Y-81782340D01*
X102324867Y-81794653D01*
X102349570Y-81809460D01*
X102372703Y-81826616D01*
X102394043Y-81845957D01*
X102413384Y-81867297D01*
X102430540Y-81890430D01*
X102445347Y-81915133D01*
X102457660Y-81941168D01*
X102467363Y-81968285D01*
X102474361Y-81996222D01*
X102478587Y-82024711D01*
X102480000Y-82053477D01*
X102480000Y-82816523D01*
X102478587Y-82845289D01*
X102474361Y-82873778D01*
X102467363Y-82901715D01*
X102457660Y-82928832D01*
X102445347Y-82954867D01*
X102430540Y-82979570D01*
X102413384Y-83002703D01*
X102394043Y-83024043D01*
X102372703Y-83043384D01*
X102349570Y-83060540D01*
X102324867Y-83075347D01*
X102298832Y-83087660D01*
X102271715Y-83097363D01*
X102243778Y-83104361D01*
X102215289Y-83108587D01*
X102186523Y-83110000D01*
X101173477Y-83110000D01*
X101144711Y-83108587D01*
X101116222Y-83104361D01*
X101088285Y-83097363D01*
X101061168Y-83087660D01*
X101035133Y-83075347D01*
X101010430Y-83060540D01*
X100987297Y-83043384D01*
X100965957Y-83024043D01*
X100946616Y-83002703D01*
X100929460Y-82979570D01*
X100914653Y-82954867D01*
X100902340Y-82928832D01*
X100892637Y-82901715D01*
X100885639Y-82873778D01*
X100881413Y-82845289D01*
X100880000Y-82816523D01*
X100880000Y-82053477D01*
X100881413Y-82024711D01*
X100885639Y-81996222D01*
X100892637Y-81968285D01*
X100902340Y-81941168D01*
X100914653Y-81915133D01*
X100929460Y-81890430D01*
X100946616Y-81867297D01*
X100965957Y-81845957D01*
X100987297Y-81826616D01*
X101010430Y-81809460D01*
X101035133Y-81794653D01*
X101061168Y-81782340D01*
X101088285Y-81772637D01*
X101116222Y-81765639D01*
X101144711Y-81761413D01*
X101173477Y-81760000D01*
X102186523Y-81760000D01*
X102215289Y-81761413D01*
X102215289Y-81761413D01*
G37*
D16*
X101680000Y-82435000D03*
D14*
G36*
X124816289Y-90143413D02*
G01*
X124844778Y-90147639D01*
X124872715Y-90154637D01*
X124899832Y-90164340D01*
X124925867Y-90176653D01*
X124950570Y-90191460D01*
X124973703Y-90208616D01*
X124995043Y-90227957D01*
X125014384Y-90249297D01*
X125031540Y-90272430D01*
X125046347Y-90297133D01*
X125058660Y-90323168D01*
X125068363Y-90350285D01*
X125075361Y-90378222D01*
X125079587Y-90406711D01*
X125081000Y-90435477D01*
X125081000Y-91198523D01*
X125079587Y-91227289D01*
X125075361Y-91255778D01*
X125068363Y-91283715D01*
X125058660Y-91310832D01*
X125046347Y-91336867D01*
X125031540Y-91361570D01*
X125014384Y-91384703D01*
X124995043Y-91406043D01*
X124973703Y-91425384D01*
X124950570Y-91442540D01*
X124925867Y-91457347D01*
X124899832Y-91469660D01*
X124872715Y-91479363D01*
X124844778Y-91486361D01*
X124816289Y-91490587D01*
X124787523Y-91492000D01*
X123774477Y-91492000D01*
X123745711Y-91490587D01*
X123717222Y-91486361D01*
X123689285Y-91479363D01*
X123662168Y-91469660D01*
X123636133Y-91457347D01*
X123611430Y-91442540D01*
X123588297Y-91425384D01*
X123566957Y-91406043D01*
X123547616Y-91384703D01*
X123530460Y-91361570D01*
X123515653Y-91336867D01*
X123503340Y-91310832D01*
X123493637Y-91283715D01*
X123486639Y-91255778D01*
X123482413Y-91227289D01*
X123481000Y-91198523D01*
X123481000Y-90435477D01*
X123482413Y-90406711D01*
X123486639Y-90378222D01*
X123493637Y-90350285D01*
X123503340Y-90323168D01*
X123515653Y-90297133D01*
X123530460Y-90272430D01*
X123547616Y-90249297D01*
X123566957Y-90227957D01*
X123588297Y-90208616D01*
X123611430Y-90191460D01*
X123636133Y-90176653D01*
X123662168Y-90164340D01*
X123689285Y-90154637D01*
X123717222Y-90147639D01*
X123745711Y-90143413D01*
X123774477Y-90142000D01*
X124787523Y-90142000D01*
X124816289Y-90143413D01*
X124816289Y-90143413D01*
G37*
D16*
X124281000Y-90817000D03*
D14*
G36*
X124816289Y-88093413D02*
G01*
X124844778Y-88097639D01*
X124872715Y-88104637D01*
X124899832Y-88114340D01*
X124925867Y-88126653D01*
X124950570Y-88141460D01*
X124973703Y-88158616D01*
X124995043Y-88177957D01*
X125014384Y-88199297D01*
X125031540Y-88222430D01*
X125046347Y-88247133D01*
X125058660Y-88273168D01*
X125068363Y-88300285D01*
X125075361Y-88328222D01*
X125079587Y-88356711D01*
X125081000Y-88385477D01*
X125081000Y-89148523D01*
X125079587Y-89177289D01*
X125075361Y-89205778D01*
X125068363Y-89233715D01*
X125058660Y-89260832D01*
X125046347Y-89286867D01*
X125031540Y-89311570D01*
X125014384Y-89334703D01*
X124995043Y-89356043D01*
X124973703Y-89375384D01*
X124950570Y-89392540D01*
X124925867Y-89407347D01*
X124899832Y-89419660D01*
X124872715Y-89429363D01*
X124844778Y-89436361D01*
X124816289Y-89440587D01*
X124787523Y-89442000D01*
X123774477Y-89442000D01*
X123745711Y-89440587D01*
X123717222Y-89436361D01*
X123689285Y-89429363D01*
X123662168Y-89419660D01*
X123636133Y-89407347D01*
X123611430Y-89392540D01*
X123588297Y-89375384D01*
X123566957Y-89356043D01*
X123547616Y-89334703D01*
X123530460Y-89311570D01*
X123515653Y-89286867D01*
X123503340Y-89260832D01*
X123493637Y-89233715D01*
X123486639Y-89205778D01*
X123482413Y-89177289D01*
X123481000Y-89148523D01*
X123481000Y-88385477D01*
X123482413Y-88356711D01*
X123486639Y-88328222D01*
X123493637Y-88300285D01*
X123503340Y-88273168D01*
X123515653Y-88247133D01*
X123530460Y-88222430D01*
X123547616Y-88199297D01*
X123566957Y-88177957D01*
X123588297Y-88158616D01*
X123611430Y-88141460D01*
X123636133Y-88126653D01*
X123662168Y-88114340D01*
X123689285Y-88104637D01*
X123717222Y-88097639D01*
X123745711Y-88093413D01*
X123774477Y-88092000D01*
X124787523Y-88092000D01*
X124816289Y-88093413D01*
X124816289Y-88093413D01*
G37*
D16*
X124281000Y-88767000D03*
D14*
G36*
X120509289Y-87968413D02*
G01*
X120537778Y-87972639D01*
X120565715Y-87979637D01*
X120592832Y-87989340D01*
X120618867Y-88001653D01*
X120643570Y-88016460D01*
X120666703Y-88033616D01*
X120688043Y-88052957D01*
X120707384Y-88074297D01*
X120724540Y-88097430D01*
X120739347Y-88122133D01*
X120751660Y-88148168D01*
X120761363Y-88175285D01*
X120768361Y-88203222D01*
X120772587Y-88231711D01*
X120774000Y-88260477D01*
X120774000Y-89273523D01*
X120772587Y-89302289D01*
X120768361Y-89330778D01*
X120761363Y-89358715D01*
X120751660Y-89385832D01*
X120739347Y-89411867D01*
X120724540Y-89436570D01*
X120707384Y-89459703D01*
X120688043Y-89481043D01*
X120666703Y-89500384D01*
X120643570Y-89517540D01*
X120618867Y-89532347D01*
X120592832Y-89544660D01*
X120565715Y-89554363D01*
X120537778Y-89561361D01*
X120509289Y-89565587D01*
X120480523Y-89567000D01*
X119717477Y-89567000D01*
X119688711Y-89565587D01*
X119660222Y-89561361D01*
X119632285Y-89554363D01*
X119605168Y-89544660D01*
X119579133Y-89532347D01*
X119554430Y-89517540D01*
X119531297Y-89500384D01*
X119509957Y-89481043D01*
X119490616Y-89459703D01*
X119473460Y-89436570D01*
X119458653Y-89411867D01*
X119446340Y-89385832D01*
X119436637Y-89358715D01*
X119429639Y-89330778D01*
X119425413Y-89302289D01*
X119424000Y-89273523D01*
X119424000Y-88260477D01*
X119425413Y-88231711D01*
X119429639Y-88203222D01*
X119436637Y-88175285D01*
X119446340Y-88148168D01*
X119458653Y-88122133D01*
X119473460Y-88097430D01*
X119490616Y-88074297D01*
X119509957Y-88052957D01*
X119531297Y-88033616D01*
X119554430Y-88016460D01*
X119579133Y-88001653D01*
X119605168Y-87989340D01*
X119632285Y-87979637D01*
X119660222Y-87972639D01*
X119688711Y-87968413D01*
X119717477Y-87967000D01*
X120480523Y-87967000D01*
X120509289Y-87968413D01*
X120509289Y-87968413D01*
G37*
D16*
X120099000Y-88767000D03*
D14*
G36*
X118459289Y-87968413D02*
G01*
X118487778Y-87972639D01*
X118515715Y-87979637D01*
X118542832Y-87989340D01*
X118568867Y-88001653D01*
X118593570Y-88016460D01*
X118616703Y-88033616D01*
X118638043Y-88052957D01*
X118657384Y-88074297D01*
X118674540Y-88097430D01*
X118689347Y-88122133D01*
X118701660Y-88148168D01*
X118711363Y-88175285D01*
X118718361Y-88203222D01*
X118722587Y-88231711D01*
X118724000Y-88260477D01*
X118724000Y-89273523D01*
X118722587Y-89302289D01*
X118718361Y-89330778D01*
X118711363Y-89358715D01*
X118701660Y-89385832D01*
X118689347Y-89411867D01*
X118674540Y-89436570D01*
X118657384Y-89459703D01*
X118638043Y-89481043D01*
X118616703Y-89500384D01*
X118593570Y-89517540D01*
X118568867Y-89532347D01*
X118542832Y-89544660D01*
X118515715Y-89554363D01*
X118487778Y-89561361D01*
X118459289Y-89565587D01*
X118430523Y-89567000D01*
X117667477Y-89567000D01*
X117638711Y-89565587D01*
X117610222Y-89561361D01*
X117582285Y-89554363D01*
X117555168Y-89544660D01*
X117529133Y-89532347D01*
X117504430Y-89517540D01*
X117481297Y-89500384D01*
X117459957Y-89481043D01*
X117440616Y-89459703D01*
X117423460Y-89436570D01*
X117408653Y-89411867D01*
X117396340Y-89385832D01*
X117386637Y-89358715D01*
X117379639Y-89330778D01*
X117375413Y-89302289D01*
X117374000Y-89273523D01*
X117374000Y-88260477D01*
X117375413Y-88231711D01*
X117379639Y-88203222D01*
X117386637Y-88175285D01*
X117396340Y-88148168D01*
X117408653Y-88122133D01*
X117423460Y-88097430D01*
X117440616Y-88074297D01*
X117459957Y-88052957D01*
X117481297Y-88033616D01*
X117504430Y-88016460D01*
X117529133Y-88001653D01*
X117555168Y-87989340D01*
X117582285Y-87979637D01*
X117610222Y-87972639D01*
X117638711Y-87968413D01*
X117667477Y-87967000D01*
X118430523Y-87967000D01*
X118459289Y-87968413D01*
X118459289Y-87968413D01*
G37*
D16*
X118049000Y-88767000D03*
D14*
G36*
X122657289Y-90143413D02*
G01*
X122685778Y-90147639D01*
X122713715Y-90154637D01*
X122740832Y-90164340D01*
X122766867Y-90176653D01*
X122791570Y-90191460D01*
X122814703Y-90208616D01*
X122836043Y-90227957D01*
X122855384Y-90249297D01*
X122872540Y-90272430D01*
X122887347Y-90297133D01*
X122899660Y-90323168D01*
X122909363Y-90350285D01*
X122916361Y-90378222D01*
X122920587Y-90406711D01*
X122922000Y-90435477D01*
X122922000Y-91198523D01*
X122920587Y-91227289D01*
X122916361Y-91255778D01*
X122909363Y-91283715D01*
X122899660Y-91310832D01*
X122887347Y-91336867D01*
X122872540Y-91361570D01*
X122855384Y-91384703D01*
X122836043Y-91406043D01*
X122814703Y-91425384D01*
X122791570Y-91442540D01*
X122766867Y-91457347D01*
X122740832Y-91469660D01*
X122713715Y-91479363D01*
X122685778Y-91486361D01*
X122657289Y-91490587D01*
X122628523Y-91492000D01*
X121615477Y-91492000D01*
X121586711Y-91490587D01*
X121558222Y-91486361D01*
X121530285Y-91479363D01*
X121503168Y-91469660D01*
X121477133Y-91457347D01*
X121452430Y-91442540D01*
X121429297Y-91425384D01*
X121407957Y-91406043D01*
X121388616Y-91384703D01*
X121371460Y-91361570D01*
X121356653Y-91336867D01*
X121344340Y-91310832D01*
X121334637Y-91283715D01*
X121327639Y-91255778D01*
X121323413Y-91227289D01*
X121322000Y-91198523D01*
X121322000Y-90435477D01*
X121323413Y-90406711D01*
X121327639Y-90378222D01*
X121334637Y-90350285D01*
X121344340Y-90323168D01*
X121356653Y-90297133D01*
X121371460Y-90272430D01*
X121388616Y-90249297D01*
X121407957Y-90227957D01*
X121429297Y-90208616D01*
X121452430Y-90191460D01*
X121477133Y-90176653D01*
X121503168Y-90164340D01*
X121530285Y-90154637D01*
X121558222Y-90147639D01*
X121586711Y-90143413D01*
X121615477Y-90142000D01*
X122628523Y-90142000D01*
X122657289Y-90143413D01*
X122657289Y-90143413D01*
G37*
D16*
X122122000Y-90817000D03*
D14*
G36*
X122657289Y-88093413D02*
G01*
X122685778Y-88097639D01*
X122713715Y-88104637D01*
X122740832Y-88114340D01*
X122766867Y-88126653D01*
X122791570Y-88141460D01*
X122814703Y-88158616D01*
X122836043Y-88177957D01*
X122855384Y-88199297D01*
X122872540Y-88222430D01*
X122887347Y-88247133D01*
X122899660Y-88273168D01*
X122909363Y-88300285D01*
X122916361Y-88328222D01*
X122920587Y-88356711D01*
X122922000Y-88385477D01*
X122922000Y-89148523D01*
X122920587Y-89177289D01*
X122916361Y-89205778D01*
X122909363Y-89233715D01*
X122899660Y-89260832D01*
X122887347Y-89286867D01*
X122872540Y-89311570D01*
X122855384Y-89334703D01*
X122836043Y-89356043D01*
X122814703Y-89375384D01*
X122791570Y-89392540D01*
X122766867Y-89407347D01*
X122740832Y-89419660D01*
X122713715Y-89429363D01*
X122685778Y-89436361D01*
X122657289Y-89440587D01*
X122628523Y-89442000D01*
X121615477Y-89442000D01*
X121586711Y-89440587D01*
X121558222Y-89436361D01*
X121530285Y-89429363D01*
X121503168Y-89419660D01*
X121477133Y-89407347D01*
X121452430Y-89392540D01*
X121429297Y-89375384D01*
X121407957Y-89356043D01*
X121388616Y-89334703D01*
X121371460Y-89311570D01*
X121356653Y-89286867D01*
X121344340Y-89260832D01*
X121334637Y-89233715D01*
X121327639Y-89205778D01*
X121323413Y-89177289D01*
X121322000Y-89148523D01*
X121322000Y-88385477D01*
X121323413Y-88356711D01*
X121327639Y-88328222D01*
X121334637Y-88300285D01*
X121344340Y-88273168D01*
X121356653Y-88247133D01*
X121371460Y-88222430D01*
X121388616Y-88199297D01*
X121407957Y-88177957D01*
X121429297Y-88158616D01*
X121452430Y-88141460D01*
X121477133Y-88126653D01*
X121503168Y-88114340D01*
X121530285Y-88104637D01*
X121558222Y-88097639D01*
X121586711Y-88093413D01*
X121615477Y-88092000D01*
X122628523Y-88092000D01*
X122657289Y-88093413D01*
X122657289Y-88093413D01*
G37*
D16*
X122122000Y-88767000D03*
D14*
G36*
X116563289Y-87968413D02*
G01*
X116591778Y-87972639D01*
X116619715Y-87979637D01*
X116646832Y-87989340D01*
X116672867Y-88001653D01*
X116697570Y-88016460D01*
X116720703Y-88033616D01*
X116742043Y-88052957D01*
X116761384Y-88074297D01*
X116778540Y-88097430D01*
X116793347Y-88122133D01*
X116805660Y-88148168D01*
X116815363Y-88175285D01*
X116822361Y-88203222D01*
X116826587Y-88231711D01*
X116828000Y-88260477D01*
X116828000Y-89273523D01*
X116826587Y-89302289D01*
X116822361Y-89330778D01*
X116815363Y-89358715D01*
X116805660Y-89385832D01*
X116793347Y-89411867D01*
X116778540Y-89436570D01*
X116761384Y-89459703D01*
X116742043Y-89481043D01*
X116720703Y-89500384D01*
X116697570Y-89517540D01*
X116672867Y-89532347D01*
X116646832Y-89544660D01*
X116619715Y-89554363D01*
X116591778Y-89561361D01*
X116563289Y-89565587D01*
X116534523Y-89567000D01*
X115771477Y-89567000D01*
X115742711Y-89565587D01*
X115714222Y-89561361D01*
X115686285Y-89554363D01*
X115659168Y-89544660D01*
X115633133Y-89532347D01*
X115608430Y-89517540D01*
X115585297Y-89500384D01*
X115563957Y-89481043D01*
X115544616Y-89459703D01*
X115527460Y-89436570D01*
X115512653Y-89411867D01*
X115500340Y-89385832D01*
X115490637Y-89358715D01*
X115483639Y-89330778D01*
X115479413Y-89302289D01*
X115478000Y-89273523D01*
X115478000Y-88260477D01*
X115479413Y-88231711D01*
X115483639Y-88203222D01*
X115490637Y-88175285D01*
X115500340Y-88148168D01*
X115512653Y-88122133D01*
X115527460Y-88097430D01*
X115544616Y-88074297D01*
X115563957Y-88052957D01*
X115585297Y-88033616D01*
X115608430Y-88016460D01*
X115633133Y-88001653D01*
X115659168Y-87989340D01*
X115686285Y-87979637D01*
X115714222Y-87972639D01*
X115742711Y-87968413D01*
X115771477Y-87967000D01*
X116534523Y-87967000D01*
X116563289Y-87968413D01*
X116563289Y-87968413D01*
G37*
D16*
X116153000Y-88767000D03*
D14*
G36*
X114513289Y-87968413D02*
G01*
X114541778Y-87972639D01*
X114569715Y-87979637D01*
X114596832Y-87989340D01*
X114622867Y-88001653D01*
X114647570Y-88016460D01*
X114670703Y-88033616D01*
X114692043Y-88052957D01*
X114711384Y-88074297D01*
X114728540Y-88097430D01*
X114743347Y-88122133D01*
X114755660Y-88148168D01*
X114765363Y-88175285D01*
X114772361Y-88203222D01*
X114776587Y-88231711D01*
X114778000Y-88260477D01*
X114778000Y-89273523D01*
X114776587Y-89302289D01*
X114772361Y-89330778D01*
X114765363Y-89358715D01*
X114755660Y-89385832D01*
X114743347Y-89411867D01*
X114728540Y-89436570D01*
X114711384Y-89459703D01*
X114692043Y-89481043D01*
X114670703Y-89500384D01*
X114647570Y-89517540D01*
X114622867Y-89532347D01*
X114596832Y-89544660D01*
X114569715Y-89554363D01*
X114541778Y-89561361D01*
X114513289Y-89565587D01*
X114484523Y-89567000D01*
X113721477Y-89567000D01*
X113692711Y-89565587D01*
X113664222Y-89561361D01*
X113636285Y-89554363D01*
X113609168Y-89544660D01*
X113583133Y-89532347D01*
X113558430Y-89517540D01*
X113535297Y-89500384D01*
X113513957Y-89481043D01*
X113494616Y-89459703D01*
X113477460Y-89436570D01*
X113462653Y-89411867D01*
X113450340Y-89385832D01*
X113440637Y-89358715D01*
X113433639Y-89330778D01*
X113429413Y-89302289D01*
X113428000Y-89273523D01*
X113428000Y-88260477D01*
X113429413Y-88231711D01*
X113433639Y-88203222D01*
X113440637Y-88175285D01*
X113450340Y-88148168D01*
X113462653Y-88122133D01*
X113477460Y-88097430D01*
X113494616Y-88074297D01*
X113513957Y-88052957D01*
X113535297Y-88033616D01*
X113558430Y-88016460D01*
X113583133Y-88001653D01*
X113609168Y-87989340D01*
X113636285Y-87979637D01*
X113664222Y-87972639D01*
X113692711Y-87968413D01*
X113721477Y-87967000D01*
X114484523Y-87967000D01*
X114513289Y-87968413D01*
X114513289Y-87968413D01*
G37*
D16*
X114103000Y-88767000D03*
D14*
G36*
X135792289Y-104420913D02*
G01*
X135820778Y-104425139D01*
X135848715Y-104432137D01*
X135875832Y-104441840D01*
X135901867Y-104454153D01*
X135926570Y-104468960D01*
X135949703Y-104486116D01*
X135971043Y-104505457D01*
X135990384Y-104526797D01*
X136007540Y-104549930D01*
X136022347Y-104574633D01*
X136034660Y-104600668D01*
X136044363Y-104627785D01*
X136051361Y-104655722D01*
X136055587Y-104684211D01*
X136057000Y-104712977D01*
X136057000Y-105726023D01*
X136055587Y-105754789D01*
X136051361Y-105783278D01*
X136044363Y-105811215D01*
X136034660Y-105838332D01*
X136022347Y-105864367D01*
X136007540Y-105889070D01*
X135990384Y-105912203D01*
X135971043Y-105933543D01*
X135949703Y-105952884D01*
X135926570Y-105970040D01*
X135901867Y-105984847D01*
X135875832Y-105997160D01*
X135848715Y-106006863D01*
X135820778Y-106013861D01*
X135792289Y-106018087D01*
X135763523Y-106019500D01*
X135000477Y-106019500D01*
X134971711Y-106018087D01*
X134943222Y-106013861D01*
X134915285Y-106006863D01*
X134888168Y-105997160D01*
X134862133Y-105984847D01*
X134837430Y-105970040D01*
X134814297Y-105952884D01*
X134792957Y-105933543D01*
X134773616Y-105912203D01*
X134756460Y-105889070D01*
X134741653Y-105864367D01*
X134729340Y-105838332D01*
X134719637Y-105811215D01*
X134712639Y-105783278D01*
X134708413Y-105754789D01*
X134707000Y-105726023D01*
X134707000Y-104712977D01*
X134708413Y-104684211D01*
X134712639Y-104655722D01*
X134719637Y-104627785D01*
X134729340Y-104600668D01*
X134741653Y-104574633D01*
X134756460Y-104549930D01*
X134773616Y-104526797D01*
X134792957Y-104505457D01*
X134814297Y-104486116D01*
X134837430Y-104468960D01*
X134862133Y-104454153D01*
X134888168Y-104441840D01*
X134915285Y-104432137D01*
X134943222Y-104425139D01*
X134971711Y-104420913D01*
X135000477Y-104419500D01*
X135763523Y-104419500D01*
X135792289Y-104420913D01*
X135792289Y-104420913D01*
G37*
D16*
X135382000Y-105219500D03*
D14*
G36*
X133742289Y-104420913D02*
G01*
X133770778Y-104425139D01*
X133798715Y-104432137D01*
X133825832Y-104441840D01*
X133851867Y-104454153D01*
X133876570Y-104468960D01*
X133899703Y-104486116D01*
X133921043Y-104505457D01*
X133940384Y-104526797D01*
X133957540Y-104549930D01*
X133972347Y-104574633D01*
X133984660Y-104600668D01*
X133994363Y-104627785D01*
X134001361Y-104655722D01*
X134005587Y-104684211D01*
X134007000Y-104712977D01*
X134007000Y-105726023D01*
X134005587Y-105754789D01*
X134001361Y-105783278D01*
X133994363Y-105811215D01*
X133984660Y-105838332D01*
X133972347Y-105864367D01*
X133957540Y-105889070D01*
X133940384Y-105912203D01*
X133921043Y-105933543D01*
X133899703Y-105952884D01*
X133876570Y-105970040D01*
X133851867Y-105984847D01*
X133825832Y-105997160D01*
X133798715Y-106006863D01*
X133770778Y-106013861D01*
X133742289Y-106018087D01*
X133713523Y-106019500D01*
X132950477Y-106019500D01*
X132921711Y-106018087D01*
X132893222Y-106013861D01*
X132865285Y-106006863D01*
X132838168Y-105997160D01*
X132812133Y-105984847D01*
X132787430Y-105970040D01*
X132764297Y-105952884D01*
X132742957Y-105933543D01*
X132723616Y-105912203D01*
X132706460Y-105889070D01*
X132691653Y-105864367D01*
X132679340Y-105838332D01*
X132669637Y-105811215D01*
X132662639Y-105783278D01*
X132658413Y-105754789D01*
X132657000Y-105726023D01*
X132657000Y-104712977D01*
X132658413Y-104684211D01*
X132662639Y-104655722D01*
X132669637Y-104627785D01*
X132679340Y-104600668D01*
X132691653Y-104574633D01*
X132706460Y-104549930D01*
X132723616Y-104526797D01*
X132742957Y-104505457D01*
X132764297Y-104486116D01*
X132787430Y-104468960D01*
X132812133Y-104454153D01*
X132838168Y-104441840D01*
X132865285Y-104432137D01*
X132893222Y-104425139D01*
X132921711Y-104420913D01*
X132950477Y-104419500D01*
X133713523Y-104419500D01*
X133742289Y-104420913D01*
X133742289Y-104420913D01*
G37*
D16*
X133332000Y-105219500D03*
D24*
X120523000Y-114998500D03*
X115443000Y-114998500D03*
X115443000Y-109918500D03*
X120523000Y-109918500D03*
D25*
X117983000Y-112458500D03*
D24*
X80937000Y-83038500D03*
X80937000Y-77958500D03*
X86017000Y-77958500D03*
X86017000Y-83038500D03*
D25*
X83477000Y-80498500D03*
D14*
G36*
X128281289Y-108929413D02*
G01*
X128309778Y-108933639D01*
X128337715Y-108940637D01*
X128364832Y-108950340D01*
X128390867Y-108962653D01*
X128415570Y-108977460D01*
X128438703Y-108994616D01*
X128460043Y-109013957D01*
X128479384Y-109035297D01*
X128496540Y-109058430D01*
X128511347Y-109083133D01*
X128523660Y-109109168D01*
X128533363Y-109136285D01*
X128540361Y-109164222D01*
X128544587Y-109192711D01*
X128546000Y-109221477D01*
X128546000Y-110234523D01*
X128544587Y-110263289D01*
X128540361Y-110291778D01*
X128533363Y-110319715D01*
X128523660Y-110346832D01*
X128511347Y-110372867D01*
X128496540Y-110397570D01*
X128479384Y-110420703D01*
X128460043Y-110442043D01*
X128438703Y-110461384D01*
X128415570Y-110478540D01*
X128390867Y-110493347D01*
X128364832Y-110505660D01*
X128337715Y-110515363D01*
X128309778Y-110522361D01*
X128281289Y-110526587D01*
X128252523Y-110528000D01*
X127489477Y-110528000D01*
X127460711Y-110526587D01*
X127432222Y-110522361D01*
X127404285Y-110515363D01*
X127377168Y-110505660D01*
X127351133Y-110493347D01*
X127326430Y-110478540D01*
X127303297Y-110461384D01*
X127281957Y-110442043D01*
X127262616Y-110420703D01*
X127245460Y-110397570D01*
X127230653Y-110372867D01*
X127218340Y-110346832D01*
X127208637Y-110319715D01*
X127201639Y-110291778D01*
X127197413Y-110263289D01*
X127196000Y-110234523D01*
X127196000Y-109221477D01*
X127197413Y-109192711D01*
X127201639Y-109164222D01*
X127208637Y-109136285D01*
X127218340Y-109109168D01*
X127230653Y-109083133D01*
X127245460Y-109058430D01*
X127262616Y-109035297D01*
X127281957Y-109013957D01*
X127303297Y-108994616D01*
X127326430Y-108977460D01*
X127351133Y-108962653D01*
X127377168Y-108950340D01*
X127404285Y-108940637D01*
X127432222Y-108933639D01*
X127460711Y-108929413D01*
X127489477Y-108928000D01*
X128252523Y-108928000D01*
X128281289Y-108929413D01*
X128281289Y-108929413D01*
G37*
D16*
X127871000Y-109728000D03*
D14*
G36*
X130331289Y-108929413D02*
G01*
X130359778Y-108933639D01*
X130387715Y-108940637D01*
X130414832Y-108950340D01*
X130440867Y-108962653D01*
X130465570Y-108977460D01*
X130488703Y-108994616D01*
X130510043Y-109013957D01*
X130529384Y-109035297D01*
X130546540Y-109058430D01*
X130561347Y-109083133D01*
X130573660Y-109109168D01*
X130583363Y-109136285D01*
X130590361Y-109164222D01*
X130594587Y-109192711D01*
X130596000Y-109221477D01*
X130596000Y-110234523D01*
X130594587Y-110263289D01*
X130590361Y-110291778D01*
X130583363Y-110319715D01*
X130573660Y-110346832D01*
X130561347Y-110372867D01*
X130546540Y-110397570D01*
X130529384Y-110420703D01*
X130510043Y-110442043D01*
X130488703Y-110461384D01*
X130465570Y-110478540D01*
X130440867Y-110493347D01*
X130414832Y-110505660D01*
X130387715Y-110515363D01*
X130359778Y-110522361D01*
X130331289Y-110526587D01*
X130302523Y-110528000D01*
X129539477Y-110528000D01*
X129510711Y-110526587D01*
X129482222Y-110522361D01*
X129454285Y-110515363D01*
X129427168Y-110505660D01*
X129401133Y-110493347D01*
X129376430Y-110478540D01*
X129353297Y-110461384D01*
X129331957Y-110442043D01*
X129312616Y-110420703D01*
X129295460Y-110397570D01*
X129280653Y-110372867D01*
X129268340Y-110346832D01*
X129258637Y-110319715D01*
X129251639Y-110291778D01*
X129247413Y-110263289D01*
X129246000Y-110234523D01*
X129246000Y-109221477D01*
X129247413Y-109192711D01*
X129251639Y-109164222D01*
X129258637Y-109136285D01*
X129268340Y-109109168D01*
X129280653Y-109083133D01*
X129295460Y-109058430D01*
X129312616Y-109035297D01*
X129331957Y-109013957D01*
X129353297Y-108994616D01*
X129376430Y-108977460D01*
X129401133Y-108962653D01*
X129427168Y-108950340D01*
X129454285Y-108940637D01*
X129482222Y-108933639D01*
X129510711Y-108929413D01*
X129539477Y-108928000D01*
X130302523Y-108928000D01*
X130331289Y-108929413D01*
X130331289Y-108929413D01*
G37*
D16*
X129921000Y-109728000D03*
D14*
G36*
X135746789Y-101118913D02*
G01*
X135775278Y-101123139D01*
X135803215Y-101130137D01*
X135830332Y-101139840D01*
X135856367Y-101152153D01*
X135881070Y-101166960D01*
X135904203Y-101184116D01*
X135925543Y-101203457D01*
X135944884Y-101224797D01*
X135962040Y-101247930D01*
X135976847Y-101272633D01*
X135989160Y-101298668D01*
X135998863Y-101325785D01*
X136005861Y-101353722D01*
X136010087Y-101382211D01*
X136011500Y-101410977D01*
X136011500Y-102424023D01*
X136010087Y-102452789D01*
X136005861Y-102481278D01*
X135998863Y-102509215D01*
X135989160Y-102536332D01*
X135976847Y-102562367D01*
X135962040Y-102587070D01*
X135944884Y-102610203D01*
X135925543Y-102631543D01*
X135904203Y-102650884D01*
X135881070Y-102668040D01*
X135856367Y-102682847D01*
X135830332Y-102695160D01*
X135803215Y-102704863D01*
X135775278Y-102711861D01*
X135746789Y-102716087D01*
X135718023Y-102717500D01*
X134954977Y-102717500D01*
X134926211Y-102716087D01*
X134897722Y-102711861D01*
X134869785Y-102704863D01*
X134842668Y-102695160D01*
X134816633Y-102682847D01*
X134791930Y-102668040D01*
X134768797Y-102650884D01*
X134747457Y-102631543D01*
X134728116Y-102610203D01*
X134710960Y-102587070D01*
X134696153Y-102562367D01*
X134683840Y-102536332D01*
X134674137Y-102509215D01*
X134667139Y-102481278D01*
X134662913Y-102452789D01*
X134661500Y-102424023D01*
X134661500Y-101410977D01*
X134662913Y-101382211D01*
X134667139Y-101353722D01*
X134674137Y-101325785D01*
X134683840Y-101298668D01*
X134696153Y-101272633D01*
X134710960Y-101247930D01*
X134728116Y-101224797D01*
X134747457Y-101203457D01*
X134768797Y-101184116D01*
X134791930Y-101166960D01*
X134816633Y-101152153D01*
X134842668Y-101139840D01*
X134869785Y-101130137D01*
X134897722Y-101123139D01*
X134926211Y-101118913D01*
X134954977Y-101117500D01*
X135718023Y-101117500D01*
X135746789Y-101118913D01*
X135746789Y-101118913D01*
G37*
D16*
X135336500Y-101917500D03*
D14*
G36*
X133696789Y-101118913D02*
G01*
X133725278Y-101123139D01*
X133753215Y-101130137D01*
X133780332Y-101139840D01*
X133806367Y-101152153D01*
X133831070Y-101166960D01*
X133854203Y-101184116D01*
X133875543Y-101203457D01*
X133894884Y-101224797D01*
X133912040Y-101247930D01*
X133926847Y-101272633D01*
X133939160Y-101298668D01*
X133948863Y-101325785D01*
X133955861Y-101353722D01*
X133960087Y-101382211D01*
X133961500Y-101410977D01*
X133961500Y-102424023D01*
X133960087Y-102452789D01*
X133955861Y-102481278D01*
X133948863Y-102509215D01*
X133939160Y-102536332D01*
X133926847Y-102562367D01*
X133912040Y-102587070D01*
X133894884Y-102610203D01*
X133875543Y-102631543D01*
X133854203Y-102650884D01*
X133831070Y-102668040D01*
X133806367Y-102682847D01*
X133780332Y-102695160D01*
X133753215Y-102704863D01*
X133725278Y-102711861D01*
X133696789Y-102716087D01*
X133668023Y-102717500D01*
X132904977Y-102717500D01*
X132876211Y-102716087D01*
X132847722Y-102711861D01*
X132819785Y-102704863D01*
X132792668Y-102695160D01*
X132766633Y-102682847D01*
X132741930Y-102668040D01*
X132718797Y-102650884D01*
X132697457Y-102631543D01*
X132678116Y-102610203D01*
X132660960Y-102587070D01*
X132646153Y-102562367D01*
X132633840Y-102536332D01*
X132624137Y-102509215D01*
X132617139Y-102481278D01*
X132612913Y-102452789D01*
X132611500Y-102424023D01*
X132611500Y-101410977D01*
X132612913Y-101382211D01*
X132617139Y-101353722D01*
X132624137Y-101325785D01*
X132633840Y-101298668D01*
X132646153Y-101272633D01*
X132660960Y-101247930D01*
X132678116Y-101224797D01*
X132697457Y-101203457D01*
X132718797Y-101184116D01*
X132741930Y-101166960D01*
X132766633Y-101152153D01*
X132792668Y-101139840D01*
X132819785Y-101130137D01*
X132847722Y-101123139D01*
X132876211Y-101118913D01*
X132904977Y-101117500D01*
X133668023Y-101117500D01*
X133696789Y-101118913D01*
X133696789Y-101118913D01*
G37*
D16*
X133286500Y-101917500D03*
D14*
G36*
X135728789Y-97753413D02*
G01*
X135757278Y-97757639D01*
X135785215Y-97764637D01*
X135812332Y-97774340D01*
X135838367Y-97786653D01*
X135863070Y-97801460D01*
X135886203Y-97818616D01*
X135907543Y-97837957D01*
X135926884Y-97859297D01*
X135944040Y-97882430D01*
X135958847Y-97907133D01*
X135971160Y-97933168D01*
X135980863Y-97960285D01*
X135987861Y-97988222D01*
X135992087Y-98016711D01*
X135993500Y-98045477D01*
X135993500Y-99058523D01*
X135992087Y-99087289D01*
X135987861Y-99115778D01*
X135980863Y-99143715D01*
X135971160Y-99170832D01*
X135958847Y-99196867D01*
X135944040Y-99221570D01*
X135926884Y-99244703D01*
X135907543Y-99266043D01*
X135886203Y-99285384D01*
X135863070Y-99302540D01*
X135838367Y-99317347D01*
X135812332Y-99329660D01*
X135785215Y-99339363D01*
X135757278Y-99346361D01*
X135728789Y-99350587D01*
X135700023Y-99352000D01*
X134936977Y-99352000D01*
X134908211Y-99350587D01*
X134879722Y-99346361D01*
X134851785Y-99339363D01*
X134824668Y-99329660D01*
X134798633Y-99317347D01*
X134773930Y-99302540D01*
X134750797Y-99285384D01*
X134729457Y-99266043D01*
X134710116Y-99244703D01*
X134692960Y-99221570D01*
X134678153Y-99196867D01*
X134665840Y-99170832D01*
X134656137Y-99143715D01*
X134649139Y-99115778D01*
X134644913Y-99087289D01*
X134643500Y-99058523D01*
X134643500Y-98045477D01*
X134644913Y-98016711D01*
X134649139Y-97988222D01*
X134656137Y-97960285D01*
X134665840Y-97933168D01*
X134678153Y-97907133D01*
X134692960Y-97882430D01*
X134710116Y-97859297D01*
X134729457Y-97837957D01*
X134750797Y-97818616D01*
X134773930Y-97801460D01*
X134798633Y-97786653D01*
X134824668Y-97774340D01*
X134851785Y-97764637D01*
X134879722Y-97757639D01*
X134908211Y-97753413D01*
X134936977Y-97752000D01*
X135700023Y-97752000D01*
X135728789Y-97753413D01*
X135728789Y-97753413D01*
G37*
D16*
X135318500Y-98552000D03*
D14*
G36*
X133678789Y-97753413D02*
G01*
X133707278Y-97757639D01*
X133735215Y-97764637D01*
X133762332Y-97774340D01*
X133788367Y-97786653D01*
X133813070Y-97801460D01*
X133836203Y-97818616D01*
X133857543Y-97837957D01*
X133876884Y-97859297D01*
X133894040Y-97882430D01*
X133908847Y-97907133D01*
X133921160Y-97933168D01*
X133930863Y-97960285D01*
X133937861Y-97988222D01*
X133942087Y-98016711D01*
X133943500Y-98045477D01*
X133943500Y-99058523D01*
X133942087Y-99087289D01*
X133937861Y-99115778D01*
X133930863Y-99143715D01*
X133921160Y-99170832D01*
X133908847Y-99196867D01*
X133894040Y-99221570D01*
X133876884Y-99244703D01*
X133857543Y-99266043D01*
X133836203Y-99285384D01*
X133813070Y-99302540D01*
X133788367Y-99317347D01*
X133762332Y-99329660D01*
X133735215Y-99339363D01*
X133707278Y-99346361D01*
X133678789Y-99350587D01*
X133650023Y-99352000D01*
X132886977Y-99352000D01*
X132858211Y-99350587D01*
X132829722Y-99346361D01*
X132801785Y-99339363D01*
X132774668Y-99329660D01*
X132748633Y-99317347D01*
X132723930Y-99302540D01*
X132700797Y-99285384D01*
X132679457Y-99266043D01*
X132660116Y-99244703D01*
X132642960Y-99221570D01*
X132628153Y-99196867D01*
X132615840Y-99170832D01*
X132606137Y-99143715D01*
X132599139Y-99115778D01*
X132594913Y-99087289D01*
X132593500Y-99058523D01*
X132593500Y-98045477D01*
X132594913Y-98016711D01*
X132599139Y-97988222D01*
X132606137Y-97960285D01*
X132615840Y-97933168D01*
X132628153Y-97907133D01*
X132642960Y-97882430D01*
X132660116Y-97859297D01*
X132679457Y-97837957D01*
X132700797Y-97818616D01*
X132723930Y-97801460D01*
X132748633Y-97786653D01*
X132774668Y-97774340D01*
X132801785Y-97764637D01*
X132829722Y-97757639D01*
X132858211Y-97753413D01*
X132886977Y-97752000D01*
X133650023Y-97752000D01*
X133678789Y-97753413D01*
X133678789Y-97753413D01*
G37*
D16*
X133268500Y-98552000D03*
D14*
G36*
X139409789Y-96871413D02*
G01*
X139438278Y-96875639D01*
X139466215Y-96882637D01*
X139493332Y-96892340D01*
X139519367Y-96904653D01*
X139544070Y-96919460D01*
X139567203Y-96936616D01*
X139588543Y-96955957D01*
X139607884Y-96977297D01*
X139625040Y-97000430D01*
X139639847Y-97025133D01*
X139652160Y-97051168D01*
X139661863Y-97078285D01*
X139668861Y-97106222D01*
X139673087Y-97134711D01*
X139674500Y-97163477D01*
X139674500Y-97926523D01*
X139673087Y-97955289D01*
X139668861Y-97983778D01*
X139661863Y-98011715D01*
X139652160Y-98038832D01*
X139639847Y-98064867D01*
X139625040Y-98089570D01*
X139607884Y-98112703D01*
X139588543Y-98134043D01*
X139567203Y-98153384D01*
X139544070Y-98170540D01*
X139519367Y-98185347D01*
X139493332Y-98197660D01*
X139466215Y-98207363D01*
X139438278Y-98214361D01*
X139409789Y-98218587D01*
X139381023Y-98220000D01*
X138367977Y-98220000D01*
X138339211Y-98218587D01*
X138310722Y-98214361D01*
X138282785Y-98207363D01*
X138255668Y-98197660D01*
X138229633Y-98185347D01*
X138204930Y-98170540D01*
X138181797Y-98153384D01*
X138160457Y-98134043D01*
X138141116Y-98112703D01*
X138123960Y-98089570D01*
X138109153Y-98064867D01*
X138096840Y-98038832D01*
X138087137Y-98011715D01*
X138080139Y-97983778D01*
X138075913Y-97955289D01*
X138074500Y-97926523D01*
X138074500Y-97163477D01*
X138075913Y-97134711D01*
X138080139Y-97106222D01*
X138087137Y-97078285D01*
X138096840Y-97051168D01*
X138109153Y-97025133D01*
X138123960Y-97000430D01*
X138141116Y-96977297D01*
X138160457Y-96955957D01*
X138181797Y-96936616D01*
X138204930Y-96919460D01*
X138229633Y-96904653D01*
X138255668Y-96892340D01*
X138282785Y-96882637D01*
X138310722Y-96875639D01*
X138339211Y-96871413D01*
X138367977Y-96870000D01*
X139381023Y-96870000D01*
X139409789Y-96871413D01*
X139409789Y-96871413D01*
G37*
D16*
X138874500Y-97545000D03*
D14*
G36*
X139409789Y-94821413D02*
G01*
X139438278Y-94825639D01*
X139466215Y-94832637D01*
X139493332Y-94842340D01*
X139519367Y-94854653D01*
X139544070Y-94869460D01*
X139567203Y-94886616D01*
X139588543Y-94905957D01*
X139607884Y-94927297D01*
X139625040Y-94950430D01*
X139639847Y-94975133D01*
X139652160Y-95001168D01*
X139661863Y-95028285D01*
X139668861Y-95056222D01*
X139673087Y-95084711D01*
X139674500Y-95113477D01*
X139674500Y-95876523D01*
X139673087Y-95905289D01*
X139668861Y-95933778D01*
X139661863Y-95961715D01*
X139652160Y-95988832D01*
X139639847Y-96014867D01*
X139625040Y-96039570D01*
X139607884Y-96062703D01*
X139588543Y-96084043D01*
X139567203Y-96103384D01*
X139544070Y-96120540D01*
X139519367Y-96135347D01*
X139493332Y-96147660D01*
X139466215Y-96157363D01*
X139438278Y-96164361D01*
X139409789Y-96168587D01*
X139381023Y-96170000D01*
X138367977Y-96170000D01*
X138339211Y-96168587D01*
X138310722Y-96164361D01*
X138282785Y-96157363D01*
X138255668Y-96147660D01*
X138229633Y-96135347D01*
X138204930Y-96120540D01*
X138181797Y-96103384D01*
X138160457Y-96084043D01*
X138141116Y-96062703D01*
X138123960Y-96039570D01*
X138109153Y-96014867D01*
X138096840Y-95988832D01*
X138087137Y-95961715D01*
X138080139Y-95933778D01*
X138075913Y-95905289D01*
X138074500Y-95876523D01*
X138074500Y-95113477D01*
X138075913Y-95084711D01*
X138080139Y-95056222D01*
X138087137Y-95028285D01*
X138096840Y-95001168D01*
X138109153Y-94975133D01*
X138123960Y-94950430D01*
X138141116Y-94927297D01*
X138160457Y-94905957D01*
X138181797Y-94886616D01*
X138204930Y-94869460D01*
X138229633Y-94854653D01*
X138255668Y-94842340D01*
X138282785Y-94832637D01*
X138310722Y-94825639D01*
X138339211Y-94821413D01*
X138367977Y-94820000D01*
X139381023Y-94820000D01*
X139409789Y-94821413D01*
X139409789Y-94821413D01*
G37*
D16*
X138874500Y-95495000D03*
D14*
G36*
X116595289Y-75536413D02*
G01*
X116623778Y-75540639D01*
X116651715Y-75547637D01*
X116678832Y-75557340D01*
X116704867Y-75569653D01*
X116729570Y-75584460D01*
X116752703Y-75601616D01*
X116774043Y-75620957D01*
X116793384Y-75642297D01*
X116810540Y-75665430D01*
X116825347Y-75690133D01*
X116837660Y-75716168D01*
X116847363Y-75743285D01*
X116854361Y-75771222D01*
X116858587Y-75799711D01*
X116860000Y-75828477D01*
X116860000Y-76591523D01*
X116858587Y-76620289D01*
X116854361Y-76648778D01*
X116847363Y-76676715D01*
X116837660Y-76703832D01*
X116825347Y-76729867D01*
X116810540Y-76754570D01*
X116793384Y-76777703D01*
X116774043Y-76799043D01*
X116752703Y-76818384D01*
X116729570Y-76835540D01*
X116704867Y-76850347D01*
X116678832Y-76862660D01*
X116651715Y-76872363D01*
X116623778Y-76879361D01*
X116595289Y-76883587D01*
X116566523Y-76885000D01*
X115553477Y-76885000D01*
X115524711Y-76883587D01*
X115496222Y-76879361D01*
X115468285Y-76872363D01*
X115441168Y-76862660D01*
X115415133Y-76850347D01*
X115390430Y-76835540D01*
X115367297Y-76818384D01*
X115345957Y-76799043D01*
X115326616Y-76777703D01*
X115309460Y-76754570D01*
X115294653Y-76729867D01*
X115282340Y-76703832D01*
X115272637Y-76676715D01*
X115265639Y-76648778D01*
X115261413Y-76620289D01*
X115260000Y-76591523D01*
X115260000Y-75828477D01*
X115261413Y-75799711D01*
X115265639Y-75771222D01*
X115272637Y-75743285D01*
X115282340Y-75716168D01*
X115294653Y-75690133D01*
X115309460Y-75665430D01*
X115326616Y-75642297D01*
X115345957Y-75620957D01*
X115367297Y-75601616D01*
X115390430Y-75584460D01*
X115415133Y-75569653D01*
X115441168Y-75557340D01*
X115468285Y-75547637D01*
X115496222Y-75540639D01*
X115524711Y-75536413D01*
X115553477Y-75535000D01*
X116566523Y-75535000D01*
X116595289Y-75536413D01*
X116595289Y-75536413D01*
G37*
D16*
X116060000Y-76210000D03*
D14*
G36*
X116595289Y-77586413D02*
G01*
X116623778Y-77590639D01*
X116651715Y-77597637D01*
X116678832Y-77607340D01*
X116704867Y-77619653D01*
X116729570Y-77634460D01*
X116752703Y-77651616D01*
X116774043Y-77670957D01*
X116793384Y-77692297D01*
X116810540Y-77715430D01*
X116825347Y-77740133D01*
X116837660Y-77766168D01*
X116847363Y-77793285D01*
X116854361Y-77821222D01*
X116858587Y-77849711D01*
X116860000Y-77878477D01*
X116860000Y-78641523D01*
X116858587Y-78670289D01*
X116854361Y-78698778D01*
X116847363Y-78726715D01*
X116837660Y-78753832D01*
X116825347Y-78779867D01*
X116810540Y-78804570D01*
X116793384Y-78827703D01*
X116774043Y-78849043D01*
X116752703Y-78868384D01*
X116729570Y-78885540D01*
X116704867Y-78900347D01*
X116678832Y-78912660D01*
X116651715Y-78922363D01*
X116623778Y-78929361D01*
X116595289Y-78933587D01*
X116566523Y-78935000D01*
X115553477Y-78935000D01*
X115524711Y-78933587D01*
X115496222Y-78929361D01*
X115468285Y-78922363D01*
X115441168Y-78912660D01*
X115415133Y-78900347D01*
X115390430Y-78885540D01*
X115367297Y-78868384D01*
X115345957Y-78849043D01*
X115326616Y-78827703D01*
X115309460Y-78804570D01*
X115294653Y-78779867D01*
X115282340Y-78753832D01*
X115272637Y-78726715D01*
X115265639Y-78698778D01*
X115261413Y-78670289D01*
X115260000Y-78641523D01*
X115260000Y-77878477D01*
X115261413Y-77849711D01*
X115265639Y-77821222D01*
X115272637Y-77793285D01*
X115282340Y-77766168D01*
X115294653Y-77740133D01*
X115309460Y-77715430D01*
X115326616Y-77692297D01*
X115345957Y-77670957D01*
X115367297Y-77651616D01*
X115390430Y-77634460D01*
X115415133Y-77619653D01*
X115441168Y-77607340D01*
X115468285Y-77597637D01*
X115496222Y-77590639D01*
X115524711Y-77586413D01*
X115553477Y-77585000D01*
X116566523Y-77585000D01*
X116595289Y-77586413D01*
X116595289Y-77586413D01*
G37*
D16*
X116060000Y-78260000D03*
D14*
G36*
X110270289Y-77461413D02*
G01*
X110298778Y-77465639D01*
X110326715Y-77472637D01*
X110353832Y-77482340D01*
X110379867Y-77494653D01*
X110404570Y-77509460D01*
X110427703Y-77526616D01*
X110449043Y-77545957D01*
X110468384Y-77567297D01*
X110485540Y-77590430D01*
X110500347Y-77615133D01*
X110512660Y-77641168D01*
X110522363Y-77668285D01*
X110529361Y-77696222D01*
X110533587Y-77724711D01*
X110535000Y-77753477D01*
X110535000Y-78766523D01*
X110533587Y-78795289D01*
X110529361Y-78823778D01*
X110522363Y-78851715D01*
X110512660Y-78878832D01*
X110500347Y-78904867D01*
X110485540Y-78929570D01*
X110468384Y-78952703D01*
X110449043Y-78974043D01*
X110427703Y-78993384D01*
X110404570Y-79010540D01*
X110379867Y-79025347D01*
X110353832Y-79037660D01*
X110326715Y-79047363D01*
X110298778Y-79054361D01*
X110270289Y-79058587D01*
X110241523Y-79060000D01*
X109478477Y-79060000D01*
X109449711Y-79058587D01*
X109421222Y-79054361D01*
X109393285Y-79047363D01*
X109366168Y-79037660D01*
X109340133Y-79025347D01*
X109315430Y-79010540D01*
X109292297Y-78993384D01*
X109270957Y-78974043D01*
X109251616Y-78952703D01*
X109234460Y-78929570D01*
X109219653Y-78904867D01*
X109207340Y-78878832D01*
X109197637Y-78851715D01*
X109190639Y-78823778D01*
X109186413Y-78795289D01*
X109185000Y-78766523D01*
X109185000Y-77753477D01*
X109186413Y-77724711D01*
X109190639Y-77696222D01*
X109197637Y-77668285D01*
X109207340Y-77641168D01*
X109219653Y-77615133D01*
X109234460Y-77590430D01*
X109251616Y-77567297D01*
X109270957Y-77545957D01*
X109292297Y-77526616D01*
X109315430Y-77509460D01*
X109340133Y-77494653D01*
X109366168Y-77482340D01*
X109393285Y-77472637D01*
X109421222Y-77465639D01*
X109449711Y-77461413D01*
X109478477Y-77460000D01*
X110241523Y-77460000D01*
X110270289Y-77461413D01*
X110270289Y-77461413D01*
G37*
D16*
X109860000Y-78260000D03*
D14*
G36*
X108220289Y-77461413D02*
G01*
X108248778Y-77465639D01*
X108276715Y-77472637D01*
X108303832Y-77482340D01*
X108329867Y-77494653D01*
X108354570Y-77509460D01*
X108377703Y-77526616D01*
X108399043Y-77545957D01*
X108418384Y-77567297D01*
X108435540Y-77590430D01*
X108450347Y-77615133D01*
X108462660Y-77641168D01*
X108472363Y-77668285D01*
X108479361Y-77696222D01*
X108483587Y-77724711D01*
X108485000Y-77753477D01*
X108485000Y-78766523D01*
X108483587Y-78795289D01*
X108479361Y-78823778D01*
X108472363Y-78851715D01*
X108462660Y-78878832D01*
X108450347Y-78904867D01*
X108435540Y-78929570D01*
X108418384Y-78952703D01*
X108399043Y-78974043D01*
X108377703Y-78993384D01*
X108354570Y-79010540D01*
X108329867Y-79025347D01*
X108303832Y-79037660D01*
X108276715Y-79047363D01*
X108248778Y-79054361D01*
X108220289Y-79058587D01*
X108191523Y-79060000D01*
X107428477Y-79060000D01*
X107399711Y-79058587D01*
X107371222Y-79054361D01*
X107343285Y-79047363D01*
X107316168Y-79037660D01*
X107290133Y-79025347D01*
X107265430Y-79010540D01*
X107242297Y-78993384D01*
X107220957Y-78974043D01*
X107201616Y-78952703D01*
X107184460Y-78929570D01*
X107169653Y-78904867D01*
X107157340Y-78878832D01*
X107147637Y-78851715D01*
X107140639Y-78823778D01*
X107136413Y-78795289D01*
X107135000Y-78766523D01*
X107135000Y-77753477D01*
X107136413Y-77724711D01*
X107140639Y-77696222D01*
X107147637Y-77668285D01*
X107157340Y-77641168D01*
X107169653Y-77615133D01*
X107184460Y-77590430D01*
X107201616Y-77567297D01*
X107220957Y-77545957D01*
X107242297Y-77526616D01*
X107265430Y-77509460D01*
X107290133Y-77494653D01*
X107316168Y-77482340D01*
X107343285Y-77472637D01*
X107371222Y-77465639D01*
X107399711Y-77461413D01*
X107428477Y-77460000D01*
X108191523Y-77460000D01*
X108220289Y-77461413D01*
X108220289Y-77461413D01*
G37*
D16*
X107810000Y-78260000D03*
D14*
G36*
X103775289Y-75536413D02*
G01*
X103803778Y-75540639D01*
X103831715Y-75547637D01*
X103858832Y-75557340D01*
X103884867Y-75569653D01*
X103909570Y-75584460D01*
X103932703Y-75601616D01*
X103954043Y-75620957D01*
X103973384Y-75642297D01*
X103990540Y-75665430D01*
X104005347Y-75690133D01*
X104017660Y-75716168D01*
X104027363Y-75743285D01*
X104034361Y-75771222D01*
X104038587Y-75799711D01*
X104040000Y-75828477D01*
X104040000Y-76591523D01*
X104038587Y-76620289D01*
X104034361Y-76648778D01*
X104027363Y-76676715D01*
X104017660Y-76703832D01*
X104005347Y-76729867D01*
X103990540Y-76754570D01*
X103973384Y-76777703D01*
X103954043Y-76799043D01*
X103932703Y-76818384D01*
X103909570Y-76835540D01*
X103884867Y-76850347D01*
X103858832Y-76862660D01*
X103831715Y-76872363D01*
X103803778Y-76879361D01*
X103775289Y-76883587D01*
X103746523Y-76885000D01*
X102733477Y-76885000D01*
X102704711Y-76883587D01*
X102676222Y-76879361D01*
X102648285Y-76872363D01*
X102621168Y-76862660D01*
X102595133Y-76850347D01*
X102570430Y-76835540D01*
X102547297Y-76818384D01*
X102525957Y-76799043D01*
X102506616Y-76777703D01*
X102489460Y-76754570D01*
X102474653Y-76729867D01*
X102462340Y-76703832D01*
X102452637Y-76676715D01*
X102445639Y-76648778D01*
X102441413Y-76620289D01*
X102440000Y-76591523D01*
X102440000Y-75828477D01*
X102441413Y-75799711D01*
X102445639Y-75771222D01*
X102452637Y-75743285D01*
X102462340Y-75716168D01*
X102474653Y-75690133D01*
X102489460Y-75665430D01*
X102506616Y-75642297D01*
X102525957Y-75620957D01*
X102547297Y-75601616D01*
X102570430Y-75584460D01*
X102595133Y-75569653D01*
X102621168Y-75557340D01*
X102648285Y-75547637D01*
X102676222Y-75540639D01*
X102704711Y-75536413D01*
X102733477Y-75535000D01*
X103746523Y-75535000D01*
X103775289Y-75536413D01*
X103775289Y-75536413D01*
G37*
D16*
X103240000Y-76210000D03*
D14*
G36*
X103775289Y-77586413D02*
G01*
X103803778Y-77590639D01*
X103831715Y-77597637D01*
X103858832Y-77607340D01*
X103884867Y-77619653D01*
X103909570Y-77634460D01*
X103932703Y-77651616D01*
X103954043Y-77670957D01*
X103973384Y-77692297D01*
X103990540Y-77715430D01*
X104005347Y-77740133D01*
X104017660Y-77766168D01*
X104027363Y-77793285D01*
X104034361Y-77821222D01*
X104038587Y-77849711D01*
X104040000Y-77878477D01*
X104040000Y-78641523D01*
X104038587Y-78670289D01*
X104034361Y-78698778D01*
X104027363Y-78726715D01*
X104017660Y-78753832D01*
X104005347Y-78779867D01*
X103990540Y-78804570D01*
X103973384Y-78827703D01*
X103954043Y-78849043D01*
X103932703Y-78868384D01*
X103909570Y-78885540D01*
X103884867Y-78900347D01*
X103858832Y-78912660D01*
X103831715Y-78922363D01*
X103803778Y-78929361D01*
X103775289Y-78933587D01*
X103746523Y-78935000D01*
X102733477Y-78935000D01*
X102704711Y-78933587D01*
X102676222Y-78929361D01*
X102648285Y-78922363D01*
X102621168Y-78912660D01*
X102595133Y-78900347D01*
X102570430Y-78885540D01*
X102547297Y-78868384D01*
X102525957Y-78849043D01*
X102506616Y-78827703D01*
X102489460Y-78804570D01*
X102474653Y-78779867D01*
X102462340Y-78753832D01*
X102452637Y-78726715D01*
X102445639Y-78698778D01*
X102441413Y-78670289D01*
X102440000Y-78641523D01*
X102440000Y-77878477D01*
X102441413Y-77849711D01*
X102445639Y-77821222D01*
X102452637Y-77793285D01*
X102462340Y-77766168D01*
X102474653Y-77740133D01*
X102489460Y-77715430D01*
X102506616Y-77692297D01*
X102525957Y-77670957D01*
X102547297Y-77651616D01*
X102570430Y-77634460D01*
X102595133Y-77619653D01*
X102621168Y-77607340D01*
X102648285Y-77597637D01*
X102676222Y-77590639D01*
X102704711Y-77586413D01*
X102733477Y-77585000D01*
X103746523Y-77585000D01*
X103775289Y-77586413D01*
X103775289Y-77586413D01*
G37*
D16*
X103240000Y-78260000D03*
D14*
G36*
X110338289Y-90143413D02*
G01*
X110366778Y-90147639D01*
X110394715Y-90154637D01*
X110421832Y-90164340D01*
X110447867Y-90176653D01*
X110472570Y-90191460D01*
X110495703Y-90208616D01*
X110517043Y-90227957D01*
X110536384Y-90249297D01*
X110553540Y-90272430D01*
X110568347Y-90297133D01*
X110580660Y-90323168D01*
X110590363Y-90350285D01*
X110597361Y-90378222D01*
X110601587Y-90406711D01*
X110603000Y-90435477D01*
X110603000Y-91198523D01*
X110601587Y-91227289D01*
X110597361Y-91255778D01*
X110590363Y-91283715D01*
X110580660Y-91310832D01*
X110568347Y-91336867D01*
X110553540Y-91361570D01*
X110536384Y-91384703D01*
X110517043Y-91406043D01*
X110495703Y-91425384D01*
X110472570Y-91442540D01*
X110447867Y-91457347D01*
X110421832Y-91469660D01*
X110394715Y-91479363D01*
X110366778Y-91486361D01*
X110338289Y-91490587D01*
X110309523Y-91492000D01*
X109296477Y-91492000D01*
X109267711Y-91490587D01*
X109239222Y-91486361D01*
X109211285Y-91479363D01*
X109184168Y-91469660D01*
X109158133Y-91457347D01*
X109133430Y-91442540D01*
X109110297Y-91425384D01*
X109088957Y-91406043D01*
X109069616Y-91384703D01*
X109052460Y-91361570D01*
X109037653Y-91336867D01*
X109025340Y-91310832D01*
X109015637Y-91283715D01*
X109008639Y-91255778D01*
X109004413Y-91227289D01*
X109003000Y-91198523D01*
X109003000Y-90435477D01*
X109004413Y-90406711D01*
X109008639Y-90378222D01*
X109015637Y-90350285D01*
X109025340Y-90323168D01*
X109037653Y-90297133D01*
X109052460Y-90272430D01*
X109069616Y-90249297D01*
X109088957Y-90227957D01*
X109110297Y-90208616D01*
X109133430Y-90191460D01*
X109158133Y-90176653D01*
X109184168Y-90164340D01*
X109211285Y-90154637D01*
X109239222Y-90147639D01*
X109267711Y-90143413D01*
X109296477Y-90142000D01*
X110309523Y-90142000D01*
X110338289Y-90143413D01*
X110338289Y-90143413D01*
G37*
D16*
X109803000Y-90817000D03*
D14*
G36*
X110338289Y-88093413D02*
G01*
X110366778Y-88097639D01*
X110394715Y-88104637D01*
X110421832Y-88114340D01*
X110447867Y-88126653D01*
X110472570Y-88141460D01*
X110495703Y-88158616D01*
X110517043Y-88177957D01*
X110536384Y-88199297D01*
X110553540Y-88222430D01*
X110568347Y-88247133D01*
X110580660Y-88273168D01*
X110590363Y-88300285D01*
X110597361Y-88328222D01*
X110601587Y-88356711D01*
X110603000Y-88385477D01*
X110603000Y-89148523D01*
X110601587Y-89177289D01*
X110597361Y-89205778D01*
X110590363Y-89233715D01*
X110580660Y-89260832D01*
X110568347Y-89286867D01*
X110553540Y-89311570D01*
X110536384Y-89334703D01*
X110517043Y-89356043D01*
X110495703Y-89375384D01*
X110472570Y-89392540D01*
X110447867Y-89407347D01*
X110421832Y-89419660D01*
X110394715Y-89429363D01*
X110366778Y-89436361D01*
X110338289Y-89440587D01*
X110309523Y-89442000D01*
X109296477Y-89442000D01*
X109267711Y-89440587D01*
X109239222Y-89436361D01*
X109211285Y-89429363D01*
X109184168Y-89419660D01*
X109158133Y-89407347D01*
X109133430Y-89392540D01*
X109110297Y-89375384D01*
X109088957Y-89356043D01*
X109069616Y-89334703D01*
X109052460Y-89311570D01*
X109037653Y-89286867D01*
X109025340Y-89260832D01*
X109015637Y-89233715D01*
X109008639Y-89205778D01*
X109004413Y-89177289D01*
X109003000Y-89148523D01*
X109003000Y-88385477D01*
X109004413Y-88356711D01*
X109008639Y-88328222D01*
X109015637Y-88300285D01*
X109025340Y-88273168D01*
X109037653Y-88247133D01*
X109052460Y-88222430D01*
X109069616Y-88199297D01*
X109088957Y-88177957D01*
X109110297Y-88158616D01*
X109133430Y-88141460D01*
X109158133Y-88126653D01*
X109184168Y-88114340D01*
X109211285Y-88104637D01*
X109239222Y-88097639D01*
X109267711Y-88093413D01*
X109296477Y-88092000D01*
X110309523Y-88092000D01*
X110338289Y-88093413D01*
X110338289Y-88093413D01*
G37*
D16*
X109803000Y-88767000D03*
D14*
G36*
X116595289Y-69941413D02*
G01*
X116623778Y-69945639D01*
X116651715Y-69952637D01*
X116678832Y-69962340D01*
X116704867Y-69974653D01*
X116729570Y-69989460D01*
X116752703Y-70006616D01*
X116774043Y-70025957D01*
X116793384Y-70047297D01*
X116810540Y-70070430D01*
X116825347Y-70095133D01*
X116837660Y-70121168D01*
X116847363Y-70148285D01*
X116854361Y-70176222D01*
X116858587Y-70204711D01*
X116860000Y-70233477D01*
X116860000Y-70996523D01*
X116858587Y-71025289D01*
X116854361Y-71053778D01*
X116847363Y-71081715D01*
X116837660Y-71108832D01*
X116825347Y-71134867D01*
X116810540Y-71159570D01*
X116793384Y-71182703D01*
X116774043Y-71204043D01*
X116752703Y-71223384D01*
X116729570Y-71240540D01*
X116704867Y-71255347D01*
X116678832Y-71267660D01*
X116651715Y-71277363D01*
X116623778Y-71284361D01*
X116595289Y-71288587D01*
X116566523Y-71290000D01*
X115553477Y-71290000D01*
X115524711Y-71288587D01*
X115496222Y-71284361D01*
X115468285Y-71277363D01*
X115441168Y-71267660D01*
X115415133Y-71255347D01*
X115390430Y-71240540D01*
X115367297Y-71223384D01*
X115345957Y-71204043D01*
X115326616Y-71182703D01*
X115309460Y-71159570D01*
X115294653Y-71134867D01*
X115282340Y-71108832D01*
X115272637Y-71081715D01*
X115265639Y-71053778D01*
X115261413Y-71025289D01*
X115260000Y-70996523D01*
X115260000Y-70233477D01*
X115261413Y-70204711D01*
X115265639Y-70176222D01*
X115272637Y-70148285D01*
X115282340Y-70121168D01*
X115294653Y-70095133D01*
X115309460Y-70070430D01*
X115326616Y-70047297D01*
X115345957Y-70025957D01*
X115367297Y-70006616D01*
X115390430Y-69989460D01*
X115415133Y-69974653D01*
X115441168Y-69962340D01*
X115468285Y-69952637D01*
X115496222Y-69945639D01*
X115524711Y-69941413D01*
X115553477Y-69940000D01*
X116566523Y-69940000D01*
X116595289Y-69941413D01*
X116595289Y-69941413D01*
G37*
D16*
X116060000Y-70615000D03*
D14*
G36*
X116595289Y-71991413D02*
G01*
X116623778Y-71995639D01*
X116651715Y-72002637D01*
X116678832Y-72012340D01*
X116704867Y-72024653D01*
X116729570Y-72039460D01*
X116752703Y-72056616D01*
X116774043Y-72075957D01*
X116793384Y-72097297D01*
X116810540Y-72120430D01*
X116825347Y-72145133D01*
X116837660Y-72171168D01*
X116847363Y-72198285D01*
X116854361Y-72226222D01*
X116858587Y-72254711D01*
X116860000Y-72283477D01*
X116860000Y-73046523D01*
X116858587Y-73075289D01*
X116854361Y-73103778D01*
X116847363Y-73131715D01*
X116837660Y-73158832D01*
X116825347Y-73184867D01*
X116810540Y-73209570D01*
X116793384Y-73232703D01*
X116774043Y-73254043D01*
X116752703Y-73273384D01*
X116729570Y-73290540D01*
X116704867Y-73305347D01*
X116678832Y-73317660D01*
X116651715Y-73327363D01*
X116623778Y-73334361D01*
X116595289Y-73338587D01*
X116566523Y-73340000D01*
X115553477Y-73340000D01*
X115524711Y-73338587D01*
X115496222Y-73334361D01*
X115468285Y-73327363D01*
X115441168Y-73317660D01*
X115415133Y-73305347D01*
X115390430Y-73290540D01*
X115367297Y-73273384D01*
X115345957Y-73254043D01*
X115326616Y-73232703D01*
X115309460Y-73209570D01*
X115294653Y-73184867D01*
X115282340Y-73158832D01*
X115272637Y-73131715D01*
X115265639Y-73103778D01*
X115261413Y-73075289D01*
X115260000Y-73046523D01*
X115260000Y-72283477D01*
X115261413Y-72254711D01*
X115265639Y-72226222D01*
X115272637Y-72198285D01*
X115282340Y-72171168D01*
X115294653Y-72145133D01*
X115309460Y-72120430D01*
X115326616Y-72097297D01*
X115345957Y-72075957D01*
X115367297Y-72056616D01*
X115390430Y-72039460D01*
X115415133Y-72024653D01*
X115441168Y-72012340D01*
X115468285Y-72002637D01*
X115496222Y-71995639D01*
X115524711Y-71991413D01*
X115553477Y-71990000D01*
X116566523Y-71990000D01*
X116595289Y-71991413D01*
X116595289Y-71991413D01*
G37*
D16*
X116060000Y-72665000D03*
D14*
G36*
X104117289Y-87968413D02*
G01*
X104145778Y-87972639D01*
X104173715Y-87979637D01*
X104200832Y-87989340D01*
X104226867Y-88001653D01*
X104251570Y-88016460D01*
X104274703Y-88033616D01*
X104296043Y-88052957D01*
X104315384Y-88074297D01*
X104332540Y-88097430D01*
X104347347Y-88122133D01*
X104359660Y-88148168D01*
X104369363Y-88175285D01*
X104376361Y-88203222D01*
X104380587Y-88231711D01*
X104382000Y-88260477D01*
X104382000Y-89273523D01*
X104380587Y-89302289D01*
X104376361Y-89330778D01*
X104369363Y-89358715D01*
X104359660Y-89385832D01*
X104347347Y-89411867D01*
X104332540Y-89436570D01*
X104315384Y-89459703D01*
X104296043Y-89481043D01*
X104274703Y-89500384D01*
X104251570Y-89517540D01*
X104226867Y-89532347D01*
X104200832Y-89544660D01*
X104173715Y-89554363D01*
X104145778Y-89561361D01*
X104117289Y-89565587D01*
X104088523Y-89567000D01*
X103325477Y-89567000D01*
X103296711Y-89565587D01*
X103268222Y-89561361D01*
X103240285Y-89554363D01*
X103213168Y-89544660D01*
X103187133Y-89532347D01*
X103162430Y-89517540D01*
X103139297Y-89500384D01*
X103117957Y-89481043D01*
X103098616Y-89459703D01*
X103081460Y-89436570D01*
X103066653Y-89411867D01*
X103054340Y-89385832D01*
X103044637Y-89358715D01*
X103037639Y-89330778D01*
X103033413Y-89302289D01*
X103032000Y-89273523D01*
X103032000Y-88260477D01*
X103033413Y-88231711D01*
X103037639Y-88203222D01*
X103044637Y-88175285D01*
X103054340Y-88148168D01*
X103066653Y-88122133D01*
X103081460Y-88097430D01*
X103098616Y-88074297D01*
X103117957Y-88052957D01*
X103139297Y-88033616D01*
X103162430Y-88016460D01*
X103187133Y-88001653D01*
X103213168Y-87989340D01*
X103240285Y-87979637D01*
X103268222Y-87972639D01*
X103296711Y-87968413D01*
X103325477Y-87967000D01*
X104088523Y-87967000D01*
X104117289Y-87968413D01*
X104117289Y-87968413D01*
G37*
D16*
X103707000Y-88767000D03*
D14*
G36*
X102067289Y-87968413D02*
G01*
X102095778Y-87972639D01*
X102123715Y-87979637D01*
X102150832Y-87989340D01*
X102176867Y-88001653D01*
X102201570Y-88016460D01*
X102224703Y-88033616D01*
X102246043Y-88052957D01*
X102265384Y-88074297D01*
X102282540Y-88097430D01*
X102297347Y-88122133D01*
X102309660Y-88148168D01*
X102319363Y-88175285D01*
X102326361Y-88203222D01*
X102330587Y-88231711D01*
X102332000Y-88260477D01*
X102332000Y-89273523D01*
X102330587Y-89302289D01*
X102326361Y-89330778D01*
X102319363Y-89358715D01*
X102309660Y-89385832D01*
X102297347Y-89411867D01*
X102282540Y-89436570D01*
X102265384Y-89459703D01*
X102246043Y-89481043D01*
X102224703Y-89500384D01*
X102201570Y-89517540D01*
X102176867Y-89532347D01*
X102150832Y-89544660D01*
X102123715Y-89554363D01*
X102095778Y-89561361D01*
X102067289Y-89565587D01*
X102038523Y-89567000D01*
X101275477Y-89567000D01*
X101246711Y-89565587D01*
X101218222Y-89561361D01*
X101190285Y-89554363D01*
X101163168Y-89544660D01*
X101137133Y-89532347D01*
X101112430Y-89517540D01*
X101089297Y-89500384D01*
X101067957Y-89481043D01*
X101048616Y-89459703D01*
X101031460Y-89436570D01*
X101016653Y-89411867D01*
X101004340Y-89385832D01*
X100994637Y-89358715D01*
X100987639Y-89330778D01*
X100983413Y-89302289D01*
X100982000Y-89273523D01*
X100982000Y-88260477D01*
X100983413Y-88231711D01*
X100987639Y-88203222D01*
X100994637Y-88175285D01*
X101004340Y-88148168D01*
X101016653Y-88122133D01*
X101031460Y-88097430D01*
X101048616Y-88074297D01*
X101067957Y-88052957D01*
X101089297Y-88033616D01*
X101112430Y-88016460D01*
X101137133Y-88001653D01*
X101163168Y-87989340D01*
X101190285Y-87979637D01*
X101218222Y-87972639D01*
X101246711Y-87968413D01*
X101275477Y-87967000D01*
X102038523Y-87967000D01*
X102067289Y-87968413D01*
X102067289Y-87968413D01*
G37*
D16*
X101657000Y-88767000D03*
D14*
G36*
X110210289Y-71866913D02*
G01*
X110238778Y-71871139D01*
X110266715Y-71878137D01*
X110293832Y-71887840D01*
X110319867Y-71900153D01*
X110344570Y-71914960D01*
X110367703Y-71932116D01*
X110389043Y-71951457D01*
X110408384Y-71972797D01*
X110425540Y-71995930D01*
X110440347Y-72020633D01*
X110452660Y-72046668D01*
X110462363Y-72073785D01*
X110469361Y-72101722D01*
X110473587Y-72130211D01*
X110475000Y-72158977D01*
X110475000Y-73172023D01*
X110473587Y-73200789D01*
X110469361Y-73229278D01*
X110462363Y-73257215D01*
X110452660Y-73284332D01*
X110440347Y-73310367D01*
X110425540Y-73335070D01*
X110408384Y-73358203D01*
X110389043Y-73379543D01*
X110367703Y-73398884D01*
X110344570Y-73416040D01*
X110319867Y-73430847D01*
X110293832Y-73443160D01*
X110266715Y-73452863D01*
X110238778Y-73459861D01*
X110210289Y-73464087D01*
X110181523Y-73465500D01*
X109418477Y-73465500D01*
X109389711Y-73464087D01*
X109361222Y-73459861D01*
X109333285Y-73452863D01*
X109306168Y-73443160D01*
X109280133Y-73430847D01*
X109255430Y-73416040D01*
X109232297Y-73398884D01*
X109210957Y-73379543D01*
X109191616Y-73358203D01*
X109174460Y-73335070D01*
X109159653Y-73310367D01*
X109147340Y-73284332D01*
X109137637Y-73257215D01*
X109130639Y-73229278D01*
X109126413Y-73200789D01*
X109125000Y-73172023D01*
X109125000Y-72158977D01*
X109126413Y-72130211D01*
X109130639Y-72101722D01*
X109137637Y-72073785D01*
X109147340Y-72046668D01*
X109159653Y-72020633D01*
X109174460Y-71995930D01*
X109191616Y-71972797D01*
X109210957Y-71951457D01*
X109232297Y-71932116D01*
X109255430Y-71914960D01*
X109280133Y-71900153D01*
X109306168Y-71887840D01*
X109333285Y-71878137D01*
X109361222Y-71871139D01*
X109389711Y-71866913D01*
X109418477Y-71865500D01*
X110181523Y-71865500D01*
X110210289Y-71866913D01*
X110210289Y-71866913D01*
G37*
D16*
X109800000Y-72665500D03*
D14*
G36*
X108160289Y-71866913D02*
G01*
X108188778Y-71871139D01*
X108216715Y-71878137D01*
X108243832Y-71887840D01*
X108269867Y-71900153D01*
X108294570Y-71914960D01*
X108317703Y-71932116D01*
X108339043Y-71951457D01*
X108358384Y-71972797D01*
X108375540Y-71995930D01*
X108390347Y-72020633D01*
X108402660Y-72046668D01*
X108412363Y-72073785D01*
X108419361Y-72101722D01*
X108423587Y-72130211D01*
X108425000Y-72158977D01*
X108425000Y-73172023D01*
X108423587Y-73200789D01*
X108419361Y-73229278D01*
X108412363Y-73257215D01*
X108402660Y-73284332D01*
X108390347Y-73310367D01*
X108375540Y-73335070D01*
X108358384Y-73358203D01*
X108339043Y-73379543D01*
X108317703Y-73398884D01*
X108294570Y-73416040D01*
X108269867Y-73430847D01*
X108243832Y-73443160D01*
X108216715Y-73452863D01*
X108188778Y-73459861D01*
X108160289Y-73464087D01*
X108131523Y-73465500D01*
X107368477Y-73465500D01*
X107339711Y-73464087D01*
X107311222Y-73459861D01*
X107283285Y-73452863D01*
X107256168Y-73443160D01*
X107230133Y-73430847D01*
X107205430Y-73416040D01*
X107182297Y-73398884D01*
X107160957Y-73379543D01*
X107141616Y-73358203D01*
X107124460Y-73335070D01*
X107109653Y-73310367D01*
X107097340Y-73284332D01*
X107087637Y-73257215D01*
X107080639Y-73229278D01*
X107076413Y-73200789D01*
X107075000Y-73172023D01*
X107075000Y-72158977D01*
X107076413Y-72130211D01*
X107080639Y-72101722D01*
X107087637Y-72073785D01*
X107097340Y-72046668D01*
X107109653Y-72020633D01*
X107124460Y-71995930D01*
X107141616Y-71972797D01*
X107160957Y-71951457D01*
X107182297Y-71932116D01*
X107205430Y-71914960D01*
X107230133Y-71900153D01*
X107256168Y-71887840D01*
X107283285Y-71878137D01*
X107311222Y-71871139D01*
X107339711Y-71866913D01*
X107368477Y-71865500D01*
X108131523Y-71865500D01*
X108160289Y-71866913D01*
X108160289Y-71866913D01*
G37*
D16*
X107750000Y-72665500D03*
D14*
G36*
X97828789Y-90125413D02*
G01*
X97857278Y-90129639D01*
X97885215Y-90136637D01*
X97912332Y-90146340D01*
X97938367Y-90158653D01*
X97963070Y-90173460D01*
X97986203Y-90190616D01*
X98007543Y-90209957D01*
X98026884Y-90231297D01*
X98044040Y-90254430D01*
X98058847Y-90279133D01*
X98071160Y-90305168D01*
X98080863Y-90332285D01*
X98087861Y-90360222D01*
X98092087Y-90388711D01*
X98093500Y-90417477D01*
X98093500Y-91180523D01*
X98092087Y-91209289D01*
X98087861Y-91237778D01*
X98080863Y-91265715D01*
X98071160Y-91292832D01*
X98058847Y-91318867D01*
X98044040Y-91343570D01*
X98026884Y-91366703D01*
X98007543Y-91388043D01*
X97986203Y-91407384D01*
X97963070Y-91424540D01*
X97938367Y-91439347D01*
X97912332Y-91451660D01*
X97885215Y-91461363D01*
X97857278Y-91468361D01*
X97828789Y-91472587D01*
X97800023Y-91474000D01*
X96786977Y-91474000D01*
X96758211Y-91472587D01*
X96729722Y-91468361D01*
X96701785Y-91461363D01*
X96674668Y-91451660D01*
X96648633Y-91439347D01*
X96623930Y-91424540D01*
X96600797Y-91407384D01*
X96579457Y-91388043D01*
X96560116Y-91366703D01*
X96542960Y-91343570D01*
X96528153Y-91318867D01*
X96515840Y-91292832D01*
X96506137Y-91265715D01*
X96499139Y-91237778D01*
X96494913Y-91209289D01*
X96493500Y-91180523D01*
X96493500Y-90417477D01*
X96494913Y-90388711D01*
X96499139Y-90360222D01*
X96506137Y-90332285D01*
X96515840Y-90305168D01*
X96528153Y-90279133D01*
X96542960Y-90254430D01*
X96560116Y-90231297D01*
X96579457Y-90209957D01*
X96600797Y-90190616D01*
X96623930Y-90173460D01*
X96648633Y-90158653D01*
X96674668Y-90146340D01*
X96701785Y-90136637D01*
X96729722Y-90129639D01*
X96758211Y-90125413D01*
X96786977Y-90124000D01*
X97800023Y-90124000D01*
X97828789Y-90125413D01*
X97828789Y-90125413D01*
G37*
D16*
X97293500Y-90799000D03*
D14*
G36*
X97828789Y-88075413D02*
G01*
X97857278Y-88079639D01*
X97885215Y-88086637D01*
X97912332Y-88096340D01*
X97938367Y-88108653D01*
X97963070Y-88123460D01*
X97986203Y-88140616D01*
X98007543Y-88159957D01*
X98026884Y-88181297D01*
X98044040Y-88204430D01*
X98058847Y-88229133D01*
X98071160Y-88255168D01*
X98080863Y-88282285D01*
X98087861Y-88310222D01*
X98092087Y-88338711D01*
X98093500Y-88367477D01*
X98093500Y-89130523D01*
X98092087Y-89159289D01*
X98087861Y-89187778D01*
X98080863Y-89215715D01*
X98071160Y-89242832D01*
X98058847Y-89268867D01*
X98044040Y-89293570D01*
X98026884Y-89316703D01*
X98007543Y-89338043D01*
X97986203Y-89357384D01*
X97963070Y-89374540D01*
X97938367Y-89389347D01*
X97912332Y-89401660D01*
X97885215Y-89411363D01*
X97857278Y-89418361D01*
X97828789Y-89422587D01*
X97800023Y-89424000D01*
X96786977Y-89424000D01*
X96758211Y-89422587D01*
X96729722Y-89418361D01*
X96701785Y-89411363D01*
X96674668Y-89401660D01*
X96648633Y-89389347D01*
X96623930Y-89374540D01*
X96600797Y-89357384D01*
X96579457Y-89338043D01*
X96560116Y-89316703D01*
X96542960Y-89293570D01*
X96528153Y-89268867D01*
X96515840Y-89242832D01*
X96506137Y-89215715D01*
X96499139Y-89187778D01*
X96494913Y-89159289D01*
X96493500Y-89130523D01*
X96493500Y-88367477D01*
X96494913Y-88338711D01*
X96499139Y-88310222D01*
X96506137Y-88282285D01*
X96515840Y-88255168D01*
X96528153Y-88229133D01*
X96542960Y-88204430D01*
X96560116Y-88181297D01*
X96579457Y-88159957D01*
X96600797Y-88140616D01*
X96623930Y-88123460D01*
X96648633Y-88108653D01*
X96674668Y-88096340D01*
X96701785Y-88086637D01*
X96729722Y-88079639D01*
X96758211Y-88075413D01*
X96786977Y-88074000D01*
X97800023Y-88074000D01*
X97828789Y-88075413D01*
X97828789Y-88075413D01*
G37*
D16*
X97293500Y-88749000D03*
D12*
X140779500Y-70612000D03*
D13*
X138239500Y-70612000D03*
D26*
X141546500Y-102679500D03*
D14*
G36*
X143144579Y-105199009D02*
G01*
X143138888Y-105217768D01*
X143129647Y-105235057D01*
X143117211Y-105250211D01*
X143102057Y-105262647D01*
X143084768Y-105271888D01*
X143066009Y-105277579D01*
X143046500Y-105279500D01*
X140046500Y-105279500D01*
X140026991Y-105277579D01*
X140008232Y-105271888D01*
X139990943Y-105262647D01*
X139975789Y-105250211D01*
X139963353Y-105235057D01*
X139954112Y-105217768D01*
X139948421Y-105199009D01*
X139946500Y-105179500D01*
X139946500Y-100179500D01*
X139948421Y-100159991D01*
X139954112Y-100141232D01*
X139963353Y-100123943D01*
X139975789Y-100108789D01*
X139990943Y-100096353D01*
X140008232Y-100087112D01*
X140026991Y-100081421D01*
X140046500Y-100079500D01*
X143046500Y-100079500D01*
X143066009Y-100081421D01*
X143084768Y-100087112D01*
X143102057Y-100096353D01*
X143117211Y-100108789D01*
X143129647Y-100123943D01*
X143138888Y-100141232D01*
X143144579Y-100159991D01*
X143146500Y-100179500D01*
X143146500Y-105179500D01*
X143144579Y-105199009D01*
X143144579Y-105199009D01*
G37*
D27*
X138828000Y-102679500D03*
D14*
G36*
X139676079Y-103249009D02*
G01*
X139670388Y-103267768D01*
X139661147Y-103285057D01*
X139648711Y-103300211D01*
X139633557Y-103312647D01*
X139616268Y-103321888D01*
X139597509Y-103327579D01*
X139578000Y-103329500D01*
X138078000Y-103329500D01*
X138058491Y-103327579D01*
X138039732Y-103321888D01*
X138022443Y-103312647D01*
X138007289Y-103300211D01*
X137994853Y-103285057D01*
X137985612Y-103267768D01*
X137979921Y-103249009D01*
X137978000Y-103229500D01*
X137978000Y-102129500D01*
X137979921Y-102109991D01*
X137985612Y-102091232D01*
X137994853Y-102073943D01*
X138007289Y-102058789D01*
X138022443Y-102046353D01*
X138039732Y-102037112D01*
X138058491Y-102031421D01*
X138078000Y-102029500D01*
X139578000Y-102029500D01*
X139597509Y-102031421D01*
X139616268Y-102037112D01*
X139633557Y-102046353D01*
X139648711Y-102058789D01*
X139661147Y-102073943D01*
X139670388Y-102091232D01*
X139676079Y-102109991D01*
X139678000Y-102129500D01*
X139678000Y-103229500D01*
X139676079Y-103249009D01*
X139676079Y-103249009D01*
G37*
D28*
X138828000Y-104179500D03*
D14*
G36*
X139676079Y-104599009D02*
G01*
X139670388Y-104617768D01*
X139661147Y-104635057D01*
X139648711Y-104650211D01*
X139633557Y-104662647D01*
X139616268Y-104671888D01*
X139597509Y-104677579D01*
X139578000Y-104679500D01*
X138078000Y-104679500D01*
X138058491Y-104677579D01*
X138039732Y-104671888D01*
X138022443Y-104662647D01*
X138007289Y-104650211D01*
X137994853Y-104635057D01*
X137985612Y-104617768D01*
X137979921Y-104599009D01*
X137978000Y-104579500D01*
X137978000Y-103779500D01*
X137979921Y-103759991D01*
X137985612Y-103741232D01*
X137994853Y-103723943D01*
X138007289Y-103708789D01*
X138022443Y-103696353D01*
X138039732Y-103687112D01*
X138058491Y-103681421D01*
X138078000Y-103679500D01*
X139578000Y-103679500D01*
X139597509Y-103681421D01*
X139616268Y-103687112D01*
X139633557Y-103696353D01*
X139648711Y-103708789D01*
X139661147Y-103723943D01*
X139670388Y-103741232D01*
X139676079Y-103759991D01*
X139678000Y-103779500D01*
X139678000Y-104579500D01*
X139676079Y-104599009D01*
X139676079Y-104599009D01*
G37*
D28*
X138828000Y-101179500D03*
D14*
G36*
X139676079Y-101599009D02*
G01*
X139670388Y-101617768D01*
X139661147Y-101635057D01*
X139648711Y-101650211D01*
X139633557Y-101662647D01*
X139616268Y-101671888D01*
X139597509Y-101677579D01*
X139578000Y-101679500D01*
X138078000Y-101679500D01*
X138058491Y-101677579D01*
X138039732Y-101671888D01*
X138022443Y-101662647D01*
X138007289Y-101650211D01*
X137994853Y-101635057D01*
X137985612Y-101617768D01*
X137979921Y-101599009D01*
X137978000Y-101579500D01*
X137978000Y-100779500D01*
X137979921Y-100759991D01*
X137985612Y-100741232D01*
X137994853Y-100723943D01*
X138007289Y-100708789D01*
X138022443Y-100696353D01*
X138039732Y-100687112D01*
X138058491Y-100681421D01*
X138078000Y-100679500D01*
X139578000Y-100679500D01*
X139597509Y-100681421D01*
X139616268Y-100687112D01*
X139633557Y-100696353D01*
X139648711Y-100708789D01*
X139661147Y-100723943D01*
X139670388Y-100741232D01*
X139676079Y-100759991D01*
X139678000Y-100779500D01*
X139678000Y-101579500D01*
X139676079Y-101599009D01*
X139676079Y-101599009D01*
G37*
G36*
X84610289Y-89761413D02*
G01*
X84638778Y-89765639D01*
X84666715Y-89772637D01*
X84693832Y-89782340D01*
X84719867Y-89794653D01*
X84744570Y-89809460D01*
X84767703Y-89826616D01*
X84789043Y-89845957D01*
X84808384Y-89867297D01*
X84825540Y-89890430D01*
X84840347Y-89915133D01*
X84852660Y-89941168D01*
X84862363Y-89968285D01*
X84869361Y-89996222D01*
X84873587Y-90024711D01*
X84875000Y-90053477D01*
X84875000Y-91066523D01*
X84873587Y-91095289D01*
X84869361Y-91123778D01*
X84862363Y-91151715D01*
X84852660Y-91178832D01*
X84840347Y-91204867D01*
X84825540Y-91229570D01*
X84808384Y-91252703D01*
X84789043Y-91274043D01*
X84767703Y-91293384D01*
X84744570Y-91310540D01*
X84719867Y-91325347D01*
X84693832Y-91337660D01*
X84666715Y-91347363D01*
X84638778Y-91354361D01*
X84610289Y-91358587D01*
X84581523Y-91360000D01*
X83818477Y-91360000D01*
X83789711Y-91358587D01*
X83761222Y-91354361D01*
X83733285Y-91347363D01*
X83706168Y-91337660D01*
X83680133Y-91325347D01*
X83655430Y-91310540D01*
X83632297Y-91293384D01*
X83610957Y-91274043D01*
X83591616Y-91252703D01*
X83574460Y-91229570D01*
X83559653Y-91204867D01*
X83547340Y-91178832D01*
X83537637Y-91151715D01*
X83530639Y-91123778D01*
X83526413Y-91095289D01*
X83525000Y-91066523D01*
X83525000Y-90053477D01*
X83526413Y-90024711D01*
X83530639Y-89996222D01*
X83537637Y-89968285D01*
X83547340Y-89941168D01*
X83559653Y-89915133D01*
X83574460Y-89890430D01*
X83591616Y-89867297D01*
X83610957Y-89845957D01*
X83632297Y-89826616D01*
X83655430Y-89809460D01*
X83680133Y-89794653D01*
X83706168Y-89782340D01*
X83733285Y-89772637D01*
X83761222Y-89765639D01*
X83789711Y-89761413D01*
X83818477Y-89760000D01*
X84581523Y-89760000D01*
X84610289Y-89761413D01*
X84610289Y-89761413D01*
G37*
D16*
X84200000Y-90560000D03*
D14*
G36*
X82560289Y-89761413D02*
G01*
X82588778Y-89765639D01*
X82616715Y-89772637D01*
X82643832Y-89782340D01*
X82669867Y-89794653D01*
X82694570Y-89809460D01*
X82717703Y-89826616D01*
X82739043Y-89845957D01*
X82758384Y-89867297D01*
X82775540Y-89890430D01*
X82790347Y-89915133D01*
X82802660Y-89941168D01*
X82812363Y-89968285D01*
X82819361Y-89996222D01*
X82823587Y-90024711D01*
X82825000Y-90053477D01*
X82825000Y-91066523D01*
X82823587Y-91095289D01*
X82819361Y-91123778D01*
X82812363Y-91151715D01*
X82802660Y-91178832D01*
X82790347Y-91204867D01*
X82775540Y-91229570D01*
X82758384Y-91252703D01*
X82739043Y-91274043D01*
X82717703Y-91293384D01*
X82694570Y-91310540D01*
X82669867Y-91325347D01*
X82643832Y-91337660D01*
X82616715Y-91347363D01*
X82588778Y-91354361D01*
X82560289Y-91358587D01*
X82531523Y-91360000D01*
X81768477Y-91360000D01*
X81739711Y-91358587D01*
X81711222Y-91354361D01*
X81683285Y-91347363D01*
X81656168Y-91337660D01*
X81630133Y-91325347D01*
X81605430Y-91310540D01*
X81582297Y-91293384D01*
X81560957Y-91274043D01*
X81541616Y-91252703D01*
X81524460Y-91229570D01*
X81509653Y-91204867D01*
X81497340Y-91178832D01*
X81487637Y-91151715D01*
X81480639Y-91123778D01*
X81476413Y-91095289D01*
X81475000Y-91066523D01*
X81475000Y-90053477D01*
X81476413Y-90024711D01*
X81480639Y-89996222D01*
X81487637Y-89968285D01*
X81497340Y-89941168D01*
X81509653Y-89915133D01*
X81524460Y-89890430D01*
X81541616Y-89867297D01*
X81560957Y-89845957D01*
X81582297Y-89826616D01*
X81605430Y-89809460D01*
X81630133Y-89794653D01*
X81656168Y-89782340D01*
X81683285Y-89772637D01*
X81711222Y-89765639D01*
X81739711Y-89761413D01*
X81768477Y-89760000D01*
X82531523Y-89760000D01*
X82560289Y-89761413D01*
X82560289Y-89761413D01*
G37*
D16*
X82150000Y-90560000D03*
D14*
G36*
X125133289Y-104103413D02*
G01*
X125161778Y-104107639D01*
X125189715Y-104114637D01*
X125216832Y-104124340D01*
X125242867Y-104136653D01*
X125267570Y-104151460D01*
X125290703Y-104168616D01*
X125312043Y-104187957D01*
X125331384Y-104209297D01*
X125348540Y-104232430D01*
X125363347Y-104257133D01*
X125375660Y-104283168D01*
X125385363Y-104310285D01*
X125392361Y-104338222D01*
X125396587Y-104366711D01*
X125398000Y-104395477D01*
X125398000Y-105408523D01*
X125396587Y-105437289D01*
X125392361Y-105465778D01*
X125385363Y-105493715D01*
X125375660Y-105520832D01*
X125363347Y-105546867D01*
X125348540Y-105571570D01*
X125331384Y-105594703D01*
X125312043Y-105616043D01*
X125290703Y-105635384D01*
X125267570Y-105652540D01*
X125242867Y-105667347D01*
X125216832Y-105679660D01*
X125189715Y-105689363D01*
X125161778Y-105696361D01*
X125133289Y-105700587D01*
X125104523Y-105702000D01*
X124341477Y-105702000D01*
X124312711Y-105700587D01*
X124284222Y-105696361D01*
X124256285Y-105689363D01*
X124229168Y-105679660D01*
X124203133Y-105667347D01*
X124178430Y-105652540D01*
X124155297Y-105635384D01*
X124133957Y-105616043D01*
X124114616Y-105594703D01*
X124097460Y-105571570D01*
X124082653Y-105546867D01*
X124070340Y-105520832D01*
X124060637Y-105493715D01*
X124053639Y-105465778D01*
X124049413Y-105437289D01*
X124048000Y-105408523D01*
X124048000Y-104395477D01*
X124049413Y-104366711D01*
X124053639Y-104338222D01*
X124060637Y-104310285D01*
X124070340Y-104283168D01*
X124082653Y-104257133D01*
X124097460Y-104232430D01*
X124114616Y-104209297D01*
X124133957Y-104187957D01*
X124155297Y-104168616D01*
X124178430Y-104151460D01*
X124203133Y-104136653D01*
X124229168Y-104124340D01*
X124256285Y-104114637D01*
X124284222Y-104107639D01*
X124312711Y-104103413D01*
X124341477Y-104102000D01*
X125104523Y-104102000D01*
X125133289Y-104103413D01*
X125133289Y-104103413D01*
G37*
D16*
X124723000Y-104902000D03*
D14*
G36*
X123083289Y-104103413D02*
G01*
X123111778Y-104107639D01*
X123139715Y-104114637D01*
X123166832Y-104124340D01*
X123192867Y-104136653D01*
X123217570Y-104151460D01*
X123240703Y-104168616D01*
X123262043Y-104187957D01*
X123281384Y-104209297D01*
X123298540Y-104232430D01*
X123313347Y-104257133D01*
X123325660Y-104283168D01*
X123335363Y-104310285D01*
X123342361Y-104338222D01*
X123346587Y-104366711D01*
X123348000Y-104395477D01*
X123348000Y-105408523D01*
X123346587Y-105437289D01*
X123342361Y-105465778D01*
X123335363Y-105493715D01*
X123325660Y-105520832D01*
X123313347Y-105546867D01*
X123298540Y-105571570D01*
X123281384Y-105594703D01*
X123262043Y-105616043D01*
X123240703Y-105635384D01*
X123217570Y-105652540D01*
X123192867Y-105667347D01*
X123166832Y-105679660D01*
X123139715Y-105689363D01*
X123111778Y-105696361D01*
X123083289Y-105700587D01*
X123054523Y-105702000D01*
X122291477Y-105702000D01*
X122262711Y-105700587D01*
X122234222Y-105696361D01*
X122206285Y-105689363D01*
X122179168Y-105679660D01*
X122153133Y-105667347D01*
X122128430Y-105652540D01*
X122105297Y-105635384D01*
X122083957Y-105616043D01*
X122064616Y-105594703D01*
X122047460Y-105571570D01*
X122032653Y-105546867D01*
X122020340Y-105520832D01*
X122010637Y-105493715D01*
X122003639Y-105465778D01*
X121999413Y-105437289D01*
X121998000Y-105408523D01*
X121998000Y-104395477D01*
X121999413Y-104366711D01*
X122003639Y-104338222D01*
X122010637Y-104310285D01*
X122020340Y-104283168D01*
X122032653Y-104257133D01*
X122047460Y-104232430D01*
X122064616Y-104209297D01*
X122083957Y-104187957D01*
X122105297Y-104168616D01*
X122128430Y-104151460D01*
X122153133Y-104136653D01*
X122179168Y-104124340D01*
X122206285Y-104114637D01*
X122234222Y-104107639D01*
X122262711Y-104103413D01*
X122291477Y-104102000D01*
X123054523Y-104102000D01*
X123083289Y-104103413D01*
X123083289Y-104103413D01*
G37*
D16*
X122673000Y-104902000D03*
D14*
G36*
X101065289Y-111461413D02*
G01*
X101093778Y-111465639D01*
X101121715Y-111472637D01*
X101148832Y-111482340D01*
X101174867Y-111494653D01*
X101199570Y-111509460D01*
X101222703Y-111526616D01*
X101244043Y-111545957D01*
X101263384Y-111567297D01*
X101280540Y-111590430D01*
X101295347Y-111615133D01*
X101307660Y-111641168D01*
X101317363Y-111668285D01*
X101324361Y-111696222D01*
X101328587Y-111724711D01*
X101330000Y-111753477D01*
X101330000Y-112766523D01*
X101328587Y-112795289D01*
X101324361Y-112823778D01*
X101317363Y-112851715D01*
X101307660Y-112878832D01*
X101295347Y-112904867D01*
X101280540Y-112929570D01*
X101263384Y-112952703D01*
X101244043Y-112974043D01*
X101222703Y-112993384D01*
X101199570Y-113010540D01*
X101174867Y-113025347D01*
X101148832Y-113037660D01*
X101121715Y-113047363D01*
X101093778Y-113054361D01*
X101065289Y-113058587D01*
X101036523Y-113060000D01*
X100273477Y-113060000D01*
X100244711Y-113058587D01*
X100216222Y-113054361D01*
X100188285Y-113047363D01*
X100161168Y-113037660D01*
X100135133Y-113025347D01*
X100110430Y-113010540D01*
X100087297Y-112993384D01*
X100065957Y-112974043D01*
X100046616Y-112952703D01*
X100029460Y-112929570D01*
X100014653Y-112904867D01*
X100002340Y-112878832D01*
X99992637Y-112851715D01*
X99985639Y-112823778D01*
X99981413Y-112795289D01*
X99980000Y-112766523D01*
X99980000Y-111753477D01*
X99981413Y-111724711D01*
X99985639Y-111696222D01*
X99992637Y-111668285D01*
X100002340Y-111641168D01*
X100014653Y-111615133D01*
X100029460Y-111590430D01*
X100046616Y-111567297D01*
X100065957Y-111545957D01*
X100087297Y-111526616D01*
X100110430Y-111509460D01*
X100135133Y-111494653D01*
X100161168Y-111482340D01*
X100188285Y-111472637D01*
X100216222Y-111465639D01*
X100244711Y-111461413D01*
X100273477Y-111460000D01*
X101036523Y-111460000D01*
X101065289Y-111461413D01*
X101065289Y-111461413D01*
G37*
D16*
X100655000Y-112260000D03*
D14*
G36*
X103115289Y-111461413D02*
G01*
X103143778Y-111465639D01*
X103171715Y-111472637D01*
X103198832Y-111482340D01*
X103224867Y-111494653D01*
X103249570Y-111509460D01*
X103272703Y-111526616D01*
X103294043Y-111545957D01*
X103313384Y-111567297D01*
X103330540Y-111590430D01*
X103345347Y-111615133D01*
X103357660Y-111641168D01*
X103367363Y-111668285D01*
X103374361Y-111696222D01*
X103378587Y-111724711D01*
X103380000Y-111753477D01*
X103380000Y-112766523D01*
X103378587Y-112795289D01*
X103374361Y-112823778D01*
X103367363Y-112851715D01*
X103357660Y-112878832D01*
X103345347Y-112904867D01*
X103330540Y-112929570D01*
X103313384Y-112952703D01*
X103294043Y-112974043D01*
X103272703Y-112993384D01*
X103249570Y-113010540D01*
X103224867Y-113025347D01*
X103198832Y-113037660D01*
X103171715Y-113047363D01*
X103143778Y-113054361D01*
X103115289Y-113058587D01*
X103086523Y-113060000D01*
X102323477Y-113060000D01*
X102294711Y-113058587D01*
X102266222Y-113054361D01*
X102238285Y-113047363D01*
X102211168Y-113037660D01*
X102185133Y-113025347D01*
X102160430Y-113010540D01*
X102137297Y-112993384D01*
X102115957Y-112974043D01*
X102096616Y-112952703D01*
X102079460Y-112929570D01*
X102064653Y-112904867D01*
X102052340Y-112878832D01*
X102042637Y-112851715D01*
X102035639Y-112823778D01*
X102031413Y-112795289D01*
X102030000Y-112766523D01*
X102030000Y-111753477D01*
X102031413Y-111724711D01*
X102035639Y-111696222D01*
X102042637Y-111668285D01*
X102052340Y-111641168D01*
X102064653Y-111615133D01*
X102079460Y-111590430D01*
X102096616Y-111567297D01*
X102115957Y-111545957D01*
X102137297Y-111526616D01*
X102160430Y-111509460D01*
X102185133Y-111494653D01*
X102211168Y-111482340D01*
X102238285Y-111472637D01*
X102266222Y-111465639D01*
X102294711Y-111461413D01*
X102323477Y-111460000D01*
X103086523Y-111460000D01*
X103115289Y-111461413D01*
X103115289Y-111461413D01*
G37*
D16*
X102705000Y-112260000D03*
D14*
G36*
X133885289Y-109054413D02*
G01*
X133913778Y-109058639D01*
X133941715Y-109065637D01*
X133968832Y-109075340D01*
X133994867Y-109087653D01*
X134019570Y-109102460D01*
X134042703Y-109119616D01*
X134064043Y-109138957D01*
X134083384Y-109160297D01*
X134100540Y-109183430D01*
X134115347Y-109208133D01*
X134127660Y-109234168D01*
X134137363Y-109261285D01*
X134144361Y-109289222D01*
X134148587Y-109317711D01*
X134150000Y-109346477D01*
X134150000Y-110109523D01*
X134148587Y-110138289D01*
X134144361Y-110166778D01*
X134137363Y-110194715D01*
X134127660Y-110221832D01*
X134115347Y-110247867D01*
X134100540Y-110272570D01*
X134083384Y-110295703D01*
X134064043Y-110317043D01*
X134042703Y-110336384D01*
X134019570Y-110353540D01*
X133994867Y-110368347D01*
X133968832Y-110380660D01*
X133941715Y-110390363D01*
X133913778Y-110397361D01*
X133885289Y-110401587D01*
X133856523Y-110403000D01*
X132843477Y-110403000D01*
X132814711Y-110401587D01*
X132786222Y-110397361D01*
X132758285Y-110390363D01*
X132731168Y-110380660D01*
X132705133Y-110368347D01*
X132680430Y-110353540D01*
X132657297Y-110336384D01*
X132635957Y-110317043D01*
X132616616Y-110295703D01*
X132599460Y-110272570D01*
X132584653Y-110247867D01*
X132572340Y-110221832D01*
X132562637Y-110194715D01*
X132555639Y-110166778D01*
X132551413Y-110138289D01*
X132550000Y-110109523D01*
X132550000Y-109346477D01*
X132551413Y-109317711D01*
X132555639Y-109289222D01*
X132562637Y-109261285D01*
X132572340Y-109234168D01*
X132584653Y-109208133D01*
X132599460Y-109183430D01*
X132616616Y-109160297D01*
X132635957Y-109138957D01*
X132657297Y-109119616D01*
X132680430Y-109102460D01*
X132705133Y-109087653D01*
X132731168Y-109075340D01*
X132758285Y-109065637D01*
X132786222Y-109058639D01*
X132814711Y-109054413D01*
X132843477Y-109053000D01*
X133856523Y-109053000D01*
X133885289Y-109054413D01*
X133885289Y-109054413D01*
G37*
D16*
X133350000Y-109728000D03*
D14*
G36*
X133885289Y-107004413D02*
G01*
X133913778Y-107008639D01*
X133941715Y-107015637D01*
X133968832Y-107025340D01*
X133994867Y-107037653D01*
X134019570Y-107052460D01*
X134042703Y-107069616D01*
X134064043Y-107088957D01*
X134083384Y-107110297D01*
X134100540Y-107133430D01*
X134115347Y-107158133D01*
X134127660Y-107184168D01*
X134137363Y-107211285D01*
X134144361Y-107239222D01*
X134148587Y-107267711D01*
X134150000Y-107296477D01*
X134150000Y-108059523D01*
X134148587Y-108088289D01*
X134144361Y-108116778D01*
X134137363Y-108144715D01*
X134127660Y-108171832D01*
X134115347Y-108197867D01*
X134100540Y-108222570D01*
X134083384Y-108245703D01*
X134064043Y-108267043D01*
X134042703Y-108286384D01*
X134019570Y-108303540D01*
X133994867Y-108318347D01*
X133968832Y-108330660D01*
X133941715Y-108340363D01*
X133913778Y-108347361D01*
X133885289Y-108351587D01*
X133856523Y-108353000D01*
X132843477Y-108353000D01*
X132814711Y-108351587D01*
X132786222Y-108347361D01*
X132758285Y-108340363D01*
X132731168Y-108330660D01*
X132705133Y-108318347D01*
X132680430Y-108303540D01*
X132657297Y-108286384D01*
X132635957Y-108267043D01*
X132616616Y-108245703D01*
X132599460Y-108222570D01*
X132584653Y-108197867D01*
X132572340Y-108171832D01*
X132562637Y-108144715D01*
X132555639Y-108116778D01*
X132551413Y-108088289D01*
X132550000Y-108059523D01*
X132550000Y-107296477D01*
X132551413Y-107267711D01*
X132555639Y-107239222D01*
X132562637Y-107211285D01*
X132572340Y-107184168D01*
X132584653Y-107158133D01*
X132599460Y-107133430D01*
X132616616Y-107110297D01*
X132635957Y-107088957D01*
X132657297Y-107069616D01*
X132680430Y-107052460D01*
X132705133Y-107037653D01*
X132731168Y-107025340D01*
X132758285Y-107015637D01*
X132786222Y-107008639D01*
X132814711Y-107004413D01*
X132843477Y-107003000D01*
X133856523Y-107003000D01*
X133885289Y-107004413D01*
X133885289Y-107004413D01*
G37*
D16*
X133350000Y-107678000D03*
D14*
G36*
X118895289Y-75536413D02*
G01*
X118923778Y-75540639D01*
X118951715Y-75547637D01*
X118978832Y-75557340D01*
X119004867Y-75569653D01*
X119029570Y-75584460D01*
X119052703Y-75601616D01*
X119074043Y-75620957D01*
X119093384Y-75642297D01*
X119110540Y-75665430D01*
X119125347Y-75690133D01*
X119137660Y-75716168D01*
X119147363Y-75743285D01*
X119154361Y-75771222D01*
X119158587Y-75799711D01*
X119160000Y-75828477D01*
X119160000Y-76591523D01*
X119158587Y-76620289D01*
X119154361Y-76648778D01*
X119147363Y-76676715D01*
X119137660Y-76703832D01*
X119125347Y-76729867D01*
X119110540Y-76754570D01*
X119093384Y-76777703D01*
X119074043Y-76799043D01*
X119052703Y-76818384D01*
X119029570Y-76835540D01*
X119004867Y-76850347D01*
X118978832Y-76862660D01*
X118951715Y-76872363D01*
X118923778Y-76879361D01*
X118895289Y-76883587D01*
X118866523Y-76885000D01*
X117853477Y-76885000D01*
X117824711Y-76883587D01*
X117796222Y-76879361D01*
X117768285Y-76872363D01*
X117741168Y-76862660D01*
X117715133Y-76850347D01*
X117690430Y-76835540D01*
X117667297Y-76818384D01*
X117645957Y-76799043D01*
X117626616Y-76777703D01*
X117609460Y-76754570D01*
X117594653Y-76729867D01*
X117582340Y-76703832D01*
X117572637Y-76676715D01*
X117565639Y-76648778D01*
X117561413Y-76620289D01*
X117560000Y-76591523D01*
X117560000Y-75828477D01*
X117561413Y-75799711D01*
X117565639Y-75771222D01*
X117572637Y-75743285D01*
X117582340Y-75716168D01*
X117594653Y-75690133D01*
X117609460Y-75665430D01*
X117626616Y-75642297D01*
X117645957Y-75620957D01*
X117667297Y-75601616D01*
X117690430Y-75584460D01*
X117715133Y-75569653D01*
X117741168Y-75557340D01*
X117768285Y-75547637D01*
X117796222Y-75540639D01*
X117824711Y-75536413D01*
X117853477Y-75535000D01*
X118866523Y-75535000D01*
X118895289Y-75536413D01*
X118895289Y-75536413D01*
G37*
D16*
X118360000Y-76210000D03*
D14*
G36*
X118895289Y-77586413D02*
G01*
X118923778Y-77590639D01*
X118951715Y-77597637D01*
X118978832Y-77607340D01*
X119004867Y-77619653D01*
X119029570Y-77634460D01*
X119052703Y-77651616D01*
X119074043Y-77670957D01*
X119093384Y-77692297D01*
X119110540Y-77715430D01*
X119125347Y-77740133D01*
X119137660Y-77766168D01*
X119147363Y-77793285D01*
X119154361Y-77821222D01*
X119158587Y-77849711D01*
X119160000Y-77878477D01*
X119160000Y-78641523D01*
X119158587Y-78670289D01*
X119154361Y-78698778D01*
X119147363Y-78726715D01*
X119137660Y-78753832D01*
X119125347Y-78779867D01*
X119110540Y-78804570D01*
X119093384Y-78827703D01*
X119074043Y-78849043D01*
X119052703Y-78868384D01*
X119029570Y-78885540D01*
X119004867Y-78900347D01*
X118978832Y-78912660D01*
X118951715Y-78922363D01*
X118923778Y-78929361D01*
X118895289Y-78933587D01*
X118866523Y-78935000D01*
X117853477Y-78935000D01*
X117824711Y-78933587D01*
X117796222Y-78929361D01*
X117768285Y-78922363D01*
X117741168Y-78912660D01*
X117715133Y-78900347D01*
X117690430Y-78885540D01*
X117667297Y-78868384D01*
X117645957Y-78849043D01*
X117626616Y-78827703D01*
X117609460Y-78804570D01*
X117594653Y-78779867D01*
X117582340Y-78753832D01*
X117572637Y-78726715D01*
X117565639Y-78698778D01*
X117561413Y-78670289D01*
X117560000Y-78641523D01*
X117560000Y-77878477D01*
X117561413Y-77849711D01*
X117565639Y-77821222D01*
X117572637Y-77793285D01*
X117582340Y-77766168D01*
X117594653Y-77740133D01*
X117609460Y-77715430D01*
X117626616Y-77692297D01*
X117645957Y-77670957D01*
X117667297Y-77651616D01*
X117690430Y-77634460D01*
X117715133Y-77619653D01*
X117741168Y-77607340D01*
X117768285Y-77597637D01*
X117796222Y-77590639D01*
X117824711Y-77586413D01*
X117853477Y-77585000D01*
X118866523Y-77585000D01*
X118895289Y-77586413D01*
X118895289Y-77586413D01*
G37*
D16*
X118360000Y-78260000D03*
D14*
G36*
X114410289Y-77461413D02*
G01*
X114438778Y-77465639D01*
X114466715Y-77472637D01*
X114493832Y-77482340D01*
X114519867Y-77494653D01*
X114544570Y-77509460D01*
X114567703Y-77526616D01*
X114589043Y-77545957D01*
X114608384Y-77567297D01*
X114625540Y-77590430D01*
X114640347Y-77615133D01*
X114652660Y-77641168D01*
X114662363Y-77668285D01*
X114669361Y-77696222D01*
X114673587Y-77724711D01*
X114675000Y-77753477D01*
X114675000Y-78766523D01*
X114673587Y-78795289D01*
X114669361Y-78823778D01*
X114662363Y-78851715D01*
X114652660Y-78878832D01*
X114640347Y-78904867D01*
X114625540Y-78929570D01*
X114608384Y-78952703D01*
X114589043Y-78974043D01*
X114567703Y-78993384D01*
X114544570Y-79010540D01*
X114519867Y-79025347D01*
X114493832Y-79037660D01*
X114466715Y-79047363D01*
X114438778Y-79054361D01*
X114410289Y-79058587D01*
X114381523Y-79060000D01*
X113618477Y-79060000D01*
X113589711Y-79058587D01*
X113561222Y-79054361D01*
X113533285Y-79047363D01*
X113506168Y-79037660D01*
X113480133Y-79025347D01*
X113455430Y-79010540D01*
X113432297Y-78993384D01*
X113410957Y-78974043D01*
X113391616Y-78952703D01*
X113374460Y-78929570D01*
X113359653Y-78904867D01*
X113347340Y-78878832D01*
X113337637Y-78851715D01*
X113330639Y-78823778D01*
X113326413Y-78795289D01*
X113325000Y-78766523D01*
X113325000Y-77753477D01*
X113326413Y-77724711D01*
X113330639Y-77696222D01*
X113337637Y-77668285D01*
X113347340Y-77641168D01*
X113359653Y-77615133D01*
X113374460Y-77590430D01*
X113391616Y-77567297D01*
X113410957Y-77545957D01*
X113432297Y-77526616D01*
X113455430Y-77509460D01*
X113480133Y-77494653D01*
X113506168Y-77482340D01*
X113533285Y-77472637D01*
X113561222Y-77465639D01*
X113589711Y-77461413D01*
X113618477Y-77460000D01*
X114381523Y-77460000D01*
X114410289Y-77461413D01*
X114410289Y-77461413D01*
G37*
D16*
X114000000Y-78260000D03*
D14*
G36*
X112360289Y-77461413D02*
G01*
X112388778Y-77465639D01*
X112416715Y-77472637D01*
X112443832Y-77482340D01*
X112469867Y-77494653D01*
X112494570Y-77509460D01*
X112517703Y-77526616D01*
X112539043Y-77545957D01*
X112558384Y-77567297D01*
X112575540Y-77590430D01*
X112590347Y-77615133D01*
X112602660Y-77641168D01*
X112612363Y-77668285D01*
X112619361Y-77696222D01*
X112623587Y-77724711D01*
X112625000Y-77753477D01*
X112625000Y-78766523D01*
X112623587Y-78795289D01*
X112619361Y-78823778D01*
X112612363Y-78851715D01*
X112602660Y-78878832D01*
X112590347Y-78904867D01*
X112575540Y-78929570D01*
X112558384Y-78952703D01*
X112539043Y-78974043D01*
X112517703Y-78993384D01*
X112494570Y-79010540D01*
X112469867Y-79025347D01*
X112443832Y-79037660D01*
X112416715Y-79047363D01*
X112388778Y-79054361D01*
X112360289Y-79058587D01*
X112331523Y-79060000D01*
X111568477Y-79060000D01*
X111539711Y-79058587D01*
X111511222Y-79054361D01*
X111483285Y-79047363D01*
X111456168Y-79037660D01*
X111430133Y-79025347D01*
X111405430Y-79010540D01*
X111382297Y-78993384D01*
X111360957Y-78974043D01*
X111341616Y-78952703D01*
X111324460Y-78929570D01*
X111309653Y-78904867D01*
X111297340Y-78878832D01*
X111287637Y-78851715D01*
X111280639Y-78823778D01*
X111276413Y-78795289D01*
X111275000Y-78766523D01*
X111275000Y-77753477D01*
X111276413Y-77724711D01*
X111280639Y-77696222D01*
X111287637Y-77668285D01*
X111297340Y-77641168D01*
X111309653Y-77615133D01*
X111324460Y-77590430D01*
X111341616Y-77567297D01*
X111360957Y-77545957D01*
X111382297Y-77526616D01*
X111405430Y-77509460D01*
X111430133Y-77494653D01*
X111456168Y-77482340D01*
X111483285Y-77472637D01*
X111511222Y-77465639D01*
X111539711Y-77461413D01*
X111568477Y-77460000D01*
X112331523Y-77460000D01*
X112360289Y-77461413D01*
X112360289Y-77461413D01*
G37*
D16*
X111950000Y-78260000D03*
D14*
G36*
X106035289Y-75536413D02*
G01*
X106063778Y-75540639D01*
X106091715Y-75547637D01*
X106118832Y-75557340D01*
X106144867Y-75569653D01*
X106169570Y-75584460D01*
X106192703Y-75601616D01*
X106214043Y-75620957D01*
X106233384Y-75642297D01*
X106250540Y-75665430D01*
X106265347Y-75690133D01*
X106277660Y-75716168D01*
X106287363Y-75743285D01*
X106294361Y-75771222D01*
X106298587Y-75799711D01*
X106300000Y-75828477D01*
X106300000Y-76591523D01*
X106298587Y-76620289D01*
X106294361Y-76648778D01*
X106287363Y-76676715D01*
X106277660Y-76703832D01*
X106265347Y-76729867D01*
X106250540Y-76754570D01*
X106233384Y-76777703D01*
X106214043Y-76799043D01*
X106192703Y-76818384D01*
X106169570Y-76835540D01*
X106144867Y-76850347D01*
X106118832Y-76862660D01*
X106091715Y-76872363D01*
X106063778Y-76879361D01*
X106035289Y-76883587D01*
X106006523Y-76885000D01*
X104993477Y-76885000D01*
X104964711Y-76883587D01*
X104936222Y-76879361D01*
X104908285Y-76872363D01*
X104881168Y-76862660D01*
X104855133Y-76850347D01*
X104830430Y-76835540D01*
X104807297Y-76818384D01*
X104785957Y-76799043D01*
X104766616Y-76777703D01*
X104749460Y-76754570D01*
X104734653Y-76729867D01*
X104722340Y-76703832D01*
X104712637Y-76676715D01*
X104705639Y-76648778D01*
X104701413Y-76620289D01*
X104700000Y-76591523D01*
X104700000Y-75828477D01*
X104701413Y-75799711D01*
X104705639Y-75771222D01*
X104712637Y-75743285D01*
X104722340Y-75716168D01*
X104734653Y-75690133D01*
X104749460Y-75665430D01*
X104766616Y-75642297D01*
X104785957Y-75620957D01*
X104807297Y-75601616D01*
X104830430Y-75584460D01*
X104855133Y-75569653D01*
X104881168Y-75557340D01*
X104908285Y-75547637D01*
X104936222Y-75540639D01*
X104964711Y-75536413D01*
X104993477Y-75535000D01*
X106006523Y-75535000D01*
X106035289Y-75536413D01*
X106035289Y-75536413D01*
G37*
D16*
X105500000Y-76210000D03*
D14*
G36*
X106035289Y-77586413D02*
G01*
X106063778Y-77590639D01*
X106091715Y-77597637D01*
X106118832Y-77607340D01*
X106144867Y-77619653D01*
X106169570Y-77634460D01*
X106192703Y-77651616D01*
X106214043Y-77670957D01*
X106233384Y-77692297D01*
X106250540Y-77715430D01*
X106265347Y-77740133D01*
X106277660Y-77766168D01*
X106287363Y-77793285D01*
X106294361Y-77821222D01*
X106298587Y-77849711D01*
X106300000Y-77878477D01*
X106300000Y-78641523D01*
X106298587Y-78670289D01*
X106294361Y-78698778D01*
X106287363Y-78726715D01*
X106277660Y-78753832D01*
X106265347Y-78779867D01*
X106250540Y-78804570D01*
X106233384Y-78827703D01*
X106214043Y-78849043D01*
X106192703Y-78868384D01*
X106169570Y-78885540D01*
X106144867Y-78900347D01*
X106118832Y-78912660D01*
X106091715Y-78922363D01*
X106063778Y-78929361D01*
X106035289Y-78933587D01*
X106006523Y-78935000D01*
X104993477Y-78935000D01*
X104964711Y-78933587D01*
X104936222Y-78929361D01*
X104908285Y-78922363D01*
X104881168Y-78912660D01*
X104855133Y-78900347D01*
X104830430Y-78885540D01*
X104807297Y-78868384D01*
X104785957Y-78849043D01*
X104766616Y-78827703D01*
X104749460Y-78804570D01*
X104734653Y-78779867D01*
X104722340Y-78753832D01*
X104712637Y-78726715D01*
X104705639Y-78698778D01*
X104701413Y-78670289D01*
X104700000Y-78641523D01*
X104700000Y-77878477D01*
X104701413Y-77849711D01*
X104705639Y-77821222D01*
X104712637Y-77793285D01*
X104722340Y-77766168D01*
X104734653Y-77740133D01*
X104749460Y-77715430D01*
X104766616Y-77692297D01*
X104785957Y-77670957D01*
X104807297Y-77651616D01*
X104830430Y-77634460D01*
X104855133Y-77619653D01*
X104881168Y-77607340D01*
X104908285Y-77597637D01*
X104936222Y-77590639D01*
X104964711Y-77586413D01*
X104993477Y-77585000D01*
X106006523Y-77585000D01*
X106035289Y-77586413D01*
X106035289Y-77586413D01*
G37*
D16*
X105500000Y-78260000D03*
D14*
G36*
X112497289Y-90143413D02*
G01*
X112525778Y-90147639D01*
X112553715Y-90154637D01*
X112580832Y-90164340D01*
X112606867Y-90176653D01*
X112631570Y-90191460D01*
X112654703Y-90208616D01*
X112676043Y-90227957D01*
X112695384Y-90249297D01*
X112712540Y-90272430D01*
X112727347Y-90297133D01*
X112739660Y-90323168D01*
X112749363Y-90350285D01*
X112756361Y-90378222D01*
X112760587Y-90406711D01*
X112762000Y-90435477D01*
X112762000Y-91198523D01*
X112760587Y-91227289D01*
X112756361Y-91255778D01*
X112749363Y-91283715D01*
X112739660Y-91310832D01*
X112727347Y-91336867D01*
X112712540Y-91361570D01*
X112695384Y-91384703D01*
X112676043Y-91406043D01*
X112654703Y-91425384D01*
X112631570Y-91442540D01*
X112606867Y-91457347D01*
X112580832Y-91469660D01*
X112553715Y-91479363D01*
X112525778Y-91486361D01*
X112497289Y-91490587D01*
X112468523Y-91492000D01*
X111455477Y-91492000D01*
X111426711Y-91490587D01*
X111398222Y-91486361D01*
X111370285Y-91479363D01*
X111343168Y-91469660D01*
X111317133Y-91457347D01*
X111292430Y-91442540D01*
X111269297Y-91425384D01*
X111247957Y-91406043D01*
X111228616Y-91384703D01*
X111211460Y-91361570D01*
X111196653Y-91336867D01*
X111184340Y-91310832D01*
X111174637Y-91283715D01*
X111167639Y-91255778D01*
X111163413Y-91227289D01*
X111162000Y-91198523D01*
X111162000Y-90435477D01*
X111163413Y-90406711D01*
X111167639Y-90378222D01*
X111174637Y-90350285D01*
X111184340Y-90323168D01*
X111196653Y-90297133D01*
X111211460Y-90272430D01*
X111228616Y-90249297D01*
X111247957Y-90227957D01*
X111269297Y-90208616D01*
X111292430Y-90191460D01*
X111317133Y-90176653D01*
X111343168Y-90164340D01*
X111370285Y-90154637D01*
X111398222Y-90147639D01*
X111426711Y-90143413D01*
X111455477Y-90142000D01*
X112468523Y-90142000D01*
X112497289Y-90143413D01*
X112497289Y-90143413D01*
G37*
D16*
X111962000Y-90817000D03*
D14*
G36*
X112497289Y-88093413D02*
G01*
X112525778Y-88097639D01*
X112553715Y-88104637D01*
X112580832Y-88114340D01*
X112606867Y-88126653D01*
X112631570Y-88141460D01*
X112654703Y-88158616D01*
X112676043Y-88177957D01*
X112695384Y-88199297D01*
X112712540Y-88222430D01*
X112727347Y-88247133D01*
X112739660Y-88273168D01*
X112749363Y-88300285D01*
X112756361Y-88328222D01*
X112760587Y-88356711D01*
X112762000Y-88385477D01*
X112762000Y-89148523D01*
X112760587Y-89177289D01*
X112756361Y-89205778D01*
X112749363Y-89233715D01*
X112739660Y-89260832D01*
X112727347Y-89286867D01*
X112712540Y-89311570D01*
X112695384Y-89334703D01*
X112676043Y-89356043D01*
X112654703Y-89375384D01*
X112631570Y-89392540D01*
X112606867Y-89407347D01*
X112580832Y-89419660D01*
X112553715Y-89429363D01*
X112525778Y-89436361D01*
X112497289Y-89440587D01*
X112468523Y-89442000D01*
X111455477Y-89442000D01*
X111426711Y-89440587D01*
X111398222Y-89436361D01*
X111370285Y-89429363D01*
X111343168Y-89419660D01*
X111317133Y-89407347D01*
X111292430Y-89392540D01*
X111269297Y-89375384D01*
X111247957Y-89356043D01*
X111228616Y-89334703D01*
X111211460Y-89311570D01*
X111196653Y-89286867D01*
X111184340Y-89260832D01*
X111174637Y-89233715D01*
X111167639Y-89205778D01*
X111163413Y-89177289D01*
X111162000Y-89148523D01*
X111162000Y-88385477D01*
X111163413Y-88356711D01*
X111167639Y-88328222D01*
X111174637Y-88300285D01*
X111184340Y-88273168D01*
X111196653Y-88247133D01*
X111211460Y-88222430D01*
X111228616Y-88199297D01*
X111247957Y-88177957D01*
X111269297Y-88158616D01*
X111292430Y-88141460D01*
X111317133Y-88126653D01*
X111343168Y-88114340D01*
X111370285Y-88104637D01*
X111398222Y-88097639D01*
X111426711Y-88093413D01*
X111455477Y-88092000D01*
X112468523Y-88092000D01*
X112497289Y-88093413D01*
X112497289Y-88093413D01*
G37*
D16*
X111962000Y-88767000D03*
D14*
G36*
X118915289Y-69941413D02*
G01*
X118943778Y-69945639D01*
X118971715Y-69952637D01*
X118998832Y-69962340D01*
X119024867Y-69974653D01*
X119049570Y-69989460D01*
X119072703Y-70006616D01*
X119094043Y-70025957D01*
X119113384Y-70047297D01*
X119130540Y-70070430D01*
X119145347Y-70095133D01*
X119157660Y-70121168D01*
X119167363Y-70148285D01*
X119174361Y-70176222D01*
X119178587Y-70204711D01*
X119180000Y-70233477D01*
X119180000Y-70996523D01*
X119178587Y-71025289D01*
X119174361Y-71053778D01*
X119167363Y-71081715D01*
X119157660Y-71108832D01*
X119145347Y-71134867D01*
X119130540Y-71159570D01*
X119113384Y-71182703D01*
X119094043Y-71204043D01*
X119072703Y-71223384D01*
X119049570Y-71240540D01*
X119024867Y-71255347D01*
X118998832Y-71267660D01*
X118971715Y-71277363D01*
X118943778Y-71284361D01*
X118915289Y-71288587D01*
X118886523Y-71290000D01*
X117873477Y-71290000D01*
X117844711Y-71288587D01*
X117816222Y-71284361D01*
X117788285Y-71277363D01*
X117761168Y-71267660D01*
X117735133Y-71255347D01*
X117710430Y-71240540D01*
X117687297Y-71223384D01*
X117665957Y-71204043D01*
X117646616Y-71182703D01*
X117629460Y-71159570D01*
X117614653Y-71134867D01*
X117602340Y-71108832D01*
X117592637Y-71081715D01*
X117585639Y-71053778D01*
X117581413Y-71025289D01*
X117580000Y-70996523D01*
X117580000Y-70233477D01*
X117581413Y-70204711D01*
X117585639Y-70176222D01*
X117592637Y-70148285D01*
X117602340Y-70121168D01*
X117614653Y-70095133D01*
X117629460Y-70070430D01*
X117646616Y-70047297D01*
X117665957Y-70025957D01*
X117687297Y-70006616D01*
X117710430Y-69989460D01*
X117735133Y-69974653D01*
X117761168Y-69962340D01*
X117788285Y-69952637D01*
X117816222Y-69945639D01*
X117844711Y-69941413D01*
X117873477Y-69940000D01*
X118886523Y-69940000D01*
X118915289Y-69941413D01*
X118915289Y-69941413D01*
G37*
D16*
X118380000Y-70615000D03*
D14*
G36*
X118915289Y-71991413D02*
G01*
X118943778Y-71995639D01*
X118971715Y-72002637D01*
X118998832Y-72012340D01*
X119024867Y-72024653D01*
X119049570Y-72039460D01*
X119072703Y-72056616D01*
X119094043Y-72075957D01*
X119113384Y-72097297D01*
X119130540Y-72120430D01*
X119145347Y-72145133D01*
X119157660Y-72171168D01*
X119167363Y-72198285D01*
X119174361Y-72226222D01*
X119178587Y-72254711D01*
X119180000Y-72283477D01*
X119180000Y-73046523D01*
X119178587Y-73075289D01*
X119174361Y-73103778D01*
X119167363Y-73131715D01*
X119157660Y-73158832D01*
X119145347Y-73184867D01*
X119130540Y-73209570D01*
X119113384Y-73232703D01*
X119094043Y-73254043D01*
X119072703Y-73273384D01*
X119049570Y-73290540D01*
X119024867Y-73305347D01*
X118998832Y-73317660D01*
X118971715Y-73327363D01*
X118943778Y-73334361D01*
X118915289Y-73338587D01*
X118886523Y-73340000D01*
X117873477Y-73340000D01*
X117844711Y-73338587D01*
X117816222Y-73334361D01*
X117788285Y-73327363D01*
X117761168Y-73317660D01*
X117735133Y-73305347D01*
X117710430Y-73290540D01*
X117687297Y-73273384D01*
X117665957Y-73254043D01*
X117646616Y-73232703D01*
X117629460Y-73209570D01*
X117614653Y-73184867D01*
X117602340Y-73158832D01*
X117592637Y-73131715D01*
X117585639Y-73103778D01*
X117581413Y-73075289D01*
X117580000Y-73046523D01*
X117580000Y-72283477D01*
X117581413Y-72254711D01*
X117585639Y-72226222D01*
X117592637Y-72198285D01*
X117602340Y-72171168D01*
X117614653Y-72145133D01*
X117629460Y-72120430D01*
X117646616Y-72097297D01*
X117665957Y-72075957D01*
X117687297Y-72056616D01*
X117710430Y-72039460D01*
X117735133Y-72024653D01*
X117761168Y-72012340D01*
X117788285Y-72002637D01*
X117816222Y-71995639D01*
X117844711Y-71991413D01*
X117873477Y-71990000D01*
X118886523Y-71990000D01*
X118915289Y-71991413D01*
X118915289Y-71991413D01*
G37*
D16*
X118380000Y-72665000D03*
D14*
G36*
X108199289Y-87968413D02*
G01*
X108227778Y-87972639D01*
X108255715Y-87979637D01*
X108282832Y-87989340D01*
X108308867Y-88001653D01*
X108333570Y-88016460D01*
X108356703Y-88033616D01*
X108378043Y-88052957D01*
X108397384Y-88074297D01*
X108414540Y-88097430D01*
X108429347Y-88122133D01*
X108441660Y-88148168D01*
X108451363Y-88175285D01*
X108458361Y-88203222D01*
X108462587Y-88231711D01*
X108464000Y-88260477D01*
X108464000Y-89273523D01*
X108462587Y-89302289D01*
X108458361Y-89330778D01*
X108451363Y-89358715D01*
X108441660Y-89385832D01*
X108429347Y-89411867D01*
X108414540Y-89436570D01*
X108397384Y-89459703D01*
X108378043Y-89481043D01*
X108356703Y-89500384D01*
X108333570Y-89517540D01*
X108308867Y-89532347D01*
X108282832Y-89544660D01*
X108255715Y-89554363D01*
X108227778Y-89561361D01*
X108199289Y-89565587D01*
X108170523Y-89567000D01*
X107407477Y-89567000D01*
X107378711Y-89565587D01*
X107350222Y-89561361D01*
X107322285Y-89554363D01*
X107295168Y-89544660D01*
X107269133Y-89532347D01*
X107244430Y-89517540D01*
X107221297Y-89500384D01*
X107199957Y-89481043D01*
X107180616Y-89459703D01*
X107163460Y-89436570D01*
X107148653Y-89411867D01*
X107136340Y-89385832D01*
X107126637Y-89358715D01*
X107119639Y-89330778D01*
X107115413Y-89302289D01*
X107114000Y-89273523D01*
X107114000Y-88260477D01*
X107115413Y-88231711D01*
X107119639Y-88203222D01*
X107126637Y-88175285D01*
X107136340Y-88148168D01*
X107148653Y-88122133D01*
X107163460Y-88097430D01*
X107180616Y-88074297D01*
X107199957Y-88052957D01*
X107221297Y-88033616D01*
X107244430Y-88016460D01*
X107269133Y-88001653D01*
X107295168Y-87989340D01*
X107322285Y-87979637D01*
X107350222Y-87972639D01*
X107378711Y-87968413D01*
X107407477Y-87967000D01*
X108170523Y-87967000D01*
X108199289Y-87968413D01*
X108199289Y-87968413D01*
G37*
D16*
X107789000Y-88767000D03*
D14*
G36*
X106149289Y-87968413D02*
G01*
X106177778Y-87972639D01*
X106205715Y-87979637D01*
X106232832Y-87989340D01*
X106258867Y-88001653D01*
X106283570Y-88016460D01*
X106306703Y-88033616D01*
X106328043Y-88052957D01*
X106347384Y-88074297D01*
X106364540Y-88097430D01*
X106379347Y-88122133D01*
X106391660Y-88148168D01*
X106401363Y-88175285D01*
X106408361Y-88203222D01*
X106412587Y-88231711D01*
X106414000Y-88260477D01*
X106414000Y-89273523D01*
X106412587Y-89302289D01*
X106408361Y-89330778D01*
X106401363Y-89358715D01*
X106391660Y-89385832D01*
X106379347Y-89411867D01*
X106364540Y-89436570D01*
X106347384Y-89459703D01*
X106328043Y-89481043D01*
X106306703Y-89500384D01*
X106283570Y-89517540D01*
X106258867Y-89532347D01*
X106232832Y-89544660D01*
X106205715Y-89554363D01*
X106177778Y-89561361D01*
X106149289Y-89565587D01*
X106120523Y-89567000D01*
X105357477Y-89567000D01*
X105328711Y-89565587D01*
X105300222Y-89561361D01*
X105272285Y-89554363D01*
X105245168Y-89544660D01*
X105219133Y-89532347D01*
X105194430Y-89517540D01*
X105171297Y-89500384D01*
X105149957Y-89481043D01*
X105130616Y-89459703D01*
X105113460Y-89436570D01*
X105098653Y-89411867D01*
X105086340Y-89385832D01*
X105076637Y-89358715D01*
X105069639Y-89330778D01*
X105065413Y-89302289D01*
X105064000Y-89273523D01*
X105064000Y-88260477D01*
X105065413Y-88231711D01*
X105069639Y-88203222D01*
X105076637Y-88175285D01*
X105086340Y-88148168D01*
X105098653Y-88122133D01*
X105113460Y-88097430D01*
X105130616Y-88074297D01*
X105149957Y-88052957D01*
X105171297Y-88033616D01*
X105194430Y-88016460D01*
X105219133Y-88001653D01*
X105245168Y-87989340D01*
X105272285Y-87979637D01*
X105300222Y-87972639D01*
X105328711Y-87968413D01*
X105357477Y-87967000D01*
X106120523Y-87967000D01*
X106149289Y-87968413D01*
X106149289Y-87968413D01*
G37*
D16*
X105739000Y-88767000D03*
D14*
G36*
X114321289Y-71866913D02*
G01*
X114349778Y-71871139D01*
X114377715Y-71878137D01*
X114404832Y-71887840D01*
X114430867Y-71900153D01*
X114455570Y-71914960D01*
X114478703Y-71932116D01*
X114500043Y-71951457D01*
X114519384Y-71972797D01*
X114536540Y-71995930D01*
X114551347Y-72020633D01*
X114563660Y-72046668D01*
X114573363Y-72073785D01*
X114580361Y-72101722D01*
X114584587Y-72130211D01*
X114586000Y-72158977D01*
X114586000Y-73172023D01*
X114584587Y-73200789D01*
X114580361Y-73229278D01*
X114573363Y-73257215D01*
X114563660Y-73284332D01*
X114551347Y-73310367D01*
X114536540Y-73335070D01*
X114519384Y-73358203D01*
X114500043Y-73379543D01*
X114478703Y-73398884D01*
X114455570Y-73416040D01*
X114430867Y-73430847D01*
X114404832Y-73443160D01*
X114377715Y-73452863D01*
X114349778Y-73459861D01*
X114321289Y-73464087D01*
X114292523Y-73465500D01*
X113529477Y-73465500D01*
X113500711Y-73464087D01*
X113472222Y-73459861D01*
X113444285Y-73452863D01*
X113417168Y-73443160D01*
X113391133Y-73430847D01*
X113366430Y-73416040D01*
X113343297Y-73398884D01*
X113321957Y-73379543D01*
X113302616Y-73358203D01*
X113285460Y-73335070D01*
X113270653Y-73310367D01*
X113258340Y-73284332D01*
X113248637Y-73257215D01*
X113241639Y-73229278D01*
X113237413Y-73200789D01*
X113236000Y-73172023D01*
X113236000Y-72158977D01*
X113237413Y-72130211D01*
X113241639Y-72101722D01*
X113248637Y-72073785D01*
X113258340Y-72046668D01*
X113270653Y-72020633D01*
X113285460Y-71995930D01*
X113302616Y-71972797D01*
X113321957Y-71951457D01*
X113343297Y-71932116D01*
X113366430Y-71914960D01*
X113391133Y-71900153D01*
X113417168Y-71887840D01*
X113444285Y-71878137D01*
X113472222Y-71871139D01*
X113500711Y-71866913D01*
X113529477Y-71865500D01*
X114292523Y-71865500D01*
X114321289Y-71866913D01*
X114321289Y-71866913D01*
G37*
D16*
X113911000Y-72665500D03*
D14*
G36*
X112271289Y-71866913D02*
G01*
X112299778Y-71871139D01*
X112327715Y-71878137D01*
X112354832Y-71887840D01*
X112380867Y-71900153D01*
X112405570Y-71914960D01*
X112428703Y-71932116D01*
X112450043Y-71951457D01*
X112469384Y-71972797D01*
X112486540Y-71995930D01*
X112501347Y-72020633D01*
X112513660Y-72046668D01*
X112523363Y-72073785D01*
X112530361Y-72101722D01*
X112534587Y-72130211D01*
X112536000Y-72158977D01*
X112536000Y-73172023D01*
X112534587Y-73200789D01*
X112530361Y-73229278D01*
X112523363Y-73257215D01*
X112513660Y-73284332D01*
X112501347Y-73310367D01*
X112486540Y-73335070D01*
X112469384Y-73358203D01*
X112450043Y-73379543D01*
X112428703Y-73398884D01*
X112405570Y-73416040D01*
X112380867Y-73430847D01*
X112354832Y-73443160D01*
X112327715Y-73452863D01*
X112299778Y-73459861D01*
X112271289Y-73464087D01*
X112242523Y-73465500D01*
X111479477Y-73465500D01*
X111450711Y-73464087D01*
X111422222Y-73459861D01*
X111394285Y-73452863D01*
X111367168Y-73443160D01*
X111341133Y-73430847D01*
X111316430Y-73416040D01*
X111293297Y-73398884D01*
X111271957Y-73379543D01*
X111252616Y-73358203D01*
X111235460Y-73335070D01*
X111220653Y-73310367D01*
X111208340Y-73284332D01*
X111198637Y-73257215D01*
X111191639Y-73229278D01*
X111187413Y-73200789D01*
X111186000Y-73172023D01*
X111186000Y-72158977D01*
X111187413Y-72130211D01*
X111191639Y-72101722D01*
X111198637Y-72073785D01*
X111208340Y-72046668D01*
X111220653Y-72020633D01*
X111235460Y-71995930D01*
X111252616Y-71972797D01*
X111271957Y-71951457D01*
X111293297Y-71932116D01*
X111316430Y-71914960D01*
X111341133Y-71900153D01*
X111367168Y-71887840D01*
X111394285Y-71878137D01*
X111422222Y-71871139D01*
X111450711Y-71866913D01*
X111479477Y-71865500D01*
X112242523Y-71865500D01*
X112271289Y-71866913D01*
X112271289Y-71866913D01*
G37*
D16*
X111861000Y-72665500D03*
D14*
G36*
X100178289Y-90125413D02*
G01*
X100206778Y-90129639D01*
X100234715Y-90136637D01*
X100261832Y-90146340D01*
X100287867Y-90158653D01*
X100312570Y-90173460D01*
X100335703Y-90190616D01*
X100357043Y-90209957D01*
X100376384Y-90231297D01*
X100393540Y-90254430D01*
X100408347Y-90279133D01*
X100420660Y-90305168D01*
X100430363Y-90332285D01*
X100437361Y-90360222D01*
X100441587Y-90388711D01*
X100443000Y-90417477D01*
X100443000Y-91180523D01*
X100441587Y-91209289D01*
X100437361Y-91237778D01*
X100430363Y-91265715D01*
X100420660Y-91292832D01*
X100408347Y-91318867D01*
X100393540Y-91343570D01*
X100376384Y-91366703D01*
X100357043Y-91388043D01*
X100335703Y-91407384D01*
X100312570Y-91424540D01*
X100287867Y-91439347D01*
X100261832Y-91451660D01*
X100234715Y-91461363D01*
X100206778Y-91468361D01*
X100178289Y-91472587D01*
X100149523Y-91474000D01*
X99136477Y-91474000D01*
X99107711Y-91472587D01*
X99079222Y-91468361D01*
X99051285Y-91461363D01*
X99024168Y-91451660D01*
X98998133Y-91439347D01*
X98973430Y-91424540D01*
X98950297Y-91407384D01*
X98928957Y-91388043D01*
X98909616Y-91366703D01*
X98892460Y-91343570D01*
X98877653Y-91318867D01*
X98865340Y-91292832D01*
X98855637Y-91265715D01*
X98848639Y-91237778D01*
X98844413Y-91209289D01*
X98843000Y-91180523D01*
X98843000Y-90417477D01*
X98844413Y-90388711D01*
X98848639Y-90360222D01*
X98855637Y-90332285D01*
X98865340Y-90305168D01*
X98877653Y-90279133D01*
X98892460Y-90254430D01*
X98909616Y-90231297D01*
X98928957Y-90209957D01*
X98950297Y-90190616D01*
X98973430Y-90173460D01*
X98998133Y-90158653D01*
X99024168Y-90146340D01*
X99051285Y-90136637D01*
X99079222Y-90129639D01*
X99107711Y-90125413D01*
X99136477Y-90124000D01*
X100149523Y-90124000D01*
X100178289Y-90125413D01*
X100178289Y-90125413D01*
G37*
D16*
X99643000Y-90799000D03*
D14*
G36*
X100178289Y-88075413D02*
G01*
X100206778Y-88079639D01*
X100234715Y-88086637D01*
X100261832Y-88096340D01*
X100287867Y-88108653D01*
X100312570Y-88123460D01*
X100335703Y-88140616D01*
X100357043Y-88159957D01*
X100376384Y-88181297D01*
X100393540Y-88204430D01*
X100408347Y-88229133D01*
X100420660Y-88255168D01*
X100430363Y-88282285D01*
X100437361Y-88310222D01*
X100441587Y-88338711D01*
X100443000Y-88367477D01*
X100443000Y-89130523D01*
X100441587Y-89159289D01*
X100437361Y-89187778D01*
X100430363Y-89215715D01*
X100420660Y-89242832D01*
X100408347Y-89268867D01*
X100393540Y-89293570D01*
X100376384Y-89316703D01*
X100357043Y-89338043D01*
X100335703Y-89357384D01*
X100312570Y-89374540D01*
X100287867Y-89389347D01*
X100261832Y-89401660D01*
X100234715Y-89411363D01*
X100206778Y-89418361D01*
X100178289Y-89422587D01*
X100149523Y-89424000D01*
X99136477Y-89424000D01*
X99107711Y-89422587D01*
X99079222Y-89418361D01*
X99051285Y-89411363D01*
X99024168Y-89401660D01*
X98998133Y-89389347D01*
X98973430Y-89374540D01*
X98950297Y-89357384D01*
X98928957Y-89338043D01*
X98909616Y-89316703D01*
X98892460Y-89293570D01*
X98877653Y-89268867D01*
X98865340Y-89242832D01*
X98855637Y-89215715D01*
X98848639Y-89187778D01*
X98844413Y-89159289D01*
X98843000Y-89130523D01*
X98843000Y-88367477D01*
X98844413Y-88338711D01*
X98848639Y-88310222D01*
X98855637Y-88282285D01*
X98865340Y-88255168D01*
X98877653Y-88229133D01*
X98892460Y-88204430D01*
X98909616Y-88181297D01*
X98928957Y-88159957D01*
X98950297Y-88140616D01*
X98973430Y-88123460D01*
X98998133Y-88108653D01*
X99024168Y-88096340D01*
X99051285Y-88086637D01*
X99079222Y-88079639D01*
X99107711Y-88075413D01*
X99136477Y-88074000D01*
X100149523Y-88074000D01*
X100178289Y-88075413D01*
X100178289Y-88075413D01*
G37*
D16*
X99643000Y-88749000D03*
D14*
G36*
X105995289Y-69936413D02*
G01*
X106023778Y-69940639D01*
X106051715Y-69947637D01*
X106078832Y-69957340D01*
X106104867Y-69969653D01*
X106129570Y-69984460D01*
X106152703Y-70001616D01*
X106174043Y-70020957D01*
X106193384Y-70042297D01*
X106210540Y-70065430D01*
X106225347Y-70090133D01*
X106237660Y-70116168D01*
X106247363Y-70143285D01*
X106254361Y-70171222D01*
X106258587Y-70199711D01*
X106260000Y-70228477D01*
X106260000Y-70991523D01*
X106258587Y-71020289D01*
X106254361Y-71048778D01*
X106247363Y-71076715D01*
X106237660Y-71103832D01*
X106225347Y-71129867D01*
X106210540Y-71154570D01*
X106193384Y-71177703D01*
X106174043Y-71199043D01*
X106152703Y-71218384D01*
X106129570Y-71235540D01*
X106104867Y-71250347D01*
X106078832Y-71262660D01*
X106051715Y-71272363D01*
X106023778Y-71279361D01*
X105995289Y-71283587D01*
X105966523Y-71285000D01*
X104953477Y-71285000D01*
X104924711Y-71283587D01*
X104896222Y-71279361D01*
X104868285Y-71272363D01*
X104841168Y-71262660D01*
X104815133Y-71250347D01*
X104790430Y-71235540D01*
X104767297Y-71218384D01*
X104745957Y-71199043D01*
X104726616Y-71177703D01*
X104709460Y-71154570D01*
X104694653Y-71129867D01*
X104682340Y-71103832D01*
X104672637Y-71076715D01*
X104665639Y-71048778D01*
X104661413Y-71020289D01*
X104660000Y-70991523D01*
X104660000Y-70228477D01*
X104661413Y-70199711D01*
X104665639Y-70171222D01*
X104672637Y-70143285D01*
X104682340Y-70116168D01*
X104694653Y-70090133D01*
X104709460Y-70065430D01*
X104726616Y-70042297D01*
X104745957Y-70020957D01*
X104767297Y-70001616D01*
X104790430Y-69984460D01*
X104815133Y-69969653D01*
X104841168Y-69957340D01*
X104868285Y-69947637D01*
X104896222Y-69940639D01*
X104924711Y-69936413D01*
X104953477Y-69935000D01*
X105966523Y-69935000D01*
X105995289Y-69936413D01*
X105995289Y-69936413D01*
G37*
D16*
X105460000Y-70610000D03*
D14*
G36*
X105995289Y-71986413D02*
G01*
X106023778Y-71990639D01*
X106051715Y-71997637D01*
X106078832Y-72007340D01*
X106104867Y-72019653D01*
X106129570Y-72034460D01*
X106152703Y-72051616D01*
X106174043Y-72070957D01*
X106193384Y-72092297D01*
X106210540Y-72115430D01*
X106225347Y-72140133D01*
X106237660Y-72166168D01*
X106247363Y-72193285D01*
X106254361Y-72221222D01*
X106258587Y-72249711D01*
X106260000Y-72278477D01*
X106260000Y-73041523D01*
X106258587Y-73070289D01*
X106254361Y-73098778D01*
X106247363Y-73126715D01*
X106237660Y-73153832D01*
X106225347Y-73179867D01*
X106210540Y-73204570D01*
X106193384Y-73227703D01*
X106174043Y-73249043D01*
X106152703Y-73268384D01*
X106129570Y-73285540D01*
X106104867Y-73300347D01*
X106078832Y-73312660D01*
X106051715Y-73322363D01*
X106023778Y-73329361D01*
X105995289Y-73333587D01*
X105966523Y-73335000D01*
X104953477Y-73335000D01*
X104924711Y-73333587D01*
X104896222Y-73329361D01*
X104868285Y-73322363D01*
X104841168Y-73312660D01*
X104815133Y-73300347D01*
X104790430Y-73285540D01*
X104767297Y-73268384D01*
X104745957Y-73249043D01*
X104726616Y-73227703D01*
X104709460Y-73204570D01*
X104694653Y-73179867D01*
X104682340Y-73153832D01*
X104672637Y-73126715D01*
X104665639Y-73098778D01*
X104661413Y-73070289D01*
X104660000Y-73041523D01*
X104660000Y-72278477D01*
X104661413Y-72249711D01*
X104665639Y-72221222D01*
X104672637Y-72193285D01*
X104682340Y-72166168D01*
X104694653Y-72140133D01*
X104709460Y-72115430D01*
X104726616Y-72092297D01*
X104745957Y-72070957D01*
X104767297Y-72051616D01*
X104790430Y-72034460D01*
X104815133Y-72019653D01*
X104841168Y-72007340D01*
X104868285Y-71997637D01*
X104896222Y-71990639D01*
X104924711Y-71986413D01*
X104953477Y-71985000D01*
X105966523Y-71985000D01*
X105995289Y-71986413D01*
X105995289Y-71986413D01*
G37*
D16*
X105460000Y-72660000D03*
D12*
X85700000Y-93660000D03*
D13*
X83160000Y-93660000D03*
D12*
X94240000Y-101200000D03*
D13*
X94240000Y-103740000D03*
D12*
X128587500Y-101854000D03*
D13*
X128587500Y-99314000D03*
D12*
X114280000Y-81620000D03*
X111740000Y-81620000D03*
D13*
X109200000Y-81620000D03*
D12*
X114240000Y-85420000D03*
X111700000Y-85420000D03*
D13*
X109160000Y-85420000D03*
D29*
X87857500Y-115379500D03*
X93657500Y-115379500D03*
D30*
X94257500Y-115379500D03*
X87257500Y-115379500D03*
D31*
X89757500Y-115379500D03*
D32*
X93257500Y-112679500D03*
D33*
X90757500Y-112679500D03*
X91407500Y-112679500D03*
X92057500Y-112679500D03*
X89457500Y-112679500D03*
X90107500Y-112679500D03*
D32*
X88257500Y-112679500D03*
D31*
X91757500Y-115379500D03*
D14*
G36*
X98565289Y-103141413D02*
G01*
X98593778Y-103145639D01*
X98621715Y-103152637D01*
X98648832Y-103162340D01*
X98674867Y-103174653D01*
X98699570Y-103189460D01*
X98722703Y-103206616D01*
X98744043Y-103225957D01*
X98763384Y-103247297D01*
X98780540Y-103270430D01*
X98795347Y-103295133D01*
X98807660Y-103321168D01*
X98817363Y-103348285D01*
X98824361Y-103376222D01*
X98828587Y-103404711D01*
X98830000Y-103433477D01*
X98830000Y-104446523D01*
X98828587Y-104475289D01*
X98824361Y-104503778D01*
X98817363Y-104531715D01*
X98807660Y-104558832D01*
X98795347Y-104584867D01*
X98780540Y-104609570D01*
X98763384Y-104632703D01*
X98744043Y-104654043D01*
X98722703Y-104673384D01*
X98699570Y-104690540D01*
X98674867Y-104705347D01*
X98648832Y-104717660D01*
X98621715Y-104727363D01*
X98593778Y-104734361D01*
X98565289Y-104738587D01*
X98536523Y-104740000D01*
X97773477Y-104740000D01*
X97744711Y-104738587D01*
X97716222Y-104734361D01*
X97688285Y-104727363D01*
X97661168Y-104717660D01*
X97635133Y-104705347D01*
X97610430Y-104690540D01*
X97587297Y-104673384D01*
X97565957Y-104654043D01*
X97546616Y-104632703D01*
X97529460Y-104609570D01*
X97514653Y-104584867D01*
X97502340Y-104558832D01*
X97492637Y-104531715D01*
X97485639Y-104503778D01*
X97481413Y-104475289D01*
X97480000Y-104446523D01*
X97480000Y-103433477D01*
X97481413Y-103404711D01*
X97485639Y-103376222D01*
X97492637Y-103348285D01*
X97502340Y-103321168D01*
X97514653Y-103295133D01*
X97529460Y-103270430D01*
X97546616Y-103247297D01*
X97565957Y-103225957D01*
X97587297Y-103206616D01*
X97610430Y-103189460D01*
X97635133Y-103174653D01*
X97661168Y-103162340D01*
X97688285Y-103152637D01*
X97716222Y-103145639D01*
X97744711Y-103141413D01*
X97773477Y-103140000D01*
X98536523Y-103140000D01*
X98565289Y-103141413D01*
X98565289Y-103141413D01*
G37*
D16*
X98155000Y-103940000D03*
D14*
G36*
X100615289Y-103141413D02*
G01*
X100643778Y-103145639D01*
X100671715Y-103152637D01*
X100698832Y-103162340D01*
X100724867Y-103174653D01*
X100749570Y-103189460D01*
X100772703Y-103206616D01*
X100794043Y-103225957D01*
X100813384Y-103247297D01*
X100830540Y-103270430D01*
X100845347Y-103295133D01*
X100857660Y-103321168D01*
X100867363Y-103348285D01*
X100874361Y-103376222D01*
X100878587Y-103404711D01*
X100880000Y-103433477D01*
X100880000Y-104446523D01*
X100878587Y-104475289D01*
X100874361Y-104503778D01*
X100867363Y-104531715D01*
X100857660Y-104558832D01*
X100845347Y-104584867D01*
X100830540Y-104609570D01*
X100813384Y-104632703D01*
X100794043Y-104654043D01*
X100772703Y-104673384D01*
X100749570Y-104690540D01*
X100724867Y-104705347D01*
X100698832Y-104717660D01*
X100671715Y-104727363D01*
X100643778Y-104734361D01*
X100615289Y-104738587D01*
X100586523Y-104740000D01*
X99823477Y-104740000D01*
X99794711Y-104738587D01*
X99766222Y-104734361D01*
X99738285Y-104727363D01*
X99711168Y-104717660D01*
X99685133Y-104705347D01*
X99660430Y-104690540D01*
X99637297Y-104673384D01*
X99615957Y-104654043D01*
X99596616Y-104632703D01*
X99579460Y-104609570D01*
X99564653Y-104584867D01*
X99552340Y-104558832D01*
X99542637Y-104531715D01*
X99535639Y-104503778D01*
X99531413Y-104475289D01*
X99530000Y-104446523D01*
X99530000Y-103433477D01*
X99531413Y-103404711D01*
X99535639Y-103376222D01*
X99542637Y-103348285D01*
X99552340Y-103321168D01*
X99564653Y-103295133D01*
X99579460Y-103270430D01*
X99596616Y-103247297D01*
X99615957Y-103225957D01*
X99637297Y-103206616D01*
X99660430Y-103189460D01*
X99685133Y-103174653D01*
X99711168Y-103162340D01*
X99738285Y-103152637D01*
X99766222Y-103145639D01*
X99794711Y-103141413D01*
X99823477Y-103140000D01*
X100586523Y-103140000D01*
X100615289Y-103141413D01*
X100615289Y-103141413D01*
G37*
D16*
X100205000Y-103940000D03*
D14*
G36*
X129959289Y-104039913D02*
G01*
X129987778Y-104044139D01*
X130015715Y-104051137D01*
X130042832Y-104060840D01*
X130068867Y-104073153D01*
X130093570Y-104087960D01*
X130116703Y-104105116D01*
X130138043Y-104124457D01*
X130157384Y-104145797D01*
X130174540Y-104168930D01*
X130189347Y-104193633D01*
X130201660Y-104219668D01*
X130211363Y-104246785D01*
X130218361Y-104274722D01*
X130222587Y-104303211D01*
X130224000Y-104331977D01*
X130224000Y-105345023D01*
X130222587Y-105373789D01*
X130218361Y-105402278D01*
X130211363Y-105430215D01*
X130201660Y-105457332D01*
X130189347Y-105483367D01*
X130174540Y-105508070D01*
X130157384Y-105531203D01*
X130138043Y-105552543D01*
X130116703Y-105571884D01*
X130093570Y-105589040D01*
X130068867Y-105603847D01*
X130042832Y-105616160D01*
X130015715Y-105625863D01*
X129987778Y-105632861D01*
X129959289Y-105637087D01*
X129930523Y-105638500D01*
X129167477Y-105638500D01*
X129138711Y-105637087D01*
X129110222Y-105632861D01*
X129082285Y-105625863D01*
X129055168Y-105616160D01*
X129029133Y-105603847D01*
X129004430Y-105589040D01*
X128981297Y-105571884D01*
X128959957Y-105552543D01*
X128940616Y-105531203D01*
X128923460Y-105508070D01*
X128908653Y-105483367D01*
X128896340Y-105457332D01*
X128886637Y-105430215D01*
X128879639Y-105402278D01*
X128875413Y-105373789D01*
X128874000Y-105345023D01*
X128874000Y-104331977D01*
X128875413Y-104303211D01*
X128879639Y-104274722D01*
X128886637Y-104246785D01*
X128896340Y-104219668D01*
X128908653Y-104193633D01*
X128923460Y-104168930D01*
X128940616Y-104145797D01*
X128959957Y-104124457D01*
X128981297Y-104105116D01*
X129004430Y-104087960D01*
X129029133Y-104073153D01*
X129055168Y-104060840D01*
X129082285Y-104051137D01*
X129110222Y-104044139D01*
X129138711Y-104039913D01*
X129167477Y-104038500D01*
X129930523Y-104038500D01*
X129959289Y-104039913D01*
X129959289Y-104039913D01*
G37*
D16*
X129549000Y-104838500D03*
D14*
G36*
X127909289Y-104039913D02*
G01*
X127937778Y-104044139D01*
X127965715Y-104051137D01*
X127992832Y-104060840D01*
X128018867Y-104073153D01*
X128043570Y-104087960D01*
X128066703Y-104105116D01*
X128088043Y-104124457D01*
X128107384Y-104145797D01*
X128124540Y-104168930D01*
X128139347Y-104193633D01*
X128151660Y-104219668D01*
X128161363Y-104246785D01*
X128168361Y-104274722D01*
X128172587Y-104303211D01*
X128174000Y-104331977D01*
X128174000Y-105345023D01*
X128172587Y-105373789D01*
X128168361Y-105402278D01*
X128161363Y-105430215D01*
X128151660Y-105457332D01*
X128139347Y-105483367D01*
X128124540Y-105508070D01*
X128107384Y-105531203D01*
X128088043Y-105552543D01*
X128066703Y-105571884D01*
X128043570Y-105589040D01*
X128018867Y-105603847D01*
X127992832Y-105616160D01*
X127965715Y-105625863D01*
X127937778Y-105632861D01*
X127909289Y-105637087D01*
X127880523Y-105638500D01*
X127117477Y-105638500D01*
X127088711Y-105637087D01*
X127060222Y-105632861D01*
X127032285Y-105625863D01*
X127005168Y-105616160D01*
X126979133Y-105603847D01*
X126954430Y-105589040D01*
X126931297Y-105571884D01*
X126909957Y-105552543D01*
X126890616Y-105531203D01*
X126873460Y-105508070D01*
X126858653Y-105483367D01*
X126846340Y-105457332D01*
X126836637Y-105430215D01*
X126829639Y-105402278D01*
X126825413Y-105373789D01*
X126824000Y-105345023D01*
X126824000Y-104331977D01*
X126825413Y-104303211D01*
X126829639Y-104274722D01*
X126836637Y-104246785D01*
X126846340Y-104219668D01*
X126858653Y-104193633D01*
X126873460Y-104168930D01*
X126890616Y-104145797D01*
X126909957Y-104124457D01*
X126931297Y-104105116D01*
X126954430Y-104087960D01*
X126979133Y-104073153D01*
X127005168Y-104060840D01*
X127032285Y-104051137D01*
X127060222Y-104044139D01*
X127088711Y-104039913D01*
X127117477Y-104038500D01*
X127880523Y-104038500D01*
X127909289Y-104039913D01*
X127909289Y-104039913D01*
G37*
D16*
X127499000Y-104838500D03*
D14*
G36*
X98955289Y-113676413D02*
G01*
X98983778Y-113680639D01*
X99011715Y-113687637D01*
X99038832Y-113697340D01*
X99064867Y-113709653D01*
X99089570Y-113724460D01*
X99112703Y-113741616D01*
X99134043Y-113760957D01*
X99153384Y-113782297D01*
X99170540Y-113805430D01*
X99185347Y-113830133D01*
X99197660Y-113856168D01*
X99207363Y-113883285D01*
X99214361Y-113911222D01*
X99218587Y-113939711D01*
X99220000Y-113968477D01*
X99220000Y-114731523D01*
X99218587Y-114760289D01*
X99214361Y-114788778D01*
X99207363Y-114816715D01*
X99197660Y-114843832D01*
X99185347Y-114869867D01*
X99170540Y-114894570D01*
X99153384Y-114917703D01*
X99134043Y-114939043D01*
X99112703Y-114958384D01*
X99089570Y-114975540D01*
X99064867Y-114990347D01*
X99038832Y-115002660D01*
X99011715Y-115012363D01*
X98983778Y-115019361D01*
X98955289Y-115023587D01*
X98926523Y-115025000D01*
X97913477Y-115025000D01*
X97884711Y-115023587D01*
X97856222Y-115019361D01*
X97828285Y-115012363D01*
X97801168Y-115002660D01*
X97775133Y-114990347D01*
X97750430Y-114975540D01*
X97727297Y-114958384D01*
X97705957Y-114939043D01*
X97686616Y-114917703D01*
X97669460Y-114894570D01*
X97654653Y-114869867D01*
X97642340Y-114843832D01*
X97632637Y-114816715D01*
X97625639Y-114788778D01*
X97621413Y-114760289D01*
X97620000Y-114731523D01*
X97620000Y-113968477D01*
X97621413Y-113939711D01*
X97625639Y-113911222D01*
X97632637Y-113883285D01*
X97642340Y-113856168D01*
X97654653Y-113830133D01*
X97669460Y-113805430D01*
X97686616Y-113782297D01*
X97705957Y-113760957D01*
X97727297Y-113741616D01*
X97750430Y-113724460D01*
X97775133Y-113709653D01*
X97801168Y-113697340D01*
X97828285Y-113687637D01*
X97856222Y-113680639D01*
X97884711Y-113676413D01*
X97913477Y-113675000D01*
X98926523Y-113675000D01*
X98955289Y-113676413D01*
X98955289Y-113676413D01*
G37*
D16*
X98420000Y-114350000D03*
D14*
G36*
X98955289Y-111626413D02*
G01*
X98983778Y-111630639D01*
X99011715Y-111637637D01*
X99038832Y-111647340D01*
X99064867Y-111659653D01*
X99089570Y-111674460D01*
X99112703Y-111691616D01*
X99134043Y-111710957D01*
X99153384Y-111732297D01*
X99170540Y-111755430D01*
X99185347Y-111780133D01*
X99197660Y-111806168D01*
X99207363Y-111833285D01*
X99214361Y-111861222D01*
X99218587Y-111889711D01*
X99220000Y-111918477D01*
X99220000Y-112681523D01*
X99218587Y-112710289D01*
X99214361Y-112738778D01*
X99207363Y-112766715D01*
X99197660Y-112793832D01*
X99185347Y-112819867D01*
X99170540Y-112844570D01*
X99153384Y-112867703D01*
X99134043Y-112889043D01*
X99112703Y-112908384D01*
X99089570Y-112925540D01*
X99064867Y-112940347D01*
X99038832Y-112952660D01*
X99011715Y-112962363D01*
X98983778Y-112969361D01*
X98955289Y-112973587D01*
X98926523Y-112975000D01*
X97913477Y-112975000D01*
X97884711Y-112973587D01*
X97856222Y-112969361D01*
X97828285Y-112962363D01*
X97801168Y-112952660D01*
X97775133Y-112940347D01*
X97750430Y-112925540D01*
X97727297Y-112908384D01*
X97705957Y-112889043D01*
X97686616Y-112867703D01*
X97669460Y-112844570D01*
X97654653Y-112819867D01*
X97642340Y-112793832D01*
X97632637Y-112766715D01*
X97625639Y-112738778D01*
X97621413Y-112710289D01*
X97620000Y-112681523D01*
X97620000Y-111918477D01*
X97621413Y-111889711D01*
X97625639Y-111861222D01*
X97632637Y-111833285D01*
X97642340Y-111806168D01*
X97654653Y-111780133D01*
X97669460Y-111755430D01*
X97686616Y-111732297D01*
X97705957Y-111710957D01*
X97727297Y-111691616D01*
X97750430Y-111674460D01*
X97775133Y-111659653D01*
X97801168Y-111647340D01*
X97828285Y-111637637D01*
X97856222Y-111630639D01*
X97884711Y-111626413D01*
X97913477Y-111625000D01*
X98926523Y-111625000D01*
X98955289Y-111626413D01*
X98955289Y-111626413D01*
G37*
D16*
X98420000Y-112300000D03*
D14*
G36*
X84905289Y-106781413D02*
G01*
X84933778Y-106785639D01*
X84961715Y-106792637D01*
X84988832Y-106802340D01*
X85014867Y-106814653D01*
X85039570Y-106829460D01*
X85062703Y-106846616D01*
X85084043Y-106865957D01*
X85103384Y-106887297D01*
X85120540Y-106910430D01*
X85135347Y-106935133D01*
X85147660Y-106961168D01*
X85157363Y-106988285D01*
X85164361Y-107016222D01*
X85168587Y-107044711D01*
X85170000Y-107073477D01*
X85170000Y-108086523D01*
X85168587Y-108115289D01*
X85164361Y-108143778D01*
X85157363Y-108171715D01*
X85147660Y-108198832D01*
X85135347Y-108224867D01*
X85120540Y-108249570D01*
X85103384Y-108272703D01*
X85084043Y-108294043D01*
X85062703Y-108313384D01*
X85039570Y-108330540D01*
X85014867Y-108345347D01*
X84988832Y-108357660D01*
X84961715Y-108367363D01*
X84933778Y-108374361D01*
X84905289Y-108378587D01*
X84876523Y-108380000D01*
X84113477Y-108380000D01*
X84084711Y-108378587D01*
X84056222Y-108374361D01*
X84028285Y-108367363D01*
X84001168Y-108357660D01*
X83975133Y-108345347D01*
X83950430Y-108330540D01*
X83927297Y-108313384D01*
X83905957Y-108294043D01*
X83886616Y-108272703D01*
X83869460Y-108249570D01*
X83854653Y-108224867D01*
X83842340Y-108198832D01*
X83832637Y-108171715D01*
X83825639Y-108143778D01*
X83821413Y-108115289D01*
X83820000Y-108086523D01*
X83820000Y-107073477D01*
X83821413Y-107044711D01*
X83825639Y-107016222D01*
X83832637Y-106988285D01*
X83842340Y-106961168D01*
X83854653Y-106935133D01*
X83869460Y-106910430D01*
X83886616Y-106887297D01*
X83905957Y-106865957D01*
X83927297Y-106846616D01*
X83950430Y-106829460D01*
X83975133Y-106814653D01*
X84001168Y-106802340D01*
X84028285Y-106792637D01*
X84056222Y-106785639D01*
X84084711Y-106781413D01*
X84113477Y-106780000D01*
X84876523Y-106780000D01*
X84905289Y-106781413D01*
X84905289Y-106781413D01*
G37*
D16*
X84495000Y-107580000D03*
D14*
G36*
X86955289Y-106781413D02*
G01*
X86983778Y-106785639D01*
X87011715Y-106792637D01*
X87038832Y-106802340D01*
X87064867Y-106814653D01*
X87089570Y-106829460D01*
X87112703Y-106846616D01*
X87134043Y-106865957D01*
X87153384Y-106887297D01*
X87170540Y-106910430D01*
X87185347Y-106935133D01*
X87197660Y-106961168D01*
X87207363Y-106988285D01*
X87214361Y-107016222D01*
X87218587Y-107044711D01*
X87220000Y-107073477D01*
X87220000Y-108086523D01*
X87218587Y-108115289D01*
X87214361Y-108143778D01*
X87207363Y-108171715D01*
X87197660Y-108198832D01*
X87185347Y-108224867D01*
X87170540Y-108249570D01*
X87153384Y-108272703D01*
X87134043Y-108294043D01*
X87112703Y-108313384D01*
X87089570Y-108330540D01*
X87064867Y-108345347D01*
X87038832Y-108357660D01*
X87011715Y-108367363D01*
X86983778Y-108374361D01*
X86955289Y-108378587D01*
X86926523Y-108380000D01*
X86163477Y-108380000D01*
X86134711Y-108378587D01*
X86106222Y-108374361D01*
X86078285Y-108367363D01*
X86051168Y-108357660D01*
X86025133Y-108345347D01*
X86000430Y-108330540D01*
X85977297Y-108313384D01*
X85955957Y-108294043D01*
X85936616Y-108272703D01*
X85919460Y-108249570D01*
X85904653Y-108224867D01*
X85892340Y-108198832D01*
X85882637Y-108171715D01*
X85875639Y-108143778D01*
X85871413Y-108115289D01*
X85870000Y-108086523D01*
X85870000Y-107073477D01*
X85871413Y-107044711D01*
X85875639Y-107016222D01*
X85882637Y-106988285D01*
X85892340Y-106961168D01*
X85904653Y-106935133D01*
X85919460Y-106910430D01*
X85936616Y-106887297D01*
X85955957Y-106865957D01*
X85977297Y-106846616D01*
X86000430Y-106829460D01*
X86025133Y-106814653D01*
X86051168Y-106802340D01*
X86078285Y-106792637D01*
X86106222Y-106785639D01*
X86134711Y-106781413D01*
X86163477Y-106780000D01*
X86926523Y-106780000D01*
X86955289Y-106781413D01*
X86955289Y-106781413D01*
G37*
D16*
X86545000Y-107580000D03*
D14*
G36*
X84980289Y-96601413D02*
G01*
X85008778Y-96605639D01*
X85036715Y-96612637D01*
X85063832Y-96622340D01*
X85089867Y-96634653D01*
X85114570Y-96649460D01*
X85137703Y-96666616D01*
X85159043Y-96685957D01*
X85178384Y-96707297D01*
X85195540Y-96730430D01*
X85210347Y-96755133D01*
X85222660Y-96781168D01*
X85232363Y-96808285D01*
X85239361Y-96836222D01*
X85243587Y-96864711D01*
X85245000Y-96893477D01*
X85245000Y-97906523D01*
X85243587Y-97935289D01*
X85239361Y-97963778D01*
X85232363Y-97991715D01*
X85222660Y-98018832D01*
X85210347Y-98044867D01*
X85195540Y-98069570D01*
X85178384Y-98092703D01*
X85159043Y-98114043D01*
X85137703Y-98133384D01*
X85114570Y-98150540D01*
X85089867Y-98165347D01*
X85063832Y-98177660D01*
X85036715Y-98187363D01*
X85008778Y-98194361D01*
X84980289Y-98198587D01*
X84951523Y-98200000D01*
X84188477Y-98200000D01*
X84159711Y-98198587D01*
X84131222Y-98194361D01*
X84103285Y-98187363D01*
X84076168Y-98177660D01*
X84050133Y-98165347D01*
X84025430Y-98150540D01*
X84002297Y-98133384D01*
X83980957Y-98114043D01*
X83961616Y-98092703D01*
X83944460Y-98069570D01*
X83929653Y-98044867D01*
X83917340Y-98018832D01*
X83907637Y-97991715D01*
X83900639Y-97963778D01*
X83896413Y-97935289D01*
X83895000Y-97906523D01*
X83895000Y-96893477D01*
X83896413Y-96864711D01*
X83900639Y-96836222D01*
X83907637Y-96808285D01*
X83917340Y-96781168D01*
X83929653Y-96755133D01*
X83944460Y-96730430D01*
X83961616Y-96707297D01*
X83980957Y-96685957D01*
X84002297Y-96666616D01*
X84025430Y-96649460D01*
X84050133Y-96634653D01*
X84076168Y-96622340D01*
X84103285Y-96612637D01*
X84131222Y-96605639D01*
X84159711Y-96601413D01*
X84188477Y-96600000D01*
X84951523Y-96600000D01*
X84980289Y-96601413D01*
X84980289Y-96601413D01*
G37*
D16*
X84570000Y-97400000D03*
D14*
G36*
X87030289Y-96601413D02*
G01*
X87058778Y-96605639D01*
X87086715Y-96612637D01*
X87113832Y-96622340D01*
X87139867Y-96634653D01*
X87164570Y-96649460D01*
X87187703Y-96666616D01*
X87209043Y-96685957D01*
X87228384Y-96707297D01*
X87245540Y-96730430D01*
X87260347Y-96755133D01*
X87272660Y-96781168D01*
X87282363Y-96808285D01*
X87289361Y-96836222D01*
X87293587Y-96864711D01*
X87295000Y-96893477D01*
X87295000Y-97906523D01*
X87293587Y-97935289D01*
X87289361Y-97963778D01*
X87282363Y-97991715D01*
X87272660Y-98018832D01*
X87260347Y-98044867D01*
X87245540Y-98069570D01*
X87228384Y-98092703D01*
X87209043Y-98114043D01*
X87187703Y-98133384D01*
X87164570Y-98150540D01*
X87139867Y-98165347D01*
X87113832Y-98177660D01*
X87086715Y-98187363D01*
X87058778Y-98194361D01*
X87030289Y-98198587D01*
X87001523Y-98200000D01*
X86238477Y-98200000D01*
X86209711Y-98198587D01*
X86181222Y-98194361D01*
X86153285Y-98187363D01*
X86126168Y-98177660D01*
X86100133Y-98165347D01*
X86075430Y-98150540D01*
X86052297Y-98133384D01*
X86030957Y-98114043D01*
X86011616Y-98092703D01*
X85994460Y-98069570D01*
X85979653Y-98044867D01*
X85967340Y-98018832D01*
X85957637Y-97991715D01*
X85950639Y-97963778D01*
X85946413Y-97935289D01*
X85945000Y-97906523D01*
X85945000Y-96893477D01*
X85946413Y-96864711D01*
X85950639Y-96836222D01*
X85957637Y-96808285D01*
X85967340Y-96781168D01*
X85979653Y-96755133D01*
X85994460Y-96730430D01*
X86011616Y-96707297D01*
X86030957Y-96685957D01*
X86052297Y-96666616D01*
X86075430Y-96649460D01*
X86100133Y-96634653D01*
X86126168Y-96622340D01*
X86153285Y-96612637D01*
X86181222Y-96605639D01*
X86209711Y-96601413D01*
X86238477Y-96600000D01*
X87001523Y-96600000D01*
X87030289Y-96601413D01*
X87030289Y-96601413D01*
G37*
D16*
X86620000Y-97400000D03*
D14*
G36*
X84933789Y-103419413D02*
G01*
X84962278Y-103423639D01*
X84990215Y-103430637D01*
X85017332Y-103440340D01*
X85043367Y-103452653D01*
X85068070Y-103467460D01*
X85091203Y-103484616D01*
X85112543Y-103503957D01*
X85131884Y-103525297D01*
X85149040Y-103548430D01*
X85163847Y-103573133D01*
X85176160Y-103599168D01*
X85185863Y-103626285D01*
X85192861Y-103654222D01*
X85197087Y-103682711D01*
X85198500Y-103711477D01*
X85198500Y-104724523D01*
X85197087Y-104753289D01*
X85192861Y-104781778D01*
X85185863Y-104809715D01*
X85176160Y-104836832D01*
X85163847Y-104862867D01*
X85149040Y-104887570D01*
X85131884Y-104910703D01*
X85112543Y-104932043D01*
X85091203Y-104951384D01*
X85068070Y-104968540D01*
X85043367Y-104983347D01*
X85017332Y-104995660D01*
X84990215Y-105005363D01*
X84962278Y-105012361D01*
X84933789Y-105016587D01*
X84905023Y-105018000D01*
X84141977Y-105018000D01*
X84113211Y-105016587D01*
X84084722Y-105012361D01*
X84056785Y-105005363D01*
X84029668Y-104995660D01*
X84003633Y-104983347D01*
X83978930Y-104968540D01*
X83955797Y-104951384D01*
X83934457Y-104932043D01*
X83915116Y-104910703D01*
X83897960Y-104887570D01*
X83883153Y-104862867D01*
X83870840Y-104836832D01*
X83861137Y-104809715D01*
X83854139Y-104781778D01*
X83849913Y-104753289D01*
X83848500Y-104724523D01*
X83848500Y-103711477D01*
X83849913Y-103682711D01*
X83854139Y-103654222D01*
X83861137Y-103626285D01*
X83870840Y-103599168D01*
X83883153Y-103573133D01*
X83897960Y-103548430D01*
X83915116Y-103525297D01*
X83934457Y-103503957D01*
X83955797Y-103484616D01*
X83978930Y-103467460D01*
X84003633Y-103452653D01*
X84029668Y-103440340D01*
X84056785Y-103430637D01*
X84084722Y-103423639D01*
X84113211Y-103419413D01*
X84141977Y-103418000D01*
X84905023Y-103418000D01*
X84933789Y-103419413D01*
X84933789Y-103419413D01*
G37*
D16*
X84523500Y-104218000D03*
D14*
G36*
X86983789Y-103419413D02*
G01*
X87012278Y-103423639D01*
X87040215Y-103430637D01*
X87067332Y-103440340D01*
X87093367Y-103452653D01*
X87118070Y-103467460D01*
X87141203Y-103484616D01*
X87162543Y-103503957D01*
X87181884Y-103525297D01*
X87199040Y-103548430D01*
X87213847Y-103573133D01*
X87226160Y-103599168D01*
X87235863Y-103626285D01*
X87242861Y-103654222D01*
X87247087Y-103682711D01*
X87248500Y-103711477D01*
X87248500Y-104724523D01*
X87247087Y-104753289D01*
X87242861Y-104781778D01*
X87235863Y-104809715D01*
X87226160Y-104836832D01*
X87213847Y-104862867D01*
X87199040Y-104887570D01*
X87181884Y-104910703D01*
X87162543Y-104932043D01*
X87141203Y-104951384D01*
X87118070Y-104968540D01*
X87093367Y-104983347D01*
X87067332Y-104995660D01*
X87040215Y-105005363D01*
X87012278Y-105012361D01*
X86983789Y-105016587D01*
X86955023Y-105018000D01*
X86191977Y-105018000D01*
X86163211Y-105016587D01*
X86134722Y-105012361D01*
X86106785Y-105005363D01*
X86079668Y-104995660D01*
X86053633Y-104983347D01*
X86028930Y-104968540D01*
X86005797Y-104951384D01*
X85984457Y-104932043D01*
X85965116Y-104910703D01*
X85947960Y-104887570D01*
X85933153Y-104862867D01*
X85920840Y-104836832D01*
X85911137Y-104809715D01*
X85904139Y-104781778D01*
X85899913Y-104753289D01*
X85898500Y-104724523D01*
X85898500Y-103711477D01*
X85899913Y-103682711D01*
X85904139Y-103654222D01*
X85911137Y-103626285D01*
X85920840Y-103599168D01*
X85933153Y-103573133D01*
X85947960Y-103548430D01*
X85965116Y-103525297D01*
X85984457Y-103503957D01*
X86005797Y-103484616D01*
X86028930Y-103467460D01*
X86053633Y-103452653D01*
X86079668Y-103440340D01*
X86106785Y-103430637D01*
X86134722Y-103423639D01*
X86163211Y-103419413D01*
X86191977Y-103418000D01*
X86955023Y-103418000D01*
X86983789Y-103419413D01*
X86983789Y-103419413D01*
G37*
D16*
X86573500Y-104218000D03*
D14*
G36*
X84997289Y-99990413D02*
G01*
X85025778Y-99994639D01*
X85053715Y-100001637D01*
X85080832Y-100011340D01*
X85106867Y-100023653D01*
X85131570Y-100038460D01*
X85154703Y-100055616D01*
X85176043Y-100074957D01*
X85195384Y-100096297D01*
X85212540Y-100119430D01*
X85227347Y-100144133D01*
X85239660Y-100170168D01*
X85249363Y-100197285D01*
X85256361Y-100225222D01*
X85260587Y-100253711D01*
X85262000Y-100282477D01*
X85262000Y-101295523D01*
X85260587Y-101324289D01*
X85256361Y-101352778D01*
X85249363Y-101380715D01*
X85239660Y-101407832D01*
X85227347Y-101433867D01*
X85212540Y-101458570D01*
X85195384Y-101481703D01*
X85176043Y-101503043D01*
X85154703Y-101522384D01*
X85131570Y-101539540D01*
X85106867Y-101554347D01*
X85080832Y-101566660D01*
X85053715Y-101576363D01*
X85025778Y-101583361D01*
X84997289Y-101587587D01*
X84968523Y-101589000D01*
X84205477Y-101589000D01*
X84176711Y-101587587D01*
X84148222Y-101583361D01*
X84120285Y-101576363D01*
X84093168Y-101566660D01*
X84067133Y-101554347D01*
X84042430Y-101539540D01*
X84019297Y-101522384D01*
X83997957Y-101503043D01*
X83978616Y-101481703D01*
X83961460Y-101458570D01*
X83946653Y-101433867D01*
X83934340Y-101407832D01*
X83924637Y-101380715D01*
X83917639Y-101352778D01*
X83913413Y-101324289D01*
X83912000Y-101295523D01*
X83912000Y-100282477D01*
X83913413Y-100253711D01*
X83917639Y-100225222D01*
X83924637Y-100197285D01*
X83934340Y-100170168D01*
X83946653Y-100144133D01*
X83961460Y-100119430D01*
X83978616Y-100096297D01*
X83997957Y-100074957D01*
X84019297Y-100055616D01*
X84042430Y-100038460D01*
X84067133Y-100023653D01*
X84093168Y-100011340D01*
X84120285Y-100001637D01*
X84148222Y-99994639D01*
X84176711Y-99990413D01*
X84205477Y-99989000D01*
X84968523Y-99989000D01*
X84997289Y-99990413D01*
X84997289Y-99990413D01*
G37*
D16*
X84587000Y-100789000D03*
D14*
G36*
X87047289Y-99990413D02*
G01*
X87075778Y-99994639D01*
X87103715Y-100001637D01*
X87130832Y-100011340D01*
X87156867Y-100023653D01*
X87181570Y-100038460D01*
X87204703Y-100055616D01*
X87226043Y-100074957D01*
X87245384Y-100096297D01*
X87262540Y-100119430D01*
X87277347Y-100144133D01*
X87289660Y-100170168D01*
X87299363Y-100197285D01*
X87306361Y-100225222D01*
X87310587Y-100253711D01*
X87312000Y-100282477D01*
X87312000Y-101295523D01*
X87310587Y-101324289D01*
X87306361Y-101352778D01*
X87299363Y-101380715D01*
X87289660Y-101407832D01*
X87277347Y-101433867D01*
X87262540Y-101458570D01*
X87245384Y-101481703D01*
X87226043Y-101503043D01*
X87204703Y-101522384D01*
X87181570Y-101539540D01*
X87156867Y-101554347D01*
X87130832Y-101566660D01*
X87103715Y-101576363D01*
X87075778Y-101583361D01*
X87047289Y-101587587D01*
X87018523Y-101589000D01*
X86255477Y-101589000D01*
X86226711Y-101587587D01*
X86198222Y-101583361D01*
X86170285Y-101576363D01*
X86143168Y-101566660D01*
X86117133Y-101554347D01*
X86092430Y-101539540D01*
X86069297Y-101522384D01*
X86047957Y-101503043D01*
X86028616Y-101481703D01*
X86011460Y-101458570D01*
X85996653Y-101433867D01*
X85984340Y-101407832D01*
X85974637Y-101380715D01*
X85967639Y-101352778D01*
X85963413Y-101324289D01*
X85962000Y-101295523D01*
X85962000Y-100282477D01*
X85963413Y-100253711D01*
X85967639Y-100225222D01*
X85974637Y-100197285D01*
X85984340Y-100170168D01*
X85996653Y-100144133D01*
X86011460Y-100119430D01*
X86028616Y-100096297D01*
X86047957Y-100074957D01*
X86069297Y-100055616D01*
X86092430Y-100038460D01*
X86117133Y-100023653D01*
X86143168Y-100011340D01*
X86170285Y-100001637D01*
X86198222Y-99994639D01*
X86226711Y-99990413D01*
X86255477Y-99989000D01*
X87018523Y-99989000D01*
X87047289Y-99990413D01*
X87047289Y-99990413D01*
G37*
D16*
X86637000Y-100789000D03*
D12*
X135180000Y-63050000D03*
X135180000Y-65590000D03*
X132640000Y-63050000D03*
X132640000Y-65590000D03*
X130100000Y-63050000D03*
X130100000Y-65590000D03*
X127560000Y-63050000D03*
X127560000Y-65590000D03*
X125020000Y-63050000D03*
X125020000Y-65590000D03*
X122480000Y-63050000D03*
X122480000Y-65590000D03*
X119940000Y-63050000D03*
X119940000Y-65590000D03*
X117400000Y-63050000D03*
X117400000Y-65590000D03*
X114860000Y-63050000D03*
X114860000Y-65590000D03*
X112320000Y-63050000D03*
X112320000Y-65590000D03*
X109780000Y-63050000D03*
X109780000Y-65590000D03*
X107240000Y-63050000D03*
X107240000Y-65590000D03*
X104700000Y-63050000D03*
X104700000Y-65590000D03*
X102160000Y-63050000D03*
X102160000Y-65590000D03*
X99620000Y-63050000D03*
X99620000Y-65590000D03*
X97080000Y-63050000D03*
X97080000Y-65590000D03*
X94540000Y-63050000D03*
X94540000Y-65590000D03*
X92000000Y-63050000D03*
X92000000Y-65590000D03*
X89460000Y-63050000D03*
X89460000Y-65590000D03*
X86920000Y-63050000D03*
D13*
X86920000Y-65590000D03*
D34*
X82040000Y-64310000D03*
X140040000Y-64330000D03*
X82040000Y-113320000D03*
X140030000Y-113310000D03*
M02*
