G04 #@! TF.GenerationSoftware,KiCad,Pcbnew,(5.1.4)-1*
G04 #@! TF.CreationDate,2019-11-05T17:53:00+05:30*
G04 #@! TF.ProjectId,RPi Hat RF Transmitter V1,52506920-4861-4742-9052-46205472616e,rev?*
G04 #@! TF.SameCoordinates,Original*
G04 #@! TF.FileFunction,Paste,Top*
G04 #@! TF.FilePolarity,Positive*
%FSLAX46Y46*%
G04 Gerber Fmt 4.6, Leading zero omitted, Abs format (unit mm)*
G04 Created by KiCad (PCBNEW (5.1.4)-1) date 2019-11-05 17:53:00*
%MOMM*%
%LPD*%
G04 APERTURE LIST*
%ADD10C,0.150000*%
%ADD11C,0.100000*%
%ADD12C,0.875000*%
%ADD13C,1.150000*%
%ADD14R,2.200000X1.050000*%
%ADD15R,1.050000X1.000000*%
%ADD16R,0.450000X1.475000*%
%ADD17R,1.050000X2.200000*%
%ADD18R,1.000000X1.050000*%
%ADD19C,0.610000*%
%ADD20C,1.040000*%
%ADD21C,3.000000*%
%ADD22C,1.100000*%
%ADD23C,0.800000*%
%ADD24R,1.500000X1.900000*%
%ADD25R,0.400000X1.350000*%
G04 APERTURE END LIST*
D10*
X78546356Y-63817611D02*
X78546356Y-113817611D01*
X140546356Y-60817611D02*
X81546356Y-60817611D01*
X143546351Y-113822847D02*
X143546356Y-63817611D01*
X81546356Y-116817611D02*
X140546356Y-116817611D01*
X78546356Y-63817611D02*
G75*
G02X81546356Y-60817611I3000000J0D01*
G01*
X140546356Y-60817611D02*
G75*
G02X143546356Y-63817611I0J-3000000D01*
G01*
X81546356Y-116817611D02*
G75*
G02X78546356Y-113817611I0J3000000D01*
G01*
X143546351Y-113822847D02*
G75*
G02X140546356Y-116817611I-2999995J5236D01*
G01*
D11*
G36*
X100127691Y-101286053D02*
G01*
X100148926Y-101289203D01*
X100169750Y-101294419D01*
X100189962Y-101301651D01*
X100209368Y-101310830D01*
X100227781Y-101321866D01*
X100245024Y-101334654D01*
X100260930Y-101349070D01*
X100275346Y-101364976D01*
X100288134Y-101382219D01*
X100299170Y-101400632D01*
X100308349Y-101420038D01*
X100315581Y-101440250D01*
X100320797Y-101461074D01*
X100323947Y-101482309D01*
X100325000Y-101503750D01*
X100325000Y-102016250D01*
X100323947Y-102037691D01*
X100320797Y-102058926D01*
X100315581Y-102079750D01*
X100308349Y-102099962D01*
X100299170Y-102119368D01*
X100288134Y-102137781D01*
X100275346Y-102155024D01*
X100260930Y-102170930D01*
X100245024Y-102185346D01*
X100227781Y-102198134D01*
X100209368Y-102209170D01*
X100189962Y-102218349D01*
X100169750Y-102225581D01*
X100148926Y-102230797D01*
X100127691Y-102233947D01*
X100106250Y-102235000D01*
X99668750Y-102235000D01*
X99647309Y-102233947D01*
X99626074Y-102230797D01*
X99605250Y-102225581D01*
X99585038Y-102218349D01*
X99565632Y-102209170D01*
X99547219Y-102198134D01*
X99529976Y-102185346D01*
X99514070Y-102170930D01*
X99499654Y-102155024D01*
X99486866Y-102137781D01*
X99475830Y-102119368D01*
X99466651Y-102099962D01*
X99459419Y-102079750D01*
X99454203Y-102058926D01*
X99451053Y-102037691D01*
X99450000Y-102016250D01*
X99450000Y-101503750D01*
X99451053Y-101482309D01*
X99454203Y-101461074D01*
X99459419Y-101440250D01*
X99466651Y-101420038D01*
X99475830Y-101400632D01*
X99486866Y-101382219D01*
X99499654Y-101364976D01*
X99514070Y-101349070D01*
X99529976Y-101334654D01*
X99547219Y-101321866D01*
X99565632Y-101310830D01*
X99585038Y-101301651D01*
X99605250Y-101294419D01*
X99626074Y-101289203D01*
X99647309Y-101286053D01*
X99668750Y-101285000D01*
X100106250Y-101285000D01*
X100127691Y-101286053D01*
X100127691Y-101286053D01*
G37*
D12*
X99887500Y-101760000D03*
D11*
G36*
X98552691Y-101286053D02*
G01*
X98573926Y-101289203D01*
X98594750Y-101294419D01*
X98614962Y-101301651D01*
X98634368Y-101310830D01*
X98652781Y-101321866D01*
X98670024Y-101334654D01*
X98685930Y-101349070D01*
X98700346Y-101364976D01*
X98713134Y-101382219D01*
X98724170Y-101400632D01*
X98733349Y-101420038D01*
X98740581Y-101440250D01*
X98745797Y-101461074D01*
X98748947Y-101482309D01*
X98750000Y-101503750D01*
X98750000Y-102016250D01*
X98748947Y-102037691D01*
X98745797Y-102058926D01*
X98740581Y-102079750D01*
X98733349Y-102099962D01*
X98724170Y-102119368D01*
X98713134Y-102137781D01*
X98700346Y-102155024D01*
X98685930Y-102170930D01*
X98670024Y-102185346D01*
X98652781Y-102198134D01*
X98634368Y-102209170D01*
X98614962Y-102218349D01*
X98594750Y-102225581D01*
X98573926Y-102230797D01*
X98552691Y-102233947D01*
X98531250Y-102235000D01*
X98093750Y-102235000D01*
X98072309Y-102233947D01*
X98051074Y-102230797D01*
X98030250Y-102225581D01*
X98010038Y-102218349D01*
X97990632Y-102209170D01*
X97972219Y-102198134D01*
X97954976Y-102185346D01*
X97939070Y-102170930D01*
X97924654Y-102155024D01*
X97911866Y-102137781D01*
X97900830Y-102119368D01*
X97891651Y-102099962D01*
X97884419Y-102079750D01*
X97879203Y-102058926D01*
X97876053Y-102037691D01*
X97875000Y-102016250D01*
X97875000Y-101503750D01*
X97876053Y-101482309D01*
X97879203Y-101461074D01*
X97884419Y-101440250D01*
X97891651Y-101420038D01*
X97900830Y-101400632D01*
X97911866Y-101382219D01*
X97924654Y-101364976D01*
X97939070Y-101349070D01*
X97954976Y-101334654D01*
X97972219Y-101321866D01*
X97990632Y-101310830D01*
X98010038Y-101301651D01*
X98030250Y-101294419D01*
X98051074Y-101289203D01*
X98072309Y-101286053D01*
X98093750Y-101285000D01*
X98531250Y-101285000D01*
X98552691Y-101286053D01*
X98552691Y-101286053D01*
G37*
D12*
X98312500Y-101760000D03*
D11*
G36*
X102717691Y-103011053D02*
G01*
X102738926Y-103014203D01*
X102759750Y-103019419D01*
X102779962Y-103026651D01*
X102799368Y-103035830D01*
X102817781Y-103046866D01*
X102835024Y-103059654D01*
X102850930Y-103074070D01*
X102865346Y-103089976D01*
X102878134Y-103107219D01*
X102889170Y-103125632D01*
X102898349Y-103145038D01*
X102905581Y-103165250D01*
X102910797Y-103186074D01*
X102913947Y-103207309D01*
X102915000Y-103228750D01*
X102915000Y-103666250D01*
X102913947Y-103687691D01*
X102910797Y-103708926D01*
X102905581Y-103729750D01*
X102898349Y-103749962D01*
X102889170Y-103769368D01*
X102878134Y-103787781D01*
X102865346Y-103805024D01*
X102850930Y-103820930D01*
X102835024Y-103835346D01*
X102817781Y-103848134D01*
X102799368Y-103859170D01*
X102779962Y-103868349D01*
X102759750Y-103875581D01*
X102738926Y-103880797D01*
X102717691Y-103883947D01*
X102696250Y-103885000D01*
X102183750Y-103885000D01*
X102162309Y-103883947D01*
X102141074Y-103880797D01*
X102120250Y-103875581D01*
X102100038Y-103868349D01*
X102080632Y-103859170D01*
X102062219Y-103848134D01*
X102044976Y-103835346D01*
X102029070Y-103820930D01*
X102014654Y-103805024D01*
X102001866Y-103787781D01*
X101990830Y-103769368D01*
X101981651Y-103749962D01*
X101974419Y-103729750D01*
X101969203Y-103708926D01*
X101966053Y-103687691D01*
X101965000Y-103666250D01*
X101965000Y-103228750D01*
X101966053Y-103207309D01*
X101969203Y-103186074D01*
X101974419Y-103165250D01*
X101981651Y-103145038D01*
X101990830Y-103125632D01*
X102001866Y-103107219D01*
X102014654Y-103089976D01*
X102029070Y-103074070D01*
X102044976Y-103059654D01*
X102062219Y-103046866D01*
X102080632Y-103035830D01*
X102100038Y-103026651D01*
X102120250Y-103019419D01*
X102141074Y-103014203D01*
X102162309Y-103011053D01*
X102183750Y-103010000D01*
X102696250Y-103010000D01*
X102717691Y-103011053D01*
X102717691Y-103011053D01*
G37*
D12*
X102440000Y-103447500D03*
D11*
G36*
X102717691Y-101436053D02*
G01*
X102738926Y-101439203D01*
X102759750Y-101444419D01*
X102779962Y-101451651D01*
X102799368Y-101460830D01*
X102817781Y-101471866D01*
X102835024Y-101484654D01*
X102850930Y-101499070D01*
X102865346Y-101514976D01*
X102878134Y-101532219D01*
X102889170Y-101550632D01*
X102898349Y-101570038D01*
X102905581Y-101590250D01*
X102910797Y-101611074D01*
X102913947Y-101632309D01*
X102915000Y-101653750D01*
X102915000Y-102091250D01*
X102913947Y-102112691D01*
X102910797Y-102133926D01*
X102905581Y-102154750D01*
X102898349Y-102174962D01*
X102889170Y-102194368D01*
X102878134Y-102212781D01*
X102865346Y-102230024D01*
X102850930Y-102245930D01*
X102835024Y-102260346D01*
X102817781Y-102273134D01*
X102799368Y-102284170D01*
X102779962Y-102293349D01*
X102759750Y-102300581D01*
X102738926Y-102305797D01*
X102717691Y-102308947D01*
X102696250Y-102310000D01*
X102183750Y-102310000D01*
X102162309Y-102308947D01*
X102141074Y-102305797D01*
X102120250Y-102300581D01*
X102100038Y-102293349D01*
X102080632Y-102284170D01*
X102062219Y-102273134D01*
X102044976Y-102260346D01*
X102029070Y-102245930D01*
X102014654Y-102230024D01*
X102001866Y-102212781D01*
X101990830Y-102194368D01*
X101981651Y-102174962D01*
X101974419Y-102154750D01*
X101969203Y-102133926D01*
X101966053Y-102112691D01*
X101965000Y-102091250D01*
X101965000Y-101653750D01*
X101966053Y-101632309D01*
X101969203Y-101611074D01*
X101974419Y-101590250D01*
X101981651Y-101570038D01*
X101990830Y-101550632D01*
X102001866Y-101532219D01*
X102014654Y-101514976D01*
X102029070Y-101499070D01*
X102044976Y-101484654D01*
X102062219Y-101471866D01*
X102080632Y-101460830D01*
X102100038Y-101451651D01*
X102120250Y-101444419D01*
X102141074Y-101439203D01*
X102162309Y-101436053D01*
X102183750Y-101435000D01*
X102696250Y-101435000D01*
X102717691Y-101436053D01*
X102717691Y-101436053D01*
G37*
D12*
X102440000Y-101872500D03*
D11*
G36*
X103574505Y-70036204D02*
G01*
X103598773Y-70039804D01*
X103622572Y-70045765D01*
X103645671Y-70054030D01*
X103667850Y-70064520D01*
X103688893Y-70077132D01*
X103708599Y-70091747D01*
X103726777Y-70108223D01*
X103743253Y-70126401D01*
X103757868Y-70146107D01*
X103770480Y-70167150D01*
X103780970Y-70189329D01*
X103789235Y-70212428D01*
X103795196Y-70236227D01*
X103798796Y-70260495D01*
X103800000Y-70284999D01*
X103800000Y-70935001D01*
X103798796Y-70959505D01*
X103795196Y-70983773D01*
X103789235Y-71007572D01*
X103780970Y-71030671D01*
X103770480Y-71052850D01*
X103757868Y-71073893D01*
X103743253Y-71093599D01*
X103726777Y-71111777D01*
X103708599Y-71128253D01*
X103688893Y-71142868D01*
X103667850Y-71155480D01*
X103645671Y-71165970D01*
X103622572Y-71174235D01*
X103598773Y-71180196D01*
X103574505Y-71183796D01*
X103550001Y-71185000D01*
X102649999Y-71185000D01*
X102625495Y-71183796D01*
X102601227Y-71180196D01*
X102577428Y-71174235D01*
X102554329Y-71165970D01*
X102532150Y-71155480D01*
X102511107Y-71142868D01*
X102491401Y-71128253D01*
X102473223Y-71111777D01*
X102456747Y-71093599D01*
X102442132Y-71073893D01*
X102429520Y-71052850D01*
X102419030Y-71030671D01*
X102410765Y-71007572D01*
X102404804Y-70983773D01*
X102401204Y-70959505D01*
X102400000Y-70935001D01*
X102400000Y-70284999D01*
X102401204Y-70260495D01*
X102404804Y-70236227D01*
X102410765Y-70212428D01*
X102419030Y-70189329D01*
X102429520Y-70167150D01*
X102442132Y-70146107D01*
X102456747Y-70126401D01*
X102473223Y-70108223D01*
X102491401Y-70091747D01*
X102511107Y-70077132D01*
X102532150Y-70064520D01*
X102554329Y-70054030D01*
X102577428Y-70045765D01*
X102601227Y-70039804D01*
X102625495Y-70036204D01*
X102649999Y-70035000D01*
X103550001Y-70035000D01*
X103574505Y-70036204D01*
X103574505Y-70036204D01*
G37*
D13*
X103100000Y-70610000D03*
D11*
G36*
X103574505Y-72086204D02*
G01*
X103598773Y-72089804D01*
X103622572Y-72095765D01*
X103645671Y-72104030D01*
X103667850Y-72114520D01*
X103688893Y-72127132D01*
X103708599Y-72141747D01*
X103726777Y-72158223D01*
X103743253Y-72176401D01*
X103757868Y-72196107D01*
X103770480Y-72217150D01*
X103780970Y-72239329D01*
X103789235Y-72262428D01*
X103795196Y-72286227D01*
X103798796Y-72310495D01*
X103800000Y-72334999D01*
X103800000Y-72985001D01*
X103798796Y-73009505D01*
X103795196Y-73033773D01*
X103789235Y-73057572D01*
X103780970Y-73080671D01*
X103770480Y-73102850D01*
X103757868Y-73123893D01*
X103743253Y-73143599D01*
X103726777Y-73161777D01*
X103708599Y-73178253D01*
X103688893Y-73192868D01*
X103667850Y-73205480D01*
X103645671Y-73215970D01*
X103622572Y-73224235D01*
X103598773Y-73230196D01*
X103574505Y-73233796D01*
X103550001Y-73235000D01*
X102649999Y-73235000D01*
X102625495Y-73233796D01*
X102601227Y-73230196D01*
X102577428Y-73224235D01*
X102554329Y-73215970D01*
X102532150Y-73205480D01*
X102511107Y-73192868D01*
X102491401Y-73178253D01*
X102473223Y-73161777D01*
X102456747Y-73143599D01*
X102442132Y-73123893D01*
X102429520Y-73102850D01*
X102419030Y-73080671D01*
X102410765Y-73057572D01*
X102404804Y-73033773D01*
X102401204Y-73009505D01*
X102400000Y-72985001D01*
X102400000Y-72334999D01*
X102401204Y-72310495D01*
X102404804Y-72286227D01*
X102410765Y-72262428D01*
X102419030Y-72239329D01*
X102429520Y-72217150D01*
X102442132Y-72196107D01*
X102456747Y-72176401D01*
X102473223Y-72158223D01*
X102491401Y-72141747D01*
X102511107Y-72127132D01*
X102532150Y-72114520D01*
X102554329Y-72104030D01*
X102577428Y-72095765D01*
X102601227Y-72089804D01*
X102625495Y-72086204D01*
X102649999Y-72085000D01*
X103550001Y-72085000D01*
X103574505Y-72086204D01*
X103574505Y-72086204D01*
G37*
D13*
X103100000Y-72660000D03*
D14*
X118490000Y-95045000D03*
X118490000Y-97995000D03*
D15*
X116965000Y-96520000D03*
D16*
X123730000Y-86420000D03*
X124380000Y-86420000D03*
X125030000Y-86420000D03*
X125680000Y-86420000D03*
X126330000Y-86420000D03*
X126980000Y-86420000D03*
X127630000Y-86420000D03*
X128280000Y-86420000D03*
X128930000Y-86420000D03*
X129580000Y-86420000D03*
X129580000Y-80544000D03*
X128930000Y-80544000D03*
X128280000Y-80544000D03*
X127630000Y-80544000D03*
X126980000Y-80544000D03*
X126330000Y-80544000D03*
X125680000Y-80544000D03*
X125030000Y-80544000D03*
X124380000Y-80544000D03*
X123730000Y-80544000D03*
X97725000Y-80502000D03*
X97075000Y-80502000D03*
X96425000Y-80502000D03*
X95775000Y-80502000D03*
X95125000Y-80502000D03*
X94475000Y-80502000D03*
X93825000Y-80502000D03*
X93175000Y-80502000D03*
X92525000Y-80502000D03*
X91875000Y-80502000D03*
X91875000Y-86378000D03*
X92525000Y-86378000D03*
X93175000Y-86378000D03*
X93825000Y-86378000D03*
X94475000Y-86378000D03*
X95125000Y-86378000D03*
X95775000Y-86378000D03*
X96425000Y-86378000D03*
X97075000Y-86378000D03*
X97725000Y-86378000D03*
D17*
X137245000Y-81320000D03*
X140195000Y-81320000D03*
D18*
X138720000Y-82845000D03*
D17*
X137325000Y-90480000D03*
X140275000Y-90480000D03*
D18*
X138800000Y-92005000D03*
D14*
X104160000Y-95045000D03*
X104160000Y-97995000D03*
D15*
X102635000Y-96520000D03*
D11*
G36*
X99844505Y-79821204D02*
G01*
X99868773Y-79824804D01*
X99892572Y-79830765D01*
X99915671Y-79839030D01*
X99937850Y-79849520D01*
X99958893Y-79862132D01*
X99978599Y-79876747D01*
X99996777Y-79893223D01*
X100013253Y-79911401D01*
X100027868Y-79931107D01*
X100040480Y-79952150D01*
X100050970Y-79974329D01*
X100059235Y-79997428D01*
X100065196Y-80021227D01*
X100068796Y-80045495D01*
X100070000Y-80069999D01*
X100070000Y-80970001D01*
X100068796Y-80994505D01*
X100065196Y-81018773D01*
X100059235Y-81042572D01*
X100050970Y-81065671D01*
X100040480Y-81087850D01*
X100027868Y-81108893D01*
X100013253Y-81128599D01*
X99996777Y-81146777D01*
X99978599Y-81163253D01*
X99958893Y-81177868D01*
X99937850Y-81190480D01*
X99915671Y-81200970D01*
X99892572Y-81209235D01*
X99868773Y-81215196D01*
X99844505Y-81218796D01*
X99820001Y-81220000D01*
X99169999Y-81220000D01*
X99145495Y-81218796D01*
X99121227Y-81215196D01*
X99097428Y-81209235D01*
X99074329Y-81200970D01*
X99052150Y-81190480D01*
X99031107Y-81177868D01*
X99011401Y-81163253D01*
X98993223Y-81146777D01*
X98976747Y-81128599D01*
X98962132Y-81108893D01*
X98949520Y-81087850D01*
X98939030Y-81065671D01*
X98930765Y-81042572D01*
X98924804Y-81018773D01*
X98921204Y-80994505D01*
X98920000Y-80970001D01*
X98920000Y-80069999D01*
X98921204Y-80045495D01*
X98924804Y-80021227D01*
X98930765Y-79997428D01*
X98939030Y-79974329D01*
X98949520Y-79952150D01*
X98962132Y-79931107D01*
X98976747Y-79911401D01*
X98993223Y-79893223D01*
X99011401Y-79876747D01*
X99031107Y-79862132D01*
X99052150Y-79849520D01*
X99074329Y-79839030D01*
X99097428Y-79830765D01*
X99121227Y-79824804D01*
X99145495Y-79821204D01*
X99169999Y-79820000D01*
X99820001Y-79820000D01*
X99844505Y-79821204D01*
X99844505Y-79821204D01*
G37*
D13*
X99495000Y-80520000D03*
D11*
G36*
X101894505Y-79821204D02*
G01*
X101918773Y-79824804D01*
X101942572Y-79830765D01*
X101965671Y-79839030D01*
X101987850Y-79849520D01*
X102008893Y-79862132D01*
X102028599Y-79876747D01*
X102046777Y-79893223D01*
X102063253Y-79911401D01*
X102077868Y-79931107D01*
X102090480Y-79952150D01*
X102100970Y-79974329D01*
X102109235Y-79997428D01*
X102115196Y-80021227D01*
X102118796Y-80045495D01*
X102120000Y-80069999D01*
X102120000Y-80970001D01*
X102118796Y-80994505D01*
X102115196Y-81018773D01*
X102109235Y-81042572D01*
X102100970Y-81065671D01*
X102090480Y-81087850D01*
X102077868Y-81108893D01*
X102063253Y-81128599D01*
X102046777Y-81146777D01*
X102028599Y-81163253D01*
X102008893Y-81177868D01*
X101987850Y-81190480D01*
X101965671Y-81200970D01*
X101942572Y-81209235D01*
X101918773Y-81215196D01*
X101894505Y-81218796D01*
X101870001Y-81220000D01*
X101219999Y-81220000D01*
X101195495Y-81218796D01*
X101171227Y-81215196D01*
X101147428Y-81209235D01*
X101124329Y-81200970D01*
X101102150Y-81190480D01*
X101081107Y-81177868D01*
X101061401Y-81163253D01*
X101043223Y-81146777D01*
X101026747Y-81128599D01*
X101012132Y-81108893D01*
X100999520Y-81087850D01*
X100989030Y-81065671D01*
X100980765Y-81042572D01*
X100974804Y-81018773D01*
X100971204Y-80994505D01*
X100970000Y-80970001D01*
X100970000Y-80069999D01*
X100971204Y-80045495D01*
X100974804Y-80021227D01*
X100980765Y-79997428D01*
X100989030Y-79974329D01*
X100999520Y-79952150D01*
X101012132Y-79931107D01*
X101026747Y-79911401D01*
X101043223Y-79893223D01*
X101061401Y-79876747D01*
X101081107Y-79862132D01*
X101102150Y-79849520D01*
X101124329Y-79839030D01*
X101147428Y-79830765D01*
X101171227Y-79824804D01*
X101195495Y-79821204D01*
X101219999Y-79820000D01*
X101870001Y-79820000D01*
X101894505Y-79821204D01*
X101894505Y-79821204D01*
G37*
D13*
X101545000Y-80520000D03*
D11*
G36*
X111127448Y-94970734D02*
G01*
X111142251Y-94972930D01*
X111156768Y-94976567D01*
X111170859Y-94981608D01*
X111184388Y-94988007D01*
X111197224Y-94995701D01*
X111209245Y-95004616D01*
X111220334Y-95014666D01*
X111230384Y-95025755D01*
X111239299Y-95037776D01*
X111246993Y-95050612D01*
X111253392Y-95064141D01*
X111258433Y-95078232D01*
X111262070Y-95092749D01*
X111264266Y-95107552D01*
X111265000Y-95122500D01*
X111265000Y-96062500D01*
X111264266Y-96077448D01*
X111262070Y-96092251D01*
X111258433Y-96106768D01*
X111253392Y-96120859D01*
X111246993Y-96134388D01*
X111239299Y-96147224D01*
X111230384Y-96159245D01*
X111220334Y-96170334D01*
X111209245Y-96180384D01*
X111197224Y-96189299D01*
X111184388Y-96196993D01*
X111170859Y-96203392D01*
X111156768Y-96208433D01*
X111142251Y-96212070D01*
X111127448Y-96214266D01*
X111112500Y-96215000D01*
X110807500Y-96215000D01*
X110792552Y-96214266D01*
X110777749Y-96212070D01*
X110763232Y-96208433D01*
X110749141Y-96203392D01*
X110735612Y-96196993D01*
X110722776Y-96189299D01*
X110710755Y-96180384D01*
X110699666Y-96170334D01*
X110689616Y-96159245D01*
X110680701Y-96147224D01*
X110673007Y-96134388D01*
X110666608Y-96120859D01*
X110661567Y-96106768D01*
X110657930Y-96092251D01*
X110655734Y-96077448D01*
X110655000Y-96062500D01*
X110655000Y-95122500D01*
X110655734Y-95107552D01*
X110657930Y-95092749D01*
X110661567Y-95078232D01*
X110666608Y-95064141D01*
X110673007Y-95050612D01*
X110680701Y-95037776D01*
X110689616Y-95025755D01*
X110699666Y-95014666D01*
X110710755Y-95004616D01*
X110722776Y-94995701D01*
X110735612Y-94988007D01*
X110749141Y-94981608D01*
X110763232Y-94976567D01*
X110777749Y-94972930D01*
X110792552Y-94970734D01*
X110807500Y-94970000D01*
X111112500Y-94970000D01*
X111127448Y-94970734D01*
X111127448Y-94970734D01*
G37*
D19*
X110960000Y-95592500D03*
D11*
G36*
X111127448Y-96825734D02*
G01*
X111142251Y-96827930D01*
X111156768Y-96831567D01*
X111170859Y-96836608D01*
X111184388Y-96843007D01*
X111197224Y-96850701D01*
X111209245Y-96859616D01*
X111220334Y-96869666D01*
X111230384Y-96880755D01*
X111239299Y-96892776D01*
X111246993Y-96905612D01*
X111253392Y-96919141D01*
X111258433Y-96933232D01*
X111262070Y-96947749D01*
X111264266Y-96962552D01*
X111265000Y-96977500D01*
X111265000Y-97917500D01*
X111264266Y-97932448D01*
X111262070Y-97947251D01*
X111258433Y-97961768D01*
X111253392Y-97975859D01*
X111246993Y-97989388D01*
X111239299Y-98002224D01*
X111230384Y-98014245D01*
X111220334Y-98025334D01*
X111209245Y-98035384D01*
X111197224Y-98044299D01*
X111184388Y-98051993D01*
X111170859Y-98058392D01*
X111156768Y-98063433D01*
X111142251Y-98067070D01*
X111127448Y-98069266D01*
X111112500Y-98070000D01*
X110807500Y-98070000D01*
X110792552Y-98069266D01*
X110777749Y-98067070D01*
X110763232Y-98063433D01*
X110749141Y-98058392D01*
X110735612Y-98051993D01*
X110722776Y-98044299D01*
X110710755Y-98035384D01*
X110699666Y-98025334D01*
X110689616Y-98014245D01*
X110680701Y-98002224D01*
X110673007Y-97989388D01*
X110666608Y-97975859D01*
X110661567Y-97961768D01*
X110657930Y-97947251D01*
X110655734Y-97932448D01*
X110655000Y-97917500D01*
X110655000Y-96977500D01*
X110655734Y-96962552D01*
X110657930Y-96947749D01*
X110661567Y-96933232D01*
X110666608Y-96919141D01*
X110673007Y-96905612D01*
X110680701Y-96892776D01*
X110689616Y-96880755D01*
X110699666Y-96869666D01*
X110710755Y-96859616D01*
X110722776Y-96850701D01*
X110735612Y-96843007D01*
X110749141Y-96836608D01*
X110763232Y-96831567D01*
X110777749Y-96827930D01*
X110792552Y-96825734D01*
X110807500Y-96825000D01*
X111112500Y-96825000D01*
X111127448Y-96825734D01*
X111127448Y-96825734D01*
G37*
D19*
X110960000Y-97447500D03*
D11*
G36*
X112879865Y-95621202D02*
G01*
X112904095Y-95624796D01*
X112927855Y-95630748D01*
X112950918Y-95639000D01*
X112973061Y-95649472D01*
X112994070Y-95662065D01*
X113013745Y-95676657D01*
X113031894Y-95693106D01*
X113048343Y-95711255D01*
X113062935Y-95730930D01*
X113075528Y-95751939D01*
X113086000Y-95774082D01*
X113094252Y-95797145D01*
X113100204Y-95820905D01*
X113103798Y-95845135D01*
X113105000Y-95869600D01*
X113105000Y-97170400D01*
X113103798Y-97194865D01*
X113100204Y-97219095D01*
X113094252Y-97242855D01*
X113086000Y-97265918D01*
X113075528Y-97288061D01*
X113062935Y-97309070D01*
X113048343Y-97328745D01*
X113031894Y-97346894D01*
X113013745Y-97363343D01*
X112994070Y-97377935D01*
X112973061Y-97390528D01*
X112950918Y-97401000D01*
X112927855Y-97409252D01*
X112904095Y-97415204D01*
X112879865Y-97418798D01*
X112855400Y-97420000D01*
X112314600Y-97420000D01*
X112290135Y-97418798D01*
X112265905Y-97415204D01*
X112242145Y-97409252D01*
X112219082Y-97401000D01*
X112196939Y-97390528D01*
X112175930Y-97377935D01*
X112156255Y-97363343D01*
X112138106Y-97346894D01*
X112121657Y-97328745D01*
X112107065Y-97309070D01*
X112094472Y-97288061D01*
X112084000Y-97265918D01*
X112075748Y-97242855D01*
X112069796Y-97219095D01*
X112066202Y-97194865D01*
X112065000Y-97170400D01*
X112065000Y-95869600D01*
X112066202Y-95845135D01*
X112069796Y-95820905D01*
X112075748Y-95797145D01*
X112084000Y-95774082D01*
X112094472Y-95751939D01*
X112107065Y-95730930D01*
X112121657Y-95711255D01*
X112138106Y-95693106D01*
X112156255Y-95676657D01*
X112175930Y-95662065D01*
X112196939Y-95649472D01*
X112219082Y-95639000D01*
X112242145Y-95630748D01*
X112265905Y-95624796D01*
X112290135Y-95621202D01*
X112314600Y-95620000D01*
X112855400Y-95620000D01*
X112879865Y-95621202D01*
X112879865Y-95621202D01*
G37*
D20*
X112585000Y-96520000D03*
D11*
G36*
X109629865Y-95621202D02*
G01*
X109654095Y-95624796D01*
X109677855Y-95630748D01*
X109700918Y-95639000D01*
X109723061Y-95649472D01*
X109744070Y-95662065D01*
X109763745Y-95676657D01*
X109781894Y-95693106D01*
X109798343Y-95711255D01*
X109812935Y-95730930D01*
X109825528Y-95751939D01*
X109836000Y-95774082D01*
X109844252Y-95797145D01*
X109850204Y-95820905D01*
X109853798Y-95845135D01*
X109855000Y-95869600D01*
X109855000Y-97170400D01*
X109853798Y-97194865D01*
X109850204Y-97219095D01*
X109844252Y-97242855D01*
X109836000Y-97265918D01*
X109825528Y-97288061D01*
X109812935Y-97309070D01*
X109798343Y-97328745D01*
X109781894Y-97346894D01*
X109763745Y-97363343D01*
X109744070Y-97377935D01*
X109723061Y-97390528D01*
X109700918Y-97401000D01*
X109677855Y-97409252D01*
X109654095Y-97415204D01*
X109629865Y-97418798D01*
X109605400Y-97420000D01*
X109064600Y-97420000D01*
X109040135Y-97418798D01*
X109015905Y-97415204D01*
X108992145Y-97409252D01*
X108969082Y-97401000D01*
X108946939Y-97390528D01*
X108925930Y-97377935D01*
X108906255Y-97363343D01*
X108888106Y-97346894D01*
X108871657Y-97328745D01*
X108857065Y-97309070D01*
X108844472Y-97288061D01*
X108834000Y-97265918D01*
X108825748Y-97242855D01*
X108819796Y-97219095D01*
X108816202Y-97194865D01*
X108815000Y-97170400D01*
X108815000Y-95869600D01*
X108816202Y-95845135D01*
X108819796Y-95820905D01*
X108825748Y-95797145D01*
X108834000Y-95774082D01*
X108844472Y-95751939D01*
X108857065Y-95730930D01*
X108871657Y-95711255D01*
X108888106Y-95693106D01*
X108906255Y-95676657D01*
X108925930Y-95662065D01*
X108946939Y-95649472D01*
X108969082Y-95639000D01*
X108992145Y-95630748D01*
X109015905Y-95624796D01*
X109040135Y-95621202D01*
X109064600Y-95620000D01*
X109605400Y-95620000D01*
X109629865Y-95621202D01*
X109629865Y-95621202D01*
G37*
D20*
X109335000Y-96520000D03*
D11*
G36*
X122374505Y-81861204D02*
G01*
X122398773Y-81864804D01*
X122422572Y-81870765D01*
X122445671Y-81879030D01*
X122467850Y-81889520D01*
X122488893Y-81902132D01*
X122508599Y-81916747D01*
X122526777Y-81933223D01*
X122543253Y-81951401D01*
X122557868Y-81971107D01*
X122570480Y-81992150D01*
X122580970Y-82014329D01*
X122589235Y-82037428D01*
X122595196Y-82061227D01*
X122598796Y-82085495D01*
X122600000Y-82109999D01*
X122600000Y-82760001D01*
X122598796Y-82784505D01*
X122595196Y-82808773D01*
X122589235Y-82832572D01*
X122580970Y-82855671D01*
X122570480Y-82877850D01*
X122557868Y-82898893D01*
X122543253Y-82918599D01*
X122526777Y-82936777D01*
X122508599Y-82953253D01*
X122488893Y-82967868D01*
X122467850Y-82980480D01*
X122445671Y-82990970D01*
X122422572Y-82999235D01*
X122398773Y-83005196D01*
X122374505Y-83008796D01*
X122350001Y-83010000D01*
X121449999Y-83010000D01*
X121425495Y-83008796D01*
X121401227Y-83005196D01*
X121377428Y-82999235D01*
X121354329Y-82990970D01*
X121332150Y-82980480D01*
X121311107Y-82967868D01*
X121291401Y-82953253D01*
X121273223Y-82936777D01*
X121256747Y-82918599D01*
X121242132Y-82898893D01*
X121229520Y-82877850D01*
X121219030Y-82855671D01*
X121210765Y-82832572D01*
X121204804Y-82808773D01*
X121201204Y-82784505D01*
X121200000Y-82760001D01*
X121200000Y-82109999D01*
X121201204Y-82085495D01*
X121204804Y-82061227D01*
X121210765Y-82037428D01*
X121219030Y-82014329D01*
X121229520Y-81992150D01*
X121242132Y-81971107D01*
X121256747Y-81951401D01*
X121273223Y-81933223D01*
X121291401Y-81916747D01*
X121311107Y-81902132D01*
X121332150Y-81889520D01*
X121354329Y-81879030D01*
X121377428Y-81870765D01*
X121401227Y-81864804D01*
X121425495Y-81861204D01*
X121449999Y-81860000D01*
X122350001Y-81860000D01*
X122374505Y-81861204D01*
X122374505Y-81861204D01*
G37*
D13*
X121900000Y-82435000D03*
D11*
G36*
X122374505Y-83911204D02*
G01*
X122398773Y-83914804D01*
X122422572Y-83920765D01*
X122445671Y-83929030D01*
X122467850Y-83939520D01*
X122488893Y-83952132D01*
X122508599Y-83966747D01*
X122526777Y-83983223D01*
X122543253Y-84001401D01*
X122557868Y-84021107D01*
X122570480Y-84042150D01*
X122580970Y-84064329D01*
X122589235Y-84087428D01*
X122595196Y-84111227D01*
X122598796Y-84135495D01*
X122600000Y-84159999D01*
X122600000Y-84810001D01*
X122598796Y-84834505D01*
X122595196Y-84858773D01*
X122589235Y-84882572D01*
X122580970Y-84905671D01*
X122570480Y-84927850D01*
X122557868Y-84948893D01*
X122543253Y-84968599D01*
X122526777Y-84986777D01*
X122508599Y-85003253D01*
X122488893Y-85017868D01*
X122467850Y-85030480D01*
X122445671Y-85040970D01*
X122422572Y-85049235D01*
X122398773Y-85055196D01*
X122374505Y-85058796D01*
X122350001Y-85060000D01*
X121449999Y-85060000D01*
X121425495Y-85058796D01*
X121401227Y-85055196D01*
X121377428Y-85049235D01*
X121354329Y-85040970D01*
X121332150Y-85030480D01*
X121311107Y-85017868D01*
X121291401Y-85003253D01*
X121273223Y-84986777D01*
X121256747Y-84968599D01*
X121242132Y-84948893D01*
X121229520Y-84927850D01*
X121219030Y-84905671D01*
X121210765Y-84882572D01*
X121204804Y-84858773D01*
X121201204Y-84834505D01*
X121200000Y-84810001D01*
X121200000Y-84159999D01*
X121201204Y-84135495D01*
X121204804Y-84111227D01*
X121210765Y-84087428D01*
X121219030Y-84064329D01*
X121229520Y-84042150D01*
X121242132Y-84021107D01*
X121256747Y-84001401D01*
X121273223Y-83983223D01*
X121291401Y-83966747D01*
X121311107Y-83952132D01*
X121332150Y-83939520D01*
X121354329Y-83929030D01*
X121377428Y-83920765D01*
X121401227Y-83914804D01*
X121425495Y-83911204D01*
X121449999Y-83910000D01*
X122350001Y-83910000D01*
X122374505Y-83911204D01*
X122374505Y-83911204D01*
G37*
D13*
X121900000Y-84485000D03*
D11*
G36*
X120134505Y-81861204D02*
G01*
X120158773Y-81864804D01*
X120182572Y-81870765D01*
X120205671Y-81879030D01*
X120227850Y-81889520D01*
X120248893Y-81902132D01*
X120268599Y-81916747D01*
X120286777Y-81933223D01*
X120303253Y-81951401D01*
X120317868Y-81971107D01*
X120330480Y-81992150D01*
X120340970Y-82014329D01*
X120349235Y-82037428D01*
X120355196Y-82061227D01*
X120358796Y-82085495D01*
X120360000Y-82109999D01*
X120360000Y-82760001D01*
X120358796Y-82784505D01*
X120355196Y-82808773D01*
X120349235Y-82832572D01*
X120340970Y-82855671D01*
X120330480Y-82877850D01*
X120317868Y-82898893D01*
X120303253Y-82918599D01*
X120286777Y-82936777D01*
X120268599Y-82953253D01*
X120248893Y-82967868D01*
X120227850Y-82980480D01*
X120205671Y-82990970D01*
X120182572Y-82999235D01*
X120158773Y-83005196D01*
X120134505Y-83008796D01*
X120110001Y-83010000D01*
X119209999Y-83010000D01*
X119185495Y-83008796D01*
X119161227Y-83005196D01*
X119137428Y-82999235D01*
X119114329Y-82990970D01*
X119092150Y-82980480D01*
X119071107Y-82967868D01*
X119051401Y-82953253D01*
X119033223Y-82936777D01*
X119016747Y-82918599D01*
X119002132Y-82898893D01*
X118989520Y-82877850D01*
X118979030Y-82855671D01*
X118970765Y-82832572D01*
X118964804Y-82808773D01*
X118961204Y-82784505D01*
X118960000Y-82760001D01*
X118960000Y-82109999D01*
X118961204Y-82085495D01*
X118964804Y-82061227D01*
X118970765Y-82037428D01*
X118979030Y-82014329D01*
X118989520Y-81992150D01*
X119002132Y-81971107D01*
X119016747Y-81951401D01*
X119033223Y-81933223D01*
X119051401Y-81916747D01*
X119071107Y-81902132D01*
X119092150Y-81889520D01*
X119114329Y-81879030D01*
X119137428Y-81870765D01*
X119161227Y-81864804D01*
X119185495Y-81861204D01*
X119209999Y-81860000D01*
X120110001Y-81860000D01*
X120134505Y-81861204D01*
X120134505Y-81861204D01*
G37*
D13*
X119660000Y-82435000D03*
D11*
G36*
X120134505Y-83911204D02*
G01*
X120158773Y-83914804D01*
X120182572Y-83920765D01*
X120205671Y-83929030D01*
X120227850Y-83939520D01*
X120248893Y-83952132D01*
X120268599Y-83966747D01*
X120286777Y-83983223D01*
X120303253Y-84001401D01*
X120317868Y-84021107D01*
X120330480Y-84042150D01*
X120340970Y-84064329D01*
X120349235Y-84087428D01*
X120355196Y-84111227D01*
X120358796Y-84135495D01*
X120360000Y-84159999D01*
X120360000Y-84810001D01*
X120358796Y-84834505D01*
X120355196Y-84858773D01*
X120349235Y-84882572D01*
X120340970Y-84905671D01*
X120330480Y-84927850D01*
X120317868Y-84948893D01*
X120303253Y-84968599D01*
X120286777Y-84986777D01*
X120268599Y-85003253D01*
X120248893Y-85017868D01*
X120227850Y-85030480D01*
X120205671Y-85040970D01*
X120182572Y-85049235D01*
X120158773Y-85055196D01*
X120134505Y-85058796D01*
X120110001Y-85060000D01*
X119209999Y-85060000D01*
X119185495Y-85058796D01*
X119161227Y-85055196D01*
X119137428Y-85049235D01*
X119114329Y-85040970D01*
X119092150Y-85030480D01*
X119071107Y-85017868D01*
X119051401Y-85003253D01*
X119033223Y-84986777D01*
X119016747Y-84968599D01*
X119002132Y-84948893D01*
X118989520Y-84927850D01*
X118979030Y-84905671D01*
X118970765Y-84882572D01*
X118964804Y-84858773D01*
X118961204Y-84834505D01*
X118960000Y-84810001D01*
X118960000Y-84159999D01*
X118961204Y-84135495D01*
X118964804Y-84111227D01*
X118970765Y-84087428D01*
X118979030Y-84064329D01*
X118989520Y-84042150D01*
X119002132Y-84021107D01*
X119016747Y-84001401D01*
X119033223Y-83983223D01*
X119051401Y-83966747D01*
X119071107Y-83952132D01*
X119092150Y-83939520D01*
X119114329Y-83929030D01*
X119137428Y-83920765D01*
X119161227Y-83914804D01*
X119185495Y-83911204D01*
X119209999Y-83910000D01*
X120110001Y-83910000D01*
X120134505Y-83911204D01*
X120134505Y-83911204D01*
G37*
D13*
X119660000Y-84485000D03*
D11*
G36*
X99994505Y-83911204D02*
G01*
X100018773Y-83914804D01*
X100042572Y-83920765D01*
X100065671Y-83929030D01*
X100087850Y-83939520D01*
X100108893Y-83952132D01*
X100128599Y-83966747D01*
X100146777Y-83983223D01*
X100163253Y-84001401D01*
X100177868Y-84021107D01*
X100190480Y-84042150D01*
X100200970Y-84064329D01*
X100209235Y-84087428D01*
X100215196Y-84111227D01*
X100218796Y-84135495D01*
X100220000Y-84159999D01*
X100220000Y-84810001D01*
X100218796Y-84834505D01*
X100215196Y-84858773D01*
X100209235Y-84882572D01*
X100200970Y-84905671D01*
X100190480Y-84927850D01*
X100177868Y-84948893D01*
X100163253Y-84968599D01*
X100146777Y-84986777D01*
X100128599Y-85003253D01*
X100108893Y-85017868D01*
X100087850Y-85030480D01*
X100065671Y-85040970D01*
X100042572Y-85049235D01*
X100018773Y-85055196D01*
X99994505Y-85058796D01*
X99970001Y-85060000D01*
X99069999Y-85060000D01*
X99045495Y-85058796D01*
X99021227Y-85055196D01*
X98997428Y-85049235D01*
X98974329Y-85040970D01*
X98952150Y-85030480D01*
X98931107Y-85017868D01*
X98911401Y-85003253D01*
X98893223Y-84986777D01*
X98876747Y-84968599D01*
X98862132Y-84948893D01*
X98849520Y-84927850D01*
X98839030Y-84905671D01*
X98830765Y-84882572D01*
X98824804Y-84858773D01*
X98821204Y-84834505D01*
X98820000Y-84810001D01*
X98820000Y-84159999D01*
X98821204Y-84135495D01*
X98824804Y-84111227D01*
X98830765Y-84087428D01*
X98839030Y-84064329D01*
X98849520Y-84042150D01*
X98862132Y-84021107D01*
X98876747Y-84001401D01*
X98893223Y-83983223D01*
X98911401Y-83966747D01*
X98931107Y-83952132D01*
X98952150Y-83939520D01*
X98974329Y-83929030D01*
X98997428Y-83920765D01*
X99021227Y-83914804D01*
X99045495Y-83911204D01*
X99069999Y-83910000D01*
X99970001Y-83910000D01*
X99994505Y-83911204D01*
X99994505Y-83911204D01*
G37*
D13*
X99520000Y-84485000D03*
D11*
G36*
X99994505Y-81861204D02*
G01*
X100018773Y-81864804D01*
X100042572Y-81870765D01*
X100065671Y-81879030D01*
X100087850Y-81889520D01*
X100108893Y-81902132D01*
X100128599Y-81916747D01*
X100146777Y-81933223D01*
X100163253Y-81951401D01*
X100177868Y-81971107D01*
X100190480Y-81992150D01*
X100200970Y-82014329D01*
X100209235Y-82037428D01*
X100215196Y-82061227D01*
X100218796Y-82085495D01*
X100220000Y-82109999D01*
X100220000Y-82760001D01*
X100218796Y-82784505D01*
X100215196Y-82808773D01*
X100209235Y-82832572D01*
X100200970Y-82855671D01*
X100190480Y-82877850D01*
X100177868Y-82898893D01*
X100163253Y-82918599D01*
X100146777Y-82936777D01*
X100128599Y-82953253D01*
X100108893Y-82967868D01*
X100087850Y-82980480D01*
X100065671Y-82990970D01*
X100042572Y-82999235D01*
X100018773Y-83005196D01*
X99994505Y-83008796D01*
X99970001Y-83010000D01*
X99069999Y-83010000D01*
X99045495Y-83008796D01*
X99021227Y-83005196D01*
X98997428Y-82999235D01*
X98974329Y-82990970D01*
X98952150Y-82980480D01*
X98931107Y-82967868D01*
X98911401Y-82953253D01*
X98893223Y-82936777D01*
X98876747Y-82918599D01*
X98862132Y-82898893D01*
X98849520Y-82877850D01*
X98839030Y-82855671D01*
X98830765Y-82832572D01*
X98824804Y-82808773D01*
X98821204Y-82784505D01*
X98820000Y-82760001D01*
X98820000Y-82109999D01*
X98821204Y-82085495D01*
X98824804Y-82061227D01*
X98830765Y-82037428D01*
X98839030Y-82014329D01*
X98849520Y-81992150D01*
X98862132Y-81971107D01*
X98876747Y-81951401D01*
X98893223Y-81933223D01*
X98911401Y-81916747D01*
X98931107Y-81902132D01*
X98952150Y-81889520D01*
X98974329Y-81879030D01*
X98997428Y-81870765D01*
X99021227Y-81864804D01*
X99045495Y-81861204D01*
X99069999Y-81860000D01*
X99970001Y-81860000D01*
X99994505Y-81861204D01*
X99994505Y-81861204D01*
G37*
D13*
X99520000Y-82435000D03*
D11*
G36*
X102154505Y-83911204D02*
G01*
X102178773Y-83914804D01*
X102202572Y-83920765D01*
X102225671Y-83929030D01*
X102247850Y-83939520D01*
X102268893Y-83952132D01*
X102288599Y-83966747D01*
X102306777Y-83983223D01*
X102323253Y-84001401D01*
X102337868Y-84021107D01*
X102350480Y-84042150D01*
X102360970Y-84064329D01*
X102369235Y-84087428D01*
X102375196Y-84111227D01*
X102378796Y-84135495D01*
X102380000Y-84159999D01*
X102380000Y-84810001D01*
X102378796Y-84834505D01*
X102375196Y-84858773D01*
X102369235Y-84882572D01*
X102360970Y-84905671D01*
X102350480Y-84927850D01*
X102337868Y-84948893D01*
X102323253Y-84968599D01*
X102306777Y-84986777D01*
X102288599Y-85003253D01*
X102268893Y-85017868D01*
X102247850Y-85030480D01*
X102225671Y-85040970D01*
X102202572Y-85049235D01*
X102178773Y-85055196D01*
X102154505Y-85058796D01*
X102130001Y-85060000D01*
X101229999Y-85060000D01*
X101205495Y-85058796D01*
X101181227Y-85055196D01*
X101157428Y-85049235D01*
X101134329Y-85040970D01*
X101112150Y-85030480D01*
X101091107Y-85017868D01*
X101071401Y-85003253D01*
X101053223Y-84986777D01*
X101036747Y-84968599D01*
X101022132Y-84948893D01*
X101009520Y-84927850D01*
X100999030Y-84905671D01*
X100990765Y-84882572D01*
X100984804Y-84858773D01*
X100981204Y-84834505D01*
X100980000Y-84810001D01*
X100980000Y-84159999D01*
X100981204Y-84135495D01*
X100984804Y-84111227D01*
X100990765Y-84087428D01*
X100999030Y-84064329D01*
X101009520Y-84042150D01*
X101022132Y-84021107D01*
X101036747Y-84001401D01*
X101053223Y-83983223D01*
X101071401Y-83966747D01*
X101091107Y-83952132D01*
X101112150Y-83939520D01*
X101134329Y-83929030D01*
X101157428Y-83920765D01*
X101181227Y-83914804D01*
X101205495Y-83911204D01*
X101229999Y-83910000D01*
X102130001Y-83910000D01*
X102154505Y-83911204D01*
X102154505Y-83911204D01*
G37*
D13*
X101680000Y-84485000D03*
D11*
G36*
X102154505Y-81861204D02*
G01*
X102178773Y-81864804D01*
X102202572Y-81870765D01*
X102225671Y-81879030D01*
X102247850Y-81889520D01*
X102268893Y-81902132D01*
X102288599Y-81916747D01*
X102306777Y-81933223D01*
X102323253Y-81951401D01*
X102337868Y-81971107D01*
X102350480Y-81992150D01*
X102360970Y-82014329D01*
X102369235Y-82037428D01*
X102375196Y-82061227D01*
X102378796Y-82085495D01*
X102380000Y-82109999D01*
X102380000Y-82760001D01*
X102378796Y-82784505D01*
X102375196Y-82808773D01*
X102369235Y-82832572D01*
X102360970Y-82855671D01*
X102350480Y-82877850D01*
X102337868Y-82898893D01*
X102323253Y-82918599D01*
X102306777Y-82936777D01*
X102288599Y-82953253D01*
X102268893Y-82967868D01*
X102247850Y-82980480D01*
X102225671Y-82990970D01*
X102202572Y-82999235D01*
X102178773Y-83005196D01*
X102154505Y-83008796D01*
X102130001Y-83010000D01*
X101229999Y-83010000D01*
X101205495Y-83008796D01*
X101181227Y-83005196D01*
X101157428Y-82999235D01*
X101134329Y-82990970D01*
X101112150Y-82980480D01*
X101091107Y-82967868D01*
X101071401Y-82953253D01*
X101053223Y-82936777D01*
X101036747Y-82918599D01*
X101022132Y-82898893D01*
X101009520Y-82877850D01*
X100999030Y-82855671D01*
X100990765Y-82832572D01*
X100984804Y-82808773D01*
X100981204Y-82784505D01*
X100980000Y-82760001D01*
X100980000Y-82109999D01*
X100981204Y-82085495D01*
X100984804Y-82061227D01*
X100990765Y-82037428D01*
X100999030Y-82014329D01*
X101009520Y-81992150D01*
X101022132Y-81971107D01*
X101036747Y-81951401D01*
X101053223Y-81933223D01*
X101071401Y-81916747D01*
X101091107Y-81902132D01*
X101112150Y-81889520D01*
X101134329Y-81879030D01*
X101157428Y-81870765D01*
X101181227Y-81864804D01*
X101205495Y-81861204D01*
X101229999Y-81860000D01*
X102130001Y-81860000D01*
X102154505Y-81861204D01*
X102154505Y-81861204D01*
G37*
D13*
X101680000Y-82435000D03*
D11*
G36*
X124755505Y-90243204D02*
G01*
X124779773Y-90246804D01*
X124803572Y-90252765D01*
X124826671Y-90261030D01*
X124848850Y-90271520D01*
X124869893Y-90284132D01*
X124889599Y-90298747D01*
X124907777Y-90315223D01*
X124924253Y-90333401D01*
X124938868Y-90353107D01*
X124951480Y-90374150D01*
X124961970Y-90396329D01*
X124970235Y-90419428D01*
X124976196Y-90443227D01*
X124979796Y-90467495D01*
X124981000Y-90491999D01*
X124981000Y-91142001D01*
X124979796Y-91166505D01*
X124976196Y-91190773D01*
X124970235Y-91214572D01*
X124961970Y-91237671D01*
X124951480Y-91259850D01*
X124938868Y-91280893D01*
X124924253Y-91300599D01*
X124907777Y-91318777D01*
X124889599Y-91335253D01*
X124869893Y-91349868D01*
X124848850Y-91362480D01*
X124826671Y-91372970D01*
X124803572Y-91381235D01*
X124779773Y-91387196D01*
X124755505Y-91390796D01*
X124731001Y-91392000D01*
X123830999Y-91392000D01*
X123806495Y-91390796D01*
X123782227Y-91387196D01*
X123758428Y-91381235D01*
X123735329Y-91372970D01*
X123713150Y-91362480D01*
X123692107Y-91349868D01*
X123672401Y-91335253D01*
X123654223Y-91318777D01*
X123637747Y-91300599D01*
X123623132Y-91280893D01*
X123610520Y-91259850D01*
X123600030Y-91237671D01*
X123591765Y-91214572D01*
X123585804Y-91190773D01*
X123582204Y-91166505D01*
X123581000Y-91142001D01*
X123581000Y-90491999D01*
X123582204Y-90467495D01*
X123585804Y-90443227D01*
X123591765Y-90419428D01*
X123600030Y-90396329D01*
X123610520Y-90374150D01*
X123623132Y-90353107D01*
X123637747Y-90333401D01*
X123654223Y-90315223D01*
X123672401Y-90298747D01*
X123692107Y-90284132D01*
X123713150Y-90271520D01*
X123735329Y-90261030D01*
X123758428Y-90252765D01*
X123782227Y-90246804D01*
X123806495Y-90243204D01*
X123830999Y-90242000D01*
X124731001Y-90242000D01*
X124755505Y-90243204D01*
X124755505Y-90243204D01*
G37*
D13*
X124281000Y-90817000D03*
D11*
G36*
X124755505Y-88193204D02*
G01*
X124779773Y-88196804D01*
X124803572Y-88202765D01*
X124826671Y-88211030D01*
X124848850Y-88221520D01*
X124869893Y-88234132D01*
X124889599Y-88248747D01*
X124907777Y-88265223D01*
X124924253Y-88283401D01*
X124938868Y-88303107D01*
X124951480Y-88324150D01*
X124961970Y-88346329D01*
X124970235Y-88369428D01*
X124976196Y-88393227D01*
X124979796Y-88417495D01*
X124981000Y-88441999D01*
X124981000Y-89092001D01*
X124979796Y-89116505D01*
X124976196Y-89140773D01*
X124970235Y-89164572D01*
X124961970Y-89187671D01*
X124951480Y-89209850D01*
X124938868Y-89230893D01*
X124924253Y-89250599D01*
X124907777Y-89268777D01*
X124889599Y-89285253D01*
X124869893Y-89299868D01*
X124848850Y-89312480D01*
X124826671Y-89322970D01*
X124803572Y-89331235D01*
X124779773Y-89337196D01*
X124755505Y-89340796D01*
X124731001Y-89342000D01*
X123830999Y-89342000D01*
X123806495Y-89340796D01*
X123782227Y-89337196D01*
X123758428Y-89331235D01*
X123735329Y-89322970D01*
X123713150Y-89312480D01*
X123692107Y-89299868D01*
X123672401Y-89285253D01*
X123654223Y-89268777D01*
X123637747Y-89250599D01*
X123623132Y-89230893D01*
X123610520Y-89209850D01*
X123600030Y-89187671D01*
X123591765Y-89164572D01*
X123585804Y-89140773D01*
X123582204Y-89116505D01*
X123581000Y-89092001D01*
X123581000Y-88441999D01*
X123582204Y-88417495D01*
X123585804Y-88393227D01*
X123591765Y-88369428D01*
X123600030Y-88346329D01*
X123610520Y-88324150D01*
X123623132Y-88303107D01*
X123637747Y-88283401D01*
X123654223Y-88265223D01*
X123672401Y-88248747D01*
X123692107Y-88234132D01*
X123713150Y-88221520D01*
X123735329Y-88211030D01*
X123758428Y-88202765D01*
X123782227Y-88196804D01*
X123806495Y-88193204D01*
X123830999Y-88192000D01*
X124731001Y-88192000D01*
X124755505Y-88193204D01*
X124755505Y-88193204D01*
G37*
D13*
X124281000Y-88767000D03*
D11*
G36*
X120448505Y-88068204D02*
G01*
X120472773Y-88071804D01*
X120496572Y-88077765D01*
X120519671Y-88086030D01*
X120541850Y-88096520D01*
X120562893Y-88109132D01*
X120582599Y-88123747D01*
X120600777Y-88140223D01*
X120617253Y-88158401D01*
X120631868Y-88178107D01*
X120644480Y-88199150D01*
X120654970Y-88221329D01*
X120663235Y-88244428D01*
X120669196Y-88268227D01*
X120672796Y-88292495D01*
X120674000Y-88316999D01*
X120674000Y-89217001D01*
X120672796Y-89241505D01*
X120669196Y-89265773D01*
X120663235Y-89289572D01*
X120654970Y-89312671D01*
X120644480Y-89334850D01*
X120631868Y-89355893D01*
X120617253Y-89375599D01*
X120600777Y-89393777D01*
X120582599Y-89410253D01*
X120562893Y-89424868D01*
X120541850Y-89437480D01*
X120519671Y-89447970D01*
X120496572Y-89456235D01*
X120472773Y-89462196D01*
X120448505Y-89465796D01*
X120424001Y-89467000D01*
X119773999Y-89467000D01*
X119749495Y-89465796D01*
X119725227Y-89462196D01*
X119701428Y-89456235D01*
X119678329Y-89447970D01*
X119656150Y-89437480D01*
X119635107Y-89424868D01*
X119615401Y-89410253D01*
X119597223Y-89393777D01*
X119580747Y-89375599D01*
X119566132Y-89355893D01*
X119553520Y-89334850D01*
X119543030Y-89312671D01*
X119534765Y-89289572D01*
X119528804Y-89265773D01*
X119525204Y-89241505D01*
X119524000Y-89217001D01*
X119524000Y-88316999D01*
X119525204Y-88292495D01*
X119528804Y-88268227D01*
X119534765Y-88244428D01*
X119543030Y-88221329D01*
X119553520Y-88199150D01*
X119566132Y-88178107D01*
X119580747Y-88158401D01*
X119597223Y-88140223D01*
X119615401Y-88123747D01*
X119635107Y-88109132D01*
X119656150Y-88096520D01*
X119678329Y-88086030D01*
X119701428Y-88077765D01*
X119725227Y-88071804D01*
X119749495Y-88068204D01*
X119773999Y-88067000D01*
X120424001Y-88067000D01*
X120448505Y-88068204D01*
X120448505Y-88068204D01*
G37*
D13*
X120099000Y-88767000D03*
D11*
G36*
X118398505Y-88068204D02*
G01*
X118422773Y-88071804D01*
X118446572Y-88077765D01*
X118469671Y-88086030D01*
X118491850Y-88096520D01*
X118512893Y-88109132D01*
X118532599Y-88123747D01*
X118550777Y-88140223D01*
X118567253Y-88158401D01*
X118581868Y-88178107D01*
X118594480Y-88199150D01*
X118604970Y-88221329D01*
X118613235Y-88244428D01*
X118619196Y-88268227D01*
X118622796Y-88292495D01*
X118624000Y-88316999D01*
X118624000Y-89217001D01*
X118622796Y-89241505D01*
X118619196Y-89265773D01*
X118613235Y-89289572D01*
X118604970Y-89312671D01*
X118594480Y-89334850D01*
X118581868Y-89355893D01*
X118567253Y-89375599D01*
X118550777Y-89393777D01*
X118532599Y-89410253D01*
X118512893Y-89424868D01*
X118491850Y-89437480D01*
X118469671Y-89447970D01*
X118446572Y-89456235D01*
X118422773Y-89462196D01*
X118398505Y-89465796D01*
X118374001Y-89467000D01*
X117723999Y-89467000D01*
X117699495Y-89465796D01*
X117675227Y-89462196D01*
X117651428Y-89456235D01*
X117628329Y-89447970D01*
X117606150Y-89437480D01*
X117585107Y-89424868D01*
X117565401Y-89410253D01*
X117547223Y-89393777D01*
X117530747Y-89375599D01*
X117516132Y-89355893D01*
X117503520Y-89334850D01*
X117493030Y-89312671D01*
X117484765Y-89289572D01*
X117478804Y-89265773D01*
X117475204Y-89241505D01*
X117474000Y-89217001D01*
X117474000Y-88316999D01*
X117475204Y-88292495D01*
X117478804Y-88268227D01*
X117484765Y-88244428D01*
X117493030Y-88221329D01*
X117503520Y-88199150D01*
X117516132Y-88178107D01*
X117530747Y-88158401D01*
X117547223Y-88140223D01*
X117565401Y-88123747D01*
X117585107Y-88109132D01*
X117606150Y-88096520D01*
X117628329Y-88086030D01*
X117651428Y-88077765D01*
X117675227Y-88071804D01*
X117699495Y-88068204D01*
X117723999Y-88067000D01*
X118374001Y-88067000D01*
X118398505Y-88068204D01*
X118398505Y-88068204D01*
G37*
D13*
X118049000Y-88767000D03*
D11*
G36*
X122596505Y-90243204D02*
G01*
X122620773Y-90246804D01*
X122644572Y-90252765D01*
X122667671Y-90261030D01*
X122689850Y-90271520D01*
X122710893Y-90284132D01*
X122730599Y-90298747D01*
X122748777Y-90315223D01*
X122765253Y-90333401D01*
X122779868Y-90353107D01*
X122792480Y-90374150D01*
X122802970Y-90396329D01*
X122811235Y-90419428D01*
X122817196Y-90443227D01*
X122820796Y-90467495D01*
X122822000Y-90491999D01*
X122822000Y-91142001D01*
X122820796Y-91166505D01*
X122817196Y-91190773D01*
X122811235Y-91214572D01*
X122802970Y-91237671D01*
X122792480Y-91259850D01*
X122779868Y-91280893D01*
X122765253Y-91300599D01*
X122748777Y-91318777D01*
X122730599Y-91335253D01*
X122710893Y-91349868D01*
X122689850Y-91362480D01*
X122667671Y-91372970D01*
X122644572Y-91381235D01*
X122620773Y-91387196D01*
X122596505Y-91390796D01*
X122572001Y-91392000D01*
X121671999Y-91392000D01*
X121647495Y-91390796D01*
X121623227Y-91387196D01*
X121599428Y-91381235D01*
X121576329Y-91372970D01*
X121554150Y-91362480D01*
X121533107Y-91349868D01*
X121513401Y-91335253D01*
X121495223Y-91318777D01*
X121478747Y-91300599D01*
X121464132Y-91280893D01*
X121451520Y-91259850D01*
X121441030Y-91237671D01*
X121432765Y-91214572D01*
X121426804Y-91190773D01*
X121423204Y-91166505D01*
X121422000Y-91142001D01*
X121422000Y-90491999D01*
X121423204Y-90467495D01*
X121426804Y-90443227D01*
X121432765Y-90419428D01*
X121441030Y-90396329D01*
X121451520Y-90374150D01*
X121464132Y-90353107D01*
X121478747Y-90333401D01*
X121495223Y-90315223D01*
X121513401Y-90298747D01*
X121533107Y-90284132D01*
X121554150Y-90271520D01*
X121576329Y-90261030D01*
X121599428Y-90252765D01*
X121623227Y-90246804D01*
X121647495Y-90243204D01*
X121671999Y-90242000D01*
X122572001Y-90242000D01*
X122596505Y-90243204D01*
X122596505Y-90243204D01*
G37*
D13*
X122122000Y-90817000D03*
D11*
G36*
X122596505Y-88193204D02*
G01*
X122620773Y-88196804D01*
X122644572Y-88202765D01*
X122667671Y-88211030D01*
X122689850Y-88221520D01*
X122710893Y-88234132D01*
X122730599Y-88248747D01*
X122748777Y-88265223D01*
X122765253Y-88283401D01*
X122779868Y-88303107D01*
X122792480Y-88324150D01*
X122802970Y-88346329D01*
X122811235Y-88369428D01*
X122817196Y-88393227D01*
X122820796Y-88417495D01*
X122822000Y-88441999D01*
X122822000Y-89092001D01*
X122820796Y-89116505D01*
X122817196Y-89140773D01*
X122811235Y-89164572D01*
X122802970Y-89187671D01*
X122792480Y-89209850D01*
X122779868Y-89230893D01*
X122765253Y-89250599D01*
X122748777Y-89268777D01*
X122730599Y-89285253D01*
X122710893Y-89299868D01*
X122689850Y-89312480D01*
X122667671Y-89322970D01*
X122644572Y-89331235D01*
X122620773Y-89337196D01*
X122596505Y-89340796D01*
X122572001Y-89342000D01*
X121671999Y-89342000D01*
X121647495Y-89340796D01*
X121623227Y-89337196D01*
X121599428Y-89331235D01*
X121576329Y-89322970D01*
X121554150Y-89312480D01*
X121533107Y-89299868D01*
X121513401Y-89285253D01*
X121495223Y-89268777D01*
X121478747Y-89250599D01*
X121464132Y-89230893D01*
X121451520Y-89209850D01*
X121441030Y-89187671D01*
X121432765Y-89164572D01*
X121426804Y-89140773D01*
X121423204Y-89116505D01*
X121422000Y-89092001D01*
X121422000Y-88441999D01*
X121423204Y-88417495D01*
X121426804Y-88393227D01*
X121432765Y-88369428D01*
X121441030Y-88346329D01*
X121451520Y-88324150D01*
X121464132Y-88303107D01*
X121478747Y-88283401D01*
X121495223Y-88265223D01*
X121513401Y-88248747D01*
X121533107Y-88234132D01*
X121554150Y-88221520D01*
X121576329Y-88211030D01*
X121599428Y-88202765D01*
X121623227Y-88196804D01*
X121647495Y-88193204D01*
X121671999Y-88192000D01*
X122572001Y-88192000D01*
X122596505Y-88193204D01*
X122596505Y-88193204D01*
G37*
D13*
X122122000Y-88767000D03*
D11*
G36*
X116502505Y-88068204D02*
G01*
X116526773Y-88071804D01*
X116550572Y-88077765D01*
X116573671Y-88086030D01*
X116595850Y-88096520D01*
X116616893Y-88109132D01*
X116636599Y-88123747D01*
X116654777Y-88140223D01*
X116671253Y-88158401D01*
X116685868Y-88178107D01*
X116698480Y-88199150D01*
X116708970Y-88221329D01*
X116717235Y-88244428D01*
X116723196Y-88268227D01*
X116726796Y-88292495D01*
X116728000Y-88316999D01*
X116728000Y-89217001D01*
X116726796Y-89241505D01*
X116723196Y-89265773D01*
X116717235Y-89289572D01*
X116708970Y-89312671D01*
X116698480Y-89334850D01*
X116685868Y-89355893D01*
X116671253Y-89375599D01*
X116654777Y-89393777D01*
X116636599Y-89410253D01*
X116616893Y-89424868D01*
X116595850Y-89437480D01*
X116573671Y-89447970D01*
X116550572Y-89456235D01*
X116526773Y-89462196D01*
X116502505Y-89465796D01*
X116478001Y-89467000D01*
X115827999Y-89467000D01*
X115803495Y-89465796D01*
X115779227Y-89462196D01*
X115755428Y-89456235D01*
X115732329Y-89447970D01*
X115710150Y-89437480D01*
X115689107Y-89424868D01*
X115669401Y-89410253D01*
X115651223Y-89393777D01*
X115634747Y-89375599D01*
X115620132Y-89355893D01*
X115607520Y-89334850D01*
X115597030Y-89312671D01*
X115588765Y-89289572D01*
X115582804Y-89265773D01*
X115579204Y-89241505D01*
X115578000Y-89217001D01*
X115578000Y-88316999D01*
X115579204Y-88292495D01*
X115582804Y-88268227D01*
X115588765Y-88244428D01*
X115597030Y-88221329D01*
X115607520Y-88199150D01*
X115620132Y-88178107D01*
X115634747Y-88158401D01*
X115651223Y-88140223D01*
X115669401Y-88123747D01*
X115689107Y-88109132D01*
X115710150Y-88096520D01*
X115732329Y-88086030D01*
X115755428Y-88077765D01*
X115779227Y-88071804D01*
X115803495Y-88068204D01*
X115827999Y-88067000D01*
X116478001Y-88067000D01*
X116502505Y-88068204D01*
X116502505Y-88068204D01*
G37*
D13*
X116153000Y-88767000D03*
D11*
G36*
X114452505Y-88068204D02*
G01*
X114476773Y-88071804D01*
X114500572Y-88077765D01*
X114523671Y-88086030D01*
X114545850Y-88096520D01*
X114566893Y-88109132D01*
X114586599Y-88123747D01*
X114604777Y-88140223D01*
X114621253Y-88158401D01*
X114635868Y-88178107D01*
X114648480Y-88199150D01*
X114658970Y-88221329D01*
X114667235Y-88244428D01*
X114673196Y-88268227D01*
X114676796Y-88292495D01*
X114678000Y-88316999D01*
X114678000Y-89217001D01*
X114676796Y-89241505D01*
X114673196Y-89265773D01*
X114667235Y-89289572D01*
X114658970Y-89312671D01*
X114648480Y-89334850D01*
X114635868Y-89355893D01*
X114621253Y-89375599D01*
X114604777Y-89393777D01*
X114586599Y-89410253D01*
X114566893Y-89424868D01*
X114545850Y-89437480D01*
X114523671Y-89447970D01*
X114500572Y-89456235D01*
X114476773Y-89462196D01*
X114452505Y-89465796D01*
X114428001Y-89467000D01*
X113777999Y-89467000D01*
X113753495Y-89465796D01*
X113729227Y-89462196D01*
X113705428Y-89456235D01*
X113682329Y-89447970D01*
X113660150Y-89437480D01*
X113639107Y-89424868D01*
X113619401Y-89410253D01*
X113601223Y-89393777D01*
X113584747Y-89375599D01*
X113570132Y-89355893D01*
X113557520Y-89334850D01*
X113547030Y-89312671D01*
X113538765Y-89289572D01*
X113532804Y-89265773D01*
X113529204Y-89241505D01*
X113528000Y-89217001D01*
X113528000Y-88316999D01*
X113529204Y-88292495D01*
X113532804Y-88268227D01*
X113538765Y-88244428D01*
X113547030Y-88221329D01*
X113557520Y-88199150D01*
X113570132Y-88178107D01*
X113584747Y-88158401D01*
X113601223Y-88140223D01*
X113619401Y-88123747D01*
X113639107Y-88109132D01*
X113660150Y-88096520D01*
X113682329Y-88086030D01*
X113705428Y-88077765D01*
X113729227Y-88071804D01*
X113753495Y-88068204D01*
X113777999Y-88067000D01*
X114428001Y-88067000D01*
X114452505Y-88068204D01*
X114452505Y-88068204D01*
G37*
D13*
X114103000Y-88767000D03*
D11*
G36*
X135731505Y-104520704D02*
G01*
X135755773Y-104524304D01*
X135779572Y-104530265D01*
X135802671Y-104538530D01*
X135824850Y-104549020D01*
X135845893Y-104561632D01*
X135865599Y-104576247D01*
X135883777Y-104592723D01*
X135900253Y-104610901D01*
X135914868Y-104630607D01*
X135927480Y-104651650D01*
X135937970Y-104673829D01*
X135946235Y-104696928D01*
X135952196Y-104720727D01*
X135955796Y-104744995D01*
X135957000Y-104769499D01*
X135957000Y-105669501D01*
X135955796Y-105694005D01*
X135952196Y-105718273D01*
X135946235Y-105742072D01*
X135937970Y-105765171D01*
X135927480Y-105787350D01*
X135914868Y-105808393D01*
X135900253Y-105828099D01*
X135883777Y-105846277D01*
X135865599Y-105862753D01*
X135845893Y-105877368D01*
X135824850Y-105889980D01*
X135802671Y-105900470D01*
X135779572Y-105908735D01*
X135755773Y-105914696D01*
X135731505Y-105918296D01*
X135707001Y-105919500D01*
X135056999Y-105919500D01*
X135032495Y-105918296D01*
X135008227Y-105914696D01*
X134984428Y-105908735D01*
X134961329Y-105900470D01*
X134939150Y-105889980D01*
X134918107Y-105877368D01*
X134898401Y-105862753D01*
X134880223Y-105846277D01*
X134863747Y-105828099D01*
X134849132Y-105808393D01*
X134836520Y-105787350D01*
X134826030Y-105765171D01*
X134817765Y-105742072D01*
X134811804Y-105718273D01*
X134808204Y-105694005D01*
X134807000Y-105669501D01*
X134807000Y-104769499D01*
X134808204Y-104744995D01*
X134811804Y-104720727D01*
X134817765Y-104696928D01*
X134826030Y-104673829D01*
X134836520Y-104651650D01*
X134849132Y-104630607D01*
X134863747Y-104610901D01*
X134880223Y-104592723D01*
X134898401Y-104576247D01*
X134918107Y-104561632D01*
X134939150Y-104549020D01*
X134961329Y-104538530D01*
X134984428Y-104530265D01*
X135008227Y-104524304D01*
X135032495Y-104520704D01*
X135056999Y-104519500D01*
X135707001Y-104519500D01*
X135731505Y-104520704D01*
X135731505Y-104520704D01*
G37*
D13*
X135382000Y-105219500D03*
D11*
G36*
X133681505Y-104520704D02*
G01*
X133705773Y-104524304D01*
X133729572Y-104530265D01*
X133752671Y-104538530D01*
X133774850Y-104549020D01*
X133795893Y-104561632D01*
X133815599Y-104576247D01*
X133833777Y-104592723D01*
X133850253Y-104610901D01*
X133864868Y-104630607D01*
X133877480Y-104651650D01*
X133887970Y-104673829D01*
X133896235Y-104696928D01*
X133902196Y-104720727D01*
X133905796Y-104744995D01*
X133907000Y-104769499D01*
X133907000Y-105669501D01*
X133905796Y-105694005D01*
X133902196Y-105718273D01*
X133896235Y-105742072D01*
X133887970Y-105765171D01*
X133877480Y-105787350D01*
X133864868Y-105808393D01*
X133850253Y-105828099D01*
X133833777Y-105846277D01*
X133815599Y-105862753D01*
X133795893Y-105877368D01*
X133774850Y-105889980D01*
X133752671Y-105900470D01*
X133729572Y-105908735D01*
X133705773Y-105914696D01*
X133681505Y-105918296D01*
X133657001Y-105919500D01*
X133006999Y-105919500D01*
X132982495Y-105918296D01*
X132958227Y-105914696D01*
X132934428Y-105908735D01*
X132911329Y-105900470D01*
X132889150Y-105889980D01*
X132868107Y-105877368D01*
X132848401Y-105862753D01*
X132830223Y-105846277D01*
X132813747Y-105828099D01*
X132799132Y-105808393D01*
X132786520Y-105787350D01*
X132776030Y-105765171D01*
X132767765Y-105742072D01*
X132761804Y-105718273D01*
X132758204Y-105694005D01*
X132757000Y-105669501D01*
X132757000Y-104769499D01*
X132758204Y-104744995D01*
X132761804Y-104720727D01*
X132767765Y-104696928D01*
X132776030Y-104673829D01*
X132786520Y-104651650D01*
X132799132Y-104630607D01*
X132813747Y-104610901D01*
X132830223Y-104592723D01*
X132848401Y-104576247D01*
X132868107Y-104561632D01*
X132889150Y-104549020D01*
X132911329Y-104538530D01*
X132934428Y-104530265D01*
X132958227Y-104524304D01*
X132982495Y-104520704D01*
X133006999Y-104519500D01*
X133657001Y-104519500D01*
X133681505Y-104520704D01*
X133681505Y-104520704D01*
G37*
D13*
X133332000Y-105219500D03*
D11*
G36*
X128220505Y-109029204D02*
G01*
X128244773Y-109032804D01*
X128268572Y-109038765D01*
X128291671Y-109047030D01*
X128313850Y-109057520D01*
X128334893Y-109070132D01*
X128354599Y-109084747D01*
X128372777Y-109101223D01*
X128389253Y-109119401D01*
X128403868Y-109139107D01*
X128416480Y-109160150D01*
X128426970Y-109182329D01*
X128435235Y-109205428D01*
X128441196Y-109229227D01*
X128444796Y-109253495D01*
X128446000Y-109277999D01*
X128446000Y-110178001D01*
X128444796Y-110202505D01*
X128441196Y-110226773D01*
X128435235Y-110250572D01*
X128426970Y-110273671D01*
X128416480Y-110295850D01*
X128403868Y-110316893D01*
X128389253Y-110336599D01*
X128372777Y-110354777D01*
X128354599Y-110371253D01*
X128334893Y-110385868D01*
X128313850Y-110398480D01*
X128291671Y-110408970D01*
X128268572Y-110417235D01*
X128244773Y-110423196D01*
X128220505Y-110426796D01*
X128196001Y-110428000D01*
X127545999Y-110428000D01*
X127521495Y-110426796D01*
X127497227Y-110423196D01*
X127473428Y-110417235D01*
X127450329Y-110408970D01*
X127428150Y-110398480D01*
X127407107Y-110385868D01*
X127387401Y-110371253D01*
X127369223Y-110354777D01*
X127352747Y-110336599D01*
X127338132Y-110316893D01*
X127325520Y-110295850D01*
X127315030Y-110273671D01*
X127306765Y-110250572D01*
X127300804Y-110226773D01*
X127297204Y-110202505D01*
X127296000Y-110178001D01*
X127296000Y-109277999D01*
X127297204Y-109253495D01*
X127300804Y-109229227D01*
X127306765Y-109205428D01*
X127315030Y-109182329D01*
X127325520Y-109160150D01*
X127338132Y-109139107D01*
X127352747Y-109119401D01*
X127369223Y-109101223D01*
X127387401Y-109084747D01*
X127407107Y-109070132D01*
X127428150Y-109057520D01*
X127450329Y-109047030D01*
X127473428Y-109038765D01*
X127497227Y-109032804D01*
X127521495Y-109029204D01*
X127545999Y-109028000D01*
X128196001Y-109028000D01*
X128220505Y-109029204D01*
X128220505Y-109029204D01*
G37*
D13*
X127871000Y-109728000D03*
D11*
G36*
X130270505Y-109029204D02*
G01*
X130294773Y-109032804D01*
X130318572Y-109038765D01*
X130341671Y-109047030D01*
X130363850Y-109057520D01*
X130384893Y-109070132D01*
X130404599Y-109084747D01*
X130422777Y-109101223D01*
X130439253Y-109119401D01*
X130453868Y-109139107D01*
X130466480Y-109160150D01*
X130476970Y-109182329D01*
X130485235Y-109205428D01*
X130491196Y-109229227D01*
X130494796Y-109253495D01*
X130496000Y-109277999D01*
X130496000Y-110178001D01*
X130494796Y-110202505D01*
X130491196Y-110226773D01*
X130485235Y-110250572D01*
X130476970Y-110273671D01*
X130466480Y-110295850D01*
X130453868Y-110316893D01*
X130439253Y-110336599D01*
X130422777Y-110354777D01*
X130404599Y-110371253D01*
X130384893Y-110385868D01*
X130363850Y-110398480D01*
X130341671Y-110408970D01*
X130318572Y-110417235D01*
X130294773Y-110423196D01*
X130270505Y-110426796D01*
X130246001Y-110428000D01*
X129595999Y-110428000D01*
X129571495Y-110426796D01*
X129547227Y-110423196D01*
X129523428Y-110417235D01*
X129500329Y-110408970D01*
X129478150Y-110398480D01*
X129457107Y-110385868D01*
X129437401Y-110371253D01*
X129419223Y-110354777D01*
X129402747Y-110336599D01*
X129388132Y-110316893D01*
X129375520Y-110295850D01*
X129365030Y-110273671D01*
X129356765Y-110250572D01*
X129350804Y-110226773D01*
X129347204Y-110202505D01*
X129346000Y-110178001D01*
X129346000Y-109277999D01*
X129347204Y-109253495D01*
X129350804Y-109229227D01*
X129356765Y-109205428D01*
X129365030Y-109182329D01*
X129375520Y-109160150D01*
X129388132Y-109139107D01*
X129402747Y-109119401D01*
X129419223Y-109101223D01*
X129437401Y-109084747D01*
X129457107Y-109070132D01*
X129478150Y-109057520D01*
X129500329Y-109047030D01*
X129523428Y-109038765D01*
X129547227Y-109032804D01*
X129571495Y-109029204D01*
X129595999Y-109028000D01*
X130246001Y-109028000D01*
X130270505Y-109029204D01*
X130270505Y-109029204D01*
G37*
D13*
X129921000Y-109728000D03*
D11*
G36*
X135686005Y-101218704D02*
G01*
X135710273Y-101222304D01*
X135734072Y-101228265D01*
X135757171Y-101236530D01*
X135779350Y-101247020D01*
X135800393Y-101259632D01*
X135820099Y-101274247D01*
X135838277Y-101290723D01*
X135854753Y-101308901D01*
X135869368Y-101328607D01*
X135881980Y-101349650D01*
X135892470Y-101371829D01*
X135900735Y-101394928D01*
X135906696Y-101418727D01*
X135910296Y-101442995D01*
X135911500Y-101467499D01*
X135911500Y-102367501D01*
X135910296Y-102392005D01*
X135906696Y-102416273D01*
X135900735Y-102440072D01*
X135892470Y-102463171D01*
X135881980Y-102485350D01*
X135869368Y-102506393D01*
X135854753Y-102526099D01*
X135838277Y-102544277D01*
X135820099Y-102560753D01*
X135800393Y-102575368D01*
X135779350Y-102587980D01*
X135757171Y-102598470D01*
X135734072Y-102606735D01*
X135710273Y-102612696D01*
X135686005Y-102616296D01*
X135661501Y-102617500D01*
X135011499Y-102617500D01*
X134986995Y-102616296D01*
X134962727Y-102612696D01*
X134938928Y-102606735D01*
X134915829Y-102598470D01*
X134893650Y-102587980D01*
X134872607Y-102575368D01*
X134852901Y-102560753D01*
X134834723Y-102544277D01*
X134818247Y-102526099D01*
X134803632Y-102506393D01*
X134791020Y-102485350D01*
X134780530Y-102463171D01*
X134772265Y-102440072D01*
X134766304Y-102416273D01*
X134762704Y-102392005D01*
X134761500Y-102367501D01*
X134761500Y-101467499D01*
X134762704Y-101442995D01*
X134766304Y-101418727D01*
X134772265Y-101394928D01*
X134780530Y-101371829D01*
X134791020Y-101349650D01*
X134803632Y-101328607D01*
X134818247Y-101308901D01*
X134834723Y-101290723D01*
X134852901Y-101274247D01*
X134872607Y-101259632D01*
X134893650Y-101247020D01*
X134915829Y-101236530D01*
X134938928Y-101228265D01*
X134962727Y-101222304D01*
X134986995Y-101218704D01*
X135011499Y-101217500D01*
X135661501Y-101217500D01*
X135686005Y-101218704D01*
X135686005Y-101218704D01*
G37*
D13*
X135336500Y-101917500D03*
D11*
G36*
X133636005Y-101218704D02*
G01*
X133660273Y-101222304D01*
X133684072Y-101228265D01*
X133707171Y-101236530D01*
X133729350Y-101247020D01*
X133750393Y-101259632D01*
X133770099Y-101274247D01*
X133788277Y-101290723D01*
X133804753Y-101308901D01*
X133819368Y-101328607D01*
X133831980Y-101349650D01*
X133842470Y-101371829D01*
X133850735Y-101394928D01*
X133856696Y-101418727D01*
X133860296Y-101442995D01*
X133861500Y-101467499D01*
X133861500Y-102367501D01*
X133860296Y-102392005D01*
X133856696Y-102416273D01*
X133850735Y-102440072D01*
X133842470Y-102463171D01*
X133831980Y-102485350D01*
X133819368Y-102506393D01*
X133804753Y-102526099D01*
X133788277Y-102544277D01*
X133770099Y-102560753D01*
X133750393Y-102575368D01*
X133729350Y-102587980D01*
X133707171Y-102598470D01*
X133684072Y-102606735D01*
X133660273Y-102612696D01*
X133636005Y-102616296D01*
X133611501Y-102617500D01*
X132961499Y-102617500D01*
X132936995Y-102616296D01*
X132912727Y-102612696D01*
X132888928Y-102606735D01*
X132865829Y-102598470D01*
X132843650Y-102587980D01*
X132822607Y-102575368D01*
X132802901Y-102560753D01*
X132784723Y-102544277D01*
X132768247Y-102526099D01*
X132753632Y-102506393D01*
X132741020Y-102485350D01*
X132730530Y-102463171D01*
X132722265Y-102440072D01*
X132716304Y-102416273D01*
X132712704Y-102392005D01*
X132711500Y-102367501D01*
X132711500Y-101467499D01*
X132712704Y-101442995D01*
X132716304Y-101418727D01*
X132722265Y-101394928D01*
X132730530Y-101371829D01*
X132741020Y-101349650D01*
X132753632Y-101328607D01*
X132768247Y-101308901D01*
X132784723Y-101290723D01*
X132802901Y-101274247D01*
X132822607Y-101259632D01*
X132843650Y-101247020D01*
X132865829Y-101236530D01*
X132888928Y-101228265D01*
X132912727Y-101222304D01*
X132936995Y-101218704D01*
X132961499Y-101217500D01*
X133611501Y-101217500D01*
X133636005Y-101218704D01*
X133636005Y-101218704D01*
G37*
D13*
X133286500Y-101917500D03*
D11*
G36*
X135668005Y-97853204D02*
G01*
X135692273Y-97856804D01*
X135716072Y-97862765D01*
X135739171Y-97871030D01*
X135761350Y-97881520D01*
X135782393Y-97894132D01*
X135802099Y-97908747D01*
X135820277Y-97925223D01*
X135836753Y-97943401D01*
X135851368Y-97963107D01*
X135863980Y-97984150D01*
X135874470Y-98006329D01*
X135882735Y-98029428D01*
X135888696Y-98053227D01*
X135892296Y-98077495D01*
X135893500Y-98101999D01*
X135893500Y-99002001D01*
X135892296Y-99026505D01*
X135888696Y-99050773D01*
X135882735Y-99074572D01*
X135874470Y-99097671D01*
X135863980Y-99119850D01*
X135851368Y-99140893D01*
X135836753Y-99160599D01*
X135820277Y-99178777D01*
X135802099Y-99195253D01*
X135782393Y-99209868D01*
X135761350Y-99222480D01*
X135739171Y-99232970D01*
X135716072Y-99241235D01*
X135692273Y-99247196D01*
X135668005Y-99250796D01*
X135643501Y-99252000D01*
X134993499Y-99252000D01*
X134968995Y-99250796D01*
X134944727Y-99247196D01*
X134920928Y-99241235D01*
X134897829Y-99232970D01*
X134875650Y-99222480D01*
X134854607Y-99209868D01*
X134834901Y-99195253D01*
X134816723Y-99178777D01*
X134800247Y-99160599D01*
X134785632Y-99140893D01*
X134773020Y-99119850D01*
X134762530Y-99097671D01*
X134754265Y-99074572D01*
X134748304Y-99050773D01*
X134744704Y-99026505D01*
X134743500Y-99002001D01*
X134743500Y-98101999D01*
X134744704Y-98077495D01*
X134748304Y-98053227D01*
X134754265Y-98029428D01*
X134762530Y-98006329D01*
X134773020Y-97984150D01*
X134785632Y-97963107D01*
X134800247Y-97943401D01*
X134816723Y-97925223D01*
X134834901Y-97908747D01*
X134854607Y-97894132D01*
X134875650Y-97881520D01*
X134897829Y-97871030D01*
X134920928Y-97862765D01*
X134944727Y-97856804D01*
X134968995Y-97853204D01*
X134993499Y-97852000D01*
X135643501Y-97852000D01*
X135668005Y-97853204D01*
X135668005Y-97853204D01*
G37*
D13*
X135318500Y-98552000D03*
D11*
G36*
X133618005Y-97853204D02*
G01*
X133642273Y-97856804D01*
X133666072Y-97862765D01*
X133689171Y-97871030D01*
X133711350Y-97881520D01*
X133732393Y-97894132D01*
X133752099Y-97908747D01*
X133770277Y-97925223D01*
X133786753Y-97943401D01*
X133801368Y-97963107D01*
X133813980Y-97984150D01*
X133824470Y-98006329D01*
X133832735Y-98029428D01*
X133838696Y-98053227D01*
X133842296Y-98077495D01*
X133843500Y-98101999D01*
X133843500Y-99002001D01*
X133842296Y-99026505D01*
X133838696Y-99050773D01*
X133832735Y-99074572D01*
X133824470Y-99097671D01*
X133813980Y-99119850D01*
X133801368Y-99140893D01*
X133786753Y-99160599D01*
X133770277Y-99178777D01*
X133752099Y-99195253D01*
X133732393Y-99209868D01*
X133711350Y-99222480D01*
X133689171Y-99232970D01*
X133666072Y-99241235D01*
X133642273Y-99247196D01*
X133618005Y-99250796D01*
X133593501Y-99252000D01*
X132943499Y-99252000D01*
X132918995Y-99250796D01*
X132894727Y-99247196D01*
X132870928Y-99241235D01*
X132847829Y-99232970D01*
X132825650Y-99222480D01*
X132804607Y-99209868D01*
X132784901Y-99195253D01*
X132766723Y-99178777D01*
X132750247Y-99160599D01*
X132735632Y-99140893D01*
X132723020Y-99119850D01*
X132712530Y-99097671D01*
X132704265Y-99074572D01*
X132698304Y-99050773D01*
X132694704Y-99026505D01*
X132693500Y-99002001D01*
X132693500Y-98101999D01*
X132694704Y-98077495D01*
X132698304Y-98053227D01*
X132704265Y-98029428D01*
X132712530Y-98006329D01*
X132723020Y-97984150D01*
X132735632Y-97963107D01*
X132750247Y-97943401D01*
X132766723Y-97925223D01*
X132784901Y-97908747D01*
X132804607Y-97894132D01*
X132825650Y-97881520D01*
X132847829Y-97871030D01*
X132870928Y-97862765D01*
X132894727Y-97856804D01*
X132918995Y-97853204D01*
X132943499Y-97852000D01*
X133593501Y-97852000D01*
X133618005Y-97853204D01*
X133618005Y-97853204D01*
G37*
D13*
X133268500Y-98552000D03*
D11*
G36*
X139349005Y-96971204D02*
G01*
X139373273Y-96974804D01*
X139397072Y-96980765D01*
X139420171Y-96989030D01*
X139442350Y-96999520D01*
X139463393Y-97012132D01*
X139483099Y-97026747D01*
X139501277Y-97043223D01*
X139517753Y-97061401D01*
X139532368Y-97081107D01*
X139544980Y-97102150D01*
X139555470Y-97124329D01*
X139563735Y-97147428D01*
X139569696Y-97171227D01*
X139573296Y-97195495D01*
X139574500Y-97219999D01*
X139574500Y-97870001D01*
X139573296Y-97894505D01*
X139569696Y-97918773D01*
X139563735Y-97942572D01*
X139555470Y-97965671D01*
X139544980Y-97987850D01*
X139532368Y-98008893D01*
X139517753Y-98028599D01*
X139501277Y-98046777D01*
X139483099Y-98063253D01*
X139463393Y-98077868D01*
X139442350Y-98090480D01*
X139420171Y-98100970D01*
X139397072Y-98109235D01*
X139373273Y-98115196D01*
X139349005Y-98118796D01*
X139324501Y-98120000D01*
X138424499Y-98120000D01*
X138399995Y-98118796D01*
X138375727Y-98115196D01*
X138351928Y-98109235D01*
X138328829Y-98100970D01*
X138306650Y-98090480D01*
X138285607Y-98077868D01*
X138265901Y-98063253D01*
X138247723Y-98046777D01*
X138231247Y-98028599D01*
X138216632Y-98008893D01*
X138204020Y-97987850D01*
X138193530Y-97965671D01*
X138185265Y-97942572D01*
X138179304Y-97918773D01*
X138175704Y-97894505D01*
X138174500Y-97870001D01*
X138174500Y-97219999D01*
X138175704Y-97195495D01*
X138179304Y-97171227D01*
X138185265Y-97147428D01*
X138193530Y-97124329D01*
X138204020Y-97102150D01*
X138216632Y-97081107D01*
X138231247Y-97061401D01*
X138247723Y-97043223D01*
X138265901Y-97026747D01*
X138285607Y-97012132D01*
X138306650Y-96999520D01*
X138328829Y-96989030D01*
X138351928Y-96980765D01*
X138375727Y-96974804D01*
X138399995Y-96971204D01*
X138424499Y-96970000D01*
X139324501Y-96970000D01*
X139349005Y-96971204D01*
X139349005Y-96971204D01*
G37*
D13*
X138874500Y-97545000D03*
D11*
G36*
X139349005Y-94921204D02*
G01*
X139373273Y-94924804D01*
X139397072Y-94930765D01*
X139420171Y-94939030D01*
X139442350Y-94949520D01*
X139463393Y-94962132D01*
X139483099Y-94976747D01*
X139501277Y-94993223D01*
X139517753Y-95011401D01*
X139532368Y-95031107D01*
X139544980Y-95052150D01*
X139555470Y-95074329D01*
X139563735Y-95097428D01*
X139569696Y-95121227D01*
X139573296Y-95145495D01*
X139574500Y-95169999D01*
X139574500Y-95820001D01*
X139573296Y-95844505D01*
X139569696Y-95868773D01*
X139563735Y-95892572D01*
X139555470Y-95915671D01*
X139544980Y-95937850D01*
X139532368Y-95958893D01*
X139517753Y-95978599D01*
X139501277Y-95996777D01*
X139483099Y-96013253D01*
X139463393Y-96027868D01*
X139442350Y-96040480D01*
X139420171Y-96050970D01*
X139397072Y-96059235D01*
X139373273Y-96065196D01*
X139349005Y-96068796D01*
X139324501Y-96070000D01*
X138424499Y-96070000D01*
X138399995Y-96068796D01*
X138375727Y-96065196D01*
X138351928Y-96059235D01*
X138328829Y-96050970D01*
X138306650Y-96040480D01*
X138285607Y-96027868D01*
X138265901Y-96013253D01*
X138247723Y-95996777D01*
X138231247Y-95978599D01*
X138216632Y-95958893D01*
X138204020Y-95937850D01*
X138193530Y-95915671D01*
X138185265Y-95892572D01*
X138179304Y-95868773D01*
X138175704Y-95844505D01*
X138174500Y-95820001D01*
X138174500Y-95169999D01*
X138175704Y-95145495D01*
X138179304Y-95121227D01*
X138185265Y-95097428D01*
X138193530Y-95074329D01*
X138204020Y-95052150D01*
X138216632Y-95031107D01*
X138231247Y-95011401D01*
X138247723Y-94993223D01*
X138265901Y-94976747D01*
X138285607Y-94962132D01*
X138306650Y-94949520D01*
X138328829Y-94939030D01*
X138351928Y-94930765D01*
X138375727Y-94924804D01*
X138399995Y-94921204D01*
X138424499Y-94920000D01*
X139324501Y-94920000D01*
X139349005Y-94921204D01*
X139349005Y-94921204D01*
G37*
D13*
X138874500Y-95495000D03*
D11*
G36*
X116534505Y-75636204D02*
G01*
X116558773Y-75639804D01*
X116582572Y-75645765D01*
X116605671Y-75654030D01*
X116627850Y-75664520D01*
X116648893Y-75677132D01*
X116668599Y-75691747D01*
X116686777Y-75708223D01*
X116703253Y-75726401D01*
X116717868Y-75746107D01*
X116730480Y-75767150D01*
X116740970Y-75789329D01*
X116749235Y-75812428D01*
X116755196Y-75836227D01*
X116758796Y-75860495D01*
X116760000Y-75884999D01*
X116760000Y-76535001D01*
X116758796Y-76559505D01*
X116755196Y-76583773D01*
X116749235Y-76607572D01*
X116740970Y-76630671D01*
X116730480Y-76652850D01*
X116717868Y-76673893D01*
X116703253Y-76693599D01*
X116686777Y-76711777D01*
X116668599Y-76728253D01*
X116648893Y-76742868D01*
X116627850Y-76755480D01*
X116605671Y-76765970D01*
X116582572Y-76774235D01*
X116558773Y-76780196D01*
X116534505Y-76783796D01*
X116510001Y-76785000D01*
X115609999Y-76785000D01*
X115585495Y-76783796D01*
X115561227Y-76780196D01*
X115537428Y-76774235D01*
X115514329Y-76765970D01*
X115492150Y-76755480D01*
X115471107Y-76742868D01*
X115451401Y-76728253D01*
X115433223Y-76711777D01*
X115416747Y-76693599D01*
X115402132Y-76673893D01*
X115389520Y-76652850D01*
X115379030Y-76630671D01*
X115370765Y-76607572D01*
X115364804Y-76583773D01*
X115361204Y-76559505D01*
X115360000Y-76535001D01*
X115360000Y-75884999D01*
X115361204Y-75860495D01*
X115364804Y-75836227D01*
X115370765Y-75812428D01*
X115379030Y-75789329D01*
X115389520Y-75767150D01*
X115402132Y-75746107D01*
X115416747Y-75726401D01*
X115433223Y-75708223D01*
X115451401Y-75691747D01*
X115471107Y-75677132D01*
X115492150Y-75664520D01*
X115514329Y-75654030D01*
X115537428Y-75645765D01*
X115561227Y-75639804D01*
X115585495Y-75636204D01*
X115609999Y-75635000D01*
X116510001Y-75635000D01*
X116534505Y-75636204D01*
X116534505Y-75636204D01*
G37*
D13*
X116060000Y-76210000D03*
D11*
G36*
X116534505Y-77686204D02*
G01*
X116558773Y-77689804D01*
X116582572Y-77695765D01*
X116605671Y-77704030D01*
X116627850Y-77714520D01*
X116648893Y-77727132D01*
X116668599Y-77741747D01*
X116686777Y-77758223D01*
X116703253Y-77776401D01*
X116717868Y-77796107D01*
X116730480Y-77817150D01*
X116740970Y-77839329D01*
X116749235Y-77862428D01*
X116755196Y-77886227D01*
X116758796Y-77910495D01*
X116760000Y-77934999D01*
X116760000Y-78585001D01*
X116758796Y-78609505D01*
X116755196Y-78633773D01*
X116749235Y-78657572D01*
X116740970Y-78680671D01*
X116730480Y-78702850D01*
X116717868Y-78723893D01*
X116703253Y-78743599D01*
X116686777Y-78761777D01*
X116668599Y-78778253D01*
X116648893Y-78792868D01*
X116627850Y-78805480D01*
X116605671Y-78815970D01*
X116582572Y-78824235D01*
X116558773Y-78830196D01*
X116534505Y-78833796D01*
X116510001Y-78835000D01*
X115609999Y-78835000D01*
X115585495Y-78833796D01*
X115561227Y-78830196D01*
X115537428Y-78824235D01*
X115514329Y-78815970D01*
X115492150Y-78805480D01*
X115471107Y-78792868D01*
X115451401Y-78778253D01*
X115433223Y-78761777D01*
X115416747Y-78743599D01*
X115402132Y-78723893D01*
X115389520Y-78702850D01*
X115379030Y-78680671D01*
X115370765Y-78657572D01*
X115364804Y-78633773D01*
X115361204Y-78609505D01*
X115360000Y-78585001D01*
X115360000Y-77934999D01*
X115361204Y-77910495D01*
X115364804Y-77886227D01*
X115370765Y-77862428D01*
X115379030Y-77839329D01*
X115389520Y-77817150D01*
X115402132Y-77796107D01*
X115416747Y-77776401D01*
X115433223Y-77758223D01*
X115451401Y-77741747D01*
X115471107Y-77727132D01*
X115492150Y-77714520D01*
X115514329Y-77704030D01*
X115537428Y-77695765D01*
X115561227Y-77689804D01*
X115585495Y-77686204D01*
X115609999Y-77685000D01*
X116510001Y-77685000D01*
X116534505Y-77686204D01*
X116534505Y-77686204D01*
G37*
D13*
X116060000Y-78260000D03*
D11*
G36*
X110209505Y-77561204D02*
G01*
X110233773Y-77564804D01*
X110257572Y-77570765D01*
X110280671Y-77579030D01*
X110302850Y-77589520D01*
X110323893Y-77602132D01*
X110343599Y-77616747D01*
X110361777Y-77633223D01*
X110378253Y-77651401D01*
X110392868Y-77671107D01*
X110405480Y-77692150D01*
X110415970Y-77714329D01*
X110424235Y-77737428D01*
X110430196Y-77761227D01*
X110433796Y-77785495D01*
X110435000Y-77809999D01*
X110435000Y-78710001D01*
X110433796Y-78734505D01*
X110430196Y-78758773D01*
X110424235Y-78782572D01*
X110415970Y-78805671D01*
X110405480Y-78827850D01*
X110392868Y-78848893D01*
X110378253Y-78868599D01*
X110361777Y-78886777D01*
X110343599Y-78903253D01*
X110323893Y-78917868D01*
X110302850Y-78930480D01*
X110280671Y-78940970D01*
X110257572Y-78949235D01*
X110233773Y-78955196D01*
X110209505Y-78958796D01*
X110185001Y-78960000D01*
X109534999Y-78960000D01*
X109510495Y-78958796D01*
X109486227Y-78955196D01*
X109462428Y-78949235D01*
X109439329Y-78940970D01*
X109417150Y-78930480D01*
X109396107Y-78917868D01*
X109376401Y-78903253D01*
X109358223Y-78886777D01*
X109341747Y-78868599D01*
X109327132Y-78848893D01*
X109314520Y-78827850D01*
X109304030Y-78805671D01*
X109295765Y-78782572D01*
X109289804Y-78758773D01*
X109286204Y-78734505D01*
X109285000Y-78710001D01*
X109285000Y-77809999D01*
X109286204Y-77785495D01*
X109289804Y-77761227D01*
X109295765Y-77737428D01*
X109304030Y-77714329D01*
X109314520Y-77692150D01*
X109327132Y-77671107D01*
X109341747Y-77651401D01*
X109358223Y-77633223D01*
X109376401Y-77616747D01*
X109396107Y-77602132D01*
X109417150Y-77589520D01*
X109439329Y-77579030D01*
X109462428Y-77570765D01*
X109486227Y-77564804D01*
X109510495Y-77561204D01*
X109534999Y-77560000D01*
X110185001Y-77560000D01*
X110209505Y-77561204D01*
X110209505Y-77561204D01*
G37*
D13*
X109860000Y-78260000D03*
D11*
G36*
X108159505Y-77561204D02*
G01*
X108183773Y-77564804D01*
X108207572Y-77570765D01*
X108230671Y-77579030D01*
X108252850Y-77589520D01*
X108273893Y-77602132D01*
X108293599Y-77616747D01*
X108311777Y-77633223D01*
X108328253Y-77651401D01*
X108342868Y-77671107D01*
X108355480Y-77692150D01*
X108365970Y-77714329D01*
X108374235Y-77737428D01*
X108380196Y-77761227D01*
X108383796Y-77785495D01*
X108385000Y-77809999D01*
X108385000Y-78710001D01*
X108383796Y-78734505D01*
X108380196Y-78758773D01*
X108374235Y-78782572D01*
X108365970Y-78805671D01*
X108355480Y-78827850D01*
X108342868Y-78848893D01*
X108328253Y-78868599D01*
X108311777Y-78886777D01*
X108293599Y-78903253D01*
X108273893Y-78917868D01*
X108252850Y-78930480D01*
X108230671Y-78940970D01*
X108207572Y-78949235D01*
X108183773Y-78955196D01*
X108159505Y-78958796D01*
X108135001Y-78960000D01*
X107484999Y-78960000D01*
X107460495Y-78958796D01*
X107436227Y-78955196D01*
X107412428Y-78949235D01*
X107389329Y-78940970D01*
X107367150Y-78930480D01*
X107346107Y-78917868D01*
X107326401Y-78903253D01*
X107308223Y-78886777D01*
X107291747Y-78868599D01*
X107277132Y-78848893D01*
X107264520Y-78827850D01*
X107254030Y-78805671D01*
X107245765Y-78782572D01*
X107239804Y-78758773D01*
X107236204Y-78734505D01*
X107235000Y-78710001D01*
X107235000Y-77809999D01*
X107236204Y-77785495D01*
X107239804Y-77761227D01*
X107245765Y-77737428D01*
X107254030Y-77714329D01*
X107264520Y-77692150D01*
X107277132Y-77671107D01*
X107291747Y-77651401D01*
X107308223Y-77633223D01*
X107326401Y-77616747D01*
X107346107Y-77602132D01*
X107367150Y-77589520D01*
X107389329Y-77579030D01*
X107412428Y-77570765D01*
X107436227Y-77564804D01*
X107460495Y-77561204D01*
X107484999Y-77560000D01*
X108135001Y-77560000D01*
X108159505Y-77561204D01*
X108159505Y-77561204D01*
G37*
D13*
X107810000Y-78260000D03*
D11*
G36*
X103714505Y-75636204D02*
G01*
X103738773Y-75639804D01*
X103762572Y-75645765D01*
X103785671Y-75654030D01*
X103807850Y-75664520D01*
X103828893Y-75677132D01*
X103848599Y-75691747D01*
X103866777Y-75708223D01*
X103883253Y-75726401D01*
X103897868Y-75746107D01*
X103910480Y-75767150D01*
X103920970Y-75789329D01*
X103929235Y-75812428D01*
X103935196Y-75836227D01*
X103938796Y-75860495D01*
X103940000Y-75884999D01*
X103940000Y-76535001D01*
X103938796Y-76559505D01*
X103935196Y-76583773D01*
X103929235Y-76607572D01*
X103920970Y-76630671D01*
X103910480Y-76652850D01*
X103897868Y-76673893D01*
X103883253Y-76693599D01*
X103866777Y-76711777D01*
X103848599Y-76728253D01*
X103828893Y-76742868D01*
X103807850Y-76755480D01*
X103785671Y-76765970D01*
X103762572Y-76774235D01*
X103738773Y-76780196D01*
X103714505Y-76783796D01*
X103690001Y-76785000D01*
X102789999Y-76785000D01*
X102765495Y-76783796D01*
X102741227Y-76780196D01*
X102717428Y-76774235D01*
X102694329Y-76765970D01*
X102672150Y-76755480D01*
X102651107Y-76742868D01*
X102631401Y-76728253D01*
X102613223Y-76711777D01*
X102596747Y-76693599D01*
X102582132Y-76673893D01*
X102569520Y-76652850D01*
X102559030Y-76630671D01*
X102550765Y-76607572D01*
X102544804Y-76583773D01*
X102541204Y-76559505D01*
X102540000Y-76535001D01*
X102540000Y-75884999D01*
X102541204Y-75860495D01*
X102544804Y-75836227D01*
X102550765Y-75812428D01*
X102559030Y-75789329D01*
X102569520Y-75767150D01*
X102582132Y-75746107D01*
X102596747Y-75726401D01*
X102613223Y-75708223D01*
X102631401Y-75691747D01*
X102651107Y-75677132D01*
X102672150Y-75664520D01*
X102694329Y-75654030D01*
X102717428Y-75645765D01*
X102741227Y-75639804D01*
X102765495Y-75636204D01*
X102789999Y-75635000D01*
X103690001Y-75635000D01*
X103714505Y-75636204D01*
X103714505Y-75636204D01*
G37*
D13*
X103240000Y-76210000D03*
D11*
G36*
X103714505Y-77686204D02*
G01*
X103738773Y-77689804D01*
X103762572Y-77695765D01*
X103785671Y-77704030D01*
X103807850Y-77714520D01*
X103828893Y-77727132D01*
X103848599Y-77741747D01*
X103866777Y-77758223D01*
X103883253Y-77776401D01*
X103897868Y-77796107D01*
X103910480Y-77817150D01*
X103920970Y-77839329D01*
X103929235Y-77862428D01*
X103935196Y-77886227D01*
X103938796Y-77910495D01*
X103940000Y-77934999D01*
X103940000Y-78585001D01*
X103938796Y-78609505D01*
X103935196Y-78633773D01*
X103929235Y-78657572D01*
X103920970Y-78680671D01*
X103910480Y-78702850D01*
X103897868Y-78723893D01*
X103883253Y-78743599D01*
X103866777Y-78761777D01*
X103848599Y-78778253D01*
X103828893Y-78792868D01*
X103807850Y-78805480D01*
X103785671Y-78815970D01*
X103762572Y-78824235D01*
X103738773Y-78830196D01*
X103714505Y-78833796D01*
X103690001Y-78835000D01*
X102789999Y-78835000D01*
X102765495Y-78833796D01*
X102741227Y-78830196D01*
X102717428Y-78824235D01*
X102694329Y-78815970D01*
X102672150Y-78805480D01*
X102651107Y-78792868D01*
X102631401Y-78778253D01*
X102613223Y-78761777D01*
X102596747Y-78743599D01*
X102582132Y-78723893D01*
X102569520Y-78702850D01*
X102559030Y-78680671D01*
X102550765Y-78657572D01*
X102544804Y-78633773D01*
X102541204Y-78609505D01*
X102540000Y-78585001D01*
X102540000Y-77934999D01*
X102541204Y-77910495D01*
X102544804Y-77886227D01*
X102550765Y-77862428D01*
X102559030Y-77839329D01*
X102569520Y-77817150D01*
X102582132Y-77796107D01*
X102596747Y-77776401D01*
X102613223Y-77758223D01*
X102631401Y-77741747D01*
X102651107Y-77727132D01*
X102672150Y-77714520D01*
X102694329Y-77704030D01*
X102717428Y-77695765D01*
X102741227Y-77689804D01*
X102765495Y-77686204D01*
X102789999Y-77685000D01*
X103690001Y-77685000D01*
X103714505Y-77686204D01*
X103714505Y-77686204D01*
G37*
D13*
X103240000Y-78260000D03*
D11*
G36*
X110277505Y-90243204D02*
G01*
X110301773Y-90246804D01*
X110325572Y-90252765D01*
X110348671Y-90261030D01*
X110370850Y-90271520D01*
X110391893Y-90284132D01*
X110411599Y-90298747D01*
X110429777Y-90315223D01*
X110446253Y-90333401D01*
X110460868Y-90353107D01*
X110473480Y-90374150D01*
X110483970Y-90396329D01*
X110492235Y-90419428D01*
X110498196Y-90443227D01*
X110501796Y-90467495D01*
X110503000Y-90491999D01*
X110503000Y-91142001D01*
X110501796Y-91166505D01*
X110498196Y-91190773D01*
X110492235Y-91214572D01*
X110483970Y-91237671D01*
X110473480Y-91259850D01*
X110460868Y-91280893D01*
X110446253Y-91300599D01*
X110429777Y-91318777D01*
X110411599Y-91335253D01*
X110391893Y-91349868D01*
X110370850Y-91362480D01*
X110348671Y-91372970D01*
X110325572Y-91381235D01*
X110301773Y-91387196D01*
X110277505Y-91390796D01*
X110253001Y-91392000D01*
X109352999Y-91392000D01*
X109328495Y-91390796D01*
X109304227Y-91387196D01*
X109280428Y-91381235D01*
X109257329Y-91372970D01*
X109235150Y-91362480D01*
X109214107Y-91349868D01*
X109194401Y-91335253D01*
X109176223Y-91318777D01*
X109159747Y-91300599D01*
X109145132Y-91280893D01*
X109132520Y-91259850D01*
X109122030Y-91237671D01*
X109113765Y-91214572D01*
X109107804Y-91190773D01*
X109104204Y-91166505D01*
X109103000Y-91142001D01*
X109103000Y-90491999D01*
X109104204Y-90467495D01*
X109107804Y-90443227D01*
X109113765Y-90419428D01*
X109122030Y-90396329D01*
X109132520Y-90374150D01*
X109145132Y-90353107D01*
X109159747Y-90333401D01*
X109176223Y-90315223D01*
X109194401Y-90298747D01*
X109214107Y-90284132D01*
X109235150Y-90271520D01*
X109257329Y-90261030D01*
X109280428Y-90252765D01*
X109304227Y-90246804D01*
X109328495Y-90243204D01*
X109352999Y-90242000D01*
X110253001Y-90242000D01*
X110277505Y-90243204D01*
X110277505Y-90243204D01*
G37*
D13*
X109803000Y-90817000D03*
D11*
G36*
X110277505Y-88193204D02*
G01*
X110301773Y-88196804D01*
X110325572Y-88202765D01*
X110348671Y-88211030D01*
X110370850Y-88221520D01*
X110391893Y-88234132D01*
X110411599Y-88248747D01*
X110429777Y-88265223D01*
X110446253Y-88283401D01*
X110460868Y-88303107D01*
X110473480Y-88324150D01*
X110483970Y-88346329D01*
X110492235Y-88369428D01*
X110498196Y-88393227D01*
X110501796Y-88417495D01*
X110503000Y-88441999D01*
X110503000Y-89092001D01*
X110501796Y-89116505D01*
X110498196Y-89140773D01*
X110492235Y-89164572D01*
X110483970Y-89187671D01*
X110473480Y-89209850D01*
X110460868Y-89230893D01*
X110446253Y-89250599D01*
X110429777Y-89268777D01*
X110411599Y-89285253D01*
X110391893Y-89299868D01*
X110370850Y-89312480D01*
X110348671Y-89322970D01*
X110325572Y-89331235D01*
X110301773Y-89337196D01*
X110277505Y-89340796D01*
X110253001Y-89342000D01*
X109352999Y-89342000D01*
X109328495Y-89340796D01*
X109304227Y-89337196D01*
X109280428Y-89331235D01*
X109257329Y-89322970D01*
X109235150Y-89312480D01*
X109214107Y-89299868D01*
X109194401Y-89285253D01*
X109176223Y-89268777D01*
X109159747Y-89250599D01*
X109145132Y-89230893D01*
X109132520Y-89209850D01*
X109122030Y-89187671D01*
X109113765Y-89164572D01*
X109107804Y-89140773D01*
X109104204Y-89116505D01*
X109103000Y-89092001D01*
X109103000Y-88441999D01*
X109104204Y-88417495D01*
X109107804Y-88393227D01*
X109113765Y-88369428D01*
X109122030Y-88346329D01*
X109132520Y-88324150D01*
X109145132Y-88303107D01*
X109159747Y-88283401D01*
X109176223Y-88265223D01*
X109194401Y-88248747D01*
X109214107Y-88234132D01*
X109235150Y-88221520D01*
X109257329Y-88211030D01*
X109280428Y-88202765D01*
X109304227Y-88196804D01*
X109328495Y-88193204D01*
X109352999Y-88192000D01*
X110253001Y-88192000D01*
X110277505Y-88193204D01*
X110277505Y-88193204D01*
G37*
D13*
X109803000Y-88767000D03*
D11*
G36*
X116534505Y-70041204D02*
G01*
X116558773Y-70044804D01*
X116582572Y-70050765D01*
X116605671Y-70059030D01*
X116627850Y-70069520D01*
X116648893Y-70082132D01*
X116668599Y-70096747D01*
X116686777Y-70113223D01*
X116703253Y-70131401D01*
X116717868Y-70151107D01*
X116730480Y-70172150D01*
X116740970Y-70194329D01*
X116749235Y-70217428D01*
X116755196Y-70241227D01*
X116758796Y-70265495D01*
X116760000Y-70289999D01*
X116760000Y-70940001D01*
X116758796Y-70964505D01*
X116755196Y-70988773D01*
X116749235Y-71012572D01*
X116740970Y-71035671D01*
X116730480Y-71057850D01*
X116717868Y-71078893D01*
X116703253Y-71098599D01*
X116686777Y-71116777D01*
X116668599Y-71133253D01*
X116648893Y-71147868D01*
X116627850Y-71160480D01*
X116605671Y-71170970D01*
X116582572Y-71179235D01*
X116558773Y-71185196D01*
X116534505Y-71188796D01*
X116510001Y-71190000D01*
X115609999Y-71190000D01*
X115585495Y-71188796D01*
X115561227Y-71185196D01*
X115537428Y-71179235D01*
X115514329Y-71170970D01*
X115492150Y-71160480D01*
X115471107Y-71147868D01*
X115451401Y-71133253D01*
X115433223Y-71116777D01*
X115416747Y-71098599D01*
X115402132Y-71078893D01*
X115389520Y-71057850D01*
X115379030Y-71035671D01*
X115370765Y-71012572D01*
X115364804Y-70988773D01*
X115361204Y-70964505D01*
X115360000Y-70940001D01*
X115360000Y-70289999D01*
X115361204Y-70265495D01*
X115364804Y-70241227D01*
X115370765Y-70217428D01*
X115379030Y-70194329D01*
X115389520Y-70172150D01*
X115402132Y-70151107D01*
X115416747Y-70131401D01*
X115433223Y-70113223D01*
X115451401Y-70096747D01*
X115471107Y-70082132D01*
X115492150Y-70069520D01*
X115514329Y-70059030D01*
X115537428Y-70050765D01*
X115561227Y-70044804D01*
X115585495Y-70041204D01*
X115609999Y-70040000D01*
X116510001Y-70040000D01*
X116534505Y-70041204D01*
X116534505Y-70041204D01*
G37*
D13*
X116060000Y-70615000D03*
D11*
G36*
X116534505Y-72091204D02*
G01*
X116558773Y-72094804D01*
X116582572Y-72100765D01*
X116605671Y-72109030D01*
X116627850Y-72119520D01*
X116648893Y-72132132D01*
X116668599Y-72146747D01*
X116686777Y-72163223D01*
X116703253Y-72181401D01*
X116717868Y-72201107D01*
X116730480Y-72222150D01*
X116740970Y-72244329D01*
X116749235Y-72267428D01*
X116755196Y-72291227D01*
X116758796Y-72315495D01*
X116760000Y-72339999D01*
X116760000Y-72990001D01*
X116758796Y-73014505D01*
X116755196Y-73038773D01*
X116749235Y-73062572D01*
X116740970Y-73085671D01*
X116730480Y-73107850D01*
X116717868Y-73128893D01*
X116703253Y-73148599D01*
X116686777Y-73166777D01*
X116668599Y-73183253D01*
X116648893Y-73197868D01*
X116627850Y-73210480D01*
X116605671Y-73220970D01*
X116582572Y-73229235D01*
X116558773Y-73235196D01*
X116534505Y-73238796D01*
X116510001Y-73240000D01*
X115609999Y-73240000D01*
X115585495Y-73238796D01*
X115561227Y-73235196D01*
X115537428Y-73229235D01*
X115514329Y-73220970D01*
X115492150Y-73210480D01*
X115471107Y-73197868D01*
X115451401Y-73183253D01*
X115433223Y-73166777D01*
X115416747Y-73148599D01*
X115402132Y-73128893D01*
X115389520Y-73107850D01*
X115379030Y-73085671D01*
X115370765Y-73062572D01*
X115364804Y-73038773D01*
X115361204Y-73014505D01*
X115360000Y-72990001D01*
X115360000Y-72339999D01*
X115361204Y-72315495D01*
X115364804Y-72291227D01*
X115370765Y-72267428D01*
X115379030Y-72244329D01*
X115389520Y-72222150D01*
X115402132Y-72201107D01*
X115416747Y-72181401D01*
X115433223Y-72163223D01*
X115451401Y-72146747D01*
X115471107Y-72132132D01*
X115492150Y-72119520D01*
X115514329Y-72109030D01*
X115537428Y-72100765D01*
X115561227Y-72094804D01*
X115585495Y-72091204D01*
X115609999Y-72090000D01*
X116510001Y-72090000D01*
X116534505Y-72091204D01*
X116534505Y-72091204D01*
G37*
D13*
X116060000Y-72665000D03*
D11*
G36*
X104056505Y-88068204D02*
G01*
X104080773Y-88071804D01*
X104104572Y-88077765D01*
X104127671Y-88086030D01*
X104149850Y-88096520D01*
X104170893Y-88109132D01*
X104190599Y-88123747D01*
X104208777Y-88140223D01*
X104225253Y-88158401D01*
X104239868Y-88178107D01*
X104252480Y-88199150D01*
X104262970Y-88221329D01*
X104271235Y-88244428D01*
X104277196Y-88268227D01*
X104280796Y-88292495D01*
X104282000Y-88316999D01*
X104282000Y-89217001D01*
X104280796Y-89241505D01*
X104277196Y-89265773D01*
X104271235Y-89289572D01*
X104262970Y-89312671D01*
X104252480Y-89334850D01*
X104239868Y-89355893D01*
X104225253Y-89375599D01*
X104208777Y-89393777D01*
X104190599Y-89410253D01*
X104170893Y-89424868D01*
X104149850Y-89437480D01*
X104127671Y-89447970D01*
X104104572Y-89456235D01*
X104080773Y-89462196D01*
X104056505Y-89465796D01*
X104032001Y-89467000D01*
X103381999Y-89467000D01*
X103357495Y-89465796D01*
X103333227Y-89462196D01*
X103309428Y-89456235D01*
X103286329Y-89447970D01*
X103264150Y-89437480D01*
X103243107Y-89424868D01*
X103223401Y-89410253D01*
X103205223Y-89393777D01*
X103188747Y-89375599D01*
X103174132Y-89355893D01*
X103161520Y-89334850D01*
X103151030Y-89312671D01*
X103142765Y-89289572D01*
X103136804Y-89265773D01*
X103133204Y-89241505D01*
X103132000Y-89217001D01*
X103132000Y-88316999D01*
X103133204Y-88292495D01*
X103136804Y-88268227D01*
X103142765Y-88244428D01*
X103151030Y-88221329D01*
X103161520Y-88199150D01*
X103174132Y-88178107D01*
X103188747Y-88158401D01*
X103205223Y-88140223D01*
X103223401Y-88123747D01*
X103243107Y-88109132D01*
X103264150Y-88096520D01*
X103286329Y-88086030D01*
X103309428Y-88077765D01*
X103333227Y-88071804D01*
X103357495Y-88068204D01*
X103381999Y-88067000D01*
X104032001Y-88067000D01*
X104056505Y-88068204D01*
X104056505Y-88068204D01*
G37*
D13*
X103707000Y-88767000D03*
D11*
G36*
X102006505Y-88068204D02*
G01*
X102030773Y-88071804D01*
X102054572Y-88077765D01*
X102077671Y-88086030D01*
X102099850Y-88096520D01*
X102120893Y-88109132D01*
X102140599Y-88123747D01*
X102158777Y-88140223D01*
X102175253Y-88158401D01*
X102189868Y-88178107D01*
X102202480Y-88199150D01*
X102212970Y-88221329D01*
X102221235Y-88244428D01*
X102227196Y-88268227D01*
X102230796Y-88292495D01*
X102232000Y-88316999D01*
X102232000Y-89217001D01*
X102230796Y-89241505D01*
X102227196Y-89265773D01*
X102221235Y-89289572D01*
X102212970Y-89312671D01*
X102202480Y-89334850D01*
X102189868Y-89355893D01*
X102175253Y-89375599D01*
X102158777Y-89393777D01*
X102140599Y-89410253D01*
X102120893Y-89424868D01*
X102099850Y-89437480D01*
X102077671Y-89447970D01*
X102054572Y-89456235D01*
X102030773Y-89462196D01*
X102006505Y-89465796D01*
X101982001Y-89467000D01*
X101331999Y-89467000D01*
X101307495Y-89465796D01*
X101283227Y-89462196D01*
X101259428Y-89456235D01*
X101236329Y-89447970D01*
X101214150Y-89437480D01*
X101193107Y-89424868D01*
X101173401Y-89410253D01*
X101155223Y-89393777D01*
X101138747Y-89375599D01*
X101124132Y-89355893D01*
X101111520Y-89334850D01*
X101101030Y-89312671D01*
X101092765Y-89289572D01*
X101086804Y-89265773D01*
X101083204Y-89241505D01*
X101082000Y-89217001D01*
X101082000Y-88316999D01*
X101083204Y-88292495D01*
X101086804Y-88268227D01*
X101092765Y-88244428D01*
X101101030Y-88221329D01*
X101111520Y-88199150D01*
X101124132Y-88178107D01*
X101138747Y-88158401D01*
X101155223Y-88140223D01*
X101173401Y-88123747D01*
X101193107Y-88109132D01*
X101214150Y-88096520D01*
X101236329Y-88086030D01*
X101259428Y-88077765D01*
X101283227Y-88071804D01*
X101307495Y-88068204D01*
X101331999Y-88067000D01*
X101982001Y-88067000D01*
X102006505Y-88068204D01*
X102006505Y-88068204D01*
G37*
D13*
X101657000Y-88767000D03*
D11*
G36*
X110149505Y-71966704D02*
G01*
X110173773Y-71970304D01*
X110197572Y-71976265D01*
X110220671Y-71984530D01*
X110242850Y-71995020D01*
X110263893Y-72007632D01*
X110283599Y-72022247D01*
X110301777Y-72038723D01*
X110318253Y-72056901D01*
X110332868Y-72076607D01*
X110345480Y-72097650D01*
X110355970Y-72119829D01*
X110364235Y-72142928D01*
X110370196Y-72166727D01*
X110373796Y-72190995D01*
X110375000Y-72215499D01*
X110375000Y-73115501D01*
X110373796Y-73140005D01*
X110370196Y-73164273D01*
X110364235Y-73188072D01*
X110355970Y-73211171D01*
X110345480Y-73233350D01*
X110332868Y-73254393D01*
X110318253Y-73274099D01*
X110301777Y-73292277D01*
X110283599Y-73308753D01*
X110263893Y-73323368D01*
X110242850Y-73335980D01*
X110220671Y-73346470D01*
X110197572Y-73354735D01*
X110173773Y-73360696D01*
X110149505Y-73364296D01*
X110125001Y-73365500D01*
X109474999Y-73365500D01*
X109450495Y-73364296D01*
X109426227Y-73360696D01*
X109402428Y-73354735D01*
X109379329Y-73346470D01*
X109357150Y-73335980D01*
X109336107Y-73323368D01*
X109316401Y-73308753D01*
X109298223Y-73292277D01*
X109281747Y-73274099D01*
X109267132Y-73254393D01*
X109254520Y-73233350D01*
X109244030Y-73211171D01*
X109235765Y-73188072D01*
X109229804Y-73164273D01*
X109226204Y-73140005D01*
X109225000Y-73115501D01*
X109225000Y-72215499D01*
X109226204Y-72190995D01*
X109229804Y-72166727D01*
X109235765Y-72142928D01*
X109244030Y-72119829D01*
X109254520Y-72097650D01*
X109267132Y-72076607D01*
X109281747Y-72056901D01*
X109298223Y-72038723D01*
X109316401Y-72022247D01*
X109336107Y-72007632D01*
X109357150Y-71995020D01*
X109379329Y-71984530D01*
X109402428Y-71976265D01*
X109426227Y-71970304D01*
X109450495Y-71966704D01*
X109474999Y-71965500D01*
X110125001Y-71965500D01*
X110149505Y-71966704D01*
X110149505Y-71966704D01*
G37*
D13*
X109800000Y-72665500D03*
D11*
G36*
X108099505Y-71966704D02*
G01*
X108123773Y-71970304D01*
X108147572Y-71976265D01*
X108170671Y-71984530D01*
X108192850Y-71995020D01*
X108213893Y-72007632D01*
X108233599Y-72022247D01*
X108251777Y-72038723D01*
X108268253Y-72056901D01*
X108282868Y-72076607D01*
X108295480Y-72097650D01*
X108305970Y-72119829D01*
X108314235Y-72142928D01*
X108320196Y-72166727D01*
X108323796Y-72190995D01*
X108325000Y-72215499D01*
X108325000Y-73115501D01*
X108323796Y-73140005D01*
X108320196Y-73164273D01*
X108314235Y-73188072D01*
X108305970Y-73211171D01*
X108295480Y-73233350D01*
X108282868Y-73254393D01*
X108268253Y-73274099D01*
X108251777Y-73292277D01*
X108233599Y-73308753D01*
X108213893Y-73323368D01*
X108192850Y-73335980D01*
X108170671Y-73346470D01*
X108147572Y-73354735D01*
X108123773Y-73360696D01*
X108099505Y-73364296D01*
X108075001Y-73365500D01*
X107424999Y-73365500D01*
X107400495Y-73364296D01*
X107376227Y-73360696D01*
X107352428Y-73354735D01*
X107329329Y-73346470D01*
X107307150Y-73335980D01*
X107286107Y-73323368D01*
X107266401Y-73308753D01*
X107248223Y-73292277D01*
X107231747Y-73274099D01*
X107217132Y-73254393D01*
X107204520Y-73233350D01*
X107194030Y-73211171D01*
X107185765Y-73188072D01*
X107179804Y-73164273D01*
X107176204Y-73140005D01*
X107175000Y-73115501D01*
X107175000Y-72215499D01*
X107176204Y-72190995D01*
X107179804Y-72166727D01*
X107185765Y-72142928D01*
X107194030Y-72119829D01*
X107204520Y-72097650D01*
X107217132Y-72076607D01*
X107231747Y-72056901D01*
X107248223Y-72038723D01*
X107266401Y-72022247D01*
X107286107Y-72007632D01*
X107307150Y-71995020D01*
X107329329Y-71984530D01*
X107352428Y-71976265D01*
X107376227Y-71970304D01*
X107400495Y-71966704D01*
X107424999Y-71965500D01*
X108075001Y-71965500D01*
X108099505Y-71966704D01*
X108099505Y-71966704D01*
G37*
D13*
X107750000Y-72665500D03*
D11*
G36*
X97768005Y-90225204D02*
G01*
X97792273Y-90228804D01*
X97816072Y-90234765D01*
X97839171Y-90243030D01*
X97861350Y-90253520D01*
X97882393Y-90266132D01*
X97902099Y-90280747D01*
X97920277Y-90297223D01*
X97936753Y-90315401D01*
X97951368Y-90335107D01*
X97963980Y-90356150D01*
X97974470Y-90378329D01*
X97982735Y-90401428D01*
X97988696Y-90425227D01*
X97992296Y-90449495D01*
X97993500Y-90473999D01*
X97993500Y-91124001D01*
X97992296Y-91148505D01*
X97988696Y-91172773D01*
X97982735Y-91196572D01*
X97974470Y-91219671D01*
X97963980Y-91241850D01*
X97951368Y-91262893D01*
X97936753Y-91282599D01*
X97920277Y-91300777D01*
X97902099Y-91317253D01*
X97882393Y-91331868D01*
X97861350Y-91344480D01*
X97839171Y-91354970D01*
X97816072Y-91363235D01*
X97792273Y-91369196D01*
X97768005Y-91372796D01*
X97743501Y-91374000D01*
X96843499Y-91374000D01*
X96818995Y-91372796D01*
X96794727Y-91369196D01*
X96770928Y-91363235D01*
X96747829Y-91354970D01*
X96725650Y-91344480D01*
X96704607Y-91331868D01*
X96684901Y-91317253D01*
X96666723Y-91300777D01*
X96650247Y-91282599D01*
X96635632Y-91262893D01*
X96623020Y-91241850D01*
X96612530Y-91219671D01*
X96604265Y-91196572D01*
X96598304Y-91172773D01*
X96594704Y-91148505D01*
X96593500Y-91124001D01*
X96593500Y-90473999D01*
X96594704Y-90449495D01*
X96598304Y-90425227D01*
X96604265Y-90401428D01*
X96612530Y-90378329D01*
X96623020Y-90356150D01*
X96635632Y-90335107D01*
X96650247Y-90315401D01*
X96666723Y-90297223D01*
X96684901Y-90280747D01*
X96704607Y-90266132D01*
X96725650Y-90253520D01*
X96747829Y-90243030D01*
X96770928Y-90234765D01*
X96794727Y-90228804D01*
X96818995Y-90225204D01*
X96843499Y-90224000D01*
X97743501Y-90224000D01*
X97768005Y-90225204D01*
X97768005Y-90225204D01*
G37*
D13*
X97293500Y-90799000D03*
D11*
G36*
X97768005Y-88175204D02*
G01*
X97792273Y-88178804D01*
X97816072Y-88184765D01*
X97839171Y-88193030D01*
X97861350Y-88203520D01*
X97882393Y-88216132D01*
X97902099Y-88230747D01*
X97920277Y-88247223D01*
X97936753Y-88265401D01*
X97951368Y-88285107D01*
X97963980Y-88306150D01*
X97974470Y-88328329D01*
X97982735Y-88351428D01*
X97988696Y-88375227D01*
X97992296Y-88399495D01*
X97993500Y-88423999D01*
X97993500Y-89074001D01*
X97992296Y-89098505D01*
X97988696Y-89122773D01*
X97982735Y-89146572D01*
X97974470Y-89169671D01*
X97963980Y-89191850D01*
X97951368Y-89212893D01*
X97936753Y-89232599D01*
X97920277Y-89250777D01*
X97902099Y-89267253D01*
X97882393Y-89281868D01*
X97861350Y-89294480D01*
X97839171Y-89304970D01*
X97816072Y-89313235D01*
X97792273Y-89319196D01*
X97768005Y-89322796D01*
X97743501Y-89324000D01*
X96843499Y-89324000D01*
X96818995Y-89322796D01*
X96794727Y-89319196D01*
X96770928Y-89313235D01*
X96747829Y-89304970D01*
X96725650Y-89294480D01*
X96704607Y-89281868D01*
X96684901Y-89267253D01*
X96666723Y-89250777D01*
X96650247Y-89232599D01*
X96635632Y-89212893D01*
X96623020Y-89191850D01*
X96612530Y-89169671D01*
X96604265Y-89146572D01*
X96598304Y-89122773D01*
X96594704Y-89098505D01*
X96593500Y-89074001D01*
X96593500Y-88423999D01*
X96594704Y-88399495D01*
X96598304Y-88375227D01*
X96604265Y-88351428D01*
X96612530Y-88328329D01*
X96623020Y-88306150D01*
X96635632Y-88285107D01*
X96650247Y-88265401D01*
X96666723Y-88247223D01*
X96684901Y-88230747D01*
X96704607Y-88216132D01*
X96725650Y-88203520D01*
X96747829Y-88193030D01*
X96770928Y-88184765D01*
X96794727Y-88178804D01*
X96818995Y-88175204D01*
X96843499Y-88174000D01*
X97743501Y-88174000D01*
X97768005Y-88175204D01*
X97768005Y-88175204D01*
G37*
D13*
X97293500Y-88749000D03*
D21*
X141546500Y-102679500D03*
D11*
G36*
X140046500Y-105179500D02*
G01*
X140046500Y-100179500D01*
X143046500Y-100179500D01*
X143046500Y-105179500D01*
X140046500Y-105179500D01*
X140046500Y-105179500D01*
G37*
D22*
X138828000Y-102679500D03*
D11*
G36*
X138078000Y-103229500D02*
G01*
X138078000Y-102129500D01*
X139578000Y-102129500D01*
X139578000Y-103229500D01*
X138078000Y-103229500D01*
X138078000Y-103229500D01*
G37*
D23*
X138828000Y-104179500D03*
D11*
G36*
X138078000Y-104579500D02*
G01*
X138078000Y-103779500D01*
X139578000Y-103779500D01*
X139578000Y-104579500D01*
X138078000Y-104579500D01*
X138078000Y-104579500D01*
G37*
D23*
X138828000Y-101179500D03*
D11*
G36*
X138078000Y-101579500D02*
G01*
X138078000Y-100779500D01*
X139578000Y-100779500D01*
X139578000Y-101579500D01*
X138078000Y-101579500D01*
X138078000Y-101579500D01*
G37*
G36*
X84549505Y-89861204D02*
G01*
X84573773Y-89864804D01*
X84597572Y-89870765D01*
X84620671Y-89879030D01*
X84642850Y-89889520D01*
X84663893Y-89902132D01*
X84683599Y-89916747D01*
X84701777Y-89933223D01*
X84718253Y-89951401D01*
X84732868Y-89971107D01*
X84745480Y-89992150D01*
X84755970Y-90014329D01*
X84764235Y-90037428D01*
X84770196Y-90061227D01*
X84773796Y-90085495D01*
X84775000Y-90109999D01*
X84775000Y-91010001D01*
X84773796Y-91034505D01*
X84770196Y-91058773D01*
X84764235Y-91082572D01*
X84755970Y-91105671D01*
X84745480Y-91127850D01*
X84732868Y-91148893D01*
X84718253Y-91168599D01*
X84701777Y-91186777D01*
X84683599Y-91203253D01*
X84663893Y-91217868D01*
X84642850Y-91230480D01*
X84620671Y-91240970D01*
X84597572Y-91249235D01*
X84573773Y-91255196D01*
X84549505Y-91258796D01*
X84525001Y-91260000D01*
X83874999Y-91260000D01*
X83850495Y-91258796D01*
X83826227Y-91255196D01*
X83802428Y-91249235D01*
X83779329Y-91240970D01*
X83757150Y-91230480D01*
X83736107Y-91217868D01*
X83716401Y-91203253D01*
X83698223Y-91186777D01*
X83681747Y-91168599D01*
X83667132Y-91148893D01*
X83654520Y-91127850D01*
X83644030Y-91105671D01*
X83635765Y-91082572D01*
X83629804Y-91058773D01*
X83626204Y-91034505D01*
X83625000Y-91010001D01*
X83625000Y-90109999D01*
X83626204Y-90085495D01*
X83629804Y-90061227D01*
X83635765Y-90037428D01*
X83644030Y-90014329D01*
X83654520Y-89992150D01*
X83667132Y-89971107D01*
X83681747Y-89951401D01*
X83698223Y-89933223D01*
X83716401Y-89916747D01*
X83736107Y-89902132D01*
X83757150Y-89889520D01*
X83779329Y-89879030D01*
X83802428Y-89870765D01*
X83826227Y-89864804D01*
X83850495Y-89861204D01*
X83874999Y-89860000D01*
X84525001Y-89860000D01*
X84549505Y-89861204D01*
X84549505Y-89861204D01*
G37*
D13*
X84200000Y-90560000D03*
D11*
G36*
X82499505Y-89861204D02*
G01*
X82523773Y-89864804D01*
X82547572Y-89870765D01*
X82570671Y-89879030D01*
X82592850Y-89889520D01*
X82613893Y-89902132D01*
X82633599Y-89916747D01*
X82651777Y-89933223D01*
X82668253Y-89951401D01*
X82682868Y-89971107D01*
X82695480Y-89992150D01*
X82705970Y-90014329D01*
X82714235Y-90037428D01*
X82720196Y-90061227D01*
X82723796Y-90085495D01*
X82725000Y-90109999D01*
X82725000Y-91010001D01*
X82723796Y-91034505D01*
X82720196Y-91058773D01*
X82714235Y-91082572D01*
X82705970Y-91105671D01*
X82695480Y-91127850D01*
X82682868Y-91148893D01*
X82668253Y-91168599D01*
X82651777Y-91186777D01*
X82633599Y-91203253D01*
X82613893Y-91217868D01*
X82592850Y-91230480D01*
X82570671Y-91240970D01*
X82547572Y-91249235D01*
X82523773Y-91255196D01*
X82499505Y-91258796D01*
X82475001Y-91260000D01*
X81824999Y-91260000D01*
X81800495Y-91258796D01*
X81776227Y-91255196D01*
X81752428Y-91249235D01*
X81729329Y-91240970D01*
X81707150Y-91230480D01*
X81686107Y-91217868D01*
X81666401Y-91203253D01*
X81648223Y-91186777D01*
X81631747Y-91168599D01*
X81617132Y-91148893D01*
X81604520Y-91127850D01*
X81594030Y-91105671D01*
X81585765Y-91082572D01*
X81579804Y-91058773D01*
X81576204Y-91034505D01*
X81575000Y-91010001D01*
X81575000Y-90109999D01*
X81576204Y-90085495D01*
X81579804Y-90061227D01*
X81585765Y-90037428D01*
X81594030Y-90014329D01*
X81604520Y-89992150D01*
X81617132Y-89971107D01*
X81631747Y-89951401D01*
X81648223Y-89933223D01*
X81666401Y-89916747D01*
X81686107Y-89902132D01*
X81707150Y-89889520D01*
X81729329Y-89879030D01*
X81752428Y-89870765D01*
X81776227Y-89864804D01*
X81800495Y-89861204D01*
X81824999Y-89860000D01*
X82475001Y-89860000D01*
X82499505Y-89861204D01*
X82499505Y-89861204D01*
G37*
D13*
X82150000Y-90560000D03*
D11*
G36*
X125072505Y-104203204D02*
G01*
X125096773Y-104206804D01*
X125120572Y-104212765D01*
X125143671Y-104221030D01*
X125165850Y-104231520D01*
X125186893Y-104244132D01*
X125206599Y-104258747D01*
X125224777Y-104275223D01*
X125241253Y-104293401D01*
X125255868Y-104313107D01*
X125268480Y-104334150D01*
X125278970Y-104356329D01*
X125287235Y-104379428D01*
X125293196Y-104403227D01*
X125296796Y-104427495D01*
X125298000Y-104451999D01*
X125298000Y-105352001D01*
X125296796Y-105376505D01*
X125293196Y-105400773D01*
X125287235Y-105424572D01*
X125278970Y-105447671D01*
X125268480Y-105469850D01*
X125255868Y-105490893D01*
X125241253Y-105510599D01*
X125224777Y-105528777D01*
X125206599Y-105545253D01*
X125186893Y-105559868D01*
X125165850Y-105572480D01*
X125143671Y-105582970D01*
X125120572Y-105591235D01*
X125096773Y-105597196D01*
X125072505Y-105600796D01*
X125048001Y-105602000D01*
X124397999Y-105602000D01*
X124373495Y-105600796D01*
X124349227Y-105597196D01*
X124325428Y-105591235D01*
X124302329Y-105582970D01*
X124280150Y-105572480D01*
X124259107Y-105559868D01*
X124239401Y-105545253D01*
X124221223Y-105528777D01*
X124204747Y-105510599D01*
X124190132Y-105490893D01*
X124177520Y-105469850D01*
X124167030Y-105447671D01*
X124158765Y-105424572D01*
X124152804Y-105400773D01*
X124149204Y-105376505D01*
X124148000Y-105352001D01*
X124148000Y-104451999D01*
X124149204Y-104427495D01*
X124152804Y-104403227D01*
X124158765Y-104379428D01*
X124167030Y-104356329D01*
X124177520Y-104334150D01*
X124190132Y-104313107D01*
X124204747Y-104293401D01*
X124221223Y-104275223D01*
X124239401Y-104258747D01*
X124259107Y-104244132D01*
X124280150Y-104231520D01*
X124302329Y-104221030D01*
X124325428Y-104212765D01*
X124349227Y-104206804D01*
X124373495Y-104203204D01*
X124397999Y-104202000D01*
X125048001Y-104202000D01*
X125072505Y-104203204D01*
X125072505Y-104203204D01*
G37*
D13*
X124723000Y-104902000D03*
D11*
G36*
X123022505Y-104203204D02*
G01*
X123046773Y-104206804D01*
X123070572Y-104212765D01*
X123093671Y-104221030D01*
X123115850Y-104231520D01*
X123136893Y-104244132D01*
X123156599Y-104258747D01*
X123174777Y-104275223D01*
X123191253Y-104293401D01*
X123205868Y-104313107D01*
X123218480Y-104334150D01*
X123228970Y-104356329D01*
X123237235Y-104379428D01*
X123243196Y-104403227D01*
X123246796Y-104427495D01*
X123248000Y-104451999D01*
X123248000Y-105352001D01*
X123246796Y-105376505D01*
X123243196Y-105400773D01*
X123237235Y-105424572D01*
X123228970Y-105447671D01*
X123218480Y-105469850D01*
X123205868Y-105490893D01*
X123191253Y-105510599D01*
X123174777Y-105528777D01*
X123156599Y-105545253D01*
X123136893Y-105559868D01*
X123115850Y-105572480D01*
X123093671Y-105582970D01*
X123070572Y-105591235D01*
X123046773Y-105597196D01*
X123022505Y-105600796D01*
X122998001Y-105602000D01*
X122347999Y-105602000D01*
X122323495Y-105600796D01*
X122299227Y-105597196D01*
X122275428Y-105591235D01*
X122252329Y-105582970D01*
X122230150Y-105572480D01*
X122209107Y-105559868D01*
X122189401Y-105545253D01*
X122171223Y-105528777D01*
X122154747Y-105510599D01*
X122140132Y-105490893D01*
X122127520Y-105469850D01*
X122117030Y-105447671D01*
X122108765Y-105424572D01*
X122102804Y-105400773D01*
X122099204Y-105376505D01*
X122098000Y-105352001D01*
X122098000Y-104451999D01*
X122099204Y-104427495D01*
X122102804Y-104403227D01*
X122108765Y-104379428D01*
X122117030Y-104356329D01*
X122127520Y-104334150D01*
X122140132Y-104313107D01*
X122154747Y-104293401D01*
X122171223Y-104275223D01*
X122189401Y-104258747D01*
X122209107Y-104244132D01*
X122230150Y-104231520D01*
X122252329Y-104221030D01*
X122275428Y-104212765D01*
X122299227Y-104206804D01*
X122323495Y-104203204D01*
X122347999Y-104202000D01*
X122998001Y-104202000D01*
X123022505Y-104203204D01*
X123022505Y-104203204D01*
G37*
D13*
X122673000Y-104902000D03*
D11*
G36*
X101004505Y-111561204D02*
G01*
X101028773Y-111564804D01*
X101052572Y-111570765D01*
X101075671Y-111579030D01*
X101097850Y-111589520D01*
X101118893Y-111602132D01*
X101138599Y-111616747D01*
X101156777Y-111633223D01*
X101173253Y-111651401D01*
X101187868Y-111671107D01*
X101200480Y-111692150D01*
X101210970Y-111714329D01*
X101219235Y-111737428D01*
X101225196Y-111761227D01*
X101228796Y-111785495D01*
X101230000Y-111809999D01*
X101230000Y-112710001D01*
X101228796Y-112734505D01*
X101225196Y-112758773D01*
X101219235Y-112782572D01*
X101210970Y-112805671D01*
X101200480Y-112827850D01*
X101187868Y-112848893D01*
X101173253Y-112868599D01*
X101156777Y-112886777D01*
X101138599Y-112903253D01*
X101118893Y-112917868D01*
X101097850Y-112930480D01*
X101075671Y-112940970D01*
X101052572Y-112949235D01*
X101028773Y-112955196D01*
X101004505Y-112958796D01*
X100980001Y-112960000D01*
X100329999Y-112960000D01*
X100305495Y-112958796D01*
X100281227Y-112955196D01*
X100257428Y-112949235D01*
X100234329Y-112940970D01*
X100212150Y-112930480D01*
X100191107Y-112917868D01*
X100171401Y-112903253D01*
X100153223Y-112886777D01*
X100136747Y-112868599D01*
X100122132Y-112848893D01*
X100109520Y-112827850D01*
X100099030Y-112805671D01*
X100090765Y-112782572D01*
X100084804Y-112758773D01*
X100081204Y-112734505D01*
X100080000Y-112710001D01*
X100080000Y-111809999D01*
X100081204Y-111785495D01*
X100084804Y-111761227D01*
X100090765Y-111737428D01*
X100099030Y-111714329D01*
X100109520Y-111692150D01*
X100122132Y-111671107D01*
X100136747Y-111651401D01*
X100153223Y-111633223D01*
X100171401Y-111616747D01*
X100191107Y-111602132D01*
X100212150Y-111589520D01*
X100234329Y-111579030D01*
X100257428Y-111570765D01*
X100281227Y-111564804D01*
X100305495Y-111561204D01*
X100329999Y-111560000D01*
X100980001Y-111560000D01*
X101004505Y-111561204D01*
X101004505Y-111561204D01*
G37*
D13*
X100655000Y-112260000D03*
D11*
G36*
X103054505Y-111561204D02*
G01*
X103078773Y-111564804D01*
X103102572Y-111570765D01*
X103125671Y-111579030D01*
X103147850Y-111589520D01*
X103168893Y-111602132D01*
X103188599Y-111616747D01*
X103206777Y-111633223D01*
X103223253Y-111651401D01*
X103237868Y-111671107D01*
X103250480Y-111692150D01*
X103260970Y-111714329D01*
X103269235Y-111737428D01*
X103275196Y-111761227D01*
X103278796Y-111785495D01*
X103280000Y-111809999D01*
X103280000Y-112710001D01*
X103278796Y-112734505D01*
X103275196Y-112758773D01*
X103269235Y-112782572D01*
X103260970Y-112805671D01*
X103250480Y-112827850D01*
X103237868Y-112848893D01*
X103223253Y-112868599D01*
X103206777Y-112886777D01*
X103188599Y-112903253D01*
X103168893Y-112917868D01*
X103147850Y-112930480D01*
X103125671Y-112940970D01*
X103102572Y-112949235D01*
X103078773Y-112955196D01*
X103054505Y-112958796D01*
X103030001Y-112960000D01*
X102379999Y-112960000D01*
X102355495Y-112958796D01*
X102331227Y-112955196D01*
X102307428Y-112949235D01*
X102284329Y-112940970D01*
X102262150Y-112930480D01*
X102241107Y-112917868D01*
X102221401Y-112903253D01*
X102203223Y-112886777D01*
X102186747Y-112868599D01*
X102172132Y-112848893D01*
X102159520Y-112827850D01*
X102149030Y-112805671D01*
X102140765Y-112782572D01*
X102134804Y-112758773D01*
X102131204Y-112734505D01*
X102130000Y-112710001D01*
X102130000Y-111809999D01*
X102131204Y-111785495D01*
X102134804Y-111761227D01*
X102140765Y-111737428D01*
X102149030Y-111714329D01*
X102159520Y-111692150D01*
X102172132Y-111671107D01*
X102186747Y-111651401D01*
X102203223Y-111633223D01*
X102221401Y-111616747D01*
X102241107Y-111602132D01*
X102262150Y-111589520D01*
X102284329Y-111579030D01*
X102307428Y-111570765D01*
X102331227Y-111564804D01*
X102355495Y-111561204D01*
X102379999Y-111560000D01*
X103030001Y-111560000D01*
X103054505Y-111561204D01*
X103054505Y-111561204D01*
G37*
D13*
X102705000Y-112260000D03*
D11*
G36*
X133824505Y-109154204D02*
G01*
X133848773Y-109157804D01*
X133872572Y-109163765D01*
X133895671Y-109172030D01*
X133917850Y-109182520D01*
X133938893Y-109195132D01*
X133958599Y-109209747D01*
X133976777Y-109226223D01*
X133993253Y-109244401D01*
X134007868Y-109264107D01*
X134020480Y-109285150D01*
X134030970Y-109307329D01*
X134039235Y-109330428D01*
X134045196Y-109354227D01*
X134048796Y-109378495D01*
X134050000Y-109402999D01*
X134050000Y-110053001D01*
X134048796Y-110077505D01*
X134045196Y-110101773D01*
X134039235Y-110125572D01*
X134030970Y-110148671D01*
X134020480Y-110170850D01*
X134007868Y-110191893D01*
X133993253Y-110211599D01*
X133976777Y-110229777D01*
X133958599Y-110246253D01*
X133938893Y-110260868D01*
X133917850Y-110273480D01*
X133895671Y-110283970D01*
X133872572Y-110292235D01*
X133848773Y-110298196D01*
X133824505Y-110301796D01*
X133800001Y-110303000D01*
X132899999Y-110303000D01*
X132875495Y-110301796D01*
X132851227Y-110298196D01*
X132827428Y-110292235D01*
X132804329Y-110283970D01*
X132782150Y-110273480D01*
X132761107Y-110260868D01*
X132741401Y-110246253D01*
X132723223Y-110229777D01*
X132706747Y-110211599D01*
X132692132Y-110191893D01*
X132679520Y-110170850D01*
X132669030Y-110148671D01*
X132660765Y-110125572D01*
X132654804Y-110101773D01*
X132651204Y-110077505D01*
X132650000Y-110053001D01*
X132650000Y-109402999D01*
X132651204Y-109378495D01*
X132654804Y-109354227D01*
X132660765Y-109330428D01*
X132669030Y-109307329D01*
X132679520Y-109285150D01*
X132692132Y-109264107D01*
X132706747Y-109244401D01*
X132723223Y-109226223D01*
X132741401Y-109209747D01*
X132761107Y-109195132D01*
X132782150Y-109182520D01*
X132804329Y-109172030D01*
X132827428Y-109163765D01*
X132851227Y-109157804D01*
X132875495Y-109154204D01*
X132899999Y-109153000D01*
X133800001Y-109153000D01*
X133824505Y-109154204D01*
X133824505Y-109154204D01*
G37*
D13*
X133350000Y-109728000D03*
D11*
G36*
X133824505Y-107104204D02*
G01*
X133848773Y-107107804D01*
X133872572Y-107113765D01*
X133895671Y-107122030D01*
X133917850Y-107132520D01*
X133938893Y-107145132D01*
X133958599Y-107159747D01*
X133976777Y-107176223D01*
X133993253Y-107194401D01*
X134007868Y-107214107D01*
X134020480Y-107235150D01*
X134030970Y-107257329D01*
X134039235Y-107280428D01*
X134045196Y-107304227D01*
X134048796Y-107328495D01*
X134050000Y-107352999D01*
X134050000Y-108003001D01*
X134048796Y-108027505D01*
X134045196Y-108051773D01*
X134039235Y-108075572D01*
X134030970Y-108098671D01*
X134020480Y-108120850D01*
X134007868Y-108141893D01*
X133993253Y-108161599D01*
X133976777Y-108179777D01*
X133958599Y-108196253D01*
X133938893Y-108210868D01*
X133917850Y-108223480D01*
X133895671Y-108233970D01*
X133872572Y-108242235D01*
X133848773Y-108248196D01*
X133824505Y-108251796D01*
X133800001Y-108253000D01*
X132899999Y-108253000D01*
X132875495Y-108251796D01*
X132851227Y-108248196D01*
X132827428Y-108242235D01*
X132804329Y-108233970D01*
X132782150Y-108223480D01*
X132761107Y-108210868D01*
X132741401Y-108196253D01*
X132723223Y-108179777D01*
X132706747Y-108161599D01*
X132692132Y-108141893D01*
X132679520Y-108120850D01*
X132669030Y-108098671D01*
X132660765Y-108075572D01*
X132654804Y-108051773D01*
X132651204Y-108027505D01*
X132650000Y-108003001D01*
X132650000Y-107352999D01*
X132651204Y-107328495D01*
X132654804Y-107304227D01*
X132660765Y-107280428D01*
X132669030Y-107257329D01*
X132679520Y-107235150D01*
X132692132Y-107214107D01*
X132706747Y-107194401D01*
X132723223Y-107176223D01*
X132741401Y-107159747D01*
X132761107Y-107145132D01*
X132782150Y-107132520D01*
X132804329Y-107122030D01*
X132827428Y-107113765D01*
X132851227Y-107107804D01*
X132875495Y-107104204D01*
X132899999Y-107103000D01*
X133800001Y-107103000D01*
X133824505Y-107104204D01*
X133824505Y-107104204D01*
G37*
D13*
X133350000Y-107678000D03*
D11*
G36*
X118834505Y-75636204D02*
G01*
X118858773Y-75639804D01*
X118882572Y-75645765D01*
X118905671Y-75654030D01*
X118927850Y-75664520D01*
X118948893Y-75677132D01*
X118968599Y-75691747D01*
X118986777Y-75708223D01*
X119003253Y-75726401D01*
X119017868Y-75746107D01*
X119030480Y-75767150D01*
X119040970Y-75789329D01*
X119049235Y-75812428D01*
X119055196Y-75836227D01*
X119058796Y-75860495D01*
X119060000Y-75884999D01*
X119060000Y-76535001D01*
X119058796Y-76559505D01*
X119055196Y-76583773D01*
X119049235Y-76607572D01*
X119040970Y-76630671D01*
X119030480Y-76652850D01*
X119017868Y-76673893D01*
X119003253Y-76693599D01*
X118986777Y-76711777D01*
X118968599Y-76728253D01*
X118948893Y-76742868D01*
X118927850Y-76755480D01*
X118905671Y-76765970D01*
X118882572Y-76774235D01*
X118858773Y-76780196D01*
X118834505Y-76783796D01*
X118810001Y-76785000D01*
X117909999Y-76785000D01*
X117885495Y-76783796D01*
X117861227Y-76780196D01*
X117837428Y-76774235D01*
X117814329Y-76765970D01*
X117792150Y-76755480D01*
X117771107Y-76742868D01*
X117751401Y-76728253D01*
X117733223Y-76711777D01*
X117716747Y-76693599D01*
X117702132Y-76673893D01*
X117689520Y-76652850D01*
X117679030Y-76630671D01*
X117670765Y-76607572D01*
X117664804Y-76583773D01*
X117661204Y-76559505D01*
X117660000Y-76535001D01*
X117660000Y-75884999D01*
X117661204Y-75860495D01*
X117664804Y-75836227D01*
X117670765Y-75812428D01*
X117679030Y-75789329D01*
X117689520Y-75767150D01*
X117702132Y-75746107D01*
X117716747Y-75726401D01*
X117733223Y-75708223D01*
X117751401Y-75691747D01*
X117771107Y-75677132D01*
X117792150Y-75664520D01*
X117814329Y-75654030D01*
X117837428Y-75645765D01*
X117861227Y-75639804D01*
X117885495Y-75636204D01*
X117909999Y-75635000D01*
X118810001Y-75635000D01*
X118834505Y-75636204D01*
X118834505Y-75636204D01*
G37*
D13*
X118360000Y-76210000D03*
D11*
G36*
X118834505Y-77686204D02*
G01*
X118858773Y-77689804D01*
X118882572Y-77695765D01*
X118905671Y-77704030D01*
X118927850Y-77714520D01*
X118948893Y-77727132D01*
X118968599Y-77741747D01*
X118986777Y-77758223D01*
X119003253Y-77776401D01*
X119017868Y-77796107D01*
X119030480Y-77817150D01*
X119040970Y-77839329D01*
X119049235Y-77862428D01*
X119055196Y-77886227D01*
X119058796Y-77910495D01*
X119060000Y-77934999D01*
X119060000Y-78585001D01*
X119058796Y-78609505D01*
X119055196Y-78633773D01*
X119049235Y-78657572D01*
X119040970Y-78680671D01*
X119030480Y-78702850D01*
X119017868Y-78723893D01*
X119003253Y-78743599D01*
X118986777Y-78761777D01*
X118968599Y-78778253D01*
X118948893Y-78792868D01*
X118927850Y-78805480D01*
X118905671Y-78815970D01*
X118882572Y-78824235D01*
X118858773Y-78830196D01*
X118834505Y-78833796D01*
X118810001Y-78835000D01*
X117909999Y-78835000D01*
X117885495Y-78833796D01*
X117861227Y-78830196D01*
X117837428Y-78824235D01*
X117814329Y-78815970D01*
X117792150Y-78805480D01*
X117771107Y-78792868D01*
X117751401Y-78778253D01*
X117733223Y-78761777D01*
X117716747Y-78743599D01*
X117702132Y-78723893D01*
X117689520Y-78702850D01*
X117679030Y-78680671D01*
X117670765Y-78657572D01*
X117664804Y-78633773D01*
X117661204Y-78609505D01*
X117660000Y-78585001D01*
X117660000Y-77934999D01*
X117661204Y-77910495D01*
X117664804Y-77886227D01*
X117670765Y-77862428D01*
X117679030Y-77839329D01*
X117689520Y-77817150D01*
X117702132Y-77796107D01*
X117716747Y-77776401D01*
X117733223Y-77758223D01*
X117751401Y-77741747D01*
X117771107Y-77727132D01*
X117792150Y-77714520D01*
X117814329Y-77704030D01*
X117837428Y-77695765D01*
X117861227Y-77689804D01*
X117885495Y-77686204D01*
X117909999Y-77685000D01*
X118810001Y-77685000D01*
X118834505Y-77686204D01*
X118834505Y-77686204D01*
G37*
D13*
X118360000Y-78260000D03*
D11*
G36*
X114349505Y-77561204D02*
G01*
X114373773Y-77564804D01*
X114397572Y-77570765D01*
X114420671Y-77579030D01*
X114442850Y-77589520D01*
X114463893Y-77602132D01*
X114483599Y-77616747D01*
X114501777Y-77633223D01*
X114518253Y-77651401D01*
X114532868Y-77671107D01*
X114545480Y-77692150D01*
X114555970Y-77714329D01*
X114564235Y-77737428D01*
X114570196Y-77761227D01*
X114573796Y-77785495D01*
X114575000Y-77809999D01*
X114575000Y-78710001D01*
X114573796Y-78734505D01*
X114570196Y-78758773D01*
X114564235Y-78782572D01*
X114555970Y-78805671D01*
X114545480Y-78827850D01*
X114532868Y-78848893D01*
X114518253Y-78868599D01*
X114501777Y-78886777D01*
X114483599Y-78903253D01*
X114463893Y-78917868D01*
X114442850Y-78930480D01*
X114420671Y-78940970D01*
X114397572Y-78949235D01*
X114373773Y-78955196D01*
X114349505Y-78958796D01*
X114325001Y-78960000D01*
X113674999Y-78960000D01*
X113650495Y-78958796D01*
X113626227Y-78955196D01*
X113602428Y-78949235D01*
X113579329Y-78940970D01*
X113557150Y-78930480D01*
X113536107Y-78917868D01*
X113516401Y-78903253D01*
X113498223Y-78886777D01*
X113481747Y-78868599D01*
X113467132Y-78848893D01*
X113454520Y-78827850D01*
X113444030Y-78805671D01*
X113435765Y-78782572D01*
X113429804Y-78758773D01*
X113426204Y-78734505D01*
X113425000Y-78710001D01*
X113425000Y-77809999D01*
X113426204Y-77785495D01*
X113429804Y-77761227D01*
X113435765Y-77737428D01*
X113444030Y-77714329D01*
X113454520Y-77692150D01*
X113467132Y-77671107D01*
X113481747Y-77651401D01*
X113498223Y-77633223D01*
X113516401Y-77616747D01*
X113536107Y-77602132D01*
X113557150Y-77589520D01*
X113579329Y-77579030D01*
X113602428Y-77570765D01*
X113626227Y-77564804D01*
X113650495Y-77561204D01*
X113674999Y-77560000D01*
X114325001Y-77560000D01*
X114349505Y-77561204D01*
X114349505Y-77561204D01*
G37*
D13*
X114000000Y-78260000D03*
D11*
G36*
X112299505Y-77561204D02*
G01*
X112323773Y-77564804D01*
X112347572Y-77570765D01*
X112370671Y-77579030D01*
X112392850Y-77589520D01*
X112413893Y-77602132D01*
X112433599Y-77616747D01*
X112451777Y-77633223D01*
X112468253Y-77651401D01*
X112482868Y-77671107D01*
X112495480Y-77692150D01*
X112505970Y-77714329D01*
X112514235Y-77737428D01*
X112520196Y-77761227D01*
X112523796Y-77785495D01*
X112525000Y-77809999D01*
X112525000Y-78710001D01*
X112523796Y-78734505D01*
X112520196Y-78758773D01*
X112514235Y-78782572D01*
X112505970Y-78805671D01*
X112495480Y-78827850D01*
X112482868Y-78848893D01*
X112468253Y-78868599D01*
X112451777Y-78886777D01*
X112433599Y-78903253D01*
X112413893Y-78917868D01*
X112392850Y-78930480D01*
X112370671Y-78940970D01*
X112347572Y-78949235D01*
X112323773Y-78955196D01*
X112299505Y-78958796D01*
X112275001Y-78960000D01*
X111624999Y-78960000D01*
X111600495Y-78958796D01*
X111576227Y-78955196D01*
X111552428Y-78949235D01*
X111529329Y-78940970D01*
X111507150Y-78930480D01*
X111486107Y-78917868D01*
X111466401Y-78903253D01*
X111448223Y-78886777D01*
X111431747Y-78868599D01*
X111417132Y-78848893D01*
X111404520Y-78827850D01*
X111394030Y-78805671D01*
X111385765Y-78782572D01*
X111379804Y-78758773D01*
X111376204Y-78734505D01*
X111375000Y-78710001D01*
X111375000Y-77809999D01*
X111376204Y-77785495D01*
X111379804Y-77761227D01*
X111385765Y-77737428D01*
X111394030Y-77714329D01*
X111404520Y-77692150D01*
X111417132Y-77671107D01*
X111431747Y-77651401D01*
X111448223Y-77633223D01*
X111466401Y-77616747D01*
X111486107Y-77602132D01*
X111507150Y-77589520D01*
X111529329Y-77579030D01*
X111552428Y-77570765D01*
X111576227Y-77564804D01*
X111600495Y-77561204D01*
X111624999Y-77560000D01*
X112275001Y-77560000D01*
X112299505Y-77561204D01*
X112299505Y-77561204D01*
G37*
D13*
X111950000Y-78260000D03*
D11*
G36*
X105974505Y-75636204D02*
G01*
X105998773Y-75639804D01*
X106022572Y-75645765D01*
X106045671Y-75654030D01*
X106067850Y-75664520D01*
X106088893Y-75677132D01*
X106108599Y-75691747D01*
X106126777Y-75708223D01*
X106143253Y-75726401D01*
X106157868Y-75746107D01*
X106170480Y-75767150D01*
X106180970Y-75789329D01*
X106189235Y-75812428D01*
X106195196Y-75836227D01*
X106198796Y-75860495D01*
X106200000Y-75884999D01*
X106200000Y-76535001D01*
X106198796Y-76559505D01*
X106195196Y-76583773D01*
X106189235Y-76607572D01*
X106180970Y-76630671D01*
X106170480Y-76652850D01*
X106157868Y-76673893D01*
X106143253Y-76693599D01*
X106126777Y-76711777D01*
X106108599Y-76728253D01*
X106088893Y-76742868D01*
X106067850Y-76755480D01*
X106045671Y-76765970D01*
X106022572Y-76774235D01*
X105998773Y-76780196D01*
X105974505Y-76783796D01*
X105950001Y-76785000D01*
X105049999Y-76785000D01*
X105025495Y-76783796D01*
X105001227Y-76780196D01*
X104977428Y-76774235D01*
X104954329Y-76765970D01*
X104932150Y-76755480D01*
X104911107Y-76742868D01*
X104891401Y-76728253D01*
X104873223Y-76711777D01*
X104856747Y-76693599D01*
X104842132Y-76673893D01*
X104829520Y-76652850D01*
X104819030Y-76630671D01*
X104810765Y-76607572D01*
X104804804Y-76583773D01*
X104801204Y-76559505D01*
X104800000Y-76535001D01*
X104800000Y-75884999D01*
X104801204Y-75860495D01*
X104804804Y-75836227D01*
X104810765Y-75812428D01*
X104819030Y-75789329D01*
X104829520Y-75767150D01*
X104842132Y-75746107D01*
X104856747Y-75726401D01*
X104873223Y-75708223D01*
X104891401Y-75691747D01*
X104911107Y-75677132D01*
X104932150Y-75664520D01*
X104954329Y-75654030D01*
X104977428Y-75645765D01*
X105001227Y-75639804D01*
X105025495Y-75636204D01*
X105049999Y-75635000D01*
X105950001Y-75635000D01*
X105974505Y-75636204D01*
X105974505Y-75636204D01*
G37*
D13*
X105500000Y-76210000D03*
D11*
G36*
X105974505Y-77686204D02*
G01*
X105998773Y-77689804D01*
X106022572Y-77695765D01*
X106045671Y-77704030D01*
X106067850Y-77714520D01*
X106088893Y-77727132D01*
X106108599Y-77741747D01*
X106126777Y-77758223D01*
X106143253Y-77776401D01*
X106157868Y-77796107D01*
X106170480Y-77817150D01*
X106180970Y-77839329D01*
X106189235Y-77862428D01*
X106195196Y-77886227D01*
X106198796Y-77910495D01*
X106200000Y-77934999D01*
X106200000Y-78585001D01*
X106198796Y-78609505D01*
X106195196Y-78633773D01*
X106189235Y-78657572D01*
X106180970Y-78680671D01*
X106170480Y-78702850D01*
X106157868Y-78723893D01*
X106143253Y-78743599D01*
X106126777Y-78761777D01*
X106108599Y-78778253D01*
X106088893Y-78792868D01*
X106067850Y-78805480D01*
X106045671Y-78815970D01*
X106022572Y-78824235D01*
X105998773Y-78830196D01*
X105974505Y-78833796D01*
X105950001Y-78835000D01*
X105049999Y-78835000D01*
X105025495Y-78833796D01*
X105001227Y-78830196D01*
X104977428Y-78824235D01*
X104954329Y-78815970D01*
X104932150Y-78805480D01*
X104911107Y-78792868D01*
X104891401Y-78778253D01*
X104873223Y-78761777D01*
X104856747Y-78743599D01*
X104842132Y-78723893D01*
X104829520Y-78702850D01*
X104819030Y-78680671D01*
X104810765Y-78657572D01*
X104804804Y-78633773D01*
X104801204Y-78609505D01*
X104800000Y-78585001D01*
X104800000Y-77934999D01*
X104801204Y-77910495D01*
X104804804Y-77886227D01*
X104810765Y-77862428D01*
X104819030Y-77839329D01*
X104829520Y-77817150D01*
X104842132Y-77796107D01*
X104856747Y-77776401D01*
X104873223Y-77758223D01*
X104891401Y-77741747D01*
X104911107Y-77727132D01*
X104932150Y-77714520D01*
X104954329Y-77704030D01*
X104977428Y-77695765D01*
X105001227Y-77689804D01*
X105025495Y-77686204D01*
X105049999Y-77685000D01*
X105950001Y-77685000D01*
X105974505Y-77686204D01*
X105974505Y-77686204D01*
G37*
D13*
X105500000Y-78260000D03*
D11*
G36*
X112436505Y-90243204D02*
G01*
X112460773Y-90246804D01*
X112484572Y-90252765D01*
X112507671Y-90261030D01*
X112529850Y-90271520D01*
X112550893Y-90284132D01*
X112570599Y-90298747D01*
X112588777Y-90315223D01*
X112605253Y-90333401D01*
X112619868Y-90353107D01*
X112632480Y-90374150D01*
X112642970Y-90396329D01*
X112651235Y-90419428D01*
X112657196Y-90443227D01*
X112660796Y-90467495D01*
X112662000Y-90491999D01*
X112662000Y-91142001D01*
X112660796Y-91166505D01*
X112657196Y-91190773D01*
X112651235Y-91214572D01*
X112642970Y-91237671D01*
X112632480Y-91259850D01*
X112619868Y-91280893D01*
X112605253Y-91300599D01*
X112588777Y-91318777D01*
X112570599Y-91335253D01*
X112550893Y-91349868D01*
X112529850Y-91362480D01*
X112507671Y-91372970D01*
X112484572Y-91381235D01*
X112460773Y-91387196D01*
X112436505Y-91390796D01*
X112412001Y-91392000D01*
X111511999Y-91392000D01*
X111487495Y-91390796D01*
X111463227Y-91387196D01*
X111439428Y-91381235D01*
X111416329Y-91372970D01*
X111394150Y-91362480D01*
X111373107Y-91349868D01*
X111353401Y-91335253D01*
X111335223Y-91318777D01*
X111318747Y-91300599D01*
X111304132Y-91280893D01*
X111291520Y-91259850D01*
X111281030Y-91237671D01*
X111272765Y-91214572D01*
X111266804Y-91190773D01*
X111263204Y-91166505D01*
X111262000Y-91142001D01*
X111262000Y-90491999D01*
X111263204Y-90467495D01*
X111266804Y-90443227D01*
X111272765Y-90419428D01*
X111281030Y-90396329D01*
X111291520Y-90374150D01*
X111304132Y-90353107D01*
X111318747Y-90333401D01*
X111335223Y-90315223D01*
X111353401Y-90298747D01*
X111373107Y-90284132D01*
X111394150Y-90271520D01*
X111416329Y-90261030D01*
X111439428Y-90252765D01*
X111463227Y-90246804D01*
X111487495Y-90243204D01*
X111511999Y-90242000D01*
X112412001Y-90242000D01*
X112436505Y-90243204D01*
X112436505Y-90243204D01*
G37*
D13*
X111962000Y-90817000D03*
D11*
G36*
X112436505Y-88193204D02*
G01*
X112460773Y-88196804D01*
X112484572Y-88202765D01*
X112507671Y-88211030D01*
X112529850Y-88221520D01*
X112550893Y-88234132D01*
X112570599Y-88248747D01*
X112588777Y-88265223D01*
X112605253Y-88283401D01*
X112619868Y-88303107D01*
X112632480Y-88324150D01*
X112642970Y-88346329D01*
X112651235Y-88369428D01*
X112657196Y-88393227D01*
X112660796Y-88417495D01*
X112662000Y-88441999D01*
X112662000Y-89092001D01*
X112660796Y-89116505D01*
X112657196Y-89140773D01*
X112651235Y-89164572D01*
X112642970Y-89187671D01*
X112632480Y-89209850D01*
X112619868Y-89230893D01*
X112605253Y-89250599D01*
X112588777Y-89268777D01*
X112570599Y-89285253D01*
X112550893Y-89299868D01*
X112529850Y-89312480D01*
X112507671Y-89322970D01*
X112484572Y-89331235D01*
X112460773Y-89337196D01*
X112436505Y-89340796D01*
X112412001Y-89342000D01*
X111511999Y-89342000D01*
X111487495Y-89340796D01*
X111463227Y-89337196D01*
X111439428Y-89331235D01*
X111416329Y-89322970D01*
X111394150Y-89312480D01*
X111373107Y-89299868D01*
X111353401Y-89285253D01*
X111335223Y-89268777D01*
X111318747Y-89250599D01*
X111304132Y-89230893D01*
X111291520Y-89209850D01*
X111281030Y-89187671D01*
X111272765Y-89164572D01*
X111266804Y-89140773D01*
X111263204Y-89116505D01*
X111262000Y-89092001D01*
X111262000Y-88441999D01*
X111263204Y-88417495D01*
X111266804Y-88393227D01*
X111272765Y-88369428D01*
X111281030Y-88346329D01*
X111291520Y-88324150D01*
X111304132Y-88303107D01*
X111318747Y-88283401D01*
X111335223Y-88265223D01*
X111353401Y-88248747D01*
X111373107Y-88234132D01*
X111394150Y-88221520D01*
X111416329Y-88211030D01*
X111439428Y-88202765D01*
X111463227Y-88196804D01*
X111487495Y-88193204D01*
X111511999Y-88192000D01*
X112412001Y-88192000D01*
X112436505Y-88193204D01*
X112436505Y-88193204D01*
G37*
D13*
X111962000Y-88767000D03*
D11*
G36*
X118854505Y-70041204D02*
G01*
X118878773Y-70044804D01*
X118902572Y-70050765D01*
X118925671Y-70059030D01*
X118947850Y-70069520D01*
X118968893Y-70082132D01*
X118988599Y-70096747D01*
X119006777Y-70113223D01*
X119023253Y-70131401D01*
X119037868Y-70151107D01*
X119050480Y-70172150D01*
X119060970Y-70194329D01*
X119069235Y-70217428D01*
X119075196Y-70241227D01*
X119078796Y-70265495D01*
X119080000Y-70289999D01*
X119080000Y-70940001D01*
X119078796Y-70964505D01*
X119075196Y-70988773D01*
X119069235Y-71012572D01*
X119060970Y-71035671D01*
X119050480Y-71057850D01*
X119037868Y-71078893D01*
X119023253Y-71098599D01*
X119006777Y-71116777D01*
X118988599Y-71133253D01*
X118968893Y-71147868D01*
X118947850Y-71160480D01*
X118925671Y-71170970D01*
X118902572Y-71179235D01*
X118878773Y-71185196D01*
X118854505Y-71188796D01*
X118830001Y-71190000D01*
X117929999Y-71190000D01*
X117905495Y-71188796D01*
X117881227Y-71185196D01*
X117857428Y-71179235D01*
X117834329Y-71170970D01*
X117812150Y-71160480D01*
X117791107Y-71147868D01*
X117771401Y-71133253D01*
X117753223Y-71116777D01*
X117736747Y-71098599D01*
X117722132Y-71078893D01*
X117709520Y-71057850D01*
X117699030Y-71035671D01*
X117690765Y-71012572D01*
X117684804Y-70988773D01*
X117681204Y-70964505D01*
X117680000Y-70940001D01*
X117680000Y-70289999D01*
X117681204Y-70265495D01*
X117684804Y-70241227D01*
X117690765Y-70217428D01*
X117699030Y-70194329D01*
X117709520Y-70172150D01*
X117722132Y-70151107D01*
X117736747Y-70131401D01*
X117753223Y-70113223D01*
X117771401Y-70096747D01*
X117791107Y-70082132D01*
X117812150Y-70069520D01*
X117834329Y-70059030D01*
X117857428Y-70050765D01*
X117881227Y-70044804D01*
X117905495Y-70041204D01*
X117929999Y-70040000D01*
X118830001Y-70040000D01*
X118854505Y-70041204D01*
X118854505Y-70041204D01*
G37*
D13*
X118380000Y-70615000D03*
D11*
G36*
X118854505Y-72091204D02*
G01*
X118878773Y-72094804D01*
X118902572Y-72100765D01*
X118925671Y-72109030D01*
X118947850Y-72119520D01*
X118968893Y-72132132D01*
X118988599Y-72146747D01*
X119006777Y-72163223D01*
X119023253Y-72181401D01*
X119037868Y-72201107D01*
X119050480Y-72222150D01*
X119060970Y-72244329D01*
X119069235Y-72267428D01*
X119075196Y-72291227D01*
X119078796Y-72315495D01*
X119080000Y-72339999D01*
X119080000Y-72990001D01*
X119078796Y-73014505D01*
X119075196Y-73038773D01*
X119069235Y-73062572D01*
X119060970Y-73085671D01*
X119050480Y-73107850D01*
X119037868Y-73128893D01*
X119023253Y-73148599D01*
X119006777Y-73166777D01*
X118988599Y-73183253D01*
X118968893Y-73197868D01*
X118947850Y-73210480D01*
X118925671Y-73220970D01*
X118902572Y-73229235D01*
X118878773Y-73235196D01*
X118854505Y-73238796D01*
X118830001Y-73240000D01*
X117929999Y-73240000D01*
X117905495Y-73238796D01*
X117881227Y-73235196D01*
X117857428Y-73229235D01*
X117834329Y-73220970D01*
X117812150Y-73210480D01*
X117791107Y-73197868D01*
X117771401Y-73183253D01*
X117753223Y-73166777D01*
X117736747Y-73148599D01*
X117722132Y-73128893D01*
X117709520Y-73107850D01*
X117699030Y-73085671D01*
X117690765Y-73062572D01*
X117684804Y-73038773D01*
X117681204Y-73014505D01*
X117680000Y-72990001D01*
X117680000Y-72339999D01*
X117681204Y-72315495D01*
X117684804Y-72291227D01*
X117690765Y-72267428D01*
X117699030Y-72244329D01*
X117709520Y-72222150D01*
X117722132Y-72201107D01*
X117736747Y-72181401D01*
X117753223Y-72163223D01*
X117771401Y-72146747D01*
X117791107Y-72132132D01*
X117812150Y-72119520D01*
X117834329Y-72109030D01*
X117857428Y-72100765D01*
X117881227Y-72094804D01*
X117905495Y-72091204D01*
X117929999Y-72090000D01*
X118830001Y-72090000D01*
X118854505Y-72091204D01*
X118854505Y-72091204D01*
G37*
D13*
X118380000Y-72665000D03*
D11*
G36*
X108138505Y-88068204D02*
G01*
X108162773Y-88071804D01*
X108186572Y-88077765D01*
X108209671Y-88086030D01*
X108231850Y-88096520D01*
X108252893Y-88109132D01*
X108272599Y-88123747D01*
X108290777Y-88140223D01*
X108307253Y-88158401D01*
X108321868Y-88178107D01*
X108334480Y-88199150D01*
X108344970Y-88221329D01*
X108353235Y-88244428D01*
X108359196Y-88268227D01*
X108362796Y-88292495D01*
X108364000Y-88316999D01*
X108364000Y-89217001D01*
X108362796Y-89241505D01*
X108359196Y-89265773D01*
X108353235Y-89289572D01*
X108344970Y-89312671D01*
X108334480Y-89334850D01*
X108321868Y-89355893D01*
X108307253Y-89375599D01*
X108290777Y-89393777D01*
X108272599Y-89410253D01*
X108252893Y-89424868D01*
X108231850Y-89437480D01*
X108209671Y-89447970D01*
X108186572Y-89456235D01*
X108162773Y-89462196D01*
X108138505Y-89465796D01*
X108114001Y-89467000D01*
X107463999Y-89467000D01*
X107439495Y-89465796D01*
X107415227Y-89462196D01*
X107391428Y-89456235D01*
X107368329Y-89447970D01*
X107346150Y-89437480D01*
X107325107Y-89424868D01*
X107305401Y-89410253D01*
X107287223Y-89393777D01*
X107270747Y-89375599D01*
X107256132Y-89355893D01*
X107243520Y-89334850D01*
X107233030Y-89312671D01*
X107224765Y-89289572D01*
X107218804Y-89265773D01*
X107215204Y-89241505D01*
X107214000Y-89217001D01*
X107214000Y-88316999D01*
X107215204Y-88292495D01*
X107218804Y-88268227D01*
X107224765Y-88244428D01*
X107233030Y-88221329D01*
X107243520Y-88199150D01*
X107256132Y-88178107D01*
X107270747Y-88158401D01*
X107287223Y-88140223D01*
X107305401Y-88123747D01*
X107325107Y-88109132D01*
X107346150Y-88096520D01*
X107368329Y-88086030D01*
X107391428Y-88077765D01*
X107415227Y-88071804D01*
X107439495Y-88068204D01*
X107463999Y-88067000D01*
X108114001Y-88067000D01*
X108138505Y-88068204D01*
X108138505Y-88068204D01*
G37*
D13*
X107789000Y-88767000D03*
D11*
G36*
X106088505Y-88068204D02*
G01*
X106112773Y-88071804D01*
X106136572Y-88077765D01*
X106159671Y-88086030D01*
X106181850Y-88096520D01*
X106202893Y-88109132D01*
X106222599Y-88123747D01*
X106240777Y-88140223D01*
X106257253Y-88158401D01*
X106271868Y-88178107D01*
X106284480Y-88199150D01*
X106294970Y-88221329D01*
X106303235Y-88244428D01*
X106309196Y-88268227D01*
X106312796Y-88292495D01*
X106314000Y-88316999D01*
X106314000Y-89217001D01*
X106312796Y-89241505D01*
X106309196Y-89265773D01*
X106303235Y-89289572D01*
X106294970Y-89312671D01*
X106284480Y-89334850D01*
X106271868Y-89355893D01*
X106257253Y-89375599D01*
X106240777Y-89393777D01*
X106222599Y-89410253D01*
X106202893Y-89424868D01*
X106181850Y-89437480D01*
X106159671Y-89447970D01*
X106136572Y-89456235D01*
X106112773Y-89462196D01*
X106088505Y-89465796D01*
X106064001Y-89467000D01*
X105413999Y-89467000D01*
X105389495Y-89465796D01*
X105365227Y-89462196D01*
X105341428Y-89456235D01*
X105318329Y-89447970D01*
X105296150Y-89437480D01*
X105275107Y-89424868D01*
X105255401Y-89410253D01*
X105237223Y-89393777D01*
X105220747Y-89375599D01*
X105206132Y-89355893D01*
X105193520Y-89334850D01*
X105183030Y-89312671D01*
X105174765Y-89289572D01*
X105168804Y-89265773D01*
X105165204Y-89241505D01*
X105164000Y-89217001D01*
X105164000Y-88316999D01*
X105165204Y-88292495D01*
X105168804Y-88268227D01*
X105174765Y-88244428D01*
X105183030Y-88221329D01*
X105193520Y-88199150D01*
X105206132Y-88178107D01*
X105220747Y-88158401D01*
X105237223Y-88140223D01*
X105255401Y-88123747D01*
X105275107Y-88109132D01*
X105296150Y-88096520D01*
X105318329Y-88086030D01*
X105341428Y-88077765D01*
X105365227Y-88071804D01*
X105389495Y-88068204D01*
X105413999Y-88067000D01*
X106064001Y-88067000D01*
X106088505Y-88068204D01*
X106088505Y-88068204D01*
G37*
D13*
X105739000Y-88767000D03*
D11*
G36*
X114260505Y-71966704D02*
G01*
X114284773Y-71970304D01*
X114308572Y-71976265D01*
X114331671Y-71984530D01*
X114353850Y-71995020D01*
X114374893Y-72007632D01*
X114394599Y-72022247D01*
X114412777Y-72038723D01*
X114429253Y-72056901D01*
X114443868Y-72076607D01*
X114456480Y-72097650D01*
X114466970Y-72119829D01*
X114475235Y-72142928D01*
X114481196Y-72166727D01*
X114484796Y-72190995D01*
X114486000Y-72215499D01*
X114486000Y-73115501D01*
X114484796Y-73140005D01*
X114481196Y-73164273D01*
X114475235Y-73188072D01*
X114466970Y-73211171D01*
X114456480Y-73233350D01*
X114443868Y-73254393D01*
X114429253Y-73274099D01*
X114412777Y-73292277D01*
X114394599Y-73308753D01*
X114374893Y-73323368D01*
X114353850Y-73335980D01*
X114331671Y-73346470D01*
X114308572Y-73354735D01*
X114284773Y-73360696D01*
X114260505Y-73364296D01*
X114236001Y-73365500D01*
X113585999Y-73365500D01*
X113561495Y-73364296D01*
X113537227Y-73360696D01*
X113513428Y-73354735D01*
X113490329Y-73346470D01*
X113468150Y-73335980D01*
X113447107Y-73323368D01*
X113427401Y-73308753D01*
X113409223Y-73292277D01*
X113392747Y-73274099D01*
X113378132Y-73254393D01*
X113365520Y-73233350D01*
X113355030Y-73211171D01*
X113346765Y-73188072D01*
X113340804Y-73164273D01*
X113337204Y-73140005D01*
X113336000Y-73115501D01*
X113336000Y-72215499D01*
X113337204Y-72190995D01*
X113340804Y-72166727D01*
X113346765Y-72142928D01*
X113355030Y-72119829D01*
X113365520Y-72097650D01*
X113378132Y-72076607D01*
X113392747Y-72056901D01*
X113409223Y-72038723D01*
X113427401Y-72022247D01*
X113447107Y-72007632D01*
X113468150Y-71995020D01*
X113490329Y-71984530D01*
X113513428Y-71976265D01*
X113537227Y-71970304D01*
X113561495Y-71966704D01*
X113585999Y-71965500D01*
X114236001Y-71965500D01*
X114260505Y-71966704D01*
X114260505Y-71966704D01*
G37*
D13*
X113911000Y-72665500D03*
D11*
G36*
X112210505Y-71966704D02*
G01*
X112234773Y-71970304D01*
X112258572Y-71976265D01*
X112281671Y-71984530D01*
X112303850Y-71995020D01*
X112324893Y-72007632D01*
X112344599Y-72022247D01*
X112362777Y-72038723D01*
X112379253Y-72056901D01*
X112393868Y-72076607D01*
X112406480Y-72097650D01*
X112416970Y-72119829D01*
X112425235Y-72142928D01*
X112431196Y-72166727D01*
X112434796Y-72190995D01*
X112436000Y-72215499D01*
X112436000Y-73115501D01*
X112434796Y-73140005D01*
X112431196Y-73164273D01*
X112425235Y-73188072D01*
X112416970Y-73211171D01*
X112406480Y-73233350D01*
X112393868Y-73254393D01*
X112379253Y-73274099D01*
X112362777Y-73292277D01*
X112344599Y-73308753D01*
X112324893Y-73323368D01*
X112303850Y-73335980D01*
X112281671Y-73346470D01*
X112258572Y-73354735D01*
X112234773Y-73360696D01*
X112210505Y-73364296D01*
X112186001Y-73365500D01*
X111535999Y-73365500D01*
X111511495Y-73364296D01*
X111487227Y-73360696D01*
X111463428Y-73354735D01*
X111440329Y-73346470D01*
X111418150Y-73335980D01*
X111397107Y-73323368D01*
X111377401Y-73308753D01*
X111359223Y-73292277D01*
X111342747Y-73274099D01*
X111328132Y-73254393D01*
X111315520Y-73233350D01*
X111305030Y-73211171D01*
X111296765Y-73188072D01*
X111290804Y-73164273D01*
X111287204Y-73140005D01*
X111286000Y-73115501D01*
X111286000Y-72215499D01*
X111287204Y-72190995D01*
X111290804Y-72166727D01*
X111296765Y-72142928D01*
X111305030Y-72119829D01*
X111315520Y-72097650D01*
X111328132Y-72076607D01*
X111342747Y-72056901D01*
X111359223Y-72038723D01*
X111377401Y-72022247D01*
X111397107Y-72007632D01*
X111418150Y-71995020D01*
X111440329Y-71984530D01*
X111463428Y-71976265D01*
X111487227Y-71970304D01*
X111511495Y-71966704D01*
X111535999Y-71965500D01*
X112186001Y-71965500D01*
X112210505Y-71966704D01*
X112210505Y-71966704D01*
G37*
D13*
X111861000Y-72665500D03*
D11*
G36*
X100117505Y-90225204D02*
G01*
X100141773Y-90228804D01*
X100165572Y-90234765D01*
X100188671Y-90243030D01*
X100210850Y-90253520D01*
X100231893Y-90266132D01*
X100251599Y-90280747D01*
X100269777Y-90297223D01*
X100286253Y-90315401D01*
X100300868Y-90335107D01*
X100313480Y-90356150D01*
X100323970Y-90378329D01*
X100332235Y-90401428D01*
X100338196Y-90425227D01*
X100341796Y-90449495D01*
X100343000Y-90473999D01*
X100343000Y-91124001D01*
X100341796Y-91148505D01*
X100338196Y-91172773D01*
X100332235Y-91196572D01*
X100323970Y-91219671D01*
X100313480Y-91241850D01*
X100300868Y-91262893D01*
X100286253Y-91282599D01*
X100269777Y-91300777D01*
X100251599Y-91317253D01*
X100231893Y-91331868D01*
X100210850Y-91344480D01*
X100188671Y-91354970D01*
X100165572Y-91363235D01*
X100141773Y-91369196D01*
X100117505Y-91372796D01*
X100093001Y-91374000D01*
X99192999Y-91374000D01*
X99168495Y-91372796D01*
X99144227Y-91369196D01*
X99120428Y-91363235D01*
X99097329Y-91354970D01*
X99075150Y-91344480D01*
X99054107Y-91331868D01*
X99034401Y-91317253D01*
X99016223Y-91300777D01*
X98999747Y-91282599D01*
X98985132Y-91262893D01*
X98972520Y-91241850D01*
X98962030Y-91219671D01*
X98953765Y-91196572D01*
X98947804Y-91172773D01*
X98944204Y-91148505D01*
X98943000Y-91124001D01*
X98943000Y-90473999D01*
X98944204Y-90449495D01*
X98947804Y-90425227D01*
X98953765Y-90401428D01*
X98962030Y-90378329D01*
X98972520Y-90356150D01*
X98985132Y-90335107D01*
X98999747Y-90315401D01*
X99016223Y-90297223D01*
X99034401Y-90280747D01*
X99054107Y-90266132D01*
X99075150Y-90253520D01*
X99097329Y-90243030D01*
X99120428Y-90234765D01*
X99144227Y-90228804D01*
X99168495Y-90225204D01*
X99192999Y-90224000D01*
X100093001Y-90224000D01*
X100117505Y-90225204D01*
X100117505Y-90225204D01*
G37*
D13*
X99643000Y-90799000D03*
D11*
G36*
X100117505Y-88175204D02*
G01*
X100141773Y-88178804D01*
X100165572Y-88184765D01*
X100188671Y-88193030D01*
X100210850Y-88203520D01*
X100231893Y-88216132D01*
X100251599Y-88230747D01*
X100269777Y-88247223D01*
X100286253Y-88265401D01*
X100300868Y-88285107D01*
X100313480Y-88306150D01*
X100323970Y-88328329D01*
X100332235Y-88351428D01*
X100338196Y-88375227D01*
X100341796Y-88399495D01*
X100343000Y-88423999D01*
X100343000Y-89074001D01*
X100341796Y-89098505D01*
X100338196Y-89122773D01*
X100332235Y-89146572D01*
X100323970Y-89169671D01*
X100313480Y-89191850D01*
X100300868Y-89212893D01*
X100286253Y-89232599D01*
X100269777Y-89250777D01*
X100251599Y-89267253D01*
X100231893Y-89281868D01*
X100210850Y-89294480D01*
X100188671Y-89304970D01*
X100165572Y-89313235D01*
X100141773Y-89319196D01*
X100117505Y-89322796D01*
X100093001Y-89324000D01*
X99192999Y-89324000D01*
X99168495Y-89322796D01*
X99144227Y-89319196D01*
X99120428Y-89313235D01*
X99097329Y-89304970D01*
X99075150Y-89294480D01*
X99054107Y-89281868D01*
X99034401Y-89267253D01*
X99016223Y-89250777D01*
X98999747Y-89232599D01*
X98985132Y-89212893D01*
X98972520Y-89191850D01*
X98962030Y-89169671D01*
X98953765Y-89146572D01*
X98947804Y-89122773D01*
X98944204Y-89098505D01*
X98943000Y-89074001D01*
X98943000Y-88423999D01*
X98944204Y-88399495D01*
X98947804Y-88375227D01*
X98953765Y-88351428D01*
X98962030Y-88328329D01*
X98972520Y-88306150D01*
X98985132Y-88285107D01*
X98999747Y-88265401D01*
X99016223Y-88247223D01*
X99034401Y-88230747D01*
X99054107Y-88216132D01*
X99075150Y-88203520D01*
X99097329Y-88193030D01*
X99120428Y-88184765D01*
X99144227Y-88178804D01*
X99168495Y-88175204D01*
X99192999Y-88174000D01*
X100093001Y-88174000D01*
X100117505Y-88175204D01*
X100117505Y-88175204D01*
G37*
D13*
X99643000Y-88749000D03*
D11*
G36*
X105934505Y-70036204D02*
G01*
X105958773Y-70039804D01*
X105982572Y-70045765D01*
X106005671Y-70054030D01*
X106027850Y-70064520D01*
X106048893Y-70077132D01*
X106068599Y-70091747D01*
X106086777Y-70108223D01*
X106103253Y-70126401D01*
X106117868Y-70146107D01*
X106130480Y-70167150D01*
X106140970Y-70189329D01*
X106149235Y-70212428D01*
X106155196Y-70236227D01*
X106158796Y-70260495D01*
X106160000Y-70284999D01*
X106160000Y-70935001D01*
X106158796Y-70959505D01*
X106155196Y-70983773D01*
X106149235Y-71007572D01*
X106140970Y-71030671D01*
X106130480Y-71052850D01*
X106117868Y-71073893D01*
X106103253Y-71093599D01*
X106086777Y-71111777D01*
X106068599Y-71128253D01*
X106048893Y-71142868D01*
X106027850Y-71155480D01*
X106005671Y-71165970D01*
X105982572Y-71174235D01*
X105958773Y-71180196D01*
X105934505Y-71183796D01*
X105910001Y-71185000D01*
X105009999Y-71185000D01*
X104985495Y-71183796D01*
X104961227Y-71180196D01*
X104937428Y-71174235D01*
X104914329Y-71165970D01*
X104892150Y-71155480D01*
X104871107Y-71142868D01*
X104851401Y-71128253D01*
X104833223Y-71111777D01*
X104816747Y-71093599D01*
X104802132Y-71073893D01*
X104789520Y-71052850D01*
X104779030Y-71030671D01*
X104770765Y-71007572D01*
X104764804Y-70983773D01*
X104761204Y-70959505D01*
X104760000Y-70935001D01*
X104760000Y-70284999D01*
X104761204Y-70260495D01*
X104764804Y-70236227D01*
X104770765Y-70212428D01*
X104779030Y-70189329D01*
X104789520Y-70167150D01*
X104802132Y-70146107D01*
X104816747Y-70126401D01*
X104833223Y-70108223D01*
X104851401Y-70091747D01*
X104871107Y-70077132D01*
X104892150Y-70064520D01*
X104914329Y-70054030D01*
X104937428Y-70045765D01*
X104961227Y-70039804D01*
X104985495Y-70036204D01*
X105009999Y-70035000D01*
X105910001Y-70035000D01*
X105934505Y-70036204D01*
X105934505Y-70036204D01*
G37*
D13*
X105460000Y-70610000D03*
D11*
G36*
X105934505Y-72086204D02*
G01*
X105958773Y-72089804D01*
X105982572Y-72095765D01*
X106005671Y-72104030D01*
X106027850Y-72114520D01*
X106048893Y-72127132D01*
X106068599Y-72141747D01*
X106086777Y-72158223D01*
X106103253Y-72176401D01*
X106117868Y-72196107D01*
X106130480Y-72217150D01*
X106140970Y-72239329D01*
X106149235Y-72262428D01*
X106155196Y-72286227D01*
X106158796Y-72310495D01*
X106160000Y-72334999D01*
X106160000Y-72985001D01*
X106158796Y-73009505D01*
X106155196Y-73033773D01*
X106149235Y-73057572D01*
X106140970Y-73080671D01*
X106130480Y-73102850D01*
X106117868Y-73123893D01*
X106103253Y-73143599D01*
X106086777Y-73161777D01*
X106068599Y-73178253D01*
X106048893Y-73192868D01*
X106027850Y-73205480D01*
X106005671Y-73215970D01*
X105982572Y-73224235D01*
X105958773Y-73230196D01*
X105934505Y-73233796D01*
X105910001Y-73235000D01*
X105009999Y-73235000D01*
X104985495Y-73233796D01*
X104961227Y-73230196D01*
X104937428Y-73224235D01*
X104914329Y-73215970D01*
X104892150Y-73205480D01*
X104871107Y-73192868D01*
X104851401Y-73178253D01*
X104833223Y-73161777D01*
X104816747Y-73143599D01*
X104802132Y-73123893D01*
X104789520Y-73102850D01*
X104779030Y-73080671D01*
X104770765Y-73057572D01*
X104764804Y-73033773D01*
X104761204Y-73009505D01*
X104760000Y-72985001D01*
X104760000Y-72334999D01*
X104761204Y-72310495D01*
X104764804Y-72286227D01*
X104770765Y-72262428D01*
X104779030Y-72239329D01*
X104789520Y-72217150D01*
X104802132Y-72196107D01*
X104816747Y-72176401D01*
X104833223Y-72158223D01*
X104851401Y-72141747D01*
X104871107Y-72127132D01*
X104892150Y-72114520D01*
X104914329Y-72104030D01*
X104937428Y-72095765D01*
X104961227Y-72089804D01*
X104985495Y-72086204D01*
X105009999Y-72085000D01*
X105910001Y-72085000D01*
X105934505Y-72086204D01*
X105934505Y-72086204D01*
G37*
D13*
X105460000Y-72660000D03*
D24*
X89757500Y-115379500D03*
D25*
X90757500Y-112679500D03*
X91407500Y-112679500D03*
X92057500Y-112679500D03*
X89457500Y-112679500D03*
X90107500Y-112679500D03*
D24*
X91757500Y-115379500D03*
D11*
G36*
X98504505Y-103241204D02*
G01*
X98528773Y-103244804D01*
X98552572Y-103250765D01*
X98575671Y-103259030D01*
X98597850Y-103269520D01*
X98618893Y-103282132D01*
X98638599Y-103296747D01*
X98656777Y-103313223D01*
X98673253Y-103331401D01*
X98687868Y-103351107D01*
X98700480Y-103372150D01*
X98710970Y-103394329D01*
X98719235Y-103417428D01*
X98725196Y-103441227D01*
X98728796Y-103465495D01*
X98730000Y-103489999D01*
X98730000Y-104390001D01*
X98728796Y-104414505D01*
X98725196Y-104438773D01*
X98719235Y-104462572D01*
X98710970Y-104485671D01*
X98700480Y-104507850D01*
X98687868Y-104528893D01*
X98673253Y-104548599D01*
X98656777Y-104566777D01*
X98638599Y-104583253D01*
X98618893Y-104597868D01*
X98597850Y-104610480D01*
X98575671Y-104620970D01*
X98552572Y-104629235D01*
X98528773Y-104635196D01*
X98504505Y-104638796D01*
X98480001Y-104640000D01*
X97829999Y-104640000D01*
X97805495Y-104638796D01*
X97781227Y-104635196D01*
X97757428Y-104629235D01*
X97734329Y-104620970D01*
X97712150Y-104610480D01*
X97691107Y-104597868D01*
X97671401Y-104583253D01*
X97653223Y-104566777D01*
X97636747Y-104548599D01*
X97622132Y-104528893D01*
X97609520Y-104507850D01*
X97599030Y-104485671D01*
X97590765Y-104462572D01*
X97584804Y-104438773D01*
X97581204Y-104414505D01*
X97580000Y-104390001D01*
X97580000Y-103489999D01*
X97581204Y-103465495D01*
X97584804Y-103441227D01*
X97590765Y-103417428D01*
X97599030Y-103394329D01*
X97609520Y-103372150D01*
X97622132Y-103351107D01*
X97636747Y-103331401D01*
X97653223Y-103313223D01*
X97671401Y-103296747D01*
X97691107Y-103282132D01*
X97712150Y-103269520D01*
X97734329Y-103259030D01*
X97757428Y-103250765D01*
X97781227Y-103244804D01*
X97805495Y-103241204D01*
X97829999Y-103240000D01*
X98480001Y-103240000D01*
X98504505Y-103241204D01*
X98504505Y-103241204D01*
G37*
D13*
X98155000Y-103940000D03*
D11*
G36*
X100554505Y-103241204D02*
G01*
X100578773Y-103244804D01*
X100602572Y-103250765D01*
X100625671Y-103259030D01*
X100647850Y-103269520D01*
X100668893Y-103282132D01*
X100688599Y-103296747D01*
X100706777Y-103313223D01*
X100723253Y-103331401D01*
X100737868Y-103351107D01*
X100750480Y-103372150D01*
X100760970Y-103394329D01*
X100769235Y-103417428D01*
X100775196Y-103441227D01*
X100778796Y-103465495D01*
X100780000Y-103489999D01*
X100780000Y-104390001D01*
X100778796Y-104414505D01*
X100775196Y-104438773D01*
X100769235Y-104462572D01*
X100760970Y-104485671D01*
X100750480Y-104507850D01*
X100737868Y-104528893D01*
X100723253Y-104548599D01*
X100706777Y-104566777D01*
X100688599Y-104583253D01*
X100668893Y-104597868D01*
X100647850Y-104610480D01*
X100625671Y-104620970D01*
X100602572Y-104629235D01*
X100578773Y-104635196D01*
X100554505Y-104638796D01*
X100530001Y-104640000D01*
X99879999Y-104640000D01*
X99855495Y-104638796D01*
X99831227Y-104635196D01*
X99807428Y-104629235D01*
X99784329Y-104620970D01*
X99762150Y-104610480D01*
X99741107Y-104597868D01*
X99721401Y-104583253D01*
X99703223Y-104566777D01*
X99686747Y-104548599D01*
X99672132Y-104528893D01*
X99659520Y-104507850D01*
X99649030Y-104485671D01*
X99640765Y-104462572D01*
X99634804Y-104438773D01*
X99631204Y-104414505D01*
X99630000Y-104390001D01*
X99630000Y-103489999D01*
X99631204Y-103465495D01*
X99634804Y-103441227D01*
X99640765Y-103417428D01*
X99649030Y-103394329D01*
X99659520Y-103372150D01*
X99672132Y-103351107D01*
X99686747Y-103331401D01*
X99703223Y-103313223D01*
X99721401Y-103296747D01*
X99741107Y-103282132D01*
X99762150Y-103269520D01*
X99784329Y-103259030D01*
X99807428Y-103250765D01*
X99831227Y-103244804D01*
X99855495Y-103241204D01*
X99879999Y-103240000D01*
X100530001Y-103240000D01*
X100554505Y-103241204D01*
X100554505Y-103241204D01*
G37*
D13*
X100205000Y-103940000D03*
D11*
G36*
X129898505Y-104139704D02*
G01*
X129922773Y-104143304D01*
X129946572Y-104149265D01*
X129969671Y-104157530D01*
X129991850Y-104168020D01*
X130012893Y-104180632D01*
X130032599Y-104195247D01*
X130050777Y-104211723D01*
X130067253Y-104229901D01*
X130081868Y-104249607D01*
X130094480Y-104270650D01*
X130104970Y-104292829D01*
X130113235Y-104315928D01*
X130119196Y-104339727D01*
X130122796Y-104363995D01*
X130124000Y-104388499D01*
X130124000Y-105288501D01*
X130122796Y-105313005D01*
X130119196Y-105337273D01*
X130113235Y-105361072D01*
X130104970Y-105384171D01*
X130094480Y-105406350D01*
X130081868Y-105427393D01*
X130067253Y-105447099D01*
X130050777Y-105465277D01*
X130032599Y-105481753D01*
X130012893Y-105496368D01*
X129991850Y-105508980D01*
X129969671Y-105519470D01*
X129946572Y-105527735D01*
X129922773Y-105533696D01*
X129898505Y-105537296D01*
X129874001Y-105538500D01*
X129223999Y-105538500D01*
X129199495Y-105537296D01*
X129175227Y-105533696D01*
X129151428Y-105527735D01*
X129128329Y-105519470D01*
X129106150Y-105508980D01*
X129085107Y-105496368D01*
X129065401Y-105481753D01*
X129047223Y-105465277D01*
X129030747Y-105447099D01*
X129016132Y-105427393D01*
X129003520Y-105406350D01*
X128993030Y-105384171D01*
X128984765Y-105361072D01*
X128978804Y-105337273D01*
X128975204Y-105313005D01*
X128974000Y-105288501D01*
X128974000Y-104388499D01*
X128975204Y-104363995D01*
X128978804Y-104339727D01*
X128984765Y-104315928D01*
X128993030Y-104292829D01*
X129003520Y-104270650D01*
X129016132Y-104249607D01*
X129030747Y-104229901D01*
X129047223Y-104211723D01*
X129065401Y-104195247D01*
X129085107Y-104180632D01*
X129106150Y-104168020D01*
X129128329Y-104157530D01*
X129151428Y-104149265D01*
X129175227Y-104143304D01*
X129199495Y-104139704D01*
X129223999Y-104138500D01*
X129874001Y-104138500D01*
X129898505Y-104139704D01*
X129898505Y-104139704D01*
G37*
D13*
X129549000Y-104838500D03*
D11*
G36*
X127848505Y-104139704D02*
G01*
X127872773Y-104143304D01*
X127896572Y-104149265D01*
X127919671Y-104157530D01*
X127941850Y-104168020D01*
X127962893Y-104180632D01*
X127982599Y-104195247D01*
X128000777Y-104211723D01*
X128017253Y-104229901D01*
X128031868Y-104249607D01*
X128044480Y-104270650D01*
X128054970Y-104292829D01*
X128063235Y-104315928D01*
X128069196Y-104339727D01*
X128072796Y-104363995D01*
X128074000Y-104388499D01*
X128074000Y-105288501D01*
X128072796Y-105313005D01*
X128069196Y-105337273D01*
X128063235Y-105361072D01*
X128054970Y-105384171D01*
X128044480Y-105406350D01*
X128031868Y-105427393D01*
X128017253Y-105447099D01*
X128000777Y-105465277D01*
X127982599Y-105481753D01*
X127962893Y-105496368D01*
X127941850Y-105508980D01*
X127919671Y-105519470D01*
X127896572Y-105527735D01*
X127872773Y-105533696D01*
X127848505Y-105537296D01*
X127824001Y-105538500D01*
X127173999Y-105538500D01*
X127149495Y-105537296D01*
X127125227Y-105533696D01*
X127101428Y-105527735D01*
X127078329Y-105519470D01*
X127056150Y-105508980D01*
X127035107Y-105496368D01*
X127015401Y-105481753D01*
X126997223Y-105465277D01*
X126980747Y-105447099D01*
X126966132Y-105427393D01*
X126953520Y-105406350D01*
X126943030Y-105384171D01*
X126934765Y-105361072D01*
X126928804Y-105337273D01*
X126925204Y-105313005D01*
X126924000Y-105288501D01*
X126924000Y-104388499D01*
X126925204Y-104363995D01*
X126928804Y-104339727D01*
X126934765Y-104315928D01*
X126943030Y-104292829D01*
X126953520Y-104270650D01*
X126966132Y-104249607D01*
X126980747Y-104229901D01*
X126997223Y-104211723D01*
X127015401Y-104195247D01*
X127035107Y-104180632D01*
X127056150Y-104168020D01*
X127078329Y-104157530D01*
X127101428Y-104149265D01*
X127125227Y-104143304D01*
X127149495Y-104139704D01*
X127173999Y-104138500D01*
X127824001Y-104138500D01*
X127848505Y-104139704D01*
X127848505Y-104139704D01*
G37*
D13*
X127499000Y-104838500D03*
D11*
G36*
X98894505Y-113776204D02*
G01*
X98918773Y-113779804D01*
X98942572Y-113785765D01*
X98965671Y-113794030D01*
X98987850Y-113804520D01*
X99008893Y-113817132D01*
X99028599Y-113831747D01*
X99046777Y-113848223D01*
X99063253Y-113866401D01*
X99077868Y-113886107D01*
X99090480Y-113907150D01*
X99100970Y-113929329D01*
X99109235Y-113952428D01*
X99115196Y-113976227D01*
X99118796Y-114000495D01*
X99120000Y-114024999D01*
X99120000Y-114675001D01*
X99118796Y-114699505D01*
X99115196Y-114723773D01*
X99109235Y-114747572D01*
X99100970Y-114770671D01*
X99090480Y-114792850D01*
X99077868Y-114813893D01*
X99063253Y-114833599D01*
X99046777Y-114851777D01*
X99028599Y-114868253D01*
X99008893Y-114882868D01*
X98987850Y-114895480D01*
X98965671Y-114905970D01*
X98942572Y-114914235D01*
X98918773Y-114920196D01*
X98894505Y-114923796D01*
X98870001Y-114925000D01*
X97969999Y-114925000D01*
X97945495Y-114923796D01*
X97921227Y-114920196D01*
X97897428Y-114914235D01*
X97874329Y-114905970D01*
X97852150Y-114895480D01*
X97831107Y-114882868D01*
X97811401Y-114868253D01*
X97793223Y-114851777D01*
X97776747Y-114833599D01*
X97762132Y-114813893D01*
X97749520Y-114792850D01*
X97739030Y-114770671D01*
X97730765Y-114747572D01*
X97724804Y-114723773D01*
X97721204Y-114699505D01*
X97720000Y-114675001D01*
X97720000Y-114024999D01*
X97721204Y-114000495D01*
X97724804Y-113976227D01*
X97730765Y-113952428D01*
X97739030Y-113929329D01*
X97749520Y-113907150D01*
X97762132Y-113886107D01*
X97776747Y-113866401D01*
X97793223Y-113848223D01*
X97811401Y-113831747D01*
X97831107Y-113817132D01*
X97852150Y-113804520D01*
X97874329Y-113794030D01*
X97897428Y-113785765D01*
X97921227Y-113779804D01*
X97945495Y-113776204D01*
X97969999Y-113775000D01*
X98870001Y-113775000D01*
X98894505Y-113776204D01*
X98894505Y-113776204D01*
G37*
D13*
X98420000Y-114350000D03*
D11*
G36*
X98894505Y-111726204D02*
G01*
X98918773Y-111729804D01*
X98942572Y-111735765D01*
X98965671Y-111744030D01*
X98987850Y-111754520D01*
X99008893Y-111767132D01*
X99028599Y-111781747D01*
X99046777Y-111798223D01*
X99063253Y-111816401D01*
X99077868Y-111836107D01*
X99090480Y-111857150D01*
X99100970Y-111879329D01*
X99109235Y-111902428D01*
X99115196Y-111926227D01*
X99118796Y-111950495D01*
X99120000Y-111974999D01*
X99120000Y-112625001D01*
X99118796Y-112649505D01*
X99115196Y-112673773D01*
X99109235Y-112697572D01*
X99100970Y-112720671D01*
X99090480Y-112742850D01*
X99077868Y-112763893D01*
X99063253Y-112783599D01*
X99046777Y-112801777D01*
X99028599Y-112818253D01*
X99008893Y-112832868D01*
X98987850Y-112845480D01*
X98965671Y-112855970D01*
X98942572Y-112864235D01*
X98918773Y-112870196D01*
X98894505Y-112873796D01*
X98870001Y-112875000D01*
X97969999Y-112875000D01*
X97945495Y-112873796D01*
X97921227Y-112870196D01*
X97897428Y-112864235D01*
X97874329Y-112855970D01*
X97852150Y-112845480D01*
X97831107Y-112832868D01*
X97811401Y-112818253D01*
X97793223Y-112801777D01*
X97776747Y-112783599D01*
X97762132Y-112763893D01*
X97749520Y-112742850D01*
X97739030Y-112720671D01*
X97730765Y-112697572D01*
X97724804Y-112673773D01*
X97721204Y-112649505D01*
X97720000Y-112625001D01*
X97720000Y-111974999D01*
X97721204Y-111950495D01*
X97724804Y-111926227D01*
X97730765Y-111902428D01*
X97739030Y-111879329D01*
X97749520Y-111857150D01*
X97762132Y-111836107D01*
X97776747Y-111816401D01*
X97793223Y-111798223D01*
X97811401Y-111781747D01*
X97831107Y-111767132D01*
X97852150Y-111754520D01*
X97874329Y-111744030D01*
X97897428Y-111735765D01*
X97921227Y-111729804D01*
X97945495Y-111726204D01*
X97969999Y-111725000D01*
X98870001Y-111725000D01*
X98894505Y-111726204D01*
X98894505Y-111726204D01*
G37*
D13*
X98420000Y-112300000D03*
D11*
G36*
X84844505Y-106881204D02*
G01*
X84868773Y-106884804D01*
X84892572Y-106890765D01*
X84915671Y-106899030D01*
X84937850Y-106909520D01*
X84958893Y-106922132D01*
X84978599Y-106936747D01*
X84996777Y-106953223D01*
X85013253Y-106971401D01*
X85027868Y-106991107D01*
X85040480Y-107012150D01*
X85050970Y-107034329D01*
X85059235Y-107057428D01*
X85065196Y-107081227D01*
X85068796Y-107105495D01*
X85070000Y-107129999D01*
X85070000Y-108030001D01*
X85068796Y-108054505D01*
X85065196Y-108078773D01*
X85059235Y-108102572D01*
X85050970Y-108125671D01*
X85040480Y-108147850D01*
X85027868Y-108168893D01*
X85013253Y-108188599D01*
X84996777Y-108206777D01*
X84978599Y-108223253D01*
X84958893Y-108237868D01*
X84937850Y-108250480D01*
X84915671Y-108260970D01*
X84892572Y-108269235D01*
X84868773Y-108275196D01*
X84844505Y-108278796D01*
X84820001Y-108280000D01*
X84169999Y-108280000D01*
X84145495Y-108278796D01*
X84121227Y-108275196D01*
X84097428Y-108269235D01*
X84074329Y-108260970D01*
X84052150Y-108250480D01*
X84031107Y-108237868D01*
X84011401Y-108223253D01*
X83993223Y-108206777D01*
X83976747Y-108188599D01*
X83962132Y-108168893D01*
X83949520Y-108147850D01*
X83939030Y-108125671D01*
X83930765Y-108102572D01*
X83924804Y-108078773D01*
X83921204Y-108054505D01*
X83920000Y-108030001D01*
X83920000Y-107129999D01*
X83921204Y-107105495D01*
X83924804Y-107081227D01*
X83930765Y-107057428D01*
X83939030Y-107034329D01*
X83949520Y-107012150D01*
X83962132Y-106991107D01*
X83976747Y-106971401D01*
X83993223Y-106953223D01*
X84011401Y-106936747D01*
X84031107Y-106922132D01*
X84052150Y-106909520D01*
X84074329Y-106899030D01*
X84097428Y-106890765D01*
X84121227Y-106884804D01*
X84145495Y-106881204D01*
X84169999Y-106880000D01*
X84820001Y-106880000D01*
X84844505Y-106881204D01*
X84844505Y-106881204D01*
G37*
D13*
X84495000Y-107580000D03*
D11*
G36*
X86894505Y-106881204D02*
G01*
X86918773Y-106884804D01*
X86942572Y-106890765D01*
X86965671Y-106899030D01*
X86987850Y-106909520D01*
X87008893Y-106922132D01*
X87028599Y-106936747D01*
X87046777Y-106953223D01*
X87063253Y-106971401D01*
X87077868Y-106991107D01*
X87090480Y-107012150D01*
X87100970Y-107034329D01*
X87109235Y-107057428D01*
X87115196Y-107081227D01*
X87118796Y-107105495D01*
X87120000Y-107129999D01*
X87120000Y-108030001D01*
X87118796Y-108054505D01*
X87115196Y-108078773D01*
X87109235Y-108102572D01*
X87100970Y-108125671D01*
X87090480Y-108147850D01*
X87077868Y-108168893D01*
X87063253Y-108188599D01*
X87046777Y-108206777D01*
X87028599Y-108223253D01*
X87008893Y-108237868D01*
X86987850Y-108250480D01*
X86965671Y-108260970D01*
X86942572Y-108269235D01*
X86918773Y-108275196D01*
X86894505Y-108278796D01*
X86870001Y-108280000D01*
X86219999Y-108280000D01*
X86195495Y-108278796D01*
X86171227Y-108275196D01*
X86147428Y-108269235D01*
X86124329Y-108260970D01*
X86102150Y-108250480D01*
X86081107Y-108237868D01*
X86061401Y-108223253D01*
X86043223Y-108206777D01*
X86026747Y-108188599D01*
X86012132Y-108168893D01*
X85999520Y-108147850D01*
X85989030Y-108125671D01*
X85980765Y-108102572D01*
X85974804Y-108078773D01*
X85971204Y-108054505D01*
X85970000Y-108030001D01*
X85970000Y-107129999D01*
X85971204Y-107105495D01*
X85974804Y-107081227D01*
X85980765Y-107057428D01*
X85989030Y-107034329D01*
X85999520Y-107012150D01*
X86012132Y-106991107D01*
X86026747Y-106971401D01*
X86043223Y-106953223D01*
X86061401Y-106936747D01*
X86081107Y-106922132D01*
X86102150Y-106909520D01*
X86124329Y-106899030D01*
X86147428Y-106890765D01*
X86171227Y-106884804D01*
X86195495Y-106881204D01*
X86219999Y-106880000D01*
X86870001Y-106880000D01*
X86894505Y-106881204D01*
X86894505Y-106881204D01*
G37*
D13*
X86545000Y-107580000D03*
D11*
G36*
X84919505Y-96701204D02*
G01*
X84943773Y-96704804D01*
X84967572Y-96710765D01*
X84990671Y-96719030D01*
X85012850Y-96729520D01*
X85033893Y-96742132D01*
X85053599Y-96756747D01*
X85071777Y-96773223D01*
X85088253Y-96791401D01*
X85102868Y-96811107D01*
X85115480Y-96832150D01*
X85125970Y-96854329D01*
X85134235Y-96877428D01*
X85140196Y-96901227D01*
X85143796Y-96925495D01*
X85145000Y-96949999D01*
X85145000Y-97850001D01*
X85143796Y-97874505D01*
X85140196Y-97898773D01*
X85134235Y-97922572D01*
X85125970Y-97945671D01*
X85115480Y-97967850D01*
X85102868Y-97988893D01*
X85088253Y-98008599D01*
X85071777Y-98026777D01*
X85053599Y-98043253D01*
X85033893Y-98057868D01*
X85012850Y-98070480D01*
X84990671Y-98080970D01*
X84967572Y-98089235D01*
X84943773Y-98095196D01*
X84919505Y-98098796D01*
X84895001Y-98100000D01*
X84244999Y-98100000D01*
X84220495Y-98098796D01*
X84196227Y-98095196D01*
X84172428Y-98089235D01*
X84149329Y-98080970D01*
X84127150Y-98070480D01*
X84106107Y-98057868D01*
X84086401Y-98043253D01*
X84068223Y-98026777D01*
X84051747Y-98008599D01*
X84037132Y-97988893D01*
X84024520Y-97967850D01*
X84014030Y-97945671D01*
X84005765Y-97922572D01*
X83999804Y-97898773D01*
X83996204Y-97874505D01*
X83995000Y-97850001D01*
X83995000Y-96949999D01*
X83996204Y-96925495D01*
X83999804Y-96901227D01*
X84005765Y-96877428D01*
X84014030Y-96854329D01*
X84024520Y-96832150D01*
X84037132Y-96811107D01*
X84051747Y-96791401D01*
X84068223Y-96773223D01*
X84086401Y-96756747D01*
X84106107Y-96742132D01*
X84127150Y-96729520D01*
X84149329Y-96719030D01*
X84172428Y-96710765D01*
X84196227Y-96704804D01*
X84220495Y-96701204D01*
X84244999Y-96700000D01*
X84895001Y-96700000D01*
X84919505Y-96701204D01*
X84919505Y-96701204D01*
G37*
D13*
X84570000Y-97400000D03*
D11*
G36*
X86969505Y-96701204D02*
G01*
X86993773Y-96704804D01*
X87017572Y-96710765D01*
X87040671Y-96719030D01*
X87062850Y-96729520D01*
X87083893Y-96742132D01*
X87103599Y-96756747D01*
X87121777Y-96773223D01*
X87138253Y-96791401D01*
X87152868Y-96811107D01*
X87165480Y-96832150D01*
X87175970Y-96854329D01*
X87184235Y-96877428D01*
X87190196Y-96901227D01*
X87193796Y-96925495D01*
X87195000Y-96949999D01*
X87195000Y-97850001D01*
X87193796Y-97874505D01*
X87190196Y-97898773D01*
X87184235Y-97922572D01*
X87175970Y-97945671D01*
X87165480Y-97967850D01*
X87152868Y-97988893D01*
X87138253Y-98008599D01*
X87121777Y-98026777D01*
X87103599Y-98043253D01*
X87083893Y-98057868D01*
X87062850Y-98070480D01*
X87040671Y-98080970D01*
X87017572Y-98089235D01*
X86993773Y-98095196D01*
X86969505Y-98098796D01*
X86945001Y-98100000D01*
X86294999Y-98100000D01*
X86270495Y-98098796D01*
X86246227Y-98095196D01*
X86222428Y-98089235D01*
X86199329Y-98080970D01*
X86177150Y-98070480D01*
X86156107Y-98057868D01*
X86136401Y-98043253D01*
X86118223Y-98026777D01*
X86101747Y-98008599D01*
X86087132Y-97988893D01*
X86074520Y-97967850D01*
X86064030Y-97945671D01*
X86055765Y-97922572D01*
X86049804Y-97898773D01*
X86046204Y-97874505D01*
X86045000Y-97850001D01*
X86045000Y-96949999D01*
X86046204Y-96925495D01*
X86049804Y-96901227D01*
X86055765Y-96877428D01*
X86064030Y-96854329D01*
X86074520Y-96832150D01*
X86087132Y-96811107D01*
X86101747Y-96791401D01*
X86118223Y-96773223D01*
X86136401Y-96756747D01*
X86156107Y-96742132D01*
X86177150Y-96729520D01*
X86199329Y-96719030D01*
X86222428Y-96710765D01*
X86246227Y-96704804D01*
X86270495Y-96701204D01*
X86294999Y-96700000D01*
X86945001Y-96700000D01*
X86969505Y-96701204D01*
X86969505Y-96701204D01*
G37*
D13*
X86620000Y-97400000D03*
D11*
G36*
X84873005Y-103519204D02*
G01*
X84897273Y-103522804D01*
X84921072Y-103528765D01*
X84944171Y-103537030D01*
X84966350Y-103547520D01*
X84987393Y-103560132D01*
X85007099Y-103574747D01*
X85025277Y-103591223D01*
X85041753Y-103609401D01*
X85056368Y-103629107D01*
X85068980Y-103650150D01*
X85079470Y-103672329D01*
X85087735Y-103695428D01*
X85093696Y-103719227D01*
X85097296Y-103743495D01*
X85098500Y-103767999D01*
X85098500Y-104668001D01*
X85097296Y-104692505D01*
X85093696Y-104716773D01*
X85087735Y-104740572D01*
X85079470Y-104763671D01*
X85068980Y-104785850D01*
X85056368Y-104806893D01*
X85041753Y-104826599D01*
X85025277Y-104844777D01*
X85007099Y-104861253D01*
X84987393Y-104875868D01*
X84966350Y-104888480D01*
X84944171Y-104898970D01*
X84921072Y-104907235D01*
X84897273Y-104913196D01*
X84873005Y-104916796D01*
X84848501Y-104918000D01*
X84198499Y-104918000D01*
X84173995Y-104916796D01*
X84149727Y-104913196D01*
X84125928Y-104907235D01*
X84102829Y-104898970D01*
X84080650Y-104888480D01*
X84059607Y-104875868D01*
X84039901Y-104861253D01*
X84021723Y-104844777D01*
X84005247Y-104826599D01*
X83990632Y-104806893D01*
X83978020Y-104785850D01*
X83967530Y-104763671D01*
X83959265Y-104740572D01*
X83953304Y-104716773D01*
X83949704Y-104692505D01*
X83948500Y-104668001D01*
X83948500Y-103767999D01*
X83949704Y-103743495D01*
X83953304Y-103719227D01*
X83959265Y-103695428D01*
X83967530Y-103672329D01*
X83978020Y-103650150D01*
X83990632Y-103629107D01*
X84005247Y-103609401D01*
X84021723Y-103591223D01*
X84039901Y-103574747D01*
X84059607Y-103560132D01*
X84080650Y-103547520D01*
X84102829Y-103537030D01*
X84125928Y-103528765D01*
X84149727Y-103522804D01*
X84173995Y-103519204D01*
X84198499Y-103518000D01*
X84848501Y-103518000D01*
X84873005Y-103519204D01*
X84873005Y-103519204D01*
G37*
D13*
X84523500Y-104218000D03*
D11*
G36*
X86923005Y-103519204D02*
G01*
X86947273Y-103522804D01*
X86971072Y-103528765D01*
X86994171Y-103537030D01*
X87016350Y-103547520D01*
X87037393Y-103560132D01*
X87057099Y-103574747D01*
X87075277Y-103591223D01*
X87091753Y-103609401D01*
X87106368Y-103629107D01*
X87118980Y-103650150D01*
X87129470Y-103672329D01*
X87137735Y-103695428D01*
X87143696Y-103719227D01*
X87147296Y-103743495D01*
X87148500Y-103767999D01*
X87148500Y-104668001D01*
X87147296Y-104692505D01*
X87143696Y-104716773D01*
X87137735Y-104740572D01*
X87129470Y-104763671D01*
X87118980Y-104785850D01*
X87106368Y-104806893D01*
X87091753Y-104826599D01*
X87075277Y-104844777D01*
X87057099Y-104861253D01*
X87037393Y-104875868D01*
X87016350Y-104888480D01*
X86994171Y-104898970D01*
X86971072Y-104907235D01*
X86947273Y-104913196D01*
X86923005Y-104916796D01*
X86898501Y-104918000D01*
X86248499Y-104918000D01*
X86223995Y-104916796D01*
X86199727Y-104913196D01*
X86175928Y-104907235D01*
X86152829Y-104898970D01*
X86130650Y-104888480D01*
X86109607Y-104875868D01*
X86089901Y-104861253D01*
X86071723Y-104844777D01*
X86055247Y-104826599D01*
X86040632Y-104806893D01*
X86028020Y-104785850D01*
X86017530Y-104763671D01*
X86009265Y-104740572D01*
X86003304Y-104716773D01*
X85999704Y-104692505D01*
X85998500Y-104668001D01*
X85998500Y-103767999D01*
X85999704Y-103743495D01*
X86003304Y-103719227D01*
X86009265Y-103695428D01*
X86017530Y-103672329D01*
X86028020Y-103650150D01*
X86040632Y-103629107D01*
X86055247Y-103609401D01*
X86071723Y-103591223D01*
X86089901Y-103574747D01*
X86109607Y-103560132D01*
X86130650Y-103547520D01*
X86152829Y-103537030D01*
X86175928Y-103528765D01*
X86199727Y-103522804D01*
X86223995Y-103519204D01*
X86248499Y-103518000D01*
X86898501Y-103518000D01*
X86923005Y-103519204D01*
X86923005Y-103519204D01*
G37*
D13*
X86573500Y-104218000D03*
D11*
G36*
X84936505Y-100090204D02*
G01*
X84960773Y-100093804D01*
X84984572Y-100099765D01*
X85007671Y-100108030D01*
X85029850Y-100118520D01*
X85050893Y-100131132D01*
X85070599Y-100145747D01*
X85088777Y-100162223D01*
X85105253Y-100180401D01*
X85119868Y-100200107D01*
X85132480Y-100221150D01*
X85142970Y-100243329D01*
X85151235Y-100266428D01*
X85157196Y-100290227D01*
X85160796Y-100314495D01*
X85162000Y-100338999D01*
X85162000Y-101239001D01*
X85160796Y-101263505D01*
X85157196Y-101287773D01*
X85151235Y-101311572D01*
X85142970Y-101334671D01*
X85132480Y-101356850D01*
X85119868Y-101377893D01*
X85105253Y-101397599D01*
X85088777Y-101415777D01*
X85070599Y-101432253D01*
X85050893Y-101446868D01*
X85029850Y-101459480D01*
X85007671Y-101469970D01*
X84984572Y-101478235D01*
X84960773Y-101484196D01*
X84936505Y-101487796D01*
X84912001Y-101489000D01*
X84261999Y-101489000D01*
X84237495Y-101487796D01*
X84213227Y-101484196D01*
X84189428Y-101478235D01*
X84166329Y-101469970D01*
X84144150Y-101459480D01*
X84123107Y-101446868D01*
X84103401Y-101432253D01*
X84085223Y-101415777D01*
X84068747Y-101397599D01*
X84054132Y-101377893D01*
X84041520Y-101356850D01*
X84031030Y-101334671D01*
X84022765Y-101311572D01*
X84016804Y-101287773D01*
X84013204Y-101263505D01*
X84012000Y-101239001D01*
X84012000Y-100338999D01*
X84013204Y-100314495D01*
X84016804Y-100290227D01*
X84022765Y-100266428D01*
X84031030Y-100243329D01*
X84041520Y-100221150D01*
X84054132Y-100200107D01*
X84068747Y-100180401D01*
X84085223Y-100162223D01*
X84103401Y-100145747D01*
X84123107Y-100131132D01*
X84144150Y-100118520D01*
X84166329Y-100108030D01*
X84189428Y-100099765D01*
X84213227Y-100093804D01*
X84237495Y-100090204D01*
X84261999Y-100089000D01*
X84912001Y-100089000D01*
X84936505Y-100090204D01*
X84936505Y-100090204D01*
G37*
D13*
X84587000Y-100789000D03*
D11*
G36*
X86986505Y-100090204D02*
G01*
X87010773Y-100093804D01*
X87034572Y-100099765D01*
X87057671Y-100108030D01*
X87079850Y-100118520D01*
X87100893Y-100131132D01*
X87120599Y-100145747D01*
X87138777Y-100162223D01*
X87155253Y-100180401D01*
X87169868Y-100200107D01*
X87182480Y-100221150D01*
X87192970Y-100243329D01*
X87201235Y-100266428D01*
X87207196Y-100290227D01*
X87210796Y-100314495D01*
X87212000Y-100338999D01*
X87212000Y-101239001D01*
X87210796Y-101263505D01*
X87207196Y-101287773D01*
X87201235Y-101311572D01*
X87192970Y-101334671D01*
X87182480Y-101356850D01*
X87169868Y-101377893D01*
X87155253Y-101397599D01*
X87138777Y-101415777D01*
X87120599Y-101432253D01*
X87100893Y-101446868D01*
X87079850Y-101459480D01*
X87057671Y-101469970D01*
X87034572Y-101478235D01*
X87010773Y-101484196D01*
X86986505Y-101487796D01*
X86962001Y-101489000D01*
X86311999Y-101489000D01*
X86287495Y-101487796D01*
X86263227Y-101484196D01*
X86239428Y-101478235D01*
X86216329Y-101469970D01*
X86194150Y-101459480D01*
X86173107Y-101446868D01*
X86153401Y-101432253D01*
X86135223Y-101415777D01*
X86118747Y-101397599D01*
X86104132Y-101377893D01*
X86091520Y-101356850D01*
X86081030Y-101334671D01*
X86072765Y-101311572D01*
X86066804Y-101287773D01*
X86063204Y-101263505D01*
X86062000Y-101239001D01*
X86062000Y-100338999D01*
X86063204Y-100314495D01*
X86066804Y-100290227D01*
X86072765Y-100266428D01*
X86081030Y-100243329D01*
X86091520Y-100221150D01*
X86104132Y-100200107D01*
X86118747Y-100180401D01*
X86135223Y-100162223D01*
X86153401Y-100145747D01*
X86173107Y-100131132D01*
X86194150Y-100118520D01*
X86216329Y-100108030D01*
X86239428Y-100099765D01*
X86263227Y-100093804D01*
X86287495Y-100090204D01*
X86311999Y-100089000D01*
X86962001Y-100089000D01*
X86986505Y-100090204D01*
X86986505Y-100090204D01*
G37*
D13*
X86637000Y-100789000D03*
M02*
