G04 #@! TF.GenerationSoftware,KiCad,Pcbnew,(5.1.4)-1*
G04 #@! TF.CreationDate,2019-11-05T17:53:00+05:30*
G04 #@! TF.ProjectId,RPi Hat RF Transmitter V1,52506920-4861-4742-9052-46205472616e,rev?*
G04 #@! TF.SameCoordinates,Original*
G04 #@! TF.FileFunction,Paste,Bot*
G04 #@! TF.FilePolarity,Positive*
%FSLAX46Y46*%
G04 Gerber Fmt 4.6, Leading zero omitted, Abs format (unit mm)*
G04 Created by KiCad (PCBNEW (5.1.4)-1) date 2019-11-05 17:53:00*
%MOMM*%
%LPD*%
G04 APERTURE LIST*
%ADD10C,0.150000*%
%ADD11R,1.560000X0.650000*%
%ADD12R,2.000000X1.500000*%
%ADD13R,2.000000X3.800000*%
%ADD14C,0.100000*%
%ADD15C,1.150000*%
%ADD16C,1.425000*%
%ADD17C,0.600000*%
G04 APERTURE END LIST*
D10*
X78546356Y-63817611D02*
X78546356Y-113817611D01*
X140546356Y-60817611D02*
X81546356Y-60817611D01*
X143546351Y-113822847D02*
X143546356Y-63817611D01*
X81546356Y-116817611D02*
X140546356Y-116817611D01*
X78546356Y-63817611D02*
G75*
G02X81546356Y-60817611I3000000J0D01*
G01*
X140546356Y-60817611D02*
G75*
G02X143546356Y-63817611I0J-3000000D01*
G01*
X81546356Y-116817611D02*
G75*
G02X78546356Y-113817611I0J3000000D01*
G01*
X143546351Y-113822847D02*
G75*
G02X140546356Y-116817611I-2999995J5236D01*
G01*
D11*
X120950000Y-81640000D03*
X120950000Y-82590000D03*
X120950000Y-80690000D03*
X118250000Y-80690000D03*
X118250000Y-81640000D03*
X118250000Y-82590000D03*
D12*
X98170000Y-108700000D03*
X98170000Y-104100000D03*
X98170000Y-106400000D03*
D13*
X104470000Y-106400000D03*
D14*
G36*
X96234505Y-108176204D02*
G01*
X96258773Y-108179804D01*
X96282572Y-108185765D01*
X96305671Y-108194030D01*
X96327850Y-108204520D01*
X96348893Y-108217132D01*
X96368599Y-108231747D01*
X96386777Y-108248223D01*
X96403253Y-108266401D01*
X96417868Y-108286107D01*
X96430480Y-108307150D01*
X96440970Y-108329329D01*
X96449235Y-108352428D01*
X96455196Y-108376227D01*
X96458796Y-108400495D01*
X96460000Y-108424999D01*
X96460000Y-109075001D01*
X96458796Y-109099505D01*
X96455196Y-109123773D01*
X96449235Y-109147572D01*
X96440970Y-109170671D01*
X96430480Y-109192850D01*
X96417868Y-109213893D01*
X96403253Y-109233599D01*
X96386777Y-109251777D01*
X96368599Y-109268253D01*
X96348893Y-109282868D01*
X96327850Y-109295480D01*
X96305671Y-109305970D01*
X96282572Y-109314235D01*
X96258773Y-109320196D01*
X96234505Y-109323796D01*
X96210001Y-109325000D01*
X95309999Y-109325000D01*
X95285495Y-109323796D01*
X95261227Y-109320196D01*
X95237428Y-109314235D01*
X95214329Y-109305970D01*
X95192150Y-109295480D01*
X95171107Y-109282868D01*
X95151401Y-109268253D01*
X95133223Y-109251777D01*
X95116747Y-109233599D01*
X95102132Y-109213893D01*
X95089520Y-109192850D01*
X95079030Y-109170671D01*
X95070765Y-109147572D01*
X95064804Y-109123773D01*
X95061204Y-109099505D01*
X95060000Y-109075001D01*
X95060000Y-108424999D01*
X95061204Y-108400495D01*
X95064804Y-108376227D01*
X95070765Y-108352428D01*
X95079030Y-108329329D01*
X95089520Y-108307150D01*
X95102132Y-108286107D01*
X95116747Y-108266401D01*
X95133223Y-108248223D01*
X95151401Y-108231747D01*
X95171107Y-108217132D01*
X95192150Y-108204520D01*
X95214329Y-108194030D01*
X95237428Y-108185765D01*
X95261227Y-108179804D01*
X95285495Y-108176204D01*
X95309999Y-108175000D01*
X96210001Y-108175000D01*
X96234505Y-108176204D01*
X96234505Y-108176204D01*
G37*
D15*
X95760000Y-108750000D03*
D14*
G36*
X96234505Y-106126204D02*
G01*
X96258773Y-106129804D01*
X96282572Y-106135765D01*
X96305671Y-106144030D01*
X96327850Y-106154520D01*
X96348893Y-106167132D01*
X96368599Y-106181747D01*
X96386777Y-106198223D01*
X96403253Y-106216401D01*
X96417868Y-106236107D01*
X96430480Y-106257150D01*
X96440970Y-106279329D01*
X96449235Y-106302428D01*
X96455196Y-106326227D01*
X96458796Y-106350495D01*
X96460000Y-106374999D01*
X96460000Y-107025001D01*
X96458796Y-107049505D01*
X96455196Y-107073773D01*
X96449235Y-107097572D01*
X96440970Y-107120671D01*
X96430480Y-107142850D01*
X96417868Y-107163893D01*
X96403253Y-107183599D01*
X96386777Y-107201777D01*
X96368599Y-107218253D01*
X96348893Y-107232868D01*
X96327850Y-107245480D01*
X96305671Y-107255970D01*
X96282572Y-107264235D01*
X96258773Y-107270196D01*
X96234505Y-107273796D01*
X96210001Y-107275000D01*
X95309999Y-107275000D01*
X95285495Y-107273796D01*
X95261227Y-107270196D01*
X95237428Y-107264235D01*
X95214329Y-107255970D01*
X95192150Y-107245480D01*
X95171107Y-107232868D01*
X95151401Y-107218253D01*
X95133223Y-107201777D01*
X95116747Y-107183599D01*
X95102132Y-107163893D01*
X95089520Y-107142850D01*
X95079030Y-107120671D01*
X95070765Y-107097572D01*
X95064804Y-107073773D01*
X95061204Y-107049505D01*
X95060000Y-107025001D01*
X95060000Y-106374999D01*
X95061204Y-106350495D01*
X95064804Y-106326227D01*
X95070765Y-106302428D01*
X95079030Y-106279329D01*
X95089520Y-106257150D01*
X95102132Y-106236107D01*
X95116747Y-106216401D01*
X95133223Y-106198223D01*
X95151401Y-106181747D01*
X95171107Y-106167132D01*
X95192150Y-106154520D01*
X95214329Y-106144030D01*
X95237428Y-106135765D01*
X95261227Y-106129804D01*
X95285495Y-106126204D01*
X95309999Y-106125000D01*
X96210001Y-106125000D01*
X96234505Y-106126204D01*
X96234505Y-106126204D01*
G37*
D15*
X95760000Y-106700000D03*
D14*
G36*
X98609505Y-113241204D02*
G01*
X98633773Y-113244804D01*
X98657572Y-113250765D01*
X98680671Y-113259030D01*
X98702850Y-113269520D01*
X98723893Y-113282132D01*
X98743599Y-113296747D01*
X98761777Y-113313223D01*
X98778253Y-113331401D01*
X98792868Y-113351107D01*
X98805480Y-113372150D01*
X98815970Y-113394329D01*
X98824235Y-113417428D01*
X98830196Y-113441227D01*
X98833796Y-113465495D01*
X98835000Y-113489999D01*
X98835000Y-114390001D01*
X98833796Y-114414505D01*
X98830196Y-114438773D01*
X98824235Y-114462572D01*
X98815970Y-114485671D01*
X98805480Y-114507850D01*
X98792868Y-114528893D01*
X98778253Y-114548599D01*
X98761777Y-114566777D01*
X98743599Y-114583253D01*
X98723893Y-114597868D01*
X98702850Y-114610480D01*
X98680671Y-114620970D01*
X98657572Y-114629235D01*
X98633773Y-114635196D01*
X98609505Y-114638796D01*
X98585001Y-114640000D01*
X97934999Y-114640000D01*
X97910495Y-114638796D01*
X97886227Y-114635196D01*
X97862428Y-114629235D01*
X97839329Y-114620970D01*
X97817150Y-114610480D01*
X97796107Y-114597868D01*
X97776401Y-114583253D01*
X97758223Y-114566777D01*
X97741747Y-114548599D01*
X97727132Y-114528893D01*
X97714520Y-114507850D01*
X97704030Y-114485671D01*
X97695765Y-114462572D01*
X97689804Y-114438773D01*
X97686204Y-114414505D01*
X97685000Y-114390001D01*
X97685000Y-113489999D01*
X97686204Y-113465495D01*
X97689804Y-113441227D01*
X97695765Y-113417428D01*
X97704030Y-113394329D01*
X97714520Y-113372150D01*
X97727132Y-113351107D01*
X97741747Y-113331401D01*
X97758223Y-113313223D01*
X97776401Y-113296747D01*
X97796107Y-113282132D01*
X97817150Y-113269520D01*
X97839329Y-113259030D01*
X97862428Y-113250765D01*
X97886227Y-113244804D01*
X97910495Y-113241204D01*
X97934999Y-113240000D01*
X98585001Y-113240000D01*
X98609505Y-113241204D01*
X98609505Y-113241204D01*
G37*
D15*
X98260000Y-113940000D03*
D14*
G36*
X100659505Y-113241204D02*
G01*
X100683773Y-113244804D01*
X100707572Y-113250765D01*
X100730671Y-113259030D01*
X100752850Y-113269520D01*
X100773893Y-113282132D01*
X100793599Y-113296747D01*
X100811777Y-113313223D01*
X100828253Y-113331401D01*
X100842868Y-113351107D01*
X100855480Y-113372150D01*
X100865970Y-113394329D01*
X100874235Y-113417428D01*
X100880196Y-113441227D01*
X100883796Y-113465495D01*
X100885000Y-113489999D01*
X100885000Y-114390001D01*
X100883796Y-114414505D01*
X100880196Y-114438773D01*
X100874235Y-114462572D01*
X100865970Y-114485671D01*
X100855480Y-114507850D01*
X100842868Y-114528893D01*
X100828253Y-114548599D01*
X100811777Y-114566777D01*
X100793599Y-114583253D01*
X100773893Y-114597868D01*
X100752850Y-114610480D01*
X100730671Y-114620970D01*
X100707572Y-114629235D01*
X100683773Y-114635196D01*
X100659505Y-114638796D01*
X100635001Y-114640000D01*
X99984999Y-114640000D01*
X99960495Y-114638796D01*
X99936227Y-114635196D01*
X99912428Y-114629235D01*
X99889329Y-114620970D01*
X99867150Y-114610480D01*
X99846107Y-114597868D01*
X99826401Y-114583253D01*
X99808223Y-114566777D01*
X99791747Y-114548599D01*
X99777132Y-114528893D01*
X99764520Y-114507850D01*
X99754030Y-114485671D01*
X99745765Y-114462572D01*
X99739804Y-114438773D01*
X99736204Y-114414505D01*
X99735000Y-114390001D01*
X99735000Y-113489999D01*
X99736204Y-113465495D01*
X99739804Y-113441227D01*
X99745765Y-113417428D01*
X99754030Y-113394329D01*
X99764520Y-113372150D01*
X99777132Y-113351107D01*
X99791747Y-113331401D01*
X99808223Y-113313223D01*
X99826401Y-113296747D01*
X99846107Y-113282132D01*
X99867150Y-113269520D01*
X99889329Y-113259030D01*
X99912428Y-113250765D01*
X99936227Y-113244804D01*
X99960495Y-113241204D01*
X99984999Y-113240000D01*
X100635001Y-113240000D01*
X100659505Y-113241204D01*
X100659505Y-113241204D01*
G37*
D15*
X100310000Y-113940000D03*
D14*
G36*
X84489505Y-96741204D02*
G01*
X84513773Y-96744804D01*
X84537572Y-96750765D01*
X84560671Y-96759030D01*
X84582850Y-96769520D01*
X84603893Y-96782132D01*
X84623599Y-96796747D01*
X84641777Y-96813223D01*
X84658253Y-96831401D01*
X84672868Y-96851107D01*
X84685480Y-96872150D01*
X84695970Y-96894329D01*
X84704235Y-96917428D01*
X84710196Y-96941227D01*
X84713796Y-96965495D01*
X84715000Y-96989999D01*
X84715000Y-97890001D01*
X84713796Y-97914505D01*
X84710196Y-97938773D01*
X84704235Y-97962572D01*
X84695970Y-97985671D01*
X84685480Y-98007850D01*
X84672868Y-98028893D01*
X84658253Y-98048599D01*
X84641777Y-98066777D01*
X84623599Y-98083253D01*
X84603893Y-98097868D01*
X84582850Y-98110480D01*
X84560671Y-98120970D01*
X84537572Y-98129235D01*
X84513773Y-98135196D01*
X84489505Y-98138796D01*
X84465001Y-98140000D01*
X83814999Y-98140000D01*
X83790495Y-98138796D01*
X83766227Y-98135196D01*
X83742428Y-98129235D01*
X83719329Y-98120970D01*
X83697150Y-98110480D01*
X83676107Y-98097868D01*
X83656401Y-98083253D01*
X83638223Y-98066777D01*
X83621747Y-98048599D01*
X83607132Y-98028893D01*
X83594520Y-98007850D01*
X83584030Y-97985671D01*
X83575765Y-97962572D01*
X83569804Y-97938773D01*
X83566204Y-97914505D01*
X83565000Y-97890001D01*
X83565000Y-96989999D01*
X83566204Y-96965495D01*
X83569804Y-96941227D01*
X83575765Y-96917428D01*
X83584030Y-96894329D01*
X83594520Y-96872150D01*
X83607132Y-96851107D01*
X83621747Y-96831401D01*
X83638223Y-96813223D01*
X83656401Y-96796747D01*
X83676107Y-96782132D01*
X83697150Y-96769520D01*
X83719329Y-96759030D01*
X83742428Y-96750765D01*
X83766227Y-96744804D01*
X83790495Y-96741204D01*
X83814999Y-96740000D01*
X84465001Y-96740000D01*
X84489505Y-96741204D01*
X84489505Y-96741204D01*
G37*
D15*
X84140000Y-97440000D03*
D14*
G36*
X86539505Y-96741204D02*
G01*
X86563773Y-96744804D01*
X86587572Y-96750765D01*
X86610671Y-96759030D01*
X86632850Y-96769520D01*
X86653893Y-96782132D01*
X86673599Y-96796747D01*
X86691777Y-96813223D01*
X86708253Y-96831401D01*
X86722868Y-96851107D01*
X86735480Y-96872150D01*
X86745970Y-96894329D01*
X86754235Y-96917428D01*
X86760196Y-96941227D01*
X86763796Y-96965495D01*
X86765000Y-96989999D01*
X86765000Y-97890001D01*
X86763796Y-97914505D01*
X86760196Y-97938773D01*
X86754235Y-97962572D01*
X86745970Y-97985671D01*
X86735480Y-98007850D01*
X86722868Y-98028893D01*
X86708253Y-98048599D01*
X86691777Y-98066777D01*
X86673599Y-98083253D01*
X86653893Y-98097868D01*
X86632850Y-98110480D01*
X86610671Y-98120970D01*
X86587572Y-98129235D01*
X86563773Y-98135196D01*
X86539505Y-98138796D01*
X86515001Y-98140000D01*
X85864999Y-98140000D01*
X85840495Y-98138796D01*
X85816227Y-98135196D01*
X85792428Y-98129235D01*
X85769329Y-98120970D01*
X85747150Y-98110480D01*
X85726107Y-98097868D01*
X85706401Y-98083253D01*
X85688223Y-98066777D01*
X85671747Y-98048599D01*
X85657132Y-98028893D01*
X85644520Y-98007850D01*
X85634030Y-97985671D01*
X85625765Y-97962572D01*
X85619804Y-97938773D01*
X85616204Y-97914505D01*
X85615000Y-97890001D01*
X85615000Y-96989999D01*
X85616204Y-96965495D01*
X85619804Y-96941227D01*
X85625765Y-96917428D01*
X85634030Y-96894329D01*
X85644520Y-96872150D01*
X85657132Y-96851107D01*
X85671747Y-96831401D01*
X85688223Y-96813223D01*
X85706401Y-96796747D01*
X85726107Y-96782132D01*
X85747150Y-96769520D01*
X85769329Y-96759030D01*
X85792428Y-96750765D01*
X85816227Y-96744804D01*
X85840495Y-96741204D01*
X85864999Y-96740000D01*
X86515001Y-96740000D01*
X86539505Y-96741204D01*
X86539505Y-96741204D01*
G37*
D15*
X86190000Y-97440000D03*
D14*
G36*
X102634505Y-69811204D02*
G01*
X102658773Y-69814804D01*
X102682572Y-69820765D01*
X102705671Y-69829030D01*
X102727850Y-69839520D01*
X102748893Y-69852132D01*
X102768599Y-69866747D01*
X102786777Y-69883223D01*
X102803253Y-69901401D01*
X102817868Y-69921107D01*
X102830480Y-69942150D01*
X102840970Y-69964329D01*
X102849235Y-69987428D01*
X102855196Y-70011227D01*
X102858796Y-70035495D01*
X102860000Y-70059999D01*
X102860000Y-70710001D01*
X102858796Y-70734505D01*
X102855196Y-70758773D01*
X102849235Y-70782572D01*
X102840970Y-70805671D01*
X102830480Y-70827850D01*
X102817868Y-70848893D01*
X102803253Y-70868599D01*
X102786777Y-70886777D01*
X102768599Y-70903253D01*
X102748893Y-70917868D01*
X102727850Y-70930480D01*
X102705671Y-70940970D01*
X102682572Y-70949235D01*
X102658773Y-70955196D01*
X102634505Y-70958796D01*
X102610001Y-70960000D01*
X101709999Y-70960000D01*
X101685495Y-70958796D01*
X101661227Y-70955196D01*
X101637428Y-70949235D01*
X101614329Y-70940970D01*
X101592150Y-70930480D01*
X101571107Y-70917868D01*
X101551401Y-70903253D01*
X101533223Y-70886777D01*
X101516747Y-70868599D01*
X101502132Y-70848893D01*
X101489520Y-70827850D01*
X101479030Y-70805671D01*
X101470765Y-70782572D01*
X101464804Y-70758773D01*
X101461204Y-70734505D01*
X101460000Y-70710001D01*
X101460000Y-70059999D01*
X101461204Y-70035495D01*
X101464804Y-70011227D01*
X101470765Y-69987428D01*
X101479030Y-69964329D01*
X101489520Y-69942150D01*
X101502132Y-69921107D01*
X101516747Y-69901401D01*
X101533223Y-69883223D01*
X101551401Y-69866747D01*
X101571107Y-69852132D01*
X101592150Y-69839520D01*
X101614329Y-69829030D01*
X101637428Y-69820765D01*
X101661227Y-69814804D01*
X101685495Y-69811204D01*
X101709999Y-69810000D01*
X102610001Y-69810000D01*
X102634505Y-69811204D01*
X102634505Y-69811204D01*
G37*
D15*
X102160000Y-70385000D03*
D14*
G36*
X102634505Y-67761204D02*
G01*
X102658773Y-67764804D01*
X102682572Y-67770765D01*
X102705671Y-67779030D01*
X102727850Y-67789520D01*
X102748893Y-67802132D01*
X102768599Y-67816747D01*
X102786777Y-67833223D01*
X102803253Y-67851401D01*
X102817868Y-67871107D01*
X102830480Y-67892150D01*
X102840970Y-67914329D01*
X102849235Y-67937428D01*
X102855196Y-67961227D01*
X102858796Y-67985495D01*
X102860000Y-68009999D01*
X102860000Y-68660001D01*
X102858796Y-68684505D01*
X102855196Y-68708773D01*
X102849235Y-68732572D01*
X102840970Y-68755671D01*
X102830480Y-68777850D01*
X102817868Y-68798893D01*
X102803253Y-68818599D01*
X102786777Y-68836777D01*
X102768599Y-68853253D01*
X102748893Y-68867868D01*
X102727850Y-68880480D01*
X102705671Y-68890970D01*
X102682572Y-68899235D01*
X102658773Y-68905196D01*
X102634505Y-68908796D01*
X102610001Y-68910000D01*
X101709999Y-68910000D01*
X101685495Y-68908796D01*
X101661227Y-68905196D01*
X101637428Y-68899235D01*
X101614329Y-68890970D01*
X101592150Y-68880480D01*
X101571107Y-68867868D01*
X101551401Y-68853253D01*
X101533223Y-68836777D01*
X101516747Y-68818599D01*
X101502132Y-68798893D01*
X101489520Y-68777850D01*
X101479030Y-68755671D01*
X101470765Y-68732572D01*
X101464804Y-68708773D01*
X101461204Y-68684505D01*
X101460000Y-68660001D01*
X101460000Y-68009999D01*
X101461204Y-67985495D01*
X101464804Y-67961227D01*
X101470765Y-67937428D01*
X101479030Y-67914329D01*
X101489520Y-67892150D01*
X101502132Y-67871107D01*
X101516747Y-67851401D01*
X101533223Y-67833223D01*
X101551401Y-67816747D01*
X101571107Y-67802132D01*
X101592150Y-67789520D01*
X101614329Y-67779030D01*
X101637428Y-67770765D01*
X101661227Y-67764804D01*
X101685495Y-67761204D01*
X101709999Y-67760000D01*
X102610001Y-67760000D01*
X102634505Y-67761204D01*
X102634505Y-67761204D01*
G37*
D15*
X102160000Y-68335000D03*
D14*
G36*
X100094505Y-69811204D02*
G01*
X100118773Y-69814804D01*
X100142572Y-69820765D01*
X100165671Y-69829030D01*
X100187850Y-69839520D01*
X100208893Y-69852132D01*
X100228599Y-69866747D01*
X100246777Y-69883223D01*
X100263253Y-69901401D01*
X100277868Y-69921107D01*
X100290480Y-69942150D01*
X100300970Y-69964329D01*
X100309235Y-69987428D01*
X100315196Y-70011227D01*
X100318796Y-70035495D01*
X100320000Y-70059999D01*
X100320000Y-70710001D01*
X100318796Y-70734505D01*
X100315196Y-70758773D01*
X100309235Y-70782572D01*
X100300970Y-70805671D01*
X100290480Y-70827850D01*
X100277868Y-70848893D01*
X100263253Y-70868599D01*
X100246777Y-70886777D01*
X100228599Y-70903253D01*
X100208893Y-70917868D01*
X100187850Y-70930480D01*
X100165671Y-70940970D01*
X100142572Y-70949235D01*
X100118773Y-70955196D01*
X100094505Y-70958796D01*
X100070001Y-70960000D01*
X99169999Y-70960000D01*
X99145495Y-70958796D01*
X99121227Y-70955196D01*
X99097428Y-70949235D01*
X99074329Y-70940970D01*
X99052150Y-70930480D01*
X99031107Y-70917868D01*
X99011401Y-70903253D01*
X98993223Y-70886777D01*
X98976747Y-70868599D01*
X98962132Y-70848893D01*
X98949520Y-70827850D01*
X98939030Y-70805671D01*
X98930765Y-70782572D01*
X98924804Y-70758773D01*
X98921204Y-70734505D01*
X98920000Y-70710001D01*
X98920000Y-70059999D01*
X98921204Y-70035495D01*
X98924804Y-70011227D01*
X98930765Y-69987428D01*
X98939030Y-69964329D01*
X98949520Y-69942150D01*
X98962132Y-69921107D01*
X98976747Y-69901401D01*
X98993223Y-69883223D01*
X99011401Y-69866747D01*
X99031107Y-69852132D01*
X99052150Y-69839520D01*
X99074329Y-69829030D01*
X99097428Y-69820765D01*
X99121227Y-69814804D01*
X99145495Y-69811204D01*
X99169999Y-69810000D01*
X100070001Y-69810000D01*
X100094505Y-69811204D01*
X100094505Y-69811204D01*
G37*
D15*
X99620000Y-70385000D03*
D14*
G36*
X100094505Y-67761204D02*
G01*
X100118773Y-67764804D01*
X100142572Y-67770765D01*
X100165671Y-67779030D01*
X100187850Y-67789520D01*
X100208893Y-67802132D01*
X100228599Y-67816747D01*
X100246777Y-67833223D01*
X100263253Y-67851401D01*
X100277868Y-67871107D01*
X100290480Y-67892150D01*
X100300970Y-67914329D01*
X100309235Y-67937428D01*
X100315196Y-67961227D01*
X100318796Y-67985495D01*
X100320000Y-68009999D01*
X100320000Y-68660001D01*
X100318796Y-68684505D01*
X100315196Y-68708773D01*
X100309235Y-68732572D01*
X100300970Y-68755671D01*
X100290480Y-68777850D01*
X100277868Y-68798893D01*
X100263253Y-68818599D01*
X100246777Y-68836777D01*
X100228599Y-68853253D01*
X100208893Y-68867868D01*
X100187850Y-68880480D01*
X100165671Y-68890970D01*
X100142572Y-68899235D01*
X100118773Y-68905196D01*
X100094505Y-68908796D01*
X100070001Y-68910000D01*
X99169999Y-68910000D01*
X99145495Y-68908796D01*
X99121227Y-68905196D01*
X99097428Y-68899235D01*
X99074329Y-68890970D01*
X99052150Y-68880480D01*
X99031107Y-68867868D01*
X99011401Y-68853253D01*
X98993223Y-68836777D01*
X98976747Y-68818599D01*
X98962132Y-68798893D01*
X98949520Y-68777850D01*
X98939030Y-68755671D01*
X98930765Y-68732572D01*
X98924804Y-68708773D01*
X98921204Y-68684505D01*
X98920000Y-68660001D01*
X98920000Y-68009999D01*
X98921204Y-67985495D01*
X98924804Y-67961227D01*
X98930765Y-67937428D01*
X98939030Y-67914329D01*
X98949520Y-67892150D01*
X98962132Y-67871107D01*
X98976747Y-67851401D01*
X98993223Y-67833223D01*
X99011401Y-67816747D01*
X99031107Y-67802132D01*
X99052150Y-67789520D01*
X99074329Y-67779030D01*
X99097428Y-67770765D01*
X99121227Y-67764804D01*
X99145495Y-67761204D01*
X99169999Y-67760000D01*
X100070001Y-67760000D01*
X100094505Y-67761204D01*
X100094505Y-67761204D01*
G37*
D15*
X99620000Y-68335000D03*
D14*
G36*
X97974505Y-80811204D02*
G01*
X97998773Y-80814804D01*
X98022572Y-80820765D01*
X98045671Y-80829030D01*
X98067850Y-80839520D01*
X98088893Y-80852132D01*
X98108599Y-80866747D01*
X98126777Y-80883223D01*
X98143253Y-80901401D01*
X98157868Y-80921107D01*
X98170480Y-80942150D01*
X98180970Y-80964329D01*
X98189235Y-80987428D01*
X98195196Y-81011227D01*
X98198796Y-81035495D01*
X98200000Y-81059999D01*
X98200000Y-81710001D01*
X98198796Y-81734505D01*
X98195196Y-81758773D01*
X98189235Y-81782572D01*
X98180970Y-81805671D01*
X98170480Y-81827850D01*
X98157868Y-81848893D01*
X98143253Y-81868599D01*
X98126777Y-81886777D01*
X98108599Y-81903253D01*
X98088893Y-81917868D01*
X98067850Y-81930480D01*
X98045671Y-81940970D01*
X98022572Y-81949235D01*
X97998773Y-81955196D01*
X97974505Y-81958796D01*
X97950001Y-81960000D01*
X97049999Y-81960000D01*
X97025495Y-81958796D01*
X97001227Y-81955196D01*
X96977428Y-81949235D01*
X96954329Y-81940970D01*
X96932150Y-81930480D01*
X96911107Y-81917868D01*
X96891401Y-81903253D01*
X96873223Y-81886777D01*
X96856747Y-81868599D01*
X96842132Y-81848893D01*
X96829520Y-81827850D01*
X96819030Y-81805671D01*
X96810765Y-81782572D01*
X96804804Y-81758773D01*
X96801204Y-81734505D01*
X96800000Y-81710001D01*
X96800000Y-81059999D01*
X96801204Y-81035495D01*
X96804804Y-81011227D01*
X96810765Y-80987428D01*
X96819030Y-80964329D01*
X96829520Y-80942150D01*
X96842132Y-80921107D01*
X96856747Y-80901401D01*
X96873223Y-80883223D01*
X96891401Y-80866747D01*
X96911107Y-80852132D01*
X96932150Y-80839520D01*
X96954329Y-80829030D01*
X96977428Y-80820765D01*
X97001227Y-80814804D01*
X97025495Y-80811204D01*
X97049999Y-80810000D01*
X97950001Y-80810000D01*
X97974505Y-80811204D01*
X97974505Y-80811204D01*
G37*
D15*
X97500000Y-81385000D03*
D14*
G36*
X97974505Y-78761204D02*
G01*
X97998773Y-78764804D01*
X98022572Y-78770765D01*
X98045671Y-78779030D01*
X98067850Y-78789520D01*
X98088893Y-78802132D01*
X98108599Y-78816747D01*
X98126777Y-78833223D01*
X98143253Y-78851401D01*
X98157868Y-78871107D01*
X98170480Y-78892150D01*
X98180970Y-78914329D01*
X98189235Y-78937428D01*
X98195196Y-78961227D01*
X98198796Y-78985495D01*
X98200000Y-79009999D01*
X98200000Y-79660001D01*
X98198796Y-79684505D01*
X98195196Y-79708773D01*
X98189235Y-79732572D01*
X98180970Y-79755671D01*
X98170480Y-79777850D01*
X98157868Y-79798893D01*
X98143253Y-79818599D01*
X98126777Y-79836777D01*
X98108599Y-79853253D01*
X98088893Y-79867868D01*
X98067850Y-79880480D01*
X98045671Y-79890970D01*
X98022572Y-79899235D01*
X97998773Y-79905196D01*
X97974505Y-79908796D01*
X97950001Y-79910000D01*
X97049999Y-79910000D01*
X97025495Y-79908796D01*
X97001227Y-79905196D01*
X96977428Y-79899235D01*
X96954329Y-79890970D01*
X96932150Y-79880480D01*
X96911107Y-79867868D01*
X96891401Y-79853253D01*
X96873223Y-79836777D01*
X96856747Y-79818599D01*
X96842132Y-79798893D01*
X96829520Y-79777850D01*
X96819030Y-79755671D01*
X96810765Y-79732572D01*
X96804804Y-79708773D01*
X96801204Y-79684505D01*
X96800000Y-79660001D01*
X96800000Y-79009999D01*
X96801204Y-78985495D01*
X96804804Y-78961227D01*
X96810765Y-78937428D01*
X96819030Y-78914329D01*
X96829520Y-78892150D01*
X96842132Y-78871107D01*
X96856747Y-78851401D01*
X96873223Y-78833223D01*
X96891401Y-78816747D01*
X96911107Y-78802132D01*
X96932150Y-78789520D01*
X96954329Y-78779030D01*
X96977428Y-78770765D01*
X97001227Y-78764804D01*
X97025495Y-78761204D01*
X97049999Y-78760000D01*
X97950001Y-78760000D01*
X97974505Y-78761204D01*
X97974505Y-78761204D01*
G37*
D15*
X97500000Y-79335000D03*
D14*
G36*
X101839504Y-110726204D02*
G01*
X101863773Y-110729804D01*
X101887571Y-110735765D01*
X101910671Y-110744030D01*
X101932849Y-110754520D01*
X101953893Y-110767133D01*
X101973598Y-110781747D01*
X101991777Y-110798223D01*
X102008253Y-110816402D01*
X102022867Y-110836107D01*
X102035480Y-110857151D01*
X102045970Y-110879329D01*
X102054235Y-110902429D01*
X102060196Y-110926227D01*
X102063796Y-110950496D01*
X102065000Y-110975000D01*
X102065000Y-112225000D01*
X102063796Y-112249504D01*
X102060196Y-112273773D01*
X102054235Y-112297571D01*
X102045970Y-112320671D01*
X102035480Y-112342849D01*
X102022867Y-112363893D01*
X102008253Y-112383598D01*
X101991777Y-112401777D01*
X101973598Y-112418253D01*
X101953893Y-112432867D01*
X101932849Y-112445480D01*
X101910671Y-112455970D01*
X101887571Y-112464235D01*
X101863773Y-112470196D01*
X101839504Y-112473796D01*
X101815000Y-112475000D01*
X100890000Y-112475000D01*
X100865496Y-112473796D01*
X100841227Y-112470196D01*
X100817429Y-112464235D01*
X100794329Y-112455970D01*
X100772151Y-112445480D01*
X100751107Y-112432867D01*
X100731402Y-112418253D01*
X100713223Y-112401777D01*
X100696747Y-112383598D01*
X100682133Y-112363893D01*
X100669520Y-112342849D01*
X100659030Y-112320671D01*
X100650765Y-112297571D01*
X100644804Y-112273773D01*
X100641204Y-112249504D01*
X100640000Y-112225000D01*
X100640000Y-110975000D01*
X100641204Y-110950496D01*
X100644804Y-110926227D01*
X100650765Y-110902429D01*
X100659030Y-110879329D01*
X100669520Y-110857151D01*
X100682133Y-110836107D01*
X100696747Y-110816402D01*
X100713223Y-110798223D01*
X100731402Y-110781747D01*
X100751107Y-110767133D01*
X100772151Y-110754520D01*
X100794329Y-110744030D01*
X100817429Y-110735765D01*
X100841227Y-110729804D01*
X100865496Y-110726204D01*
X100890000Y-110725000D01*
X101815000Y-110725000D01*
X101839504Y-110726204D01*
X101839504Y-110726204D01*
G37*
D16*
X101352500Y-111600000D03*
D14*
G36*
X104814504Y-110726204D02*
G01*
X104838773Y-110729804D01*
X104862571Y-110735765D01*
X104885671Y-110744030D01*
X104907849Y-110754520D01*
X104928893Y-110767133D01*
X104948598Y-110781747D01*
X104966777Y-110798223D01*
X104983253Y-110816402D01*
X104997867Y-110836107D01*
X105010480Y-110857151D01*
X105020970Y-110879329D01*
X105029235Y-110902429D01*
X105035196Y-110926227D01*
X105038796Y-110950496D01*
X105040000Y-110975000D01*
X105040000Y-112225000D01*
X105038796Y-112249504D01*
X105035196Y-112273773D01*
X105029235Y-112297571D01*
X105020970Y-112320671D01*
X105010480Y-112342849D01*
X104997867Y-112363893D01*
X104983253Y-112383598D01*
X104966777Y-112401777D01*
X104948598Y-112418253D01*
X104928893Y-112432867D01*
X104907849Y-112445480D01*
X104885671Y-112455970D01*
X104862571Y-112464235D01*
X104838773Y-112470196D01*
X104814504Y-112473796D01*
X104790000Y-112475000D01*
X103865000Y-112475000D01*
X103840496Y-112473796D01*
X103816227Y-112470196D01*
X103792429Y-112464235D01*
X103769329Y-112455970D01*
X103747151Y-112445480D01*
X103726107Y-112432867D01*
X103706402Y-112418253D01*
X103688223Y-112401777D01*
X103671747Y-112383598D01*
X103657133Y-112363893D01*
X103644520Y-112342849D01*
X103634030Y-112320671D01*
X103625765Y-112297571D01*
X103619804Y-112273773D01*
X103616204Y-112249504D01*
X103615000Y-112225000D01*
X103615000Y-110975000D01*
X103616204Y-110950496D01*
X103619804Y-110926227D01*
X103625765Y-110902429D01*
X103634030Y-110879329D01*
X103644520Y-110857151D01*
X103657133Y-110836107D01*
X103671747Y-110816402D01*
X103688223Y-110798223D01*
X103706402Y-110781747D01*
X103726107Y-110767133D01*
X103747151Y-110754520D01*
X103769329Y-110744030D01*
X103792429Y-110735765D01*
X103816227Y-110729804D01*
X103840496Y-110726204D01*
X103865000Y-110725000D01*
X104790000Y-110725000D01*
X104814504Y-110726204D01*
X104814504Y-110726204D01*
G37*
D16*
X104327500Y-111600000D03*
D14*
G36*
X99714504Y-110726204D02*
G01*
X99738773Y-110729804D01*
X99762571Y-110735765D01*
X99785671Y-110744030D01*
X99807849Y-110754520D01*
X99828893Y-110767133D01*
X99848598Y-110781747D01*
X99866777Y-110798223D01*
X99883253Y-110816402D01*
X99897867Y-110836107D01*
X99910480Y-110857151D01*
X99920970Y-110879329D01*
X99929235Y-110902429D01*
X99935196Y-110926227D01*
X99938796Y-110950496D01*
X99940000Y-110975000D01*
X99940000Y-112225000D01*
X99938796Y-112249504D01*
X99935196Y-112273773D01*
X99929235Y-112297571D01*
X99920970Y-112320671D01*
X99910480Y-112342849D01*
X99897867Y-112363893D01*
X99883253Y-112383598D01*
X99866777Y-112401777D01*
X99848598Y-112418253D01*
X99828893Y-112432867D01*
X99807849Y-112445480D01*
X99785671Y-112455970D01*
X99762571Y-112464235D01*
X99738773Y-112470196D01*
X99714504Y-112473796D01*
X99690000Y-112475000D01*
X98765000Y-112475000D01*
X98740496Y-112473796D01*
X98716227Y-112470196D01*
X98692429Y-112464235D01*
X98669329Y-112455970D01*
X98647151Y-112445480D01*
X98626107Y-112432867D01*
X98606402Y-112418253D01*
X98588223Y-112401777D01*
X98571747Y-112383598D01*
X98557133Y-112363893D01*
X98544520Y-112342849D01*
X98534030Y-112320671D01*
X98525765Y-112297571D01*
X98519804Y-112273773D01*
X98516204Y-112249504D01*
X98515000Y-112225000D01*
X98515000Y-110975000D01*
X98516204Y-110950496D01*
X98519804Y-110926227D01*
X98525765Y-110902429D01*
X98534030Y-110879329D01*
X98544520Y-110857151D01*
X98557133Y-110836107D01*
X98571747Y-110816402D01*
X98588223Y-110798223D01*
X98606402Y-110781747D01*
X98626107Y-110767133D01*
X98647151Y-110754520D01*
X98669329Y-110744030D01*
X98692429Y-110735765D01*
X98716227Y-110729804D01*
X98740496Y-110726204D01*
X98765000Y-110725000D01*
X99690000Y-110725000D01*
X99714504Y-110726204D01*
X99714504Y-110726204D01*
G37*
D16*
X99227500Y-111600000D03*
D14*
G36*
X96739504Y-110726204D02*
G01*
X96763773Y-110729804D01*
X96787571Y-110735765D01*
X96810671Y-110744030D01*
X96832849Y-110754520D01*
X96853893Y-110767133D01*
X96873598Y-110781747D01*
X96891777Y-110798223D01*
X96908253Y-110816402D01*
X96922867Y-110836107D01*
X96935480Y-110857151D01*
X96945970Y-110879329D01*
X96954235Y-110902429D01*
X96960196Y-110926227D01*
X96963796Y-110950496D01*
X96965000Y-110975000D01*
X96965000Y-112225000D01*
X96963796Y-112249504D01*
X96960196Y-112273773D01*
X96954235Y-112297571D01*
X96945970Y-112320671D01*
X96935480Y-112342849D01*
X96922867Y-112363893D01*
X96908253Y-112383598D01*
X96891777Y-112401777D01*
X96873598Y-112418253D01*
X96853893Y-112432867D01*
X96832849Y-112445480D01*
X96810671Y-112455970D01*
X96787571Y-112464235D01*
X96763773Y-112470196D01*
X96739504Y-112473796D01*
X96715000Y-112475000D01*
X95790000Y-112475000D01*
X95765496Y-112473796D01*
X95741227Y-112470196D01*
X95717429Y-112464235D01*
X95694329Y-112455970D01*
X95672151Y-112445480D01*
X95651107Y-112432867D01*
X95631402Y-112418253D01*
X95613223Y-112401777D01*
X95596747Y-112383598D01*
X95582133Y-112363893D01*
X95569520Y-112342849D01*
X95559030Y-112320671D01*
X95550765Y-112297571D01*
X95544804Y-112273773D01*
X95541204Y-112249504D01*
X95540000Y-112225000D01*
X95540000Y-110975000D01*
X95541204Y-110950496D01*
X95544804Y-110926227D01*
X95550765Y-110902429D01*
X95559030Y-110879329D01*
X95569520Y-110857151D01*
X95582133Y-110836107D01*
X95596747Y-110816402D01*
X95613223Y-110798223D01*
X95631402Y-110781747D01*
X95651107Y-110767133D01*
X95672151Y-110754520D01*
X95694329Y-110744030D01*
X95717429Y-110735765D01*
X95741227Y-110729804D01*
X95765496Y-110726204D01*
X95790000Y-110725000D01*
X96715000Y-110725000D01*
X96739504Y-110726204D01*
X96739504Y-110726204D01*
G37*
D16*
X96252500Y-111600000D03*
D14*
G36*
X100987004Y-100446204D02*
G01*
X101011273Y-100449804D01*
X101035071Y-100455765D01*
X101058171Y-100464030D01*
X101080349Y-100474520D01*
X101101393Y-100487133D01*
X101121098Y-100501747D01*
X101139277Y-100518223D01*
X101155753Y-100536402D01*
X101170367Y-100556107D01*
X101182980Y-100577151D01*
X101193470Y-100599329D01*
X101201735Y-100622429D01*
X101207696Y-100646227D01*
X101211296Y-100670496D01*
X101212500Y-100695000D01*
X101212500Y-101945000D01*
X101211296Y-101969504D01*
X101207696Y-101993773D01*
X101201735Y-102017571D01*
X101193470Y-102040671D01*
X101182980Y-102062849D01*
X101170367Y-102083893D01*
X101155753Y-102103598D01*
X101139277Y-102121777D01*
X101121098Y-102138253D01*
X101101393Y-102152867D01*
X101080349Y-102165480D01*
X101058171Y-102175970D01*
X101035071Y-102184235D01*
X101011273Y-102190196D01*
X100987004Y-102193796D01*
X100962500Y-102195000D01*
X100037500Y-102195000D01*
X100012996Y-102193796D01*
X99988727Y-102190196D01*
X99964929Y-102184235D01*
X99941829Y-102175970D01*
X99919651Y-102165480D01*
X99898607Y-102152867D01*
X99878902Y-102138253D01*
X99860723Y-102121777D01*
X99844247Y-102103598D01*
X99829633Y-102083893D01*
X99817020Y-102062849D01*
X99806530Y-102040671D01*
X99798265Y-102017571D01*
X99792304Y-101993773D01*
X99788704Y-101969504D01*
X99787500Y-101945000D01*
X99787500Y-100695000D01*
X99788704Y-100670496D01*
X99792304Y-100646227D01*
X99798265Y-100622429D01*
X99806530Y-100599329D01*
X99817020Y-100577151D01*
X99829633Y-100556107D01*
X99844247Y-100536402D01*
X99860723Y-100518223D01*
X99878902Y-100501747D01*
X99898607Y-100487133D01*
X99919651Y-100474520D01*
X99941829Y-100464030D01*
X99964929Y-100455765D01*
X99988727Y-100449804D01*
X100012996Y-100446204D01*
X100037500Y-100445000D01*
X100962500Y-100445000D01*
X100987004Y-100446204D01*
X100987004Y-100446204D01*
G37*
D16*
X100500000Y-101320000D03*
D14*
G36*
X98012004Y-100446204D02*
G01*
X98036273Y-100449804D01*
X98060071Y-100455765D01*
X98083171Y-100464030D01*
X98105349Y-100474520D01*
X98126393Y-100487133D01*
X98146098Y-100501747D01*
X98164277Y-100518223D01*
X98180753Y-100536402D01*
X98195367Y-100556107D01*
X98207980Y-100577151D01*
X98218470Y-100599329D01*
X98226735Y-100622429D01*
X98232696Y-100646227D01*
X98236296Y-100670496D01*
X98237500Y-100695000D01*
X98237500Y-101945000D01*
X98236296Y-101969504D01*
X98232696Y-101993773D01*
X98226735Y-102017571D01*
X98218470Y-102040671D01*
X98207980Y-102062849D01*
X98195367Y-102083893D01*
X98180753Y-102103598D01*
X98164277Y-102121777D01*
X98146098Y-102138253D01*
X98126393Y-102152867D01*
X98105349Y-102165480D01*
X98083171Y-102175970D01*
X98060071Y-102184235D01*
X98036273Y-102190196D01*
X98012004Y-102193796D01*
X97987500Y-102195000D01*
X97062500Y-102195000D01*
X97037996Y-102193796D01*
X97013727Y-102190196D01*
X96989929Y-102184235D01*
X96966829Y-102175970D01*
X96944651Y-102165480D01*
X96923607Y-102152867D01*
X96903902Y-102138253D01*
X96885723Y-102121777D01*
X96869247Y-102103598D01*
X96854633Y-102083893D01*
X96842020Y-102062849D01*
X96831530Y-102040671D01*
X96823265Y-102017571D01*
X96817304Y-101993773D01*
X96813704Y-101969504D01*
X96812500Y-101945000D01*
X96812500Y-100695000D01*
X96813704Y-100670496D01*
X96817304Y-100646227D01*
X96823265Y-100622429D01*
X96831530Y-100599329D01*
X96842020Y-100577151D01*
X96854633Y-100556107D01*
X96869247Y-100536402D01*
X96885723Y-100518223D01*
X96903902Y-100501747D01*
X96923607Y-100487133D01*
X96944651Y-100474520D01*
X96966829Y-100464030D01*
X96989929Y-100455765D01*
X97013727Y-100449804D01*
X97037996Y-100446204D01*
X97062500Y-100445000D01*
X97987500Y-100445000D01*
X98012004Y-100446204D01*
X98012004Y-100446204D01*
G37*
D16*
X97525000Y-101320000D03*
D14*
G36*
X80464505Y-96721204D02*
G01*
X80488773Y-96724804D01*
X80512572Y-96730765D01*
X80535671Y-96739030D01*
X80557850Y-96749520D01*
X80578893Y-96762132D01*
X80598599Y-96776747D01*
X80616777Y-96793223D01*
X80633253Y-96811401D01*
X80647868Y-96831107D01*
X80660480Y-96852150D01*
X80670970Y-96874329D01*
X80679235Y-96897428D01*
X80685196Y-96921227D01*
X80688796Y-96945495D01*
X80690000Y-96969999D01*
X80690000Y-97870001D01*
X80688796Y-97894505D01*
X80685196Y-97918773D01*
X80679235Y-97942572D01*
X80670970Y-97965671D01*
X80660480Y-97987850D01*
X80647868Y-98008893D01*
X80633253Y-98028599D01*
X80616777Y-98046777D01*
X80598599Y-98063253D01*
X80578893Y-98077868D01*
X80557850Y-98090480D01*
X80535671Y-98100970D01*
X80512572Y-98109235D01*
X80488773Y-98115196D01*
X80464505Y-98118796D01*
X80440001Y-98120000D01*
X79789999Y-98120000D01*
X79765495Y-98118796D01*
X79741227Y-98115196D01*
X79717428Y-98109235D01*
X79694329Y-98100970D01*
X79672150Y-98090480D01*
X79651107Y-98077868D01*
X79631401Y-98063253D01*
X79613223Y-98046777D01*
X79596747Y-98028599D01*
X79582132Y-98008893D01*
X79569520Y-97987850D01*
X79559030Y-97965671D01*
X79550765Y-97942572D01*
X79544804Y-97918773D01*
X79541204Y-97894505D01*
X79540000Y-97870001D01*
X79540000Y-96969999D01*
X79541204Y-96945495D01*
X79544804Y-96921227D01*
X79550765Y-96897428D01*
X79559030Y-96874329D01*
X79569520Y-96852150D01*
X79582132Y-96831107D01*
X79596747Y-96811401D01*
X79613223Y-96793223D01*
X79631401Y-96776747D01*
X79651107Y-96762132D01*
X79672150Y-96749520D01*
X79694329Y-96739030D01*
X79717428Y-96730765D01*
X79741227Y-96724804D01*
X79765495Y-96721204D01*
X79789999Y-96720000D01*
X80440001Y-96720000D01*
X80464505Y-96721204D01*
X80464505Y-96721204D01*
G37*
D15*
X80115000Y-97420000D03*
D14*
G36*
X82514505Y-96721204D02*
G01*
X82538773Y-96724804D01*
X82562572Y-96730765D01*
X82585671Y-96739030D01*
X82607850Y-96749520D01*
X82628893Y-96762132D01*
X82648599Y-96776747D01*
X82666777Y-96793223D01*
X82683253Y-96811401D01*
X82697868Y-96831107D01*
X82710480Y-96852150D01*
X82720970Y-96874329D01*
X82729235Y-96897428D01*
X82735196Y-96921227D01*
X82738796Y-96945495D01*
X82740000Y-96969999D01*
X82740000Y-97870001D01*
X82738796Y-97894505D01*
X82735196Y-97918773D01*
X82729235Y-97942572D01*
X82720970Y-97965671D01*
X82710480Y-97987850D01*
X82697868Y-98008893D01*
X82683253Y-98028599D01*
X82666777Y-98046777D01*
X82648599Y-98063253D01*
X82628893Y-98077868D01*
X82607850Y-98090480D01*
X82585671Y-98100970D01*
X82562572Y-98109235D01*
X82538773Y-98115196D01*
X82514505Y-98118796D01*
X82490001Y-98120000D01*
X81839999Y-98120000D01*
X81815495Y-98118796D01*
X81791227Y-98115196D01*
X81767428Y-98109235D01*
X81744329Y-98100970D01*
X81722150Y-98090480D01*
X81701107Y-98077868D01*
X81681401Y-98063253D01*
X81663223Y-98046777D01*
X81646747Y-98028599D01*
X81632132Y-98008893D01*
X81619520Y-97987850D01*
X81609030Y-97965671D01*
X81600765Y-97942572D01*
X81594804Y-97918773D01*
X81591204Y-97894505D01*
X81590000Y-97870001D01*
X81590000Y-96969999D01*
X81591204Y-96945495D01*
X81594804Y-96921227D01*
X81600765Y-96897428D01*
X81609030Y-96874329D01*
X81619520Y-96852150D01*
X81632132Y-96831107D01*
X81646747Y-96811401D01*
X81663223Y-96793223D01*
X81681401Y-96776747D01*
X81701107Y-96762132D01*
X81722150Y-96749520D01*
X81744329Y-96739030D01*
X81767428Y-96730765D01*
X81791227Y-96724804D01*
X81815495Y-96721204D01*
X81839999Y-96720000D01*
X82490001Y-96720000D01*
X82514505Y-96721204D01*
X82514505Y-96721204D01*
G37*
D15*
X82165000Y-97420000D03*
D14*
G36*
X83708703Y-99713222D02*
G01*
X83723264Y-99715382D01*
X83737543Y-99718959D01*
X83751403Y-99723918D01*
X83764710Y-99730212D01*
X83777336Y-99737780D01*
X83789159Y-99746548D01*
X83800066Y-99756434D01*
X83809952Y-99767341D01*
X83818720Y-99779164D01*
X83826288Y-99791790D01*
X83832582Y-99805097D01*
X83837541Y-99818957D01*
X83841118Y-99833236D01*
X83843278Y-99847797D01*
X83844000Y-99862500D01*
X83844000Y-100162500D01*
X83843278Y-100177203D01*
X83841118Y-100191764D01*
X83837541Y-100206043D01*
X83832582Y-100219903D01*
X83826288Y-100233210D01*
X83818720Y-100245836D01*
X83809952Y-100257659D01*
X83800066Y-100268566D01*
X83789159Y-100278452D01*
X83777336Y-100287220D01*
X83764710Y-100294788D01*
X83751403Y-100301082D01*
X83737543Y-100306041D01*
X83723264Y-100309618D01*
X83708703Y-100311778D01*
X83694000Y-100312500D01*
X82044000Y-100312500D01*
X82029297Y-100311778D01*
X82014736Y-100309618D01*
X82000457Y-100306041D01*
X81986597Y-100301082D01*
X81973290Y-100294788D01*
X81960664Y-100287220D01*
X81948841Y-100278452D01*
X81937934Y-100268566D01*
X81928048Y-100257659D01*
X81919280Y-100245836D01*
X81911712Y-100233210D01*
X81905418Y-100219903D01*
X81900459Y-100206043D01*
X81896882Y-100191764D01*
X81894722Y-100177203D01*
X81894000Y-100162500D01*
X81894000Y-99862500D01*
X81894722Y-99847797D01*
X81896882Y-99833236D01*
X81900459Y-99818957D01*
X81905418Y-99805097D01*
X81911712Y-99791790D01*
X81919280Y-99779164D01*
X81928048Y-99767341D01*
X81937934Y-99756434D01*
X81948841Y-99746548D01*
X81960664Y-99737780D01*
X81973290Y-99730212D01*
X81986597Y-99723918D01*
X82000457Y-99718959D01*
X82014736Y-99715382D01*
X82029297Y-99713222D01*
X82044000Y-99712500D01*
X83694000Y-99712500D01*
X83708703Y-99713222D01*
X83708703Y-99713222D01*
G37*
D17*
X82869000Y-100012500D03*
D14*
G36*
X83708703Y-100983222D02*
G01*
X83723264Y-100985382D01*
X83737543Y-100988959D01*
X83751403Y-100993918D01*
X83764710Y-101000212D01*
X83777336Y-101007780D01*
X83789159Y-101016548D01*
X83800066Y-101026434D01*
X83809952Y-101037341D01*
X83818720Y-101049164D01*
X83826288Y-101061790D01*
X83832582Y-101075097D01*
X83837541Y-101088957D01*
X83841118Y-101103236D01*
X83843278Y-101117797D01*
X83844000Y-101132500D01*
X83844000Y-101432500D01*
X83843278Y-101447203D01*
X83841118Y-101461764D01*
X83837541Y-101476043D01*
X83832582Y-101489903D01*
X83826288Y-101503210D01*
X83818720Y-101515836D01*
X83809952Y-101527659D01*
X83800066Y-101538566D01*
X83789159Y-101548452D01*
X83777336Y-101557220D01*
X83764710Y-101564788D01*
X83751403Y-101571082D01*
X83737543Y-101576041D01*
X83723264Y-101579618D01*
X83708703Y-101581778D01*
X83694000Y-101582500D01*
X82044000Y-101582500D01*
X82029297Y-101581778D01*
X82014736Y-101579618D01*
X82000457Y-101576041D01*
X81986597Y-101571082D01*
X81973290Y-101564788D01*
X81960664Y-101557220D01*
X81948841Y-101548452D01*
X81937934Y-101538566D01*
X81928048Y-101527659D01*
X81919280Y-101515836D01*
X81911712Y-101503210D01*
X81905418Y-101489903D01*
X81900459Y-101476043D01*
X81896882Y-101461764D01*
X81894722Y-101447203D01*
X81894000Y-101432500D01*
X81894000Y-101132500D01*
X81894722Y-101117797D01*
X81896882Y-101103236D01*
X81900459Y-101088957D01*
X81905418Y-101075097D01*
X81911712Y-101061790D01*
X81919280Y-101049164D01*
X81928048Y-101037341D01*
X81937934Y-101026434D01*
X81948841Y-101016548D01*
X81960664Y-101007780D01*
X81973290Y-101000212D01*
X81986597Y-100993918D01*
X82000457Y-100988959D01*
X82014736Y-100985382D01*
X82029297Y-100983222D01*
X82044000Y-100982500D01*
X83694000Y-100982500D01*
X83708703Y-100983222D01*
X83708703Y-100983222D01*
G37*
D17*
X82869000Y-101282500D03*
D14*
G36*
X83708703Y-102253222D02*
G01*
X83723264Y-102255382D01*
X83737543Y-102258959D01*
X83751403Y-102263918D01*
X83764710Y-102270212D01*
X83777336Y-102277780D01*
X83789159Y-102286548D01*
X83800066Y-102296434D01*
X83809952Y-102307341D01*
X83818720Y-102319164D01*
X83826288Y-102331790D01*
X83832582Y-102345097D01*
X83837541Y-102358957D01*
X83841118Y-102373236D01*
X83843278Y-102387797D01*
X83844000Y-102402500D01*
X83844000Y-102702500D01*
X83843278Y-102717203D01*
X83841118Y-102731764D01*
X83837541Y-102746043D01*
X83832582Y-102759903D01*
X83826288Y-102773210D01*
X83818720Y-102785836D01*
X83809952Y-102797659D01*
X83800066Y-102808566D01*
X83789159Y-102818452D01*
X83777336Y-102827220D01*
X83764710Y-102834788D01*
X83751403Y-102841082D01*
X83737543Y-102846041D01*
X83723264Y-102849618D01*
X83708703Y-102851778D01*
X83694000Y-102852500D01*
X82044000Y-102852500D01*
X82029297Y-102851778D01*
X82014736Y-102849618D01*
X82000457Y-102846041D01*
X81986597Y-102841082D01*
X81973290Y-102834788D01*
X81960664Y-102827220D01*
X81948841Y-102818452D01*
X81937934Y-102808566D01*
X81928048Y-102797659D01*
X81919280Y-102785836D01*
X81911712Y-102773210D01*
X81905418Y-102759903D01*
X81900459Y-102746043D01*
X81896882Y-102731764D01*
X81894722Y-102717203D01*
X81894000Y-102702500D01*
X81894000Y-102402500D01*
X81894722Y-102387797D01*
X81896882Y-102373236D01*
X81900459Y-102358957D01*
X81905418Y-102345097D01*
X81911712Y-102331790D01*
X81919280Y-102319164D01*
X81928048Y-102307341D01*
X81937934Y-102296434D01*
X81948841Y-102286548D01*
X81960664Y-102277780D01*
X81973290Y-102270212D01*
X81986597Y-102263918D01*
X82000457Y-102258959D01*
X82014736Y-102255382D01*
X82029297Y-102253222D01*
X82044000Y-102252500D01*
X83694000Y-102252500D01*
X83708703Y-102253222D01*
X83708703Y-102253222D01*
G37*
D17*
X82869000Y-102552500D03*
D14*
G36*
X83708703Y-103523222D02*
G01*
X83723264Y-103525382D01*
X83737543Y-103528959D01*
X83751403Y-103533918D01*
X83764710Y-103540212D01*
X83777336Y-103547780D01*
X83789159Y-103556548D01*
X83800066Y-103566434D01*
X83809952Y-103577341D01*
X83818720Y-103589164D01*
X83826288Y-103601790D01*
X83832582Y-103615097D01*
X83837541Y-103628957D01*
X83841118Y-103643236D01*
X83843278Y-103657797D01*
X83844000Y-103672500D01*
X83844000Y-103972500D01*
X83843278Y-103987203D01*
X83841118Y-104001764D01*
X83837541Y-104016043D01*
X83832582Y-104029903D01*
X83826288Y-104043210D01*
X83818720Y-104055836D01*
X83809952Y-104067659D01*
X83800066Y-104078566D01*
X83789159Y-104088452D01*
X83777336Y-104097220D01*
X83764710Y-104104788D01*
X83751403Y-104111082D01*
X83737543Y-104116041D01*
X83723264Y-104119618D01*
X83708703Y-104121778D01*
X83694000Y-104122500D01*
X82044000Y-104122500D01*
X82029297Y-104121778D01*
X82014736Y-104119618D01*
X82000457Y-104116041D01*
X81986597Y-104111082D01*
X81973290Y-104104788D01*
X81960664Y-104097220D01*
X81948841Y-104088452D01*
X81937934Y-104078566D01*
X81928048Y-104067659D01*
X81919280Y-104055836D01*
X81911712Y-104043210D01*
X81905418Y-104029903D01*
X81900459Y-104016043D01*
X81896882Y-104001764D01*
X81894722Y-103987203D01*
X81894000Y-103972500D01*
X81894000Y-103672500D01*
X81894722Y-103657797D01*
X81896882Y-103643236D01*
X81900459Y-103628957D01*
X81905418Y-103615097D01*
X81911712Y-103601790D01*
X81919280Y-103589164D01*
X81928048Y-103577341D01*
X81937934Y-103566434D01*
X81948841Y-103556548D01*
X81960664Y-103547780D01*
X81973290Y-103540212D01*
X81986597Y-103533918D01*
X82000457Y-103528959D01*
X82014736Y-103525382D01*
X82029297Y-103523222D01*
X82044000Y-103522500D01*
X83694000Y-103522500D01*
X83708703Y-103523222D01*
X83708703Y-103523222D01*
G37*
D17*
X82869000Y-103822500D03*
D14*
G36*
X83708703Y-104793222D02*
G01*
X83723264Y-104795382D01*
X83737543Y-104798959D01*
X83751403Y-104803918D01*
X83764710Y-104810212D01*
X83777336Y-104817780D01*
X83789159Y-104826548D01*
X83800066Y-104836434D01*
X83809952Y-104847341D01*
X83818720Y-104859164D01*
X83826288Y-104871790D01*
X83832582Y-104885097D01*
X83837541Y-104898957D01*
X83841118Y-104913236D01*
X83843278Y-104927797D01*
X83844000Y-104942500D01*
X83844000Y-105242500D01*
X83843278Y-105257203D01*
X83841118Y-105271764D01*
X83837541Y-105286043D01*
X83832582Y-105299903D01*
X83826288Y-105313210D01*
X83818720Y-105325836D01*
X83809952Y-105337659D01*
X83800066Y-105348566D01*
X83789159Y-105358452D01*
X83777336Y-105367220D01*
X83764710Y-105374788D01*
X83751403Y-105381082D01*
X83737543Y-105386041D01*
X83723264Y-105389618D01*
X83708703Y-105391778D01*
X83694000Y-105392500D01*
X82044000Y-105392500D01*
X82029297Y-105391778D01*
X82014736Y-105389618D01*
X82000457Y-105386041D01*
X81986597Y-105381082D01*
X81973290Y-105374788D01*
X81960664Y-105367220D01*
X81948841Y-105358452D01*
X81937934Y-105348566D01*
X81928048Y-105337659D01*
X81919280Y-105325836D01*
X81911712Y-105313210D01*
X81905418Y-105299903D01*
X81900459Y-105286043D01*
X81896882Y-105271764D01*
X81894722Y-105257203D01*
X81894000Y-105242500D01*
X81894000Y-104942500D01*
X81894722Y-104927797D01*
X81896882Y-104913236D01*
X81900459Y-104898957D01*
X81905418Y-104885097D01*
X81911712Y-104871790D01*
X81919280Y-104859164D01*
X81928048Y-104847341D01*
X81937934Y-104836434D01*
X81948841Y-104826548D01*
X81960664Y-104817780D01*
X81973290Y-104810212D01*
X81986597Y-104803918D01*
X82000457Y-104798959D01*
X82014736Y-104795382D01*
X82029297Y-104793222D01*
X82044000Y-104792500D01*
X83694000Y-104792500D01*
X83708703Y-104793222D01*
X83708703Y-104793222D01*
G37*
D17*
X82869000Y-105092500D03*
D14*
G36*
X83708703Y-106063222D02*
G01*
X83723264Y-106065382D01*
X83737543Y-106068959D01*
X83751403Y-106073918D01*
X83764710Y-106080212D01*
X83777336Y-106087780D01*
X83789159Y-106096548D01*
X83800066Y-106106434D01*
X83809952Y-106117341D01*
X83818720Y-106129164D01*
X83826288Y-106141790D01*
X83832582Y-106155097D01*
X83837541Y-106168957D01*
X83841118Y-106183236D01*
X83843278Y-106197797D01*
X83844000Y-106212500D01*
X83844000Y-106512500D01*
X83843278Y-106527203D01*
X83841118Y-106541764D01*
X83837541Y-106556043D01*
X83832582Y-106569903D01*
X83826288Y-106583210D01*
X83818720Y-106595836D01*
X83809952Y-106607659D01*
X83800066Y-106618566D01*
X83789159Y-106628452D01*
X83777336Y-106637220D01*
X83764710Y-106644788D01*
X83751403Y-106651082D01*
X83737543Y-106656041D01*
X83723264Y-106659618D01*
X83708703Y-106661778D01*
X83694000Y-106662500D01*
X82044000Y-106662500D01*
X82029297Y-106661778D01*
X82014736Y-106659618D01*
X82000457Y-106656041D01*
X81986597Y-106651082D01*
X81973290Y-106644788D01*
X81960664Y-106637220D01*
X81948841Y-106628452D01*
X81937934Y-106618566D01*
X81928048Y-106607659D01*
X81919280Y-106595836D01*
X81911712Y-106583210D01*
X81905418Y-106569903D01*
X81900459Y-106556043D01*
X81896882Y-106541764D01*
X81894722Y-106527203D01*
X81894000Y-106512500D01*
X81894000Y-106212500D01*
X81894722Y-106197797D01*
X81896882Y-106183236D01*
X81900459Y-106168957D01*
X81905418Y-106155097D01*
X81911712Y-106141790D01*
X81919280Y-106129164D01*
X81928048Y-106117341D01*
X81937934Y-106106434D01*
X81948841Y-106096548D01*
X81960664Y-106087780D01*
X81973290Y-106080212D01*
X81986597Y-106073918D01*
X82000457Y-106068959D01*
X82014736Y-106065382D01*
X82029297Y-106063222D01*
X82044000Y-106062500D01*
X83694000Y-106062500D01*
X83708703Y-106063222D01*
X83708703Y-106063222D01*
G37*
D17*
X82869000Y-106362500D03*
D14*
G36*
X83708703Y-107333222D02*
G01*
X83723264Y-107335382D01*
X83737543Y-107338959D01*
X83751403Y-107343918D01*
X83764710Y-107350212D01*
X83777336Y-107357780D01*
X83789159Y-107366548D01*
X83800066Y-107376434D01*
X83809952Y-107387341D01*
X83818720Y-107399164D01*
X83826288Y-107411790D01*
X83832582Y-107425097D01*
X83837541Y-107438957D01*
X83841118Y-107453236D01*
X83843278Y-107467797D01*
X83844000Y-107482500D01*
X83844000Y-107782500D01*
X83843278Y-107797203D01*
X83841118Y-107811764D01*
X83837541Y-107826043D01*
X83832582Y-107839903D01*
X83826288Y-107853210D01*
X83818720Y-107865836D01*
X83809952Y-107877659D01*
X83800066Y-107888566D01*
X83789159Y-107898452D01*
X83777336Y-107907220D01*
X83764710Y-107914788D01*
X83751403Y-107921082D01*
X83737543Y-107926041D01*
X83723264Y-107929618D01*
X83708703Y-107931778D01*
X83694000Y-107932500D01*
X82044000Y-107932500D01*
X82029297Y-107931778D01*
X82014736Y-107929618D01*
X82000457Y-107926041D01*
X81986597Y-107921082D01*
X81973290Y-107914788D01*
X81960664Y-107907220D01*
X81948841Y-107898452D01*
X81937934Y-107888566D01*
X81928048Y-107877659D01*
X81919280Y-107865836D01*
X81911712Y-107853210D01*
X81905418Y-107839903D01*
X81900459Y-107826043D01*
X81896882Y-107811764D01*
X81894722Y-107797203D01*
X81894000Y-107782500D01*
X81894000Y-107482500D01*
X81894722Y-107467797D01*
X81896882Y-107453236D01*
X81900459Y-107438957D01*
X81905418Y-107425097D01*
X81911712Y-107411790D01*
X81919280Y-107399164D01*
X81928048Y-107387341D01*
X81937934Y-107376434D01*
X81948841Y-107366548D01*
X81960664Y-107357780D01*
X81973290Y-107350212D01*
X81986597Y-107343918D01*
X82000457Y-107338959D01*
X82014736Y-107335382D01*
X82029297Y-107333222D01*
X82044000Y-107332500D01*
X83694000Y-107332500D01*
X83708703Y-107333222D01*
X83708703Y-107333222D01*
G37*
D17*
X82869000Y-107632500D03*
D14*
G36*
X83708703Y-108603222D02*
G01*
X83723264Y-108605382D01*
X83737543Y-108608959D01*
X83751403Y-108613918D01*
X83764710Y-108620212D01*
X83777336Y-108627780D01*
X83789159Y-108636548D01*
X83800066Y-108646434D01*
X83809952Y-108657341D01*
X83818720Y-108669164D01*
X83826288Y-108681790D01*
X83832582Y-108695097D01*
X83837541Y-108708957D01*
X83841118Y-108723236D01*
X83843278Y-108737797D01*
X83844000Y-108752500D01*
X83844000Y-109052500D01*
X83843278Y-109067203D01*
X83841118Y-109081764D01*
X83837541Y-109096043D01*
X83832582Y-109109903D01*
X83826288Y-109123210D01*
X83818720Y-109135836D01*
X83809952Y-109147659D01*
X83800066Y-109158566D01*
X83789159Y-109168452D01*
X83777336Y-109177220D01*
X83764710Y-109184788D01*
X83751403Y-109191082D01*
X83737543Y-109196041D01*
X83723264Y-109199618D01*
X83708703Y-109201778D01*
X83694000Y-109202500D01*
X82044000Y-109202500D01*
X82029297Y-109201778D01*
X82014736Y-109199618D01*
X82000457Y-109196041D01*
X81986597Y-109191082D01*
X81973290Y-109184788D01*
X81960664Y-109177220D01*
X81948841Y-109168452D01*
X81937934Y-109158566D01*
X81928048Y-109147659D01*
X81919280Y-109135836D01*
X81911712Y-109123210D01*
X81905418Y-109109903D01*
X81900459Y-109096043D01*
X81896882Y-109081764D01*
X81894722Y-109067203D01*
X81894000Y-109052500D01*
X81894000Y-108752500D01*
X81894722Y-108737797D01*
X81896882Y-108723236D01*
X81900459Y-108708957D01*
X81905418Y-108695097D01*
X81911712Y-108681790D01*
X81919280Y-108669164D01*
X81928048Y-108657341D01*
X81937934Y-108646434D01*
X81948841Y-108636548D01*
X81960664Y-108627780D01*
X81973290Y-108620212D01*
X81986597Y-108613918D01*
X82000457Y-108608959D01*
X82014736Y-108605382D01*
X82029297Y-108603222D01*
X82044000Y-108602500D01*
X83694000Y-108602500D01*
X83708703Y-108603222D01*
X83708703Y-108603222D01*
G37*
D17*
X82869000Y-108902500D03*
D14*
G36*
X88658703Y-108603222D02*
G01*
X88673264Y-108605382D01*
X88687543Y-108608959D01*
X88701403Y-108613918D01*
X88714710Y-108620212D01*
X88727336Y-108627780D01*
X88739159Y-108636548D01*
X88750066Y-108646434D01*
X88759952Y-108657341D01*
X88768720Y-108669164D01*
X88776288Y-108681790D01*
X88782582Y-108695097D01*
X88787541Y-108708957D01*
X88791118Y-108723236D01*
X88793278Y-108737797D01*
X88794000Y-108752500D01*
X88794000Y-109052500D01*
X88793278Y-109067203D01*
X88791118Y-109081764D01*
X88787541Y-109096043D01*
X88782582Y-109109903D01*
X88776288Y-109123210D01*
X88768720Y-109135836D01*
X88759952Y-109147659D01*
X88750066Y-109158566D01*
X88739159Y-109168452D01*
X88727336Y-109177220D01*
X88714710Y-109184788D01*
X88701403Y-109191082D01*
X88687543Y-109196041D01*
X88673264Y-109199618D01*
X88658703Y-109201778D01*
X88644000Y-109202500D01*
X86994000Y-109202500D01*
X86979297Y-109201778D01*
X86964736Y-109199618D01*
X86950457Y-109196041D01*
X86936597Y-109191082D01*
X86923290Y-109184788D01*
X86910664Y-109177220D01*
X86898841Y-109168452D01*
X86887934Y-109158566D01*
X86878048Y-109147659D01*
X86869280Y-109135836D01*
X86861712Y-109123210D01*
X86855418Y-109109903D01*
X86850459Y-109096043D01*
X86846882Y-109081764D01*
X86844722Y-109067203D01*
X86844000Y-109052500D01*
X86844000Y-108752500D01*
X86844722Y-108737797D01*
X86846882Y-108723236D01*
X86850459Y-108708957D01*
X86855418Y-108695097D01*
X86861712Y-108681790D01*
X86869280Y-108669164D01*
X86878048Y-108657341D01*
X86887934Y-108646434D01*
X86898841Y-108636548D01*
X86910664Y-108627780D01*
X86923290Y-108620212D01*
X86936597Y-108613918D01*
X86950457Y-108608959D01*
X86964736Y-108605382D01*
X86979297Y-108603222D01*
X86994000Y-108602500D01*
X88644000Y-108602500D01*
X88658703Y-108603222D01*
X88658703Y-108603222D01*
G37*
D17*
X87819000Y-108902500D03*
D14*
G36*
X88658703Y-107333222D02*
G01*
X88673264Y-107335382D01*
X88687543Y-107338959D01*
X88701403Y-107343918D01*
X88714710Y-107350212D01*
X88727336Y-107357780D01*
X88739159Y-107366548D01*
X88750066Y-107376434D01*
X88759952Y-107387341D01*
X88768720Y-107399164D01*
X88776288Y-107411790D01*
X88782582Y-107425097D01*
X88787541Y-107438957D01*
X88791118Y-107453236D01*
X88793278Y-107467797D01*
X88794000Y-107482500D01*
X88794000Y-107782500D01*
X88793278Y-107797203D01*
X88791118Y-107811764D01*
X88787541Y-107826043D01*
X88782582Y-107839903D01*
X88776288Y-107853210D01*
X88768720Y-107865836D01*
X88759952Y-107877659D01*
X88750066Y-107888566D01*
X88739159Y-107898452D01*
X88727336Y-107907220D01*
X88714710Y-107914788D01*
X88701403Y-107921082D01*
X88687543Y-107926041D01*
X88673264Y-107929618D01*
X88658703Y-107931778D01*
X88644000Y-107932500D01*
X86994000Y-107932500D01*
X86979297Y-107931778D01*
X86964736Y-107929618D01*
X86950457Y-107926041D01*
X86936597Y-107921082D01*
X86923290Y-107914788D01*
X86910664Y-107907220D01*
X86898841Y-107898452D01*
X86887934Y-107888566D01*
X86878048Y-107877659D01*
X86869280Y-107865836D01*
X86861712Y-107853210D01*
X86855418Y-107839903D01*
X86850459Y-107826043D01*
X86846882Y-107811764D01*
X86844722Y-107797203D01*
X86844000Y-107782500D01*
X86844000Y-107482500D01*
X86844722Y-107467797D01*
X86846882Y-107453236D01*
X86850459Y-107438957D01*
X86855418Y-107425097D01*
X86861712Y-107411790D01*
X86869280Y-107399164D01*
X86878048Y-107387341D01*
X86887934Y-107376434D01*
X86898841Y-107366548D01*
X86910664Y-107357780D01*
X86923290Y-107350212D01*
X86936597Y-107343918D01*
X86950457Y-107338959D01*
X86964736Y-107335382D01*
X86979297Y-107333222D01*
X86994000Y-107332500D01*
X88644000Y-107332500D01*
X88658703Y-107333222D01*
X88658703Y-107333222D01*
G37*
D17*
X87819000Y-107632500D03*
D14*
G36*
X88658703Y-106063222D02*
G01*
X88673264Y-106065382D01*
X88687543Y-106068959D01*
X88701403Y-106073918D01*
X88714710Y-106080212D01*
X88727336Y-106087780D01*
X88739159Y-106096548D01*
X88750066Y-106106434D01*
X88759952Y-106117341D01*
X88768720Y-106129164D01*
X88776288Y-106141790D01*
X88782582Y-106155097D01*
X88787541Y-106168957D01*
X88791118Y-106183236D01*
X88793278Y-106197797D01*
X88794000Y-106212500D01*
X88794000Y-106512500D01*
X88793278Y-106527203D01*
X88791118Y-106541764D01*
X88787541Y-106556043D01*
X88782582Y-106569903D01*
X88776288Y-106583210D01*
X88768720Y-106595836D01*
X88759952Y-106607659D01*
X88750066Y-106618566D01*
X88739159Y-106628452D01*
X88727336Y-106637220D01*
X88714710Y-106644788D01*
X88701403Y-106651082D01*
X88687543Y-106656041D01*
X88673264Y-106659618D01*
X88658703Y-106661778D01*
X88644000Y-106662500D01*
X86994000Y-106662500D01*
X86979297Y-106661778D01*
X86964736Y-106659618D01*
X86950457Y-106656041D01*
X86936597Y-106651082D01*
X86923290Y-106644788D01*
X86910664Y-106637220D01*
X86898841Y-106628452D01*
X86887934Y-106618566D01*
X86878048Y-106607659D01*
X86869280Y-106595836D01*
X86861712Y-106583210D01*
X86855418Y-106569903D01*
X86850459Y-106556043D01*
X86846882Y-106541764D01*
X86844722Y-106527203D01*
X86844000Y-106512500D01*
X86844000Y-106212500D01*
X86844722Y-106197797D01*
X86846882Y-106183236D01*
X86850459Y-106168957D01*
X86855418Y-106155097D01*
X86861712Y-106141790D01*
X86869280Y-106129164D01*
X86878048Y-106117341D01*
X86887934Y-106106434D01*
X86898841Y-106096548D01*
X86910664Y-106087780D01*
X86923290Y-106080212D01*
X86936597Y-106073918D01*
X86950457Y-106068959D01*
X86964736Y-106065382D01*
X86979297Y-106063222D01*
X86994000Y-106062500D01*
X88644000Y-106062500D01*
X88658703Y-106063222D01*
X88658703Y-106063222D01*
G37*
D17*
X87819000Y-106362500D03*
D14*
G36*
X88658703Y-104793222D02*
G01*
X88673264Y-104795382D01*
X88687543Y-104798959D01*
X88701403Y-104803918D01*
X88714710Y-104810212D01*
X88727336Y-104817780D01*
X88739159Y-104826548D01*
X88750066Y-104836434D01*
X88759952Y-104847341D01*
X88768720Y-104859164D01*
X88776288Y-104871790D01*
X88782582Y-104885097D01*
X88787541Y-104898957D01*
X88791118Y-104913236D01*
X88793278Y-104927797D01*
X88794000Y-104942500D01*
X88794000Y-105242500D01*
X88793278Y-105257203D01*
X88791118Y-105271764D01*
X88787541Y-105286043D01*
X88782582Y-105299903D01*
X88776288Y-105313210D01*
X88768720Y-105325836D01*
X88759952Y-105337659D01*
X88750066Y-105348566D01*
X88739159Y-105358452D01*
X88727336Y-105367220D01*
X88714710Y-105374788D01*
X88701403Y-105381082D01*
X88687543Y-105386041D01*
X88673264Y-105389618D01*
X88658703Y-105391778D01*
X88644000Y-105392500D01*
X86994000Y-105392500D01*
X86979297Y-105391778D01*
X86964736Y-105389618D01*
X86950457Y-105386041D01*
X86936597Y-105381082D01*
X86923290Y-105374788D01*
X86910664Y-105367220D01*
X86898841Y-105358452D01*
X86887934Y-105348566D01*
X86878048Y-105337659D01*
X86869280Y-105325836D01*
X86861712Y-105313210D01*
X86855418Y-105299903D01*
X86850459Y-105286043D01*
X86846882Y-105271764D01*
X86844722Y-105257203D01*
X86844000Y-105242500D01*
X86844000Y-104942500D01*
X86844722Y-104927797D01*
X86846882Y-104913236D01*
X86850459Y-104898957D01*
X86855418Y-104885097D01*
X86861712Y-104871790D01*
X86869280Y-104859164D01*
X86878048Y-104847341D01*
X86887934Y-104836434D01*
X86898841Y-104826548D01*
X86910664Y-104817780D01*
X86923290Y-104810212D01*
X86936597Y-104803918D01*
X86950457Y-104798959D01*
X86964736Y-104795382D01*
X86979297Y-104793222D01*
X86994000Y-104792500D01*
X88644000Y-104792500D01*
X88658703Y-104793222D01*
X88658703Y-104793222D01*
G37*
D17*
X87819000Y-105092500D03*
D14*
G36*
X88658703Y-103523222D02*
G01*
X88673264Y-103525382D01*
X88687543Y-103528959D01*
X88701403Y-103533918D01*
X88714710Y-103540212D01*
X88727336Y-103547780D01*
X88739159Y-103556548D01*
X88750066Y-103566434D01*
X88759952Y-103577341D01*
X88768720Y-103589164D01*
X88776288Y-103601790D01*
X88782582Y-103615097D01*
X88787541Y-103628957D01*
X88791118Y-103643236D01*
X88793278Y-103657797D01*
X88794000Y-103672500D01*
X88794000Y-103972500D01*
X88793278Y-103987203D01*
X88791118Y-104001764D01*
X88787541Y-104016043D01*
X88782582Y-104029903D01*
X88776288Y-104043210D01*
X88768720Y-104055836D01*
X88759952Y-104067659D01*
X88750066Y-104078566D01*
X88739159Y-104088452D01*
X88727336Y-104097220D01*
X88714710Y-104104788D01*
X88701403Y-104111082D01*
X88687543Y-104116041D01*
X88673264Y-104119618D01*
X88658703Y-104121778D01*
X88644000Y-104122500D01*
X86994000Y-104122500D01*
X86979297Y-104121778D01*
X86964736Y-104119618D01*
X86950457Y-104116041D01*
X86936597Y-104111082D01*
X86923290Y-104104788D01*
X86910664Y-104097220D01*
X86898841Y-104088452D01*
X86887934Y-104078566D01*
X86878048Y-104067659D01*
X86869280Y-104055836D01*
X86861712Y-104043210D01*
X86855418Y-104029903D01*
X86850459Y-104016043D01*
X86846882Y-104001764D01*
X86844722Y-103987203D01*
X86844000Y-103972500D01*
X86844000Y-103672500D01*
X86844722Y-103657797D01*
X86846882Y-103643236D01*
X86850459Y-103628957D01*
X86855418Y-103615097D01*
X86861712Y-103601790D01*
X86869280Y-103589164D01*
X86878048Y-103577341D01*
X86887934Y-103566434D01*
X86898841Y-103556548D01*
X86910664Y-103547780D01*
X86923290Y-103540212D01*
X86936597Y-103533918D01*
X86950457Y-103528959D01*
X86964736Y-103525382D01*
X86979297Y-103523222D01*
X86994000Y-103522500D01*
X88644000Y-103522500D01*
X88658703Y-103523222D01*
X88658703Y-103523222D01*
G37*
D17*
X87819000Y-103822500D03*
D14*
G36*
X88658703Y-102253222D02*
G01*
X88673264Y-102255382D01*
X88687543Y-102258959D01*
X88701403Y-102263918D01*
X88714710Y-102270212D01*
X88727336Y-102277780D01*
X88739159Y-102286548D01*
X88750066Y-102296434D01*
X88759952Y-102307341D01*
X88768720Y-102319164D01*
X88776288Y-102331790D01*
X88782582Y-102345097D01*
X88787541Y-102358957D01*
X88791118Y-102373236D01*
X88793278Y-102387797D01*
X88794000Y-102402500D01*
X88794000Y-102702500D01*
X88793278Y-102717203D01*
X88791118Y-102731764D01*
X88787541Y-102746043D01*
X88782582Y-102759903D01*
X88776288Y-102773210D01*
X88768720Y-102785836D01*
X88759952Y-102797659D01*
X88750066Y-102808566D01*
X88739159Y-102818452D01*
X88727336Y-102827220D01*
X88714710Y-102834788D01*
X88701403Y-102841082D01*
X88687543Y-102846041D01*
X88673264Y-102849618D01*
X88658703Y-102851778D01*
X88644000Y-102852500D01*
X86994000Y-102852500D01*
X86979297Y-102851778D01*
X86964736Y-102849618D01*
X86950457Y-102846041D01*
X86936597Y-102841082D01*
X86923290Y-102834788D01*
X86910664Y-102827220D01*
X86898841Y-102818452D01*
X86887934Y-102808566D01*
X86878048Y-102797659D01*
X86869280Y-102785836D01*
X86861712Y-102773210D01*
X86855418Y-102759903D01*
X86850459Y-102746043D01*
X86846882Y-102731764D01*
X86844722Y-102717203D01*
X86844000Y-102702500D01*
X86844000Y-102402500D01*
X86844722Y-102387797D01*
X86846882Y-102373236D01*
X86850459Y-102358957D01*
X86855418Y-102345097D01*
X86861712Y-102331790D01*
X86869280Y-102319164D01*
X86878048Y-102307341D01*
X86887934Y-102296434D01*
X86898841Y-102286548D01*
X86910664Y-102277780D01*
X86923290Y-102270212D01*
X86936597Y-102263918D01*
X86950457Y-102258959D01*
X86964736Y-102255382D01*
X86979297Y-102253222D01*
X86994000Y-102252500D01*
X88644000Y-102252500D01*
X88658703Y-102253222D01*
X88658703Y-102253222D01*
G37*
D17*
X87819000Y-102552500D03*
D14*
G36*
X88658703Y-100983222D02*
G01*
X88673264Y-100985382D01*
X88687543Y-100988959D01*
X88701403Y-100993918D01*
X88714710Y-101000212D01*
X88727336Y-101007780D01*
X88739159Y-101016548D01*
X88750066Y-101026434D01*
X88759952Y-101037341D01*
X88768720Y-101049164D01*
X88776288Y-101061790D01*
X88782582Y-101075097D01*
X88787541Y-101088957D01*
X88791118Y-101103236D01*
X88793278Y-101117797D01*
X88794000Y-101132500D01*
X88794000Y-101432500D01*
X88793278Y-101447203D01*
X88791118Y-101461764D01*
X88787541Y-101476043D01*
X88782582Y-101489903D01*
X88776288Y-101503210D01*
X88768720Y-101515836D01*
X88759952Y-101527659D01*
X88750066Y-101538566D01*
X88739159Y-101548452D01*
X88727336Y-101557220D01*
X88714710Y-101564788D01*
X88701403Y-101571082D01*
X88687543Y-101576041D01*
X88673264Y-101579618D01*
X88658703Y-101581778D01*
X88644000Y-101582500D01*
X86994000Y-101582500D01*
X86979297Y-101581778D01*
X86964736Y-101579618D01*
X86950457Y-101576041D01*
X86936597Y-101571082D01*
X86923290Y-101564788D01*
X86910664Y-101557220D01*
X86898841Y-101548452D01*
X86887934Y-101538566D01*
X86878048Y-101527659D01*
X86869280Y-101515836D01*
X86861712Y-101503210D01*
X86855418Y-101489903D01*
X86850459Y-101476043D01*
X86846882Y-101461764D01*
X86844722Y-101447203D01*
X86844000Y-101432500D01*
X86844000Y-101132500D01*
X86844722Y-101117797D01*
X86846882Y-101103236D01*
X86850459Y-101088957D01*
X86855418Y-101075097D01*
X86861712Y-101061790D01*
X86869280Y-101049164D01*
X86878048Y-101037341D01*
X86887934Y-101026434D01*
X86898841Y-101016548D01*
X86910664Y-101007780D01*
X86923290Y-101000212D01*
X86936597Y-100993918D01*
X86950457Y-100988959D01*
X86964736Y-100985382D01*
X86979297Y-100983222D01*
X86994000Y-100982500D01*
X88644000Y-100982500D01*
X88658703Y-100983222D01*
X88658703Y-100983222D01*
G37*
D17*
X87819000Y-101282500D03*
D14*
G36*
X88658703Y-99713222D02*
G01*
X88673264Y-99715382D01*
X88687543Y-99718959D01*
X88701403Y-99723918D01*
X88714710Y-99730212D01*
X88727336Y-99737780D01*
X88739159Y-99746548D01*
X88750066Y-99756434D01*
X88759952Y-99767341D01*
X88768720Y-99779164D01*
X88776288Y-99791790D01*
X88782582Y-99805097D01*
X88787541Y-99818957D01*
X88791118Y-99833236D01*
X88793278Y-99847797D01*
X88794000Y-99862500D01*
X88794000Y-100162500D01*
X88793278Y-100177203D01*
X88791118Y-100191764D01*
X88787541Y-100206043D01*
X88782582Y-100219903D01*
X88776288Y-100233210D01*
X88768720Y-100245836D01*
X88759952Y-100257659D01*
X88750066Y-100268566D01*
X88739159Y-100278452D01*
X88727336Y-100287220D01*
X88714710Y-100294788D01*
X88701403Y-100301082D01*
X88687543Y-100306041D01*
X88673264Y-100309618D01*
X88658703Y-100311778D01*
X88644000Y-100312500D01*
X86994000Y-100312500D01*
X86979297Y-100311778D01*
X86964736Y-100309618D01*
X86950457Y-100306041D01*
X86936597Y-100301082D01*
X86923290Y-100294788D01*
X86910664Y-100287220D01*
X86898841Y-100278452D01*
X86887934Y-100268566D01*
X86878048Y-100257659D01*
X86869280Y-100245836D01*
X86861712Y-100233210D01*
X86855418Y-100219903D01*
X86850459Y-100206043D01*
X86846882Y-100191764D01*
X86844722Y-100177203D01*
X86844000Y-100162500D01*
X86844000Y-99862500D01*
X86844722Y-99847797D01*
X86846882Y-99833236D01*
X86850459Y-99818957D01*
X86855418Y-99805097D01*
X86861712Y-99791790D01*
X86869280Y-99779164D01*
X86878048Y-99767341D01*
X86887934Y-99756434D01*
X86898841Y-99746548D01*
X86910664Y-99737780D01*
X86923290Y-99730212D01*
X86936597Y-99723918D01*
X86950457Y-99718959D01*
X86964736Y-99715382D01*
X86979297Y-99713222D01*
X86994000Y-99712500D01*
X88644000Y-99712500D01*
X88658703Y-99713222D01*
X88658703Y-99713222D01*
G37*
D17*
X87819000Y-100012500D03*
M02*
